<?xml version="1.0" encoding="utf-8"?>
<!-- Generator: Adobe Illustrator 23.1.1, SVG Export Plug-In . SVG Version: 6.00 Build 0)  -->
<svg version="1.1" id="Layer_1" xmlns="http://www.w3.org/2000/svg" xmlns:xlink="http://www.w3.org/1999/xlink" x="0px" y="0px"
	 viewBox="0 0 869 549.2" style="enable-background:new 0 0 869 549.2;" xml:space="preserve">
<style type="text/css">
	.st0{fill:none;stroke:#070C0D;}
	.st1{fill:none;stroke:#070C0D;stroke-opacity:0;}
	.st2{fill:#070C0D;}
	.st3{font-family:'Helvetica';}
	.st4{font-size:10px;}
	.st5{font-family:'ArialMT';}
	.st6{font-size:12px;}
</style>
<g transform="translate(50,0)">
	<g id="x-axis_1_" transform="translate(0,502.5)">
		<path class="st0" d="M-1082.3,20.3v-6h750v6"/>
		<g transform="translate(0, 0)">
			<line class="st0" x1="-1082.3" y1="14.3" x2="-1082.3" y2="20.3"/>
			<text transform="matrix(1 0 0 1 -1093.4315 30.3954)" class="st2 st3 st4">1860</text>
		</g>
		<g transform="translate(94.34095764160156, 0)">
			<line class="st0" x1="-1082.3" y1="14.3" x2="-1082.3" y2="20.3"/>
			<text transform="matrix(1 0 0 1 -1093.4314 30.3954)" class="st2 st3 st4">1880</text>
		</g>
		<g transform="translate(188.68191528320312, 0)">
			<line class="st0" x1="-1082.3" y1="14.3" x2="-1082.3" y2="20.3"/>
			<text transform="matrix(1 0 0 1 -1093.4314 30.3954)" class="st2 st3 st4">1900</text>
		</g>
		<g transform="translate(283.00994873046875, 0)">
			<line class="st0" x1="-1082.3" y1="14.3" x2="-1082.3" y2="20.3"/>
			<text transform="matrix(1 0 0 1 -1093.4315 30.3954)" class="st2 st3 st4">1920</text>
		</g>
		<g transform="translate(377.35052490234375, 0)">
			<line class="st0" x1="-1082.3" y1="14.3" x2="-1082.3" y2="20.3"/>
			<text transform="matrix(1 0 0 1 -1093.4315 30.3954)" class="st2 st3 st4">1940</text>
		</g>
		<g transform="translate(471.6914978027344, 0)">
			<line class="st0" x1="-1082.3" y1="14.3" x2="-1082.3" y2="20.3"/>
			<text transform="matrix(1 0 0 1 -1093.4315 30.3954)" class="st2 st3 st4">1960</text>
		</g>
		<g transform="translate(566.0319213867188, 0)">
			<line class="st0" x1="-1082.3" y1="14.3" x2="-1082.3" y2="20.3"/>
			<text transform="matrix(1 0 0 1 -1093.4315 30.3954)" class="st2 st3 st4">1980</text>
		</g>
		<g transform="translate(660.3728637695312, 0)">
			<line class="st0" x1="-1082.3" y1="14.3" x2="-1082.3" y2="20.3"/>
			<text transform="matrix(1 0 0 1 -1093.4315 30.3954)" class="st2 st3 st4">2000</text>
		</g>
	</g>
	<g id="y-axis_1_">
		<path class="st0" d="M-1088.3,516.8h6V14.3h-6"/>
		<g transform="translate(0,502.5)">
			<line class="st0" x1="-1082.3" y1="14.3" x2="-1088.3" y2="14.3"/>
			<text transform="matrix(1 0 0 1 -1096.87 17.4954)" class="st2 st3 st4">0</text>
		</g>
		<g transform="translate(0,432.70833333333337)">
			<line class="st0" x1="-1082.3" y1="14.3" x2="-1088.3" y2="14.3"/>
			<text transform="matrix(1 0 0 1 -1096.87 17.4954)" class="st2 st3 st4">5</text>
		</g>
		<g transform="translate(0,362.9166666666667)">
			<line class="st0" x1="-1082.3" y1="14.3" x2="-1088.3" y2="14.3"/>
			<text transform="matrix(1 0 0 1 -1102.4315 17.4954)" class="st2 st3 st4">10</text>
		</g>
		<g transform="translate(0,293.12499999999994)">
			<line class="st0" x1="-1082.3" y1="14.3" x2="-1088.3" y2="14.3"/>
			<text transform="matrix(1 0 0 1 -1102.4315 17.4954)" class="st2 st3 st4">15</text>
		</g>
		<g transform="translate(0,223.33333333333331)">
			<line class="st0" x1="-1082.3" y1="14.3" x2="-1088.3" y2="14.3"/>
			<text transform="matrix(1 0 0 1 -1102.4315 17.4954)" class="st2 st3 st4">20</text>
		</g>
		<g transform="translate(0,153.54166666666669)">
			<line class="st0" x1="-1082.3" y1="14.3" x2="-1088.3" y2="14.3"/>
			<text transform="matrix(1 0 0 1 -1102.4315 17.4954)" class="st2 st3 st4">25</text>
		</g>
		<g transform="translate(0,83.74999999999999)">
			<line class="st0" x1="-1082.3" y1="14.3" x2="-1088.3" y2="14.3"/>
			<text transform="matrix(1 0 0 1 -1102.4315 17.4954)" class="st2 st3 st4">30</text>
		</g>
		<g transform="translate(0,13.95833333333334)">
			<line class="st0" x1="-1082.3" y1="14.3" x2="-1088.3" y2="14.3"/>
			<text transform="matrix(1 0 0 1 -1102.4315 17.4954)" class="st2 st3 st4">35</text>
		</g>
	</g>
	<text transform="matrix(6.123234e-17 -1 1 6.123234e-17 -1120.3085 289.5605)" class="st5 st6">Gigatons</text>
	<path class="st1" d="M-1082.3,516.8h0.8c0.8,0,2.4,0,3.9,0c1.6,0,3.1,0,4.7,0s3.1,0,4.7,0s3.1,0,4.7,0c1.6,0,3.1,0,4.7,0
		c1.6,0,3.1,0,4.7,0c1.6,0,3.1,0,4.7,0s3.1,0,4.7-2.3c1.6-2.3,3.1-7,4.7-9.3c1.6-2.3,3.1-2.3,4.7-2.3s3.1,0,4.7,0s3.1,0,4.7,0
		c1.6,0,3.1,0,4.7,0s3.1,0,4.7,0s3.1,0,4.7,0s3.1,0,4.7,0s3.1,0,4.7,0s3.1,0,4.7,0c1.6,0,3.1,0,4.7,0c1.6,0,3.1,0,4.7,0s3.1,0,4.7,0
		s3.1,0,4.7,0s3.1,0,4.7,0s3.1,0,3.9,0h0.8"/>
	<g transform="translate(0,502.5)">
	</g>
	<text transform="matrix(6.123234e-17 -1 1 6.123234e-17 -1120.3085 289.5605)" class="st5 st6">Gigatons</text>
	<path class="st1" d="M-1082.3,516.8h0.8c0.8,0,2.4,0,3.9,0c1.6,0,3.1,0,4.7,0s3.1,0,4.7,0s3.1,0,4.7,0c1.6,0,3.1,0,4.7,0
		c1.6,0,3.1,0,4.7,0c1.6,0,3.1,0,4.7,0s3.1,0,4.7-2.3c1.6-2.3,3.1-7,4.7-9.3c1.6-2.3,3.1-2.3,4.7-2.3s3.1,0,4.7,0s3.1,0,4.7,0
		c1.6,0,3.1,0,4.7,0s3.1,0,4.7,0s3.1,0,4.7,0s3.1,0,4.7,0s3.1,0,4.7,0s3.1,0,4.7,0c1.6,0,3.1,0,4.7,0c1.6,0,3.1,0,4.7,0s3.1,0,4.7,0
		s3.1,0,4.7,0s3.1,0,4.7,0s3.1,0,4.7,0s3.1,0,4.7,0s3.1,0,4.7,0c1.6,0,3.1,0,4.7,0c1.6,0,3.1,0,4.7,0s3.1,0,4.7,0s3.1,0,4.7,0
		s3.1,0,4.7,0s3.1,0,4.7,0s3.1,0,4.7,0s3.1,0,4.7,0s3.1,0,4.7-2.3c1.6-2.3,3.1-7,4.7-9.3s3.1-2.3,4.7-2.3s3.1,0,4.7,0
		c1.6,0,3.1,0,4.7,0s3.1,0,4.7,0s3.1,0,4.7,0c1.6,0,3.1,0,4.7,0c1.6,0,3.1,0,4.7,0c1.6,0,3.1,0,4.7,0s3.1,0,4.7-2.3
		c1.6-2.3,3.1-7,4.7-9.3s3.1-2.3,4.7-2.3s3.1,0,4.7,0s3.1,0,4.7,0s3.1,0,4.7,0s3.1,0,4.7,0s3.1,0,4.7,0s3.1,0,4.7,0s3.1,0,4.7,0
		c1.6,0,3.1,0,4.7,0c1.6,0,3.1,0,4.7-2.3c1.6-2.3,3.1-7,4.7-7c1.6,0,3.1,4.7,4.7,7c1.6,2.3,3.1,2.3,4.7,0c1.6-2.3,3.1-7,4.7-7
		s3.1,4.7,4.7,7s3.1,2.3,4.7,0s3.1-7,4.7-9.3c1.6-2.3,3.1-2.3,4.7-2.3s3.1,0,4.7,0s3.1,0,4.7,0c1.6,0,3.1,0,4.7,0c1.6,0,3.1,0,4.7,0
		s3.1,0,4.7,0s3.1,0,4.7,0c1.6,0,3.1,0,4.7,2.3c1.6,2.3,3.1,7,4.7,9.3s3.1,2.3,4.7,0s3.1-7,4.7-9.3c1.6-2.3,3.1-2.3,4.7-2.3
		s3.1,0,4.7,0s3.1,0,4.7,0s3.1,0,4.7,0c1.6,0,3.1,0,4.7-2.3c1.6-2.3,3.1-7,4.7-9.3s3.1-2.3,4.7-2.3s3.1,0,4.7,0s3.1,0,4.7,0
		s3.1,0,4.7,2.3s3.1,7,4.7,7s3.1-4.7,4.7-7c1.6-2.3,3.1-2.3,4.7-2.3c1.6,0,3.1,0,4.7,0s3.1,0,4.7-2.3c1.6-2.3,3.1-7,4.7-9.3
		c1.6-2.3,3.1-2.3,4.7-2.3s3.1,0,4.7-2.3s3.1-7,4.7-9.3c1.6-2.3,3.1-2.3,4.7-2.3s3.1,0,4.7-2.3c1.6-2.3,3.1-7,4.7-9.3
		s3.1-2.3,4.7-2.3s3.1,0,4.7-2.3c1.6-2.3,3.1-7,4.7-9.3s3.1-2.3,4.7-2.3s3.1,0,4.7-2.3s3.1-7,4.7-9.3c1.6-2.3,3.1-2.3,4.7-4.7
		c1.6-2.3,3.1-7,4.7-9.3s3.1-2.3,4.7-4.7c1.6-2.3,3.1-7,4.7-9.3c1.6-2.3,3.1-2.3,4.7-4.7c1.6-2.3,3.1-7,4.7-11.6
		c1.6-4.7,3.1-9.3,3.9-11.6l0.8-2.3"/>
	<g transform="translate(0,502.5)">
	</g>
	<text transform="matrix(6.123234e-17 -1 1 6.123234e-17 -1120.3085 289.5605)" class="st5 st6">Gigatons</text>
	<g transform="translate(0,502.5)">
	</g>
	<text transform="matrix(6.123234e-17 -1 1 6.123234e-17 -1120.3085 289.5605)" class="st5 st6">Gigatons</text>
	<path class="st2" d="M-1082.3,14.3l0.8,502.5c0.8,0,2.4,0,3.9,0c1.6,0,3.1,0,4.7,0s3.1,0,4.7,0s3.1,0,4.7,0c1.6,0,3.1,0,4.7,0
		c1.6,0,3.1,0,4.7,0c1.6,0,3.1,0,4.7,0s3.1,0,4.7-2.3c1.6-2.3,3.1-7,4.7-9.3c1.6-2.3,3.1-2.3,4.7-2.3s3.1,0,4.7,0s3.1,0,4.7,0
		c1.6,0,3.1,0,4.7,0s3.1,0,4.7,0s3.1,0,4.7,0s3.1,0,4.7,0s3.1,0,4.7,0s3.1,0,4.7,0c1.6,0,3.1,0,4.7,0c1.6,0,3.1,0,4.7,0s3.1,0,4.7,0
		s3.1,0,4.7,0s3.1,0,4.7,0s3.1,0,4.7,0s3.1,0,4.7,0s3.1,0,4.7,0c1.6,0,3.1,0,4.7,0c1.6,0,3.1,0,4.7,0s3.1,0,4.7,0s3.1,0,4.7,0
		s3.1,0,4.7,0s3.1,0,4.7,0s3.1,0,4.7,0s3.1,0,4.7,0s3.1,0,4.7-2.3c1.6-2.3,3.1-7,4.7-9.3s3.1-2.3,4.7-2.3s3.1,0,4.7,0
		c1.6,0,3.1,0,4.7,0s3.1,0,4.7,0s3.1,0,4.7,0c1.6,0,3.1,0,4.7,0c1.6,0,3.1,0,4.7,0c1.6,0,3.1,0,4.7,0s3.1,0,4.7-2.3
		c1.6-2.3,3.1-7,4.7-9.3s3.1-2.3,4.7-2.3s3.1,0,4.7,0s3.1,0,4.7,0s3.1,0,4.7,0s3.1,0,4.7,0s3.1,0,4.7,0s3.1,0,4.7,0s3.1,0,4.7,0
		c1.6,0,3.1,0,4.7,0c1.6,0,3.1,0,4.7-2.3c1.6-2.3,3.1-7,4.7-7c1.6,0,3.1,4.7,4.7,7c1.6,2.3,3.1,2.3,4.7,0c1.6-2.3,3.1-7,4.7-7
		s3.1,4.7,4.7,7s3.1,2.3,4.7,0s3.1-7,4.7-9.3c1.6-2.3,3.1-2.3,4.7-2.3s3.1,0,4.7,0s3.1,0,4.7,0c1.6,0,3.1,0,4.7,0c1.6,0,3.1,0,4.7,0
		s3.1,0,4.7,0s3.1,0,4.7,0c1.6,0,3.1,0,4.7,2.3c1.6,2.3,3.1,7,4.7,9.3s3.1,2.3,4.7,0s3.1-7,4.7-9.3c1.6-2.3,3.1-2.3,4.7-2.3
		s3.1,0,4.7,0s3.1,0,4.7,0s3.1,0,4.7,0c1.6,0,3.1,0,4.7-2.3c1.6-2.3,3.1-7,4.7-9.3s3.1-2.3,4.7-2.3s3.1,0,4.7,0s3.1,0,4.7,0
		s3.1,0,4.7,2.3s3.1,7,4.7,7s3.1-4.7,4.7-7c1.6-2.3,3.1-2.3,4.7-2.3c1.6,0,3.1,0,4.7,0s3.1,0,4.7-2.3c1.6-2.3,3.1-7,4.7-9.3
		c1.6-2.3,3.1-2.3,4.7-2.3s3.1,0,4.7-2.3s3.1-7,4.7-9.3c1.6-2.3,3.1-2.3,4.7-2.3s3.1,0,4.7-2.3c1.6-2.3,3.1-7,4.7-9.3
		s3.1-2.3,4.7-2.3s3.1,0,4.7-2.3c1.6-2.3,3.1-7,4.7-9.3s3.1-2.3,4.7-2.3s3.1,0,4.7-2.3s3.1-7,4.7-9.3c1.6-2.3,3.1-2.3,4.7-4.7
		c1.6-2.3,3.1-7,4.7-9.3s3.1-2.3,4.7-4.7c1.6-2.3,3.1-7,4.7-9.3c1.6-2.3,3.1-2.3,4.7-4.7c1.6-2.3,3.1-7,4.7-11.6
		c1.6-4.7,3.1-9.3,4.7-14c1.6-4.7,3.1-9.3,4.7-11.6c1.6-2.3,3.1-2.3,4.7-4.7c1.6-2.3,3.1-7,4.7-11.6c1.6-4.7,3.1-9.3,4.7-11.6
		s3.1-2.3,4.7-2.3s3.1,0,4.7-2.3c1.6-2.3,3.1-7,4.7-9.3s3.1-2.3,4.7-4.7s3.1-7,4.7-9.3c1.6-2.3,3.1-2.3,4.7-2.3c1.6,0,3.1,0,4.7,0
		s3.1,0,4.7,0c1.6,0,3.1,0,4.7,0c1.6,0,3.1,0,4.7,0s3.1,0,4.7-2.3c1.6-2.3,3.1-7,4.7-9.3c1.6-2.3,3.1-2.3,4.7-4.7s3.1-7,4.7-11.6
		c1.6-4.7,3.1-9.3,4.7-11.6s3.1-2.3,4.7-4.7c1.6-2.3,3.1-7,4.7-9.3c1.6-2.3,3.1-2.3,4.7,0c1.6,2.3,3.1,7,4.7,7s3.1-4.7,4.7-7
		c1.6-2.3,3.1-2.3,4.7-2.3s3.1,0,4.7-2.3c1.6-2.3,3.1-7,4.7-9.3s3.1-2.3,4.7-2.3s3.1,0,4.7,0c1.6,0,3.1,0,4.7-2.3
		c1.6-2.3,3.1-7,4.7-9.3s3.1-2.3,4.7-4.7c1.6-2.3,3.1-7,4.7-11.6c1.6-4.7,3.1-9.3,4.7-14s3.1-9.3,4.7-14s3.1-9.3,4.7-14
		s3.1-9.3,4.7-14c1.6-4.7,3.1-9.3,4.7-14c1.6-4.7,3.1-9.3,4.7-9.3s3.1,4.7,4.7,2.3s3.1-11.6,4.7-18.6s3.1-11.6,4.7-16.3
		s3.1-9.3,4.7-11.6s3.1-2.3,4.7-2.3s3.1,0,4.7,0c1.6,0,3.1,0,4.7,0c1.6,0,3.1,0,4.7-2.3s3.1-7,4.7-9.3s3.1-2.3,4.7-2.3s3.1,0,3.9,0
		h0.8"/>
	<g transform="translate(0,502.5)">
	</g>
	<text transform="matrix(6.123234e-17 -1 1 6.123234e-17 -1120.3085 289.5605)" class="st5 st6">Gigatons</text>
</g>
<g transform="translate(50,0)">
	<g id="x-axis" transform="translate(0,502.5)">
		<path class="st0" d="M-2135.9,20.3v-6h750v6"/>
		<g transform="translate(0, 0)">
			<line class="st0" x1="-2135.9" y1="14.3" x2="-2135.9" y2="20.3"/>
			<text transform="matrix(1 0 0 1 -2147.0564 30.3954)" class="st2 st3 st4">1860</text>
		</g>
		<g transform="translate(94.34095764160156, 0)">
			<line class="st0" x1="-2135.9" y1="14.3" x2="-2135.9" y2="20.3"/>
			<text transform="matrix(1 0 0 1 -2147.0564 30.3954)" class="st2 st3 st4">1880</text>
		</g>
		<g transform="translate(188.68191528320312, 0)">
			<line class="st0" x1="-2135.9" y1="14.3" x2="-2135.9" y2="20.3"/>
			<text transform="matrix(1 0 0 1 -2147.0564 30.3954)" class="st2 st3 st4">1900</text>
		</g>
		<g transform="translate(283.00994873046875, 0)">
			<line class="st0" x1="-2135.9" y1="14.3" x2="-2135.9" y2="20.3"/>
			<text transform="matrix(1 0 0 1 -2147.0564 30.3954)" class="st2 st3 st4">1920</text>
		</g>
		<g transform="translate(377.35052490234375, 0)">
			<line class="st0" x1="-2135.9" y1="14.3" x2="-2135.9" y2="20.3"/>
			<text transform="matrix(1 0 0 1 -2147.0564 30.3954)" class="st2 st3 st4">1940</text>
		</g>
		<g transform="translate(471.6914978027344, 0)">
			<line class="st0" x1="-2135.9" y1="14.3" x2="-2135.9" y2="20.3"/>
			<text transform="matrix(1 0 0 1 -2147.0564 30.3954)" class="st2 st3 st4">1960</text>
		</g>
		<g transform="translate(566.0319213867188, 0)">
			<line class="st0" x1="-2135.9" y1="14.3" x2="-2135.9" y2="20.3"/>
			<text transform="matrix(1 0 0 1 -2147.0564 30.3954)" class="st2 st3 st4">1980</text>
		</g>
		<g transform="translate(660.3728637695312, 0)">
			<line class="st0" x1="-2135.9" y1="14.3" x2="-2135.9" y2="20.3"/>
			<text transform="matrix(1 0 0 1 -2147.0564 30.3954)" class="st2 st3 st4">2000</text>
		</g>
	</g>
	<g id="y-axis">
		<path class="st0" d="M-2141.9,516.8h6V14.3h-6"/>
		<g transform="translate(0,502.5)">
			<line class="st0" x1="-2135.9" y1="14.3" x2="-2141.9" y2="14.3"/>
			<text transform="matrix(1 0 0 1 -2150.4949 17.4954)" class="st2 st3 st4">0</text>
		</g>
		<g transform="translate(0,432.70833333333337)">
			<line class="st0" x1="-2135.9" y1="14.3" x2="-2141.9" y2="14.3"/>
			<text transform="matrix(1 0 0 1 -2150.4949 17.4954)" class="st2 st3 st4">5</text>
		</g>
		<g transform="translate(0,362.9166666666667)">
			<line class="st0" x1="-2135.9" y1="14.3" x2="-2141.9" y2="14.3"/>
			<text transform="matrix(1 0 0 1 -2156.0564 17.4954)" class="st2 st3 st4">10</text>
		</g>
		<g transform="translate(0,293.12499999999994)">
			<line class="st0" x1="-2135.9" y1="14.3" x2="-2141.9" y2="14.3"/>
			<text transform="matrix(1 0 0 1 -2156.0564 17.4954)" class="st2 st3 st4">15</text>
		</g>
		<g transform="translate(0,223.33333333333331)">
			<line class="st0" x1="-2135.9" y1="14.3" x2="-2141.9" y2="14.3"/>
			<text transform="matrix(1 0 0 1 -2156.0564 17.4954)" class="st2 st3 st4">20</text>
		</g>
		<g transform="translate(0,153.54166666666669)">
			<line class="st0" x1="-2135.9" y1="14.3" x2="-2141.9" y2="14.3"/>
			<text transform="matrix(1 0 0 1 -2156.0564 17.4954)" class="st2 st3 st4">25</text>
		</g>
		<g transform="translate(0,83.74999999999999)">
			<line class="st0" x1="-2135.9" y1="14.3" x2="-2141.9" y2="14.3"/>
			<text transform="matrix(1 0 0 1 -2156.0564 17.4954)" class="st2 st3 st4">30</text>
		</g>
		<g transform="translate(0,13.95833333333334)">
			<line class="st0" x1="-2135.9" y1="14.3" x2="-2141.9" y2="14.3"/>
			<text transform="matrix(1 0 0 1 -2156.0564 17.4954)" class="st2 st3 st4">35</text>
		</g>
	</g>
	<text transform="matrix(6.123234e-17 -1 1 6.123234e-17 -2173.9333 289.5605)" class="st5 st6">Gigatons</text>
	<path class="st1" d="M-2135.9,516.8h0.8c0.8,0,2.4,0,3.9,0c1.6,0,3.1,0,4.7,0s3.1,0,4.7,0s3.1,0,4.7,0c1.6,0,3.1,0,4.7,0
		c1.6,0,3.1,0,4.7,0s3.1,0,4.7,0s3.1,0,4.7-2.3c1.6-2.3,3.1-7,4.7-9.3c1.6-2.3,3.1-2.3,4.7-2.3s3.1,0,4.7,0s3.1,0,4.7,0
		c1.6,0,3.1,0,4.7,0c1.6,0,3.1,0,4.7,0s3.1,0,4.7,0s3.1,0,4.7,0c1.6,0,3.1,0,4.7,0s3.1,0,4.7,0s3.1,0,4.7,0s3.1,0,4.7,0
		c1.6,0,3.1,0,4.7,0c1.6,0,3.1,0,4.7,0s3.1,0,4.7,0c1.6,0,3.1,0,3.9,0h0.8"/>
	<g transform="translate(0,502.5)">
	</g>
	<text transform="matrix(6.123234e-17 -1 1 6.123234e-17 -2173.9333 289.5605)" class="st5 st6">Gigatons</text>
	<path class="st1" d="M-2135.9,516.8h0.8c0.8,0,2.4,0,3.9,0c1.6,0,3.1,0,4.7,0s3.1,0,4.7,0s3.1,0,4.7,0c1.6,0,3.1,0,4.7,0
		c1.6,0,3.1,0,4.7,0s3.1,0,4.7,0s3.1,0,4.7-2.3c1.6-2.3,3.1-7,4.7-9.3c1.6-2.3,3.1-2.3,4.7-2.3s3.1,0,4.7,0s3.1,0,4.7,0
		c1.6,0,3.1,0,4.7,0c1.6,0,3.1,0,4.7,0s3.1,0,4.7,0s3.1,0,4.7,0c1.6,0,3.1,0,4.7,0s3.1,0,4.7,0s3.1,0,4.7,0s3.1,0,4.7,0
		c1.6,0,3.1,0,4.7,0c1.6,0,3.1,0,4.7,0s3.1,0,4.7,0c1.6,0,3.1,0,4.7,0c1.6,0,3.1,0,4.7,0c1.6,0,3.1,0,4.7,0s3.1,0,4.7,0s3.1,0,4.7,0
		c1.6,0,3.1,0,4.7,0c1.6,0,3.1,0,4.7,0c1.6,0,3.1,0,4.7,0s3.1,0,4.7,0c1.6,0,3.1,0,4.7,0c1.6,0,3.1,0,4.7,0c1.6,0,3.1,0,4.7-2.3
		s3.1-7,4.7-9.3c1.6-2.3,3.1-2.3,4.7-2.3c1.6,0,3.1,0,4.7,0s3.1,0,4.7,0c1.6,0,3.1,0,4.7,0s3.1,0,4.7,0s3.1,0,4.7,0s3.1,0,4.7,0
		s3.1,0,4.7,0c1.6,0,3.1,0,4.7-2.3c1.6-2.3,3.1-7,4.7-9.3c1.6-2.3,3.1-2.3,4.7-2.3s3.1,0,4.7,0c1.6,0,3.1,0,4.7,0c1.6,0,3.1,0,4.7,0
		s3.1,0,4.7,0s3.1,0,4.7,0c1.6,0,3.1,0,4.7,0c1.6,0,3.1,0,4.7,0s3.1,0,4.7,0s3.1,0,4.7-2.3s3.1-7,4.7-7s3.1,4.7,4.7,7
		c1.6,2.3,3.1,2.3,4.7,0s3.1-7,4.7-7s3.1,4.7,4.7,7c1.6,2.3,3.1,2.3,4.7,0c1.6-2.3,3.1-7,4.7-9.3c1.6-2.3,3.1-2.3,4.7-2.3
		c1.6,0,3.1,0,4.7,0c1.6,0,3.1,0,4.7,0s3.1,0,4.7,0c1.6,0,3.1,0,4.7,0s3.1,0,4.7,0c1.6,0,3.1,0,4.7,0s3.1,0,4.7,2.3
		c1.6,2.3,3.1,7,4.7,9.3c1.6,2.3,3.1,2.3,4.7,0c1.6-2.3,3.1-7,4.7-9.3c1.6-2.3,3.1-2.3,4.7-2.3c1.6,0,3.1,0,4.7,0c1.6,0,3.1,0,4.7,0
		c1.6,0,3.1,0,4.7,0s3.1,0,4.7-2.3s3.1-7,4.7-9.3c1.6-2.3,3.1-2.3,4.7-2.3c1.6,0,3.1,0,4.7,0c1.6,0,3.1,0,4.7,0s3.1,0,4.7,2.3
		c1.6,2.3,3.1,7,4.7,7c1.6,0,3.1-4.7,4.7-7s3.1-2.3,4.7-2.3s3.1,0,4.7,0c1.6,0,3.1,0,4.7-2.3c1.6-2.3,3.1-7,4.7-9.3s3.1-2.3,4.7-2.3
		c1.6,0,3.1,0,4.7-2.3c1.6-2.3,3.1-7,4.7-9.3c1.6-2.3,3.1-2.3,4.7-2.3s3.1,0,4.7-2.3s3.1-7,4.7-9.3c1.6-2.3,3.1-2.3,4.7-2.3
		c1.6,0,3.1,0,4.7-2.3c1.6-2.3,3.1-7,4.7-9.3s3.1-2.3,4.7-2.3c1.6,0,3.1,0,4.7-2.3c1.6-2.3,3.1-7,4.7-9.3c1.6-2.3,3.1-2.3,4.7-4.7
		s3.1-7,4.7-9.3c1.6-2.3,3.1-2.3,4.7-4.7c1.6-2.3,3.1-7,4.7-9.3s3.1-2.3,4.7-4.7c1.6-2.3,3.1-7,4.7-11.6c1.6-4.7,3.1-9.3,3.9-11.6
		l0.8-2.3"/>
	<g transform="translate(0,502.5)">
	</g>
	<text transform="matrix(6.123234e-17 -1 1 6.123234e-17 -2173.9333 289.5605)" class="st5 st6">Gigatons</text>
	<g transform="translate(0,502.5)">
	</g>
	<text transform="matrix(6.123234e-17 -1 1 6.123234e-17 -2173.9333 289.5605)" class="st5 st6">Gigatons</text>
	<path class="st2" d="M-2135.9,14.3l0.8,502.5c0.8,0,2.4,0,3.9,0c1.6,0,3.1,0,4.7,0s3.1,0,4.7,0s3.1,0,4.7,0c1.6,0,3.1,0,4.7,0
		c1.6,0,3.1,0,4.7,0s3.1,0,4.7,0s3.1,0,4.7-2.3c1.6-2.3,3.1-7,4.7-9.3c1.6-2.3,3.1-2.3,4.7-2.3s3.1,0,4.7,0s3.1,0,4.7,0
		c1.6,0,3.1,0,4.7,0c1.6,0,3.1,0,4.7,0s3.1,0,4.7,0s3.1,0,4.7,0c1.6,0,3.1,0,4.7,0s3.1,0,4.7,0s3.1,0,4.7,0s3.1,0,4.7,0
		c1.6,0,3.1,0,4.7,0c1.6,0,3.1,0,4.7,0s3.1,0,4.7,0c1.6,0,3.1,0,4.7,0c1.6,0,3.1,0,4.7,0c1.6,0,3.1,0,4.7,0s3.1,0,4.7,0s3.1,0,4.7,0
		c1.6,0,3.1,0,4.7,0c1.6,0,3.1,0,4.7,0c1.6,0,3.1,0,4.7,0s3.1,0,4.7,0c1.6,0,3.1,0,4.7,0c1.6,0,3.1,0,4.7,0c1.6,0,3.1,0,4.7-2.3
		s3.1-7,4.7-9.3c1.6-2.3,3.1-2.3,4.7-2.3c1.6,0,3.1,0,4.7,0s3.1,0,4.7,0c1.6,0,3.1,0,4.7,0s3.1,0,4.7,0s3.1,0,4.7,0s3.1,0,4.7,0
		s3.1,0,4.7,0c1.6,0,3.1,0,4.7-2.3c1.6-2.3,3.1-7,4.7-9.3c1.6-2.3,3.1-2.3,4.7-2.3s3.1,0,4.7,0c1.6,0,3.1,0,4.7,0c1.6,0,3.1,0,4.7,0
		s3.1,0,4.7,0s3.1,0,4.7,0c1.6,0,3.1,0,4.7,0c1.6,0,3.1,0,4.7,0s3.1,0,4.7,0s3.1,0,4.7-2.3s3.1-7,4.7-7s3.1,4.7,4.7,7
		c1.6,2.3,3.1,2.3,4.7,0s3.1-7,4.7-7s3.1,4.7,4.7,7c1.6,2.3,3.1,2.3,4.7,0c1.6-2.3,3.1-7,4.7-9.3c1.6-2.3,3.1-2.3,4.7-2.3
		c1.6,0,3.1,0,4.7,0c1.6,0,3.1,0,4.7,0s3.1,0,4.7,0c1.6,0,3.1,0,4.7,0s3.1,0,4.7,0c1.6,0,3.1,0,4.7,0s3.1,0,4.7,2.3
		c1.6,2.3,3.1,7,4.7,9.3c1.6,2.3,3.1,2.3,4.7,0c1.6-2.3,3.1-7,4.7-9.3c1.6-2.3,3.1-2.3,4.7-2.3c1.6,0,3.1,0,4.7,0c1.6,0,3.1,0,4.7,0
		c1.6,0,3.1,0,4.7,0s3.1,0,4.7-2.3s3.1-7,4.7-9.3c1.6-2.3,3.1-2.3,4.7-2.3c1.6,0,3.1,0,4.7,0c1.6,0,3.1,0,4.7,0s3.1,0,4.7,2.3
		c1.6,2.3,3.1,7,4.7,7c1.6,0,3.1-4.7,4.7-7s3.1-2.3,4.7-2.3s3.1,0,4.7,0c1.6,0,3.1,0,4.7-2.3c1.6-2.3,3.1-7,4.7-9.3s3.1-2.3,4.7-2.3
		c1.6,0,3.1,0,4.7-2.3c1.6-2.3,3.1-7,4.7-9.3c1.6-2.3,3.1-2.3,4.7-2.3s3.1,0,4.7-2.3s3.1-7,4.7-9.3c1.6-2.3,3.1-2.3,4.7-2.3
		c1.6,0,3.1,0,4.7-2.3c1.6-2.3,3.1-7,4.7-9.3s3.1-2.3,4.7-2.3c1.6,0,3.1,0,4.7-2.3c1.6-2.3,3.1-7,4.7-9.3c1.6-2.3,3.1-2.3,4.7-4.7
		s3.1-7,4.7-9.3c1.6-2.3,3.1-2.3,4.7-4.7c1.6-2.3,3.1-7,4.7-9.3s3.1-2.3,4.7-4.7c1.6-2.3,3.1-7,4.7-11.6c1.6-4.7,3.1-9.3,4.7-14
		c1.6-4.7,3.1-9.3,4.7-11.6c1.6-2.3,3.1-2.3,4.7-4.7s3.1-7,4.7-11.6c1.6-4.7,3.1-9.3,4.7-11.6c1.6-2.3,3.1-2.3,4.7-2.3
		s3.1,0,4.7-2.3c1.6-2.3,3.1-7,4.7-9.3c1.6-2.3,3.1-2.3,4.7-4.7c1.6-2.3,3.1-7,4.7-9.3c1.6-2.3,3.1-2.3,4.7-2.3c1.6,0,3.1,0,4.7,0
		c1.6,0,3.1,0,4.7,0c1.6,0,3.1,0,4.7,0s3.1,0,4.7,0s3.1,0,4.7-2.3c1.6-2.3,3.1-7,4.7-9.3c1.6-2.3,3.1-2.3,4.7-4.7s3.1-7,4.7-11.6
		s3.1-9.3,4.7-11.6c1.6-2.3,3.1-2.3,4.7-4.7c1.6-2.3,3.1-7,4.7-9.3c1.6-2.3,3.1-2.3,4.7,0c1.6,2.3,3.1,7,4.7,7c1.6,0,3.1-4.7,4.7-7
		c1.6-2.3,3.1-2.3,4.7-2.3s3.1,0,4.7-2.3c1.6-2.3,3.1-7,4.7-9.3c1.6-2.3,3.1-2.3,4.7-2.3c1.6,0,3.1,0,4.7,0s3.1,0,4.7-2.3
		c1.6-2.3,3.1-7,4.7-9.3c1.6-2.3,3.1-2.3,4.7-4.7c1.6-2.3,3.1-7,4.7-11.6c1.6-4.7,3.1-9.3,4.7-14s3.1-9.3,4.7-14
		c1.6-4.7,3.1-9.3,4.7-14c1.6-4.7,3.1-9.3,4.7-14c1.6-4.7,3.1-9.3,4.7-14s3.1-9.3,4.7-9.3c1.6,0,3.1,4.7,4.7,2.3
		c1.6-2.3,3.1-11.6,4.7-18.6s3.1-11.6,4.7-16.3s3.1-9.3,4.7-11.6c1.6-2.3,3.1-2.3,4.7-2.3c1.6,0,3.1,0,4.7,0s3.1,0,4.7,0
		c1.6,0,3.1,0,4.7-2.3c1.6-2.3,3.1-7,4.7-9.3c1.6-2.3,3.1-2.3,4.7-2.3s3.1,0,3.9,0h0.8"/>
	<g transform="translate(0,502.5)">
	</g>
	<text transform="matrix(6.123234e-17 -1 1 6.123234e-17 -2173.9333 289.5605)" class="st5 st6">Gigatons</text>
</g>
<rect x="-1952.1" y="14.3" width="622.6" height="502.5"/>
<rect x="-518.2" y="14.3" width="229.7" height="502.5"/>
<g transform="translate(50,0)">
	<g id="x-axis_2_" transform="translate(0,502.5)">
		<path class="st0" d="M33.9,18.6v-6h750v6"/>
		<g transform="translate(0, 0)">
			<line class="st0" x1="33.9" y1="12.6" x2="33.9" y2="18.6"/>
			<text transform="matrix(1 0 0 1 22.7838 28.7337)" class="st2 st3 st4">1860</text>
		</g>
		<g transform="translate(94.34095764160156, 0)">
			<line class="st0" x1="33.9" y1="12.6" x2="33.9" y2="18.6"/>
			<text transform="matrix(1 0 0 1 22.7839 28.7337)" class="st2 st3 st4">1880</text>
		</g>
		<g transform="translate(188.68191528320312, 0)">
			<line class="st0" x1="33.9" y1="12.6" x2="33.9" y2="18.6"/>
			<text transform="matrix(1 0 0 1 22.7838 28.7337)" class="st2 st3 st4">1900</text>
		</g>
		<g transform="translate(283.00994873046875, 0)">
			<line class="st0" x1="33.9" y1="12.6" x2="33.9" y2="18.6"/>
			<text transform="matrix(1 0 0 1 22.7839 28.7337)" class="st2 st3 st4">1920</text>
		</g>
		<g transform="translate(377.35052490234375, 0)">
			<line class="st0" x1="33.9" y1="12.6" x2="33.9" y2="18.6"/>
			<text transform="matrix(1 0 0 1 22.7839 28.7337)" class="st2 st3 st4">1940</text>
		</g>
		<g transform="translate(471.6914978027344, 0)">
			<line class="st0" x1="33.9" y1="12.6" x2="33.9" y2="18.6"/>
			<text transform="matrix(1 0 0 1 22.7837 28.7337)" class="st2 st3 st4">1960</text>
		</g>
		<g transform="translate(566.0319213867188, 0)">
			<line class="st0" x1="33.9" y1="12.6" x2="33.9" y2="18.6"/>
			<text transform="matrix(1 0 0 1 22.7839 28.7337)" class="st2 st3 st4">1980</text>
		</g>
		<g transform="translate(660.3728637695312, 0)">
			<line class="st0" x1="33.9" y1="12.6" x2="33.9" y2="18.6"/>
			<text transform="matrix(1 0 0 1 22.7837 28.7337)" class="st2 st3 st4">2000</text>
		</g>
	</g>
	<g id="y-axis_2_">
		<path class="st0" d="M27.9,515.1h6V12.6h-6"/>
		<g transform="translate(0,502.5)">
			<line class="st0" x1="33.9" y1="12.6" x2="27.9" y2="12.6"/>
			<text transform="matrix(1 0 0 1 19.3453 15.8337)" class="st2 st3 st4">0</text>
		</g>
		<g transform="translate(0,432.70833333333337)">
			<line class="st0" x1="33.9" y1="12.6" x2="27.9" y2="12.6"/>
			<text transform="matrix(1 0 0 1 19.3453 15.8337)" class="st2 st3 st4">5</text>
		</g>
		<g transform="translate(0,362.9166666666667)">
			<line class="st0" x1="33.9" y1="12.6" x2="27.9" y2="12.6"/>
			<text transform="matrix(1 0 0 1 13.7838 15.8337)" class="st2 st3 st4">10</text>
		</g>
		<g transform="translate(0,293.12499999999994)">
			<line class="st0" x1="33.9" y1="12.6" x2="27.9" y2="12.6"/>
			<text transform="matrix(1 0 0 1 13.7838 15.8337)" class="st2 st3 st4">15</text>
		</g>
		<g transform="translate(0,223.33333333333331)">
			<line class="st0" x1="33.9" y1="12.6" x2="27.9" y2="12.6"/>
			<text transform="matrix(1 0 0 1 13.7838 15.8337)" class="st2 st3 st4">20</text>
		</g>
		<g transform="translate(0,153.54166666666669)">
			<line class="st0" x1="33.9" y1="12.6" x2="27.9" y2="12.6"/>
			<text transform="matrix(1 0 0 1 13.7838 15.8337)" class="st2 st3 st4">25</text>
		</g>
		<g transform="translate(0,83.74999999999999)">
			<line class="st0" x1="33.9" y1="12.6" x2="27.9" y2="12.6"/>
			<text transform="matrix(1 0 0 1 13.7838 15.8337)" class="st2 st3 st4">30</text>
		</g>
		<g transform="translate(0,13.95833333333334)">
			<line class="st0" x1="33.9" y1="12.6" x2="27.9" y2="12.6"/>
			<text transform="matrix(1 0 0 1 13.7838 15.8337)" class="st2 st3 st4">35</text>
		</g>
	</g>
	<text transform="matrix(6.123234e-17 -1 1 6.123234e-17 -4.0932 287.8984)" class="st5 st6">Gigatons</text>
	<path class="st1" d="M33.9,515.1h0.8c0.8,0,2.4,0,3.9,0c1.6,0,3.1,0,4.7,0s3.1,0,4.7,0c1.6,0,3.1,0,4.7,0s3.1,0,4.7,0s3.1,0,4.7,0
		s3.1,0,4.7,0s3.1,0,4.7-2.3c1.6-2.3,3.1-7,4.7-9.3c1.6-2.3,3.1-2.3,4.7-2.3c1.6,0,3.1,0,4.7,0s3.1,0,4.7,0s3.1,0,4.7,0s3.1,0,4.7,0
		s3.1,0,4.7,0s3.1,0,4.7,0s3.1,0,4.7,0s3.1,0,4.7,0c1.6,0,3.1,0,4.7,0s3.1,0,4.7,0c1.6,0,3.1,0,4.7,0s3.1,0,4.7,0s3.1,0,4.7,0
		s3.1,0,3.9,0h0.8"/>
	<g transform="translate(0,502.5)">
	</g>
	<text transform="matrix(6.123234e-17 -1 1 6.123234e-17 -4.0932 287.8984)" class="st5 st6">Gigatons</text>
	<path class="st1" d="M33.9,515.1h0.8c0.8,0,2.4,0,3.9,0c1.6,0,3.1,0,4.7,0s3.1,0,4.7,0c1.6,0,3.1,0,4.7,0s3.1,0,4.7,0s3.1,0,4.7,0
		s3.1,0,4.7,0s3.1,0,4.7-2.3c1.6-2.3,3.1-7,4.7-9.3c1.6-2.3,3.1-2.3,4.7-2.3c1.6,0,3.1,0,4.7,0s3.1,0,4.7,0s3.1,0,4.7,0s3.1,0,4.7,0
		s3.1,0,4.7,0s3.1,0,4.7,0s3.1,0,4.7,0s3.1,0,4.7,0c1.6,0,3.1,0,4.7,0s3.1,0,4.7,0c1.6,0,3.1,0,4.7,0s3.1,0,4.7,0s3.1,0,4.7,0
		s3.1,0,4.7,0s3.1,0,4.7,0s3.1,0,4.7,0s3.1,0,4.7,0c1.6,0,3.1,0,4.7,0s3.1,0,4.7,0s3.1,0,4.7,0s3.1,0,4.7,0c1.6,0,3.1,0,4.7,0
		s3.1,0,4.7,0c1.6,0,3.1,0,4.7,0s3.1,0,4.7-2.3s3.1-7,4.7-9.3s3.1-2.3,4.7-2.3s3.1,0,4.7,0s3.1,0,4.7,0s3.1,0,4.7,0s3.1,0,4.7,0
		s3.1,0,4.7,0s3.1,0,4.7,0c1.6,0,3.1,0,4.7,0s3.1,0,4.7-2.3c1.6-2.3,3.1-7,4.7-9.3s3.1-2.3,4.7-2.3c1.6,0,3.1,0,4.7,0s3.1,0,4.7,0
		s3.1,0,4.7,0c1.6,0,3.1,0,4.7,0s3.1,0,4.7,0s3.1,0,4.7,0s3.1,0,4.7,0c1.6,0,3.1,0,4.7,0s3.1,0,4.7-2.3s3.1-7,4.7-7s3.1,4.7,4.7,7
		c1.6,2.3,3.1,2.3,4.7,0c1.6-2.3,3.1-7,4.7-7s3.1,4.7,4.7,7s3.1,2.3,4.7,0c1.6-2.3,3.1-7,4.7-9.3c1.6-2.3,3.1-2.3,4.7-2.3
		s3.1,0,4.7,0s3.1,0,4.7,0c1.6,0,3.1,0,4.7,0c1.6,0,3.1,0,4.7,0s3.1,0,4.7,0s3.1,0,4.7,0c1.6,0,3.1,0,4.7,2.3c1.6,2.3,3.1,7,4.7,9.3
		s3.1,2.3,4.7,0s3.1-7,4.7-9.3c1.6-2.3,3.1-2.3,4.7-2.3c1.6,0,3.1,0,4.7,0s3.1,0,4.7,0s3.1,0,4.7,0c1.6,0,3.1,0,4.7-2.3
		c1.6-2.3,3.1-7,4.7-9.3s3.1-2.3,4.7-2.3s3.1,0,4.7,0c1.6,0,3.1,0,4.7,0c1.6,0,3.1,0,4.7,2.3s3.1,7,4.7,7s3.1-4.7,4.7-7
		c1.6-2.3,3.1-2.3,4.7-2.3c1.6,0,3.1,0,4.7,0s3.1,0,4.7-2.3c1.6-2.3,3.1-7,4.7-9.3s3.1-2.3,4.7-2.3c1.6,0,3.1,0,4.7-2.3
		s3.1-7,4.7-9.3c1.6-2.3,3.1-2.3,4.7-2.3c1.6,0,3.1,0,4.7-2.3c1.6-2.3,3.1-7,4.7-9.3s3.1-2.3,4.7-2.3s3.1,0,4.7-2.3
		c1.6-2.3,3.1-7,4.7-9.3c1.6-2.3,3.1-2.3,4.7-2.3s3.1,0,4.7-2.3s3.1-7,4.7-9.3c1.6-2.3,3.1-2.3,4.7-4.7s3.1-7,4.7-9.3
		s3.1-2.3,4.7-4.7c1.6-2.3,3.1-7,4.7-9.3s3.1-2.3,4.7-4.7c1.6-2.3,3.1-7,4.7-11.6c1.6-4.7,3.1-9.3,3.9-11.6l0.8-2.3"/>
	<g transform="translate(0,502.5)">
	</g>
	<text transform="matrix(6.123234e-17 -1 1 6.123234e-17 -4.0932 287.8984)" class="st5 st6">Gigatons</text>
	<g transform="translate(0,502.5)">
	</g>
	<text transform="matrix(6.123234e-17 -1 1 6.123234e-17 -4.0932 287.8984)" class="st5 st6">Gigatons</text>
	<path class="st2" d="M33.9,12.6l0.8,502.5c0.8,0,2.4,0,3.9,0c1.6,0,3.1,0,4.7,0s3.1,0,4.7,0c1.6,0,3.1,0,4.7,0s3.1,0,4.7,0
		s3.1,0,4.7,0s3.1,0,4.7,0s3.1,0,4.7-2.3c1.6-2.3,3.1-7,4.7-9.3c1.6-2.3,3.1-2.3,4.7-2.3c1.6,0,3.1,0,4.7,0s3.1,0,4.7,0s3.1,0,4.7,0
		s3.1,0,4.7,0s3.1,0,4.7,0s3.1,0,4.7,0s3.1,0,4.7,0s3.1,0,4.7,0c1.6,0,3.1,0,4.7,0s3.1,0,4.7,0c1.6,0,3.1,0,4.7,0s3.1,0,4.7,0
		s3.1,0,4.7,0s3.1,0,4.7,0s3.1,0,4.7,0s3.1,0,4.7,0s3.1,0,4.7,0c1.6,0,3.1,0,4.7,0s3.1,0,4.7,0s3.1,0,4.7,0s3.1,0,4.7,0
		c1.6,0,3.1,0,4.7,0s3.1,0,4.7,0c1.6,0,3.1,0,4.7,0s3.1,0,4.7-2.3s3.1-7,4.7-9.3s3.1-2.3,4.7-2.3s3.1,0,4.7,0s3.1,0,4.7,0
		s3.1,0,4.7,0s3.1,0,4.7,0s3.1,0,4.7,0s3.1,0,4.7,0c1.6,0,3.1,0,4.7,0s3.1,0,4.7-2.3c1.6-2.3,3.1-7,4.7-9.3s3.1-2.3,4.7-2.3
		c1.6,0,3.1,0,4.7,0s3.1,0,4.7,0s3.1,0,4.7,0c1.6,0,3.1,0,4.7,0s3.1,0,4.7,0s3.1,0,4.7,0s3.1,0,4.7,0c1.6,0,3.1,0,4.7,0
		s3.1,0,4.7-2.3s3.1-7,4.7-7s3.1,4.7,4.7,7c1.6,2.3,3.1,2.3,4.7,0c1.6-2.3,3.1-7,4.7-7s3.1,4.7,4.7,7s3.1,2.3,4.7,0
		c1.6-2.3,3.1-7,4.7-9.3c1.6-2.3,3.1-2.3,4.7-2.3s3.1,0,4.7,0s3.1,0,4.7,0c1.6,0,3.1,0,4.7,0c1.6,0,3.1,0,4.7,0s3.1,0,4.7,0
		s3.1,0,4.7,0c1.6,0,3.1,0,4.7,2.3c1.6,2.3,3.1,7,4.7,9.3s3.1,2.3,4.7,0s3.1-7,4.7-9.3c1.6-2.3,3.1-2.3,4.7-2.3c1.6,0,3.1,0,4.7,0
		s3.1,0,4.7,0s3.1,0,4.7,0c1.6,0,3.1,0,4.7-2.3c1.6-2.3,3.1-7,4.7-9.3s3.1-2.3,4.7-2.3s3.1,0,4.7,0c1.6,0,3.1,0,4.7,0
		c1.6,0,3.1,0,4.7,2.3s3.1,7,4.7,7s3.1-4.7,4.7-7c1.6-2.3,3.1-2.3,4.7-2.3c1.6,0,3.1,0,4.7,0s3.1,0,4.7-2.3c1.6-2.3,3.1-7,4.7-9.3
		s3.1-2.3,4.7-2.3c1.6,0,3.1,0,4.7-2.3s3.1-7,4.7-9.3c1.6-2.3,3.1-2.3,4.7-2.3c1.6,0,3.1,0,4.7-2.3c1.6-2.3,3.1-7,4.7-9.3
		s3.1-2.3,4.7-2.3s3.1,0,4.7-2.3c1.6-2.3,3.1-7,4.7-9.3c1.6-2.3,3.1-2.3,4.7-2.3s3.1,0,4.7-2.3s3.1-7,4.7-9.3
		c1.6-2.3,3.1-2.3,4.7-4.7s3.1-7,4.7-9.3s3.1-2.3,4.7-4.7c1.6-2.3,3.1-7,4.7-9.3s3.1-2.3,4.7-4.7c1.6-2.3,3.1-7,4.7-11.6
		c1.6-4.7,3.1-9.3,4.7-14c1.6-4.7,3.1-9.3,4.7-11.6c1.6-2.3,3.1-2.3,4.7-4.7c1.6-2.3,3.1-7,4.7-11.6c1.6-4.7,3.1-9.3,4.7-11.6
		s3.1-2.3,4.7-2.3s3.1,0,4.7-2.3c1.6-2.3,3.1-7,4.7-9.3s3.1-2.3,4.7-4.7s3.1-7,4.7-9.3c1.6-2.3,3.1-2.3,4.7-2.3c1.6,0,3.1,0,4.7,0
		s3.1,0,4.7,0s3.1,0,4.7,0c1.6,0,3.1,0,4.7,0s3.1,0,4.7-2.3c1.6-2.3,3.1-7,4.7-9.3c1.6-2.3,3.1-2.3,4.7-4.7s3.1-7,4.7-11.6
		c1.6-4.7,3.1-9.3,4.7-11.6s3.1-2.3,4.7-4.7c1.6-2.3,3.1-7,4.7-9.3c1.6-2.3,3.1-2.3,4.7,0c1.6,2.3,3.1,7,4.7,7s3.1-4.7,4.7-7
		c1.6-2.3,3.1-2.3,4.7-2.3s3.1,0,4.7-2.3c1.6-2.3,3.1-7,4.7-9.3s3.1-2.3,4.7-2.3s3.1,0,4.7,0c1.6,0,3.1,0,4.7-2.3
		c1.6-2.3,3.1-7,4.7-9.3s3.1-2.3,4.7-4.7c1.6-2.3,3.1-7,4.7-11.6c1.6-4.7,3.1-9.3,4.7-14c1.6-4.7,3.1-9.3,4.7-14s3.1-9.3,4.7-14
		s3.1-9.3,4.7-14c1.6-4.7,3.1-9.3,4.7-14c1.6-4.7,3.1-9.3,4.7-9.3s3.1,4.7,4.7,2.3c1.6-2.3,3.1-11.6,4.7-18.6s3.1-11.6,4.7-16.3
		s3.1-9.3,4.7-11.6s3.1-2.3,4.7-2.3s3.1,0,4.7,0c1.6,0,3.1,0,4.7,0c1.6,0,3.1,0,4.7-2.3s3.1-7,4.7-9.3s3.1-2.3,4.7-2.3s3.1,0,3.9,0
		h0.8"/>
	<g transform="translate(0,502.5)">
	</g>
	<text transform="matrix(6.123234e-17 -1 1 6.123234e-17 -4.0932 287.8984)" class="st5 st6">Gigatons</text>
</g>
</svg>
