<?xml version="1.0" encoding="utf-8"?>
<!-- Generator: Adobe Illustrator 23.1.1, SVG Export Plug-In . SVG Version: 6.00 Build 0)  -->
<svg version="1.1" xmlns="http://www.w3.org/2000/svg" xmlns:xlink="http://www.w3.org/1999/xlink" x="0px" y="0px"
	 viewBox="0 0 768.7 512.8" style="enable-background:new 0 0 768.7 512.8;" xml:space="preserve">
<style type="text/css">
	.st0{fill:none;stroke:#0E110C;stroke-miterlimit:10;}
	.st1{fill:none;stroke:#111410;stroke-miterlimit:10;}
	.st2{fill:#3D6E71;}
	.st3{font-family:'SourceSansPro-SemiBold';}
	.st4{font-size:15.2px;}
	.st5{fill:none;}
</style>
<g id="Layer_7">
	<g>
		<path id="path63924" d="M633.5,257c-0.7,0-1.2-0.5-1.2-1.2c0-0.7,0.5-1.2,1.2-1.2c0.7,0,1.2,0.5,1.2,1.2
			C634.7,256.4,634.2,257,633.5,257"/>
		<path id="path63722" d="M638.1,260.2c-0.9,0-1.6-0.7-1.6-1.6s0.7-1.6,1.6-1.6c0.9,0,1.6,0.7,1.6,1.6S639,260.2,638.1,260.2"/>
		<path id="path64150" d="M634.8,262.1c-0.5,0-0.8-0.4-0.8-0.8c0-0.5,0.4-0.8,0.8-0.8c0.5,0,0.8,0.4,0.8,0.8
			C635.6,261.7,635.2,262.1,634.8,262.1"/>
		<path id="path62022" d="M626.4,266.2c0-1.7,1.2-3.1,2.8-3.4c0.3-0.1,0.6-0.1,0.9-0.1h10.7c2,0,3.6,1.6,3.6,3.5
			c0,1.4-0.8,2.6-2,3.1c-0.1,0.1-0.3,0.1-0.5,0.2c-0.1,0.1-0.3,0.1-0.5,0.1c-0.1,0-0.1,0-0.2,0c-0.1,0.5-0.3,1.6-0.4,4.2
			c-0.1,2,0,3.8,0,3.8l0,0l0,0c0,0.1,0,5.4,2,9c6.4,11.2,9.5,17.1,10.9,20.3c1.2,2.7,1.2,3.4,1.2,3.8l0,0.1c0,0.1,0,0.3,0,0.4
			c0,0,0,0.1,0,0.1c0,1.3-0.2,2.6-1.3,3.7c-1.3,1.1-3.5,1.6-7.3,1.6h-22c-0.1,0-0.3,0-0.4,0c-3.5,0-5.7-0.5-6.9-1.6
			c-1.2-1-1.3-2.4-1.3-3.7c0,0,0-0.1,0-0.1c0-0.1,0-0.3,0-0.4l0-0.1c0-0.4,0-1.1,1.2-3.8c1.4-3.2,4.5-9.1,10.9-20.3c2.1-3.6,2-9,2-9
			l0,0l0,0c0,0,0.1-1.9,0-3.8c-0.1-2.6-0.3-3.7-0.4-4.2c0,0-0.1,0-0.1,0c-0.2,0-0.3-0.1-0.5-0.1c-0.2-0.1-0.3-0.1-0.5-0.2
			C627.2,268.8,626.4,267.6,626.4,266.2z M628.8,266.2c0,0.6,0.5,1.1,1.2,1.1c0.4,0,0.8,0.2,1.1,0.5c0.1,0.1,0.2,0.3,0.4,0.5
			c0.4,0.7,0.7,2.1,0.8,5.3c0.1,2,0,3.9,0,4.2c0,0,0,0,0,0c0,0.6,0,5.8-2.1,9.7c-0.1,0.2-0.2,0.3-0.3,0.5c-1.1,1.9-3.8,6.7-6.4,11.5
			c-0.1,0.2-0.2,0.5-0.4,0.7c-3.4,6.4-4.6,9.1-4.9,10.2c0,0,0,0.1,0,0.1c-0.1,0.3-0.1,0.4-0.1,0.5v0.1c0,1.3,0,1.9,0.5,2.4
			c0.8,0.7,2.7,1,5.7,1h22.1c3,0,5-0.3,5.7-1c0.5-0.4,0.5-1.1,0.5-2.4V311c0-0.1,0-0.2-0.1-0.5c0,0,0-0.1,0-0.1
			c-0.3-1.1-1.5-3.8-4.9-10.2c-0.1-0.2-0.3-0.5-0.4-0.7c-2.6-4.8-5.3-9.6-6.4-11.4c-0.1-0.2-0.2-0.4-0.3-0.6c-2-4-2-9.2-2-9.6
			c0,0,0,0,0,0c0-0.3-0.1-2.2,0-4.2c0.1-3.3,0.4-4.6,0.8-5.3c0.1-0.2,0.2-0.3,0.3-0.5c0,0,0,0,0,0c0.3-0.3,0.7-0.4,1.1-0.5
			c0.7,0,1.2-0.5,1.2-1.1c0-0.7-0.5-1.2-1.2-1.2h-9.8c0,0-0.9,0-0.9,0C629.3,265.1,628.8,265.6,628.8,266.2"/>
		<path id="path63310" d="M637.6,267.8c-0.5,0-0.8-0.4-0.8-0.8s0.4-0.8,0.8-0.8c0.5,0,0.8,0.4,0.8,0.8S638,267.8,637.6,267.8"/>
		<path id="path63088" d="M634.2,270.8c-0.5,0-0.8-0.4-0.8-0.8s0.4-0.8,0.8-0.8c0.5,0,0.8,0.4,0.8,0.8S634.7,270.8,634.2,270.8"/>
		<path id="path62686" d="M636.5,275.6c-0.6,0-1.1-0.5-1.1-1.1c0-0.6,0.5-1.1,1.1-1.1c0.6,0,1.1,0.5,1.1,1.1
			C637.6,275.1,637.1,275.6,636.5,275.6"/>
		<path id="path62440" d="M634.8,283.1c-0.8,0-1.4-0.6-1.4-1.4c0-0.8,0.6-1.4,1.4-1.4c0.8,0,1.4,0.6,1.4,1.4
			C636.2,282.5,635.5,283.1,634.8,283.1"/>
		<path id="path62894" d="M637.6,288.3c-0.6,0-1-0.5-1-1c0-0.6,0.5-1,1-1c0.6,0,1,0.5,1,1C638.6,287.9,638.1,288.3,637.6,288.3"/>
		<path id="path63518" d="M633.1,293.2c-0.8,0-1.4-0.6-1.4-1.4c0-0.8,0.6-1.4,1.4-1.4c0.8,0,1.4,0.6,1.4,1.4
			C634.4,292.5,633.8,293.2,633.1,293.2"/>
		<path id="path62240" d="M626.8,295.8c0.1-0.1,0.7-0.5,1.3-0.7c0.1,0,0.3-0.1,0.4,0c0.3,0,0.6,0.1,0.9,0.3c0.6,0.3,1.3,0.7,2.1,1
			c0.2,0.1,0.5,0.1,0.9,0.1c1.2-0.1,2.8-0.6,4.1-1c0.4-0.1,0.8-0.2,1.1-0.3c0.2,0,0.4-0.1,0.6-0.1c0.2,0,0.5,0,0.7,0
			c1.8,0.1,4.2,0.9,5.1,1.1c0.1,0,0.1,0,0.2,0c5.5,10,7,13.7,7.3,14.6c0.1,0.3,0.1,0.7,0,1c0,0,0,0,0,0.1c0,0.3-0.1,0.6-0.3,0.8
			c0,0,0,0,0,0c-0.1,0.1-0.2,0.2-0.3,0.2c-1.2,0.4-3.1,0.5-4.4,0.5h-22c-1.4,0-3.2-0.1-4.4-0.5c-0.1,0-0.2-0.1-0.3-0.2
			c-0.2-0.2-0.4-0.5-0.4-0.8c0-0.6,0-0.9,0-1.1C619.5,309.8,620.4,307.1,626.8,295.8"/>
	</g>
</g>
<g id="Layer_3">
	
		<image style="overflow:visible;" width="1200" height="1662" xlink:href="water.png"  transform="matrix(2.842831e-02 0 0 2.842831e-02 99.8967 268.5761)">
	</image>
</g>
<g id="Layer_1">
	<title>beccs_static</title>
	<g>
		<line class="st0" x1="263.1" y1="236" x2="263.9" y2="318.2"/>
		<line class="st0" x1="263.4" y1="257.3" x2="275.1" y2="241"/>
		<line class="st0" x1="263.5" y1="267.2" x2="244.9" y2="248.6"/>
		<ellipse class="st0" cx="263.2" cy="241" rx="29.5" ry="46.9"/>
		<line class="st0" x1="249.3" y1="317.1" x2="277.5" y2="316.8"/>
		<line class="st0" x1="309.4" y1="212.5" x2="310.1" y2="294.6"/>
		<line class="st0" x1="309.6" y1="233.7" x2="321.4" y2="217.4"/>
		<line class="st0" x1="309.8" y1="243.6" x2="291.2" y2="225"/>
		<path class="st0" d="M291.5,252.5c5.4,8.7,9.6,11.8,17.9,11.8c16.3,0,29.5-21,29.5-46.9s-13.2-46.9-29.5-46.9
			c-13.9,0-25.5,11.9-28.7,32.4"/>
		<line class="st0" x1="295.6" y1="293.6" x2="323.8" y2="293.2"/>
		<line class="st0" x1="356.2" y1="189.6" x2="357" y2="271.8"/>
		<line class="st0" x1="356.5" y1="210.8" x2="368.2" y2="194.6"/>
		<line class="st0" x1="356.6" y1="220.7" x2="338" y2="202.1"/>
		<path class="st0" d="M338.4,229.6c5.4,8.8,9.6,11.8,17.9,11.8c16.3,0,29.5-21,29.5-46.9s-13.2-46.9-29.5-46.9
			c-13.9,0-25.5,11.9-28.7,32.4"/>
		<line class="st0" x1="342.4" y1="270.7" x2="370.6" y2="270.4"/>
		<line class="st0" x1="412.4" y1="234.7" x2="413.1" y2="316.8"/>
		<line class="st0" x1="412.6" y1="255.9" x2="424.4" y2="239.6"/>
		<line class="st0" x1="412.7" y1="265.8" x2="394.1" y2="247.2"/>
		<ellipse class="st0" cx="412.4" cy="239.6" rx="29.5" ry="46.9"/>
		<line class="st0" x1="398.5" y1="315.8" x2="426.8" y2="315.4"/>
		<line class="st0" x1="458.7" y1="211.1" x2="459.4" y2="293.2"/>
		<line class="st0" x1="458.9" y1="232.3" x2="470.7" y2="216.1"/>
		<line class="st0" x1="459" y1="242.2" x2="440.4" y2="223.6"/>
		<path class="st0" d="M440.8,251.1c5.4,8.7,9.6,11.8,17.9,11.8c16.3,0,29.5-21,29.5-46.9s-13.2-46.9-29.5-46.9
			c-13.9,0-25.5,11.9-28.7,32.4"/>
		<line class="st0" x1="444.8" y1="292.2" x2="473" y2="291.9"/>
		<line class="st0" x1="505.5" y1="188.2" x2="506.2" y2="270.4"/>
		<line class="st0" x1="505.7" y1="209.4" x2="517.5" y2="193.2"/>
		<line class="st0" x1="505.9" y1="219.3" x2="487.2" y2="200.7"/>
		<path class="st0" d="M487.6,228.2c5.4,8.8,9.6,11.8,17.9,11.8c16.3,0,29.5-21,29.5-46.9s-13.2-46.9-29.5-46.9
			c-13.9,0-25.5,11.9-28.7,32.4"/>
		<line class="st0" x1="491.6" y1="269.3" x2="519.9" y2="269"/>
	</g>
	<g id="Base">
		<line class="st1" x1="54.5" y1="317" x2="714.2" y2="317"/>
		<text transform="matrix(1 0 0 1 250.21 60.42)" class="st2 st3 st4">Bioene</text>
		<text transform="matrix(1 0 0 1 295.52 60.42)" class="st2 st3 st4">r</text>
		<text transform="matrix(1 0 0 1 301.04 60.42)" class="st2 st3 st4">g</text>
		<text transform="matrix(1 0 0 1 309.09 60.42)" class="st2 st3 st4">y with Carbon Ca</text>
		<text transform="matrix(1 0 0 1 419.3 60.42)" class="st2 st3 st4">p</text>
		<text transform="matrix(1 0 0 1 427.54 60.42)" class="st2 st3 st4">tu</text>
		<text transform="matrix(1 0 0 1 441.47 60.42)" class="st2 st3 st4">r</text>
		<text transform="matrix(1 0 0 1 446.99 60.42)" class="st2 st3 st4">e + </text>
		<text transform="matrix(1 0 0 1 468.56 60.42)" class="st2 st3 st4">S</text>
		<text transform="matrix(1 0 0 1 476.45 60.42)" class="st2 st3 st4">t</text>
		<text transform="matrix(1 0 0 1 481.69 60.42)" class="st2 st3 st4">o</text>
		<text transform="matrix(1 0 0 1 490.04 60.42)" class="st2 st3 st4">r</text>
		<text transform="matrix(1 0 0 1 495.31 60.42)" class="st2 st3 st4">a</text>
		<text transform="matrix(1 0 0 1 503.15 60.42)" class="st2 st3 st4">g</text>
		<text transform="matrix(1 0 0 1 510.81 60.42)" class="st2 st3 st4">e</text>
		<rect y="0" class="st5" width="768.7" height="512.8"/>
	</g>
</g>
</svg>
