<?xml version="1.0" encoding="utf-8"?>
<!-- Generator: Adobe Illustrator 23.1.1, SVG Export Plug-In . SVG Version: 6.00 Build 0)  -->
<svg version="1.1" id="Layer_1" xmlns="http://www.w3.org/2000/svg" xmlns:xlink="http://www.w3.org/1999/xlink" x="0px" y="0px"
	 viewBox="0 0 768.7 512.5" style="enable-background:new 0 0 768.7 512.5;" xml:space="preserve">
<style type="text/css">
	.st0{fill:none;stroke:#010101;stroke-miterlimit:10;}
	.st1{fill:#231F20;}
	.st2{font-family:'SourceSansPro-Regular';}
	.st3{font-size:15.1476px;}
	.st4{font-size:12.9837px;}
	.st5{fill:none;stroke:#8B8989;stroke-miterlimit:10;}
	.st6{fill:#010101;}
	.st7{fill:none;stroke:#8B8989;stroke-width:0.75;stroke-miterlimit:10;}
	.st8{fill:#8B8989;}
	.st9{fill:none;stroke:#0E110C;stroke-miterlimit:10;}
	.st10{fill:#3D6E71;}
	.st11{font-family:'SourceSansPro-SemiBold';}
	.st12{font-size:16.2296px;}
</style>
<title>beccs</title>
<g id="Layer_3">
	<path class="st0" d="M653.9,322.2h-8.2v-34.4c3.2-2.8,3.6-7.8,0.8-11c-1.5-1.7-3.7-2.7-6-2.7H624l-2.5-40.5
		c-0.1-1.3-1.2-2.4-2.5-2.4h-10.7c-1.3,0-2.4,1.1-2.5,2.4l-2.5,40.5h-6l-2.5-40.5c-0.1-1.3-1.2-2.4-2.5-2.4h-10.7
		c-1.3,0-2.4,1.1-2.5,2.4l-2.5,40.5h-6l-2.5-40.5c-0.1-1.3-1.2-2.4-2.5-2.4h-10.7c-1.3,0-2.4,1.1-2.5,2.4l-2.5,40.5h-7l-1.5-69.9
		c0-1.4-1.2-2.5-2.5-2.5H523c-1.4,0-2.5,1.1-2.5,2.5l-1.8,80.6h-19.8c-4.3,0-7.9,3.6-7.9,7.9c0,2.3,1,4.4,2.7,6v23.7h-5.5
		c-1.4,0-2.5,1.1-2.5,2.5s1.1,2.5,2.5,2.5h166.1c1.4,0,2.5-1.1,2.5-2.5S655.3,322.2,653.9,322.2L653.9,322.2z M524.1,322.2h-25.8
		v-29.3h0.2 M498.3,292.9h26.4 M522.5,322.2h5.6v-34.4l9.6-13.7l-1.5-67.3h-11.1l-1.7,76.6l111.9,0.4l5.5,6v32.5H533.3v-32.5h107.5"
		/>
	<path class="st0" d="M538.2,191.8c1.2,0,2.3-0.3,3.2-1.1c2.4,2.3,6,2.9,9,1.6c1.9,1.9,4.7,3,7.5,3c1.2,0,2.4-0.2,3.5-0.6
		c4.2,6.6,13,8.4,19.6,4.2c6.6-4.2,8.4-13,4.2-19.6c-4.2-6.6-13-8.4-19.6-4.2c-0.4,0.3-1,0.6-1.4,1c-4.2-3.1-10.1-2.7-13.8,1
		c-4.2-1.8-9,0.1-10.8,4.2l0,0c-0.4-0.1-0.9-0.2-1.4-0.2c-2.3,0-4.2,1.4-5,3.6c-0.1,0-0.2,0-0.3,0c-1.9,0-3.5,1.5-3.5,3.5
		c0,0.6,0.4,1.1,1.1,1.1"/>
	<path class="st0" d="M549.5,295.5c-1.4,0-2.5,1.1-2.5,2.5l0,0v5.3c0,1.4,1.1,2.5,2.5,2.5s2.5-1.1,2.5-2.5l0,0v-5.4
		C552,296.6,550.8,295.4,549.5,295.5z"/>
	<path class="st0" d="M560.2,295.5c-1.4,0-2.5,1.1-2.5,2.5l0,0v5.3c-0.1,1.4,1,2.6,2.4,2.7c1.4,0.1,2.6-1,2.7-2.4c0-0.1,0-0.2,0-0.3
		v-5.4C562.7,296.6,561.5,295.5,560.2,295.5z"/>
	<path class="st0" d="M570.9,295.5c-1.4,0-2.5,1.1-2.5,2.5l0,0v5.3c-0.1,1.4,1,2.6,2.4,2.7c1.4,0.1,2.6-1,2.7-2.4c0-0.1,0-0.2,0-0.3
		v-5.4C573.4,296.6,572.2,295.4,570.9,295.5z"/>
	<path class="st0" d="M581.6,295.5c-1.4,0-2.5,1.1-2.5,2.5l0,0v5.3c-0.1,1.4,1,2.6,2.4,2.7c1.4,0.1,2.6-1,2.7-2.4c0-0.1,0-0.2,0-0.3
		v-5.4C584.1,296.6,583,295.5,581.6,295.5z"/>
	<path class="st0" d="M592.3,295.5c-1.4,0-2.5,1.1-2.5,2.5l0,0v5.3c-0.1,1.4,1,2.6,2.4,2.7c1.4,0.1,2.6-1,2.7-2.4c0-0.1,0-0.2,0-0.3
		v-5.4C594.8,296.6,593.7,295.4,592.3,295.5z"/>
	<path class="st0" d="M603,295.5c-1.4,0-2.5,1.1-2.5,2.5l0,0v5.3c0,1.4,1.1,2.5,2.5,2.5s2.5-1.1,2.5-2.5l0,0v-5.4
		C605.5,296.6,604.5,295.4,603,295.5z"/>
	<path class="st0" d="M613.8,295.5c-1.4,0-2.5,1.1-2.5,2.5l0,0v5.3c-0.1,1.4,1,2.6,2.4,2.7c1.4,0.1,2.6-1,2.7-2.4c0-0.1,0-0.2,0-0.3
		v-5.4C616.2,296.6,615.2,295.5,613.8,295.5z"/>
	<path class="st0" d="M624.5,295.5c-1.4,0-2.5,1.1-2.5,2.5l0,0v5.3c0,1.4,1.1,2.5,2.5,2.5s2.5-1.1,2.5-2.5l0,0v-5.4
		C627,296.6,625.9,295.4,624.5,295.5z"/>
	<line class="st0" x1="524.8" y1="292" x2="524.8" y2="323.1"/>
	<text transform="matrix(1 0 0 1 486.5833 349.8231)" class="st1 st2 st3">3. Some of the </text>
	<text transform="matrix(1 0 0 1 579.8704 349.8231)" class="st1 st2 st3">c</text>
	<text transform="matrix(1 0 0 1 586.6331 349.8231)" class="st1 st2 st3">arbon is </text>
	<text transform="matrix(1 0 0 1 486.5833 368.0009)" class="st1 st2 st3">then (</text>
	<text transform="matrix(1 0 0 1 523.3596 368.0009)" class="st1 st2 st3">r</text>
	<text transform="matrix(1 0 0 1 528.4661 368.0009)" class="st1 st2 st3">e)</text>
	<text transform="matrix(1 0 0 1 540.5627 368.0009)" class="st1 st2 st3">c</text>
	<text transform="matrix(1 0 0 1 547.3254 368.0009)" class="st1 st2 st3">a</text>
	<text transform="matrix(1 0 0 1 554.9534 368.0009)" class="st1 st2 st3">p</text>
	<text transform="matrix(1 0 0 1 563.1106 368.0009)" class="st1 st2 st3">tu</text>
	<text transform="matrix(1 0 0 1 576.4631 368.0009)" class="st1 st2 st3">r</text>
	<text transform="matrix(1 0 0 1 581.5696 368.0009)" class="st1 st2 st3">ed during </text>
	<text transform="matrix(1 0 0 1 486.5833 386.1776)" class="st1 st2 st3">burning and </text>
	<text transform="matrix(1 0 0 1 566.7678 386.1776)" class="st1 st2 st3">s</text>
	<text transform="matrix(1 0 0 1 572.8167 386.1776)" class="st1 st2 st3">t</text>
	<text transform="matrix(1 0 0 1 577.7288 386.1776)" class="st1 st2 st3">o</text>
	<text transform="matrix(1 0 0 1 585.9299 386.1776)" class="st1 st2 st3">r</text>
	<text transform="matrix(1 0 0 1 591.0364 386.1776)" class="st1 st2 st3">ed </text>
	<text transform="matrix(1 0 0 1 486.5833 404.3553)" class="st1 st2 st3">unde</text>
	<text transform="matrix(1 0 0 1 519.0315 404.3553)" class="st1 st2 st3">r</text>
	<text transform="matrix(1 0 0 1 524.1379 404.3553)" class="st1 st2 st3">g</text>
	<text transform="matrix(1 0 0 1 531.7659 404.3553)" class="st1 st2 st3">r</text>
	<text transform="matrix(1 0 0 1 536.8733 404.3553)" class="st1 st2 st3">ound</text>
	<text transform="matrix(1 0 0 1 503.1047 157.4056)" class="st1 st2 st4">C</text>
	<text transform="matrix(1 0 0 1 510.1379 157.4056)" class="st1 st2 st4">O2</text>
	<text transform="matrix(1 0 0 1 549.8459 144.4545)" class="st1 st2 st4">C</text>
	<text transform="matrix(1 0 0 1 556.8792 144.4545)" class="st1 st2 st4">O2</text>
	<ellipse class="st5" cx="605.5" cy="446.3" rx="76.8" ry="16.6"/>
	<text transform="matrix(1 0 0 1 563.6516 449.1161)" class="st1 st2 st4">C</text>
	<text transform="matrix(1 0 0 1 570.6848 449.1161)" class="st1 st2 st4">O2</text>
	<text transform="matrix(1 0 0 1 600.6555 449.1161)" class="st1 st2 st4">C</text>
	<text transform="matrix(1 0 0 1 607.6887 449.1161)" class="st1 st2 st4">O2</text>
	<text transform="matrix(1 0 0 1 633.8831 449.1161)" class="st1 st2 st4">C</text>
	<text transform="matrix(1 0 0 1 640.9163 449.1161)" class="st1 st2 st4">O2</text>
	<path class="st6" d="M521.6,440.4h-1.9v-1.3c0-0.3-0.3-0.6-0.6-0.6h-4c-0.3,0-0.6,0.3-0.6,0.6v1.3h-12.2c-0.9,0-1.6-0.8-1.6-1.6
		l0,0v-10.3h1.3c0.3,0,0.6-0.3,0.6-0.6v-4c0-0.3-0.3-0.6-0.6-0.6h-1.3v-1.9h-11.9v1.9h-1.3c-0.3,0-0.6,0.3-0.6,0.6v4
		c0,0.3,0.3,0.6,0.6,0.6h1.3v14.2c0,5.3,4.3,9.6,9.6,9.6h16.1v1.3c0,0.3,0.3,0.6,0.6,0.6h4c0.3,0,0.6-0.3,0.6-0.6v-1.3h1.9V440.4z
		 M489.9,422.6h9.2v0.6h-9.2V422.6z M487.9,427.2v-2.6h13.2v2.6H487.9z M498.2,451c-4.5,0-8.3-3.7-8.3-8.3v-14.2h9.2v10.3
		c0,1.6,1.3,2.9,2.9,2.9l0,0h12.2v9.2h-16V451z M518.2,452.9h-2.6v-13.2h2.6V452.9L518.2,452.9z M520.3,451h-0.6v-9.2h0.6V451z"/>
</g>
<g>
	<text transform="matrix(1 0 0 1 305.4065 133.5155)" class="st1 st2 st3">2. The biomass is </text>
	<text transform="matrix(1 0 0 1 305.4065 151.6927)" class="st1 st2 st3">ha</text>
	<text transform="matrix(1 0 0 1 321.2791 151.6927)" class="st1 st2 st3">r</text>
	<text transform="matrix(1 0 0 1 326.9163 151.6927)" class="st1 st2 st3">v</text>
	<text transform="matrix(1 0 0 1 333.9275 151.6927)" class="st1 st2 st3">e</text>
	<text transform="matrix(1 0 0 1 341.447 151.6927)" class="st1 st2 st3">s</text>
	<text transform="matrix(1 0 0 1 347.4846 151.6927)" class="st1 st2 st3">t</text>
	<text transform="matrix(1 0 0 1 352.3967 151.6927)" class="st1 st2 st3">ed and burnt </text>
	<text transform="matrix(1 0 0 1 437.0071 151.6927)" class="st1 st2 st3">f</text>
	<text transform="matrix(1 0 0 1 441.2805 151.6927)" class="st1 st2 st3">or </text>
	<text transform="matrix(1 0 0 1 305.4065 169.87)" class="st1 st2 st3">ene</text>
	<text transform="matrix(1 0 0 1 328.7234 169.87)" class="st1 st2 st3">r</text>
	<text transform="matrix(1 0 0 1 333.8191 169.87)" class="st1 st2 st3">g</text>
	<text transform="matrix(1 0 0 1 341.6853 169.87)" class="st1 st2 st3">y</text>
	<text transform="matrix(1 0 0 1 348.2312 169.87)" class="st1 st2 st3">. </text>
	<text transform="matrix(1 0 0 1 355.0261 169.87)" class="st1 st2 st3">A</text>
	<text transform="matrix(1 0 0 1 363.6165 169.87)" class="st1 st2 st3">s it burns, the </text>
	<text transform="matrix(1 0 0 1 305.4065 188.0468)" class="st1 st2 st3">biomass </text>
	<text transform="matrix(1 0 0 1 361.637 188.0468)" class="st1 st2 st3">r</text>
	<text transform="matrix(1 0 0 1 366.7327 188.0468)" class="st1 st2 st3">el</text>
	<text transform="matrix(1 0 0 1 378.1155 188.0468)" class="st1 st2 st3">e</text>
	<text transform="matrix(1 0 0 1 385.4182 188.0468)" class="st1 st2 st3">ases </text>
	<text transform="matrix(1 0 0 1 416.2874 188.0468)" class="st1 st2 st3">c</text>
	<text transform="matrix(1 0 0 1 423.0393 188.0468)" class="st1 st2 st3">arbon </text>
	<text transform="matrix(1 0 0 1 305.4065 206.224)" class="st1 st2 st3">in</text>
	<text transform="matrix(1 0 0 1 317.4167 206.224)" class="st1 st2 st3">t</text>
	<text transform="matrix(1 0 0 1 322.3289 206.224)" class="st1 st2 st3">o the </text>
	<text transform="matrix(1 0 0 1 357.4714 206.224)" class="st1 st2 st3">a</text>
	<text transform="matrix(1 0 0 1 364.8938 206.224)" class="st1 st2 st3">tmosphe</text>
	<text transform="matrix(1 0 0 1 421.2864 206.224)" class="st1 st2 st3">r</text>
	<text transform="matrix(1 0 0 1 426.3928 206.224)" class="st1 st2 st3">e.</text>
	<path class="st6" d="M315,325.8c0.2-0.1,0.3-0.4,0.2-0.6l0,0c-0.5-1.2-0.5-2.6,0-3.8c0.1-0.2,0-0.5-0.2-0.6l0,0
		c-0.2-0.1-0.5,0-0.6,0.2c-0.8,1.5-0.8,3.2,0,4.8c0.1,0.1,0.2,0.2,0.4,0.2C314.8,325.8,314.9,325.8,315,325.8z"/>
	<path class="st6" d="M319.6,323.2c0-0.6,0.1-1.3,0.4-1.9c0.1-0.2,0-0.5-0.2-0.6c-0.2-0.1-0.5,0-0.6,0.2c-0.8,1.5-0.8,3.2,0,4.8
		c0.1,0.1,0.2,0.2,0.4,0.2c0.1,0,0.1,0,0.2,0c0.2-0.1,0.3-0.4,0.2-0.6l0,0C319.7,324.5,319.6,323.8,319.6,323.2z"/>
	<path class="st6" d="M330.6,320.3h-2.8c-0.2,0-0.4,0.3-0.4,0.5c0,0.2,0.2,0.3,0.4,0.4h2.8c0.2,0,0.5-0.1,0.5-0.4
		c0-0.2-0.1-0.5-0.4-0.5C330.6,320.3,330.6,320.3,330.6,320.3z"/>
	<path class="st6" d="M340.1,320.5c-0.2-0.6-0.6-1.2-1.1-1.6c1.1-1.2,1.7-2.7,1.6-4.3c0-0.9-0.1-1.6-0.4-2.4c0-0.1,0-0.2-0.1-0.2
		c-0.3-1.1-1.3-1.9-2.4-2.1h-20.6c-1.6,0-2.8,2.1-2.8,4.8c-0.1,1.4,0.4,2.9,1.3,4c-0.2-0.1-0.5-0.2-0.8-0.2c-1.6,0-2.9,2.2-2.9,4.8
		c0,2.6,1.2,4.8,2.9,4.8h22.9c1.6,0,2.9-2.1,2.9-4.8c0-0.9-0.1-1.6-0.4-2.4C340.2,320.6,340.2,320.5,340.1,320.5z M319.6,327
		L319.6,327c-0.6,0-1.2-0.6-1.5-1.6l0,0c-0.2-0.6-0.3-1.4-0.3-2.2c0-2.3,1-3.8,1.9-3.8c1,0,1.9,1.6,1.9,3.8
		C321.6,325.3,320.4,327,319.6,327L319.6,327z M317.2,319.3h0.6c-0.2,0.3-0.5,0.8-0.6,1.1c-0.2-0.4-0.4-1-0.8-1.3
		C316.6,319.2,316.9,319.3,317.2,319.3L317.2,319.3z M317.2,310.6c0.9,0,1.9,1.6,1.9,3.8s-1,3.8-1.9,3.8c-1,0-1.9-1.6-1.9-3.8
		S316.2,310.7,317.2,310.6L317.2,310.6z M312.9,323.1c0-2.3,1-3.8,1.9-3.8c1,0,1.9,1.6,1.9,3.8s-1,3.7-1.8,3.8h-0.1
		C313.8,327,312.9,325.3,312.9,323.1L312.9,323.1z M316.8,326.5c0.1-0.2,0.2-0.3,0.3-0.5h0.1c0.1,0.3,0.3,0.6,0.5,1h-1.3
		L316.8,326.5z"/>
	<path class="st6" d="M333.4,323.2c0-0.2-0.2-0.4-0.4-0.4c0,0,0,0-0.1,0h-1.3c-0.2,0-0.4,0.2-0.4,0.4c0,0,0,0,0,0.1
		c0,0.2,0.2,0.4,0.4,0.4c0,0,0,0,0.1,0h1.4C333.3,323.6,333.4,323.4,333.4,323.2z"/>
	<path class="st6" d="M329.1,323.2c0-0.2-0.2-0.4-0.4-0.4c0,0,0,0-0.1,0h-4.8c-0.2,0-0.4,0.2-0.4,0.4c0,0,0,0,0,0.1
		c0,0.2,0.2,0.4,0.4,0.4c0,0,0,0,0.1,0h4.8C328.9,323.6,329.1,323.4,329.1,323.2L329.1,323.2z"/>
	<path class="st6" d="M337.3,325h-3.8c-0.2,0-0.4,0.2-0.4,0.4c0,0.2,0.2,0.4,0.4,0.4h3.8c0.2,0,0.4-0.2,0.4-0.4
		C337.7,325.2,337.5,325,337.3,325z"/>
	<path class="st6" d="M330.1,325h-1c-0.2,0-0.4,0.2-0.4,0.4c0,0.2,0.2,0.4,0.4,0.4h1c0.2,0,0.4-0.2,0.4-0.4
		C330.5,325.2,330.4,325,330.1,325z"/>
	<path class="st6" d="M317.2,317.1c0.1,0,0.1,0,0.2,0c0.2-0.1,0.3-0.4,0.2-0.6l0,0c-0.5-1.2-0.5-2.6,0-3.8c0.1-0.2,0-0.5-0.2-0.6
		l0,0c-0.2-0.1-0.5,0-0.6,0.2c-0.6,1.5-0.6,3.2,0,4.8C316.9,317,317,317.1,317.2,317.1z"/>
	<path class="st6" d="M334,317.3h3.8c0.2,0,0.5-0.1,0.5-0.4c0-0.2-0.1-0.5-0.4-0.5h-0.1H334c-0.2,0-0.4,0.3-0.4,0.5
		C333.5,317.2,333.7,317.3,334,317.3z"/>
	<path class="st6" d="M331.6,316.5h-4.8c-0.2,0-0.4,0.3-0.4,0.5s0.2,0.3,0.4,0.4h4.8c0.2,0,0.4-0.3,0.4-0.5
		C331.9,316.6,331.8,316.5,331.6,316.5z"/>
	<path class="st6" d="M351.6,326.3c0.2-0.1,0.3-0.4,0.2-0.6l0,0c-0.5-1.2-0.5-2.6,0-3.8c0.1-0.2,0-0.5-0.2-0.6l0,0
		c-0.2-0.1-0.5,0-0.6,0.2c-0.8,1.5-0.8,3.2,0,4.8c0.1,0.1,0.2,0.2,0.4,0.2C351.4,326.4,351.5,326.3,351.6,326.3z"/>
	<path class="st6" d="M356.1,323.7c0-0.6,0.1-1.3,0.4-1.9c0.1-0.2,0-0.5-0.2-0.6s-0.5,0-0.6,0.2c-0.6,1.5-0.6,3.2,0,4.8
		c0.1,0.1,0.2,0.2,0.4,0.2c0.1,0,0.2,0,0.2,0c0.2-0.1,0.3-0.4,0.2-0.6l0,0C356.2,325.1,356,324.4,356.1,323.7z"/>
	<path class="st6" d="M367.1,320.9h-2.8c-0.2,0-0.4,0.2-0.4,0.4c0,0,0,0,0,0.1c0,0.2,0.2,0.4,0.4,0.4c0,0,0,0,0.1,0h2.8
		c0.2,0,0.4-0.2,0.4-0.4c0,0,0,0,0-0.1C367.6,321.1,367.4,320.9,367.1,320.9C367.2,320.9,367.2,320.9,367.1,320.9z"/>
	<path class="st6" d="M376.7,321c-0.2-0.6-0.6-1.2-1.1-1.6c1.1-1.2,1.7-2.7,1.6-4.3c0-0.9-0.1-1.6-0.4-2.4c0-0.1,0-0.2-0.1-0.3
		c-0.3-1.1-1.2-1.9-2.4-2.1h-20.6c-1.6,0-2.8,2.2-2.8,4.8c-0.1,1.4,0.4,2.8,1.3,4c-0.2-0.1-0.5-0.2-0.8-0.2c-1.6,0-2.9,2.2-2.9,4.8
		s1.2,4.8,2.9,4.8h22.9c1.6,0,2.9-2.2,2.9-4.8c0-0.9-0.1-1.6-0.4-2.5C376.8,321.2,376.8,321.1,376.7,321z M356.1,327.5L356.1,327.5
		c-0.6,0-1.2-0.6-1.5-1.6l0,0c-0.2-0.6-0.3-1.4-0.3-2.2c0-2.3,1-3.8,1.9-3.8c1,0,1.9,1.6,1.9,3.8S357,327.6,356.1,327.5L356.1,327.5
		z M353.8,319.8h0.6c-0.3,0.3-0.5,0.8-0.6,1.2c-0.2-0.5-0.4-1-0.8-1.3C353.2,319.8,353.4,319.9,353.8,319.8L353.8,319.8z
		 M353.8,311.2c0.9,0,1.9,1.6,1.9,3.8s-1,3.8-1.9,3.8c-1,0-1.9-1.6-1.9-3.8S352.8,311.3,353.8,311.2L353.8,311.2z M349.4,323.6
		c0-2.3,1-3.8,1.9-3.8c1,0,1.9,1.6,1.9,3.8s-1,3.7-1.8,3.8h-0.1C350.4,327.6,349.4,326,349.4,323.6L349.4,323.6z M353.3,327.1
		c0.1-0.2,0.2-0.3,0.3-0.5h0.1c0.1,0.3,0.3,0.6,0.5,1H353L353.3,327.1z"/>
	<path class="st6" d="M370,323.7c0-0.2-0.2-0.4-0.4-0.4c0,0,0,0-0.1,0H368c-0.2,0-0.4,0.3-0.4,0.5c0,0.2,0.2,0.3,0.4,0.4h1.4
		C369.8,324.3,370,324.1,370,323.7L370,323.7z"/>
	<path class="st6" d="M365.7,323.7c0-0.2-0.2-0.4-0.4-0.4c0,0,0,0-0.1,0h-4.8c-0.2,0-0.5,0.1-0.5,0.4c0,0.2,0.1,0.5,0.4,0.5h0.1h4.8
		C365.4,324.3,365.7,324.1,365.7,323.7C365.7,323.8,365.7,323.7,365.7,323.7z"/>
	<path class="st6" d="M373.8,325.7H370c-0.2,0-0.4,0.2-0.4,0.4c0,0,0,0,0,0.1c0,0.2,0.2,0.4,0.4,0.4c0,0,0,0,0.1,0h3.8
		c0.2,0,0.4-0.2,0.4-0.4l0,0C374.3,325.9,374.1,325.7,373.8,325.7L373.8,325.7z"/>
	<path class="st6" d="M366.6,325.7h-1c-0.2,0-0.4,0.2-0.4,0.4c0,0,0,0,0,0.1c0,0.2,0.2,0.4,0.4,0.4l0,0h1c0.2,0,0.4-0.2,0.4-0.4
		c0,0,0,0,0-0.1C367.2,325.9,367,325.7,366.6,325.7L366.6,325.7z"/>
	<path class="st6" d="M353.8,317.8c0.1,0,0.1,0,0.2,0c0.2-0.1,0.3-0.4,0.2-0.6l0,0c-0.5-1.2-0.5-2.6,0-3.8c0.1-0.2,0-0.5-0.2-0.6
		l0,0c-0.2-0.1-0.5,0-0.6,0.2c-0.6,1.5-0.6,3.2,0,4.8C353.4,317.7,353.5,317.8,353.8,317.8z"/>
	<path class="st6" d="M370.4,318h3.8c0.2,0,0.4-0.2,0.4-0.4c0,0,0,0,0-0.1c0-0.2-0.2-0.4-0.4-0.4c0,0,0,0-0.1,0h-3.8
		c-0.2,0-0.4,0.2-0.4,0.4c0,0,0,0,0,0.1C370,317.8,370.2,318,370.4,318L370.4,318z"/>
	<path class="st6" d="M368,317h-4.8c-0.2,0-0.4,0.2-0.4,0.4l0,0c0,0.2,0.2,0.4,0.4,0.4c0,0,0,0,0.1,0h4.8c0.2,0,0.4-0.2,0.4-0.4
		c0,0,0,0,0-0.1C368.6,317.2,368.4,317,368,317C368.1,317,368,317,368,317z"/>
	<path class="st6" d="M388.1,325.9c0.2-0.1,0.3-0.4,0.2-0.6l0,0c-0.5-1.2-0.5-2.6,0-3.8c0.1-0.2,0.1-0.5-0.1-0.6l0,0
		c-0.2-0.1-0.5,0-0.6,0.2c-0.8,1.5-0.8,3.2,0,4.8c0.1,0.1,0.2,0.2,0.4,0.2C387.9,325.9,388.1,325.9,388.1,325.9z"/>
	<path class="st6" d="M392.6,323.3c0-0.6,0.1-1.3,0.4-1.9c0.1-0.2,0-0.5-0.3-0.6c-0.2-0.1-0.4,0-0.5,0.2c-0.6,1.5-0.6,3.2,0,4.8
		c0.1,0.1,0.2,0.2,0.4,0.2c0.1,0,0.2,0,0.2,0c0.2-0.1,0.3-0.4,0.2-0.6l0,0C392.8,324.6,392.6,323.9,392.6,323.3z"/>
	<path class="st6" d="M403.6,320.4h-2.8c-0.2,0-0.4,0.2-0.4,0.4s0.2,0.4,0.4,0.4h2.8c0.2,0,0.4-0.2,0.4-0.4S404,320.4,403.6,320.4
		L403.6,320.4z"/>
	<path class="st6" d="M413.3,320.6c-0.2-0.6-0.5-1.2-1.1-1.6c1.1-1.2,1.7-2.7,1.6-4.3c0-0.9-0.1-1.6-0.4-2.5c0-0.1,0-0.2-0.1-0.2
		c-0.5-1.3-1.4-2.1-2.4-2.1h-20.6c-1.6,0-2.9,2.2-2.9,4.8c-0.1,1.4,0.4,2.8,1.3,4c-0.2-0.1-0.5-0.2-0.8-0.2c-1.6,0-2.9,2.1-2.9,4.8
		c0,2.7,1.2,4.8,2.9,4.8h22.9c1.6,0,2.8-2.2,2.8-4.8c0-0.9-0.1-1.6-0.4-2.4C413.4,320.7,413.3,320.7,413.3,320.6z M392.7,327.1
		L392.7,327.1c-0.6,0-1.2-0.6-1.5-1.6l0,0c-0.2-0.6-0.3-1.4-0.3-2.2c0-2.3,1-3.8,1.9-3.8c1,0,1.9,1.6,1.9,3.8
		S393.6,327.1,392.7,327.1L392.7,327.1z M390.2,319.4h0.6c-0.2,0.3-0.4,0.8-0.6,1.2c-0.2-0.4-0.4-1-0.8-1.3
		C389.7,319.4,390,319.4,390.2,319.4L390.2,319.4z M390.2,310.7c0.9,0,1.9,1.6,1.9,3.8s-1,3.8-1.9,3.8c-1,0-1.9-1.6-1.9-3.8
		S389.4,310.9,390.2,310.7L390.2,310.7z M385.9,323.2c0-2.3,1-3.8,1.9-3.8c1,0,1.9,1.6,1.9,3.8c0,2.2-1,3.7-1.8,3.8h-0.1
		C387,327.1,385.9,325.5,385.9,323.2L385.9,323.2z M389.9,326.6c0.1-0.2,0.2-0.3,0.3-0.5h0.1c0.1,0.3,0.3,0.6,0.5,1h-1.3
		L389.9,326.6z"/>
	<path class="st6" d="M406.6,323.3c0-0.2-0.2-0.4-0.4-0.4c0,0,0,0-0.1,0h-1.4c-0.2,0-0.5,0.1-0.5,0.4c0,0.2,0.1,0.5,0.4,0.5h0.1h1.4
		C406.3,323.7,406.6,323.5,406.6,323.3L406.6,323.3z"/>
	<path class="st6" d="M402.2,323.3c0-0.2-0.2-0.4-0.4-0.4c0,0,0,0-0.1,0h-4.8c-0.2,0-0.4,0.3-0.4,0.5s0.2,0.3,0.4,0.4h4.8
		C402,323.7,402.2,323.6,402.2,323.3L402.2,323.3z"/>
	<path class="st6" d="M410.3,325.1h-3.8c-0.2,0-0.5,0.1-0.5,0.4c0,0.2,0.1,0.5,0.4,0.5h0.1h3.8c0.2,0,0.4-0.3,0.4-0.5
		C410.8,325.3,410.6,325.2,410.3,325.1z"/>
	<path class="st6" d="M403.2,325.1h-1c-0.2,0-0.4,0.3-0.4,0.5c0,0.2,0.2,0.3,0.4,0.4h1c0.2,0,0.4-0.3,0.4-0.5
		C403.5,325.3,403.4,325.2,403.2,325.1z"/>
	<path class="st6" d="M390.2,317.2c0.1,0,0.1,0,0.2,0c0.2-0.1,0.3-0.4,0.2-0.6l0,0c-0.5-1.2-0.5-2.6,0-3.8c0.1-0.2,0-0.5-0.2-0.6
		l0,0c-0.2-0.1-0.5,0-0.6,0.2c-0.8,1.5-0.8,3.2,0,4.8C389.9,317.2,390.1,317.2,390.2,317.2z"/>
	<path class="st6" d="M407,317.6h3.8c0.2,0,0.4-0.2,0.4-0.4l0,0c0-0.2-0.2-0.4-0.4-0.4c0,0,0,0-0.1,0h-3.8c-0.2,0-0.4,0.2-0.4,0.4
		c0,0,0,0,0,0.1C406.6,317.2,406.7,317.5,407,317.6L407,317.6z"/>
	<path class="st6" d="M404.6,316.6h-4.8c-0.2,0-0.4,0.2-0.4,0.4c0,0,0,0,0,0.1c0,0.2,0.2,0.4,0.4,0.4c0,0,0,0,0.1,0h4.8
		c0.2,0,0.4-0.2,0.4-0.4l0,0C405.2,316.8,404.9,316.6,404.6,316.6C404.7,316.6,404.6,316.6,404.6,316.6z"/>
	<line class="st7" x1="359.2" y1="264.3" x2="385.1" y2="264.3"/>
	<polygon class="st8" points="382.5,267.6 381.9,267 384.8,264.3 381.9,261.6 382.5,261 386.1,264.3 	"/>
</g>
<line class="st9" x1="91.8" y1="284.3" x2="92.2" y2="328.2"/>
<line class="st9" x1="91.9" y1="295.7" x2="98.2" y2="286.9"/>
<line class="st9" x1="92" y1="300.9" x2="82.1" y2="290.9"/>
<ellipse class="st9" cx="91.8" cy="286.9" rx="15.8" ry="25.1"/>
<line class="st9" x1="84.5" y1="327.6" x2="99.5" y2="327.5"/>
<line class="st9" x1="116.6" y1="271.7" x2="116.9" y2="315.6"/>
<line class="st9" x1="116.7" y1="283" x2="123" y2="274.4"/>
<line class="st9" x1="116.8" y1="288.3" x2="106.9" y2="278.4"/>
<path class="st9" d="M107.1,293.1c2.9,4.7,5.2,6.3,9.6,6.3c8.8,0,15.8-11.3,15.8-25.1c0-13.8-7-25.1-15.8-25.1
	c-7.5,0-13.6,6.4-15.4,17.3"/>
<line class="st9" x1="109.1" y1="315.1" x2="124.3" y2="314.9"/>
<line class="st9" x1="141.6" y1="259.5" x2="142" y2="303.4"/>
<line class="st9" x1="141.7" y1="270.8" x2="148.1" y2="262.2"/>
<line class="st9" x1="141.8" y1="276.1" x2="131.8" y2="266.2"/>
<path class="st9" d="M132.1,280.9c2.8,4.7,5.2,6.3,9.6,6.3c8.8,0,15.8-11.3,15.8-25.1c0-13.8-7-25.1-15.8-25.1
	c-7.5,0-13.6,6.4-15.4,17.3"/>
<line class="st9" x1="134.2" y1="302.8" x2="149.3" y2="302.6"/>
<line class="st9" x1="171.7" y1="283.6" x2="172" y2="327.5"/>
<line class="st9" x1="171.8" y1="294.9" x2="178" y2="286.2"/>
<line class="st9" x1="171.8" y1="300.1" x2="161.8" y2="290.3"/>
<ellipse class="st9" cx="171.7" cy="286.2" rx="15.8" ry="25.1"/>
<line class="st9" x1="164.2" y1="326.9" x2="179.3" y2="326.8"/>
<line class="st9" x1="196.3" y1="270.9" x2="196.8" y2="314.9"/>
<line class="st9" x1="196.4" y1="282.3" x2="202.8" y2="273.6"/>
<line class="st9" x1="196.5" y1="287.6" x2="186.6" y2="277.6"/>
<path class="st9" d="M186.8,292.3c2.8,4.7,5.2,6.3,9.6,6.3c8.7,0,15.8-11.3,15.8-25.1c0-13.8-7-25.1-15.8-25.1
	c-7.5,0-13.6,6.4-15.4,17.3"/>
<line class="st9" x1="189" y1="314.3" x2="204" y2="314.1"/>
<line class="st9" x1="221.4" y1="258.7" x2="221.8" y2="302.6"/>
<line class="st9" x1="221.5" y1="270.1" x2="227.8" y2="261.4"/>
<line class="st9" x1="221.5" y1="275.4" x2="211.6" y2="265.4"/>
<path class="st9" d="M211.8,280.1c2.8,4.7,5.2,6.3,9.6,6.3c8.8,0,15.8-11.3,15.8-25.1c0-13.8-7-25.1-15.8-25.1
	c-7.5,0-13.6,6.4-15.4,17.3"/>
<line class="st9" x1="214" y1="302.1" x2="229.1" y2="301.9"/>
<text transform="matrix(1 0 0 1 70.4128 133.5155)" class="st1 st2 st3">1. Biomass c</text>
<text transform="matrix(1 0 0 1 148.4016 133.5155)" class="st1 st2 st3">r</text>
<text transform="matrix(1 0 0 1 153.5085 133.5155)" class="st1 st2 st3">ops  (li</text>
<text transform="matrix(1 0 0 1 194.7102 133.5155)" class="st1 st2 st3">k</text>
<text transform="matrix(1 0 0 1 201.9377 133.5155)" class="st1 st2 st3">e </text>
<text transform="matrix(1 0 0 1 70.4128 151.6927)" class="st1 st2 st3">t</text>
<text transform="matrix(1 0 0 1 75.5305 151.6927)" class="st1 st2 st3">r</text>
<text transform="matrix(1 0 0 1 80.6374 151.6927)" class="st1 st2 st3">ees or </text>
<text transform="matrix(1 0 0 1 121.5364 151.6927)" class="st1 st2 st3">c</text>
<text transform="matrix(1 0 0 1 128.1252 151.6927)" class="st1 st2 st3">orn) </text>
<text transform="matrix(1 0 0 1 157.49 151.6927)" class="st1 st2 st3">c</text>
<text transform="matrix(1 0 0 1 164.2522 151.6927)" class="st1 st2 st3">a</text>
<text transform="matrix(1 0 0 1 171.8801 151.6927)" class="st1 st2 st3">p</text>
<text transform="matrix(1 0 0 1 180.0383 151.6927)" class="st1 st2 st3">tu</text>
<text transform="matrix(1 0 0 1 193.3899 151.6927)" class="st1 st2 st3">r</text>
<text transform="matrix(1 0 0 1 198.4968 151.6927)" class="st1 st2 st3">e </text>
<text transform="matrix(1 0 0 1 70.4128 169.87)" class="st1 st2 st3">c</text>
<text transform="matrix(1 0 0 1 77.1643 169.87)" class="st1 st2 st3">arbon as th</text>
<text transform="matrix(1 0 0 1 148.3259 169.87)" class="st1 st2 st3">e</text>
<text transform="matrix(1 0 0 1 155.9211 169.87)" class="st1 st2 st3">y g</text>
<text transform="matrix(1 0 0 1 173.6545 169.87)" class="st1 st2 st3">r</text>
<text transform="matrix(1 0 0 1 178.7619 169.87)" class="st1 st2 st3">o</text>
<text transform="matrix(1 0 0 1 186.9089 169.87)" class="st1 st2 st3">w</text>
<text transform="matrix(1 0 0 1 94.3572 216.7841)" class="st1 st2 st4">C</text>
<text transform="matrix(1 0 0 1 101.3899 216.7841)" class="st1 st2 st4">O2</text>
<text transform="matrix(1 0 0 1 141.0984 203.8221)" class="st1 st2 st4">C</text>
<text transform="matrix(1 0 0 1 148.1311 203.8221)" class="st1 st2 st4">O2</text>
<text transform="matrix(1 0 0 1 184.8205 216.6976)" class="st1 st2 st4">C</text>
<text transform="matrix(1 0 0 1 191.8537 216.6976)" class="st1 st2 st4">O2</text>
<line class="st7" x1="164.7" y1="215.1" x2="164.7" y2="241.1"/>
<polygon class="st8" points="161.4,238.4 161.9,237.8 164.6,240.7 167.4,237.8 168,238.4 164.6,241.9 "/>
<g id="Base">
	<line class="st5" x1="32.6" y1="327.9" x2="737.3" y2="327.9"/>
	<text transform="matrix(1 0 0 1 241.6999 53.8388)" class="st10 st11 st12">Bioene</text>
	<text transform="matrix(1 0 0 1 290.0969 53.8388)" class="st10 st11 st12">r</text>
	<text transform="matrix(1 0 0 1 295.9827 53.8388)" class="st10 st11 st12">g</text>
	<text transform="matrix(1 0 0 1 304.5842 53.8388)" class="st10 st11 st12">y with Carbon Ca</text>
	<text transform="matrix(1 0 0 1 422.303 53.8388)" class="st10 st11 st12">p</text>
	<text transform="matrix(1 0 0 1 431.0999 53.8388)" class="st10 st11 st12">tu</text>
	<text transform="matrix(1 0 0 1 445.9768 53.8388)" class="st10 st11 st12">r</text>
	<text transform="matrix(1 0 0 1 451.8733 53.8388)" class="st10 st11 st12">e + </text>
	<text transform="matrix(1 0 0 1 474.9192 53.8388)" class="st10 st11 st12">S</text>
	<text transform="matrix(1 0 0 1 483.3372 53.8388)" class="st10 st11 st12">t</text>
	<text transform="matrix(1 0 0 1 488.9417 53.8388)" class="st10 st11 st12">o</text>
	<text transform="matrix(1 0 0 1 497.8469 53.8388)" class="st10 st11 st12">r</text>
	<text transform="matrix(1 0 0 1 503.4836 53.8388)" class="st10 st11 st12">a</text>
	<text transform="matrix(1 0 0 1 511.8577 53.8388)" class="st10 st11 st12">g</text>
	<text transform="matrix(1 0 0 1 520.0374 53.8388)" class="st10 st11 st12">e</text>
</g>
</svg>
