<svg xmlns="http://www.w3.org/2000/svg" viewBox="0 0 651.29 390.99"><defs><style>.cls-1,.cls-11,.cls-18,.cls-20,.cls-28{fill:none;stroke-miterlimit:10;}.cls-1{stroke:#010101;}.cls-2{font-size:14px;}.cls-2,.cls-9{fill:#231f20;font-family:SourceSansPro-Regular, Source Sans Pro;}.cls-3{letter-spacing:-0.01em;}.cls-4{letter-spacing:-0.01em;}.cls-5{letter-spacing:-0.02em;}.cls-6{letter-spacing:0em;}.cls-7{letter-spacing:-0.02em;}.cls-8{letter-spacing:-0.01em;}.cls-9{font-size:12px;}.cls-10{letter-spacing:-0.03em;}.cls-11{stroke:#8b8989;}.cls-12{fill:#010101;}.cls-13{letter-spacing:0.03em;}.cls-14{letter-spacing:0em;}.cls-15{letter-spacing:0.01em;}.cls-16{letter-spacing:-0.03em;}.cls-17{letter-spacing:0.02em;}.cls-18,.cls-28{stroke:#111410;}.cls-18{stroke-width:0.75px;}.cls-19{fill:#111410;}.cls-20{stroke:#0e110c;}.cls-21{letter-spacing:-0.02em;}.cls-22{letter-spacing:-0.02em;}.cls-23{letter-spacing:-0.02em;}.cls-24{letter-spacing:0em;}.cls-25{letter-spacing:0.01em;}.cls-26{letter-spacing:-0.04em;}.cls-27{letter-spacing:-0.03em;}.cls-29{font-size:15px;fill:#3d6e71;font-family:SourceSansPro-SemiBold, Source Sans Pro;font-weight:600;}.cls-30{letter-spacing:-0.01em;}.cls-31{letter-spacing:0.01em;}.cls-32{letter-spacing:-0.02em;}.cls-33{letter-spacing:-0.01em;}.cls-34{letter-spacing:0em;}.cls-35{letter-spacing:-0.03em;}.cls-36{letter-spacing:-0.02em;}.cls-37{letter-spacing:-0.02em;}</style></defs><title>diagram</title><g id="Layer_3" data-name="Layer 3"><path class="cls-1" d="M632.94,299.51h-7.59V267.67a7.26,7.26,0,0,0-4.79-12.73H605.4l-2.34-37.45a2.32,2.32,0,0,0-2.31-2.18h-9.91a2.32,2.32,0,0,0-2.31,2.18l-2.34,37.45h-5.55l-2.34-37.45a2.32,2.32,0,0,0-2.32-2.18h-9.9a2.31,2.31,0,0,0-2.31,2.18l-2.35,37.45h-5.55l-2.34-37.45a2.31,2.31,0,0,0-2.31-2.18h-9.91a2.32,2.32,0,0,0-2.31,2.18l-2.34,37.45h-6.45l-1.44-64.6a2.32,2.32,0,0,0-2.31-2.27H511.6a2.32,2.32,0,0,0-2.32,2.27l-1.66,74.5H489.31a7.27,7.27,0,0,0-4.8,12.73v21.94H479.4a2.32,2.32,0,0,0,0,4.64H632.94a2.32,2.32,0,0,0,0-4.64Zm-119.36,0H489.15V272.42h.21m-.21,0h24.43m-2.09,27.09,94.21-30h15v30H521.34v-30H605.7" transform="translate(-58.71 -39.01)"/><path class="cls-1" d="M523.16,173.92" transform="translate(-58.71 -39.01)"/><path class="cls-1" d="M522.61,174.76" transform="translate(-58.71 -39.01)"/><path class="cls-1" d="M521.61,174.73" transform="translate(-58.71 -39.01)"/><path class="cls-1" d="M519.84,175.73" transform="translate(-58.71 -39.01)"/><path class="cls-1" d="M526,179a4.82,4.82,0,0,0,3-1,7.6,7.6,0,0,0,8.27,1.5,9.83,9.83,0,0,0,6.88,2.82,9.58,9.58,0,0,0,3.23-.55A13.12,13.12,0,1,0,550,164.58a9.79,9.79,0,0,0-12.75.86,7.6,7.6,0,0,0-10,3.95,4.51,4.51,0,0,0-1.26-.18,4.85,4.85,0,0,0-4.6,3.32,2.06,2.06,0,0,0-.35,0,3.22,3.22,0,0,0-3.22,3.22,1,1,0,0,0,1,1" transform="translate(-58.71 -39.01)"/><path class="cls-1" d="M526,176.9" transform="translate(-58.71 -39.01)"/><path class="cls-1" d="M529.79,175.82" transform="translate(-58.71 -39.01)"/><path class="cls-1" d="M534.19,178" transform="translate(-58.71 -39.01)"/><path class="cls-1" d="M536.93,177.28" transform="translate(-58.71 -39.01)"/><path class="cls-1" d="M544.08,180.2" transform="translate(-58.71 -39.01)"/><path class="cls-1" d="M547.32,179.48" transform="translate(-58.71 -39.01)"/><path class="cls-1" d="M558.36,185.69" transform="translate(-58.71 -39.01)"/><path class="cls-1" d="M558.36,163.58" transform="translate(-58.71 -39.01)"/><path class="cls-1" d="M550.69,166.68" transform="translate(-58.71 -39.01)"/><path class="cls-1" d="M549.29,166.7" transform="translate(-58.71 -39.01)"/><path class="cls-1" d="M544.08,164.68" transform="translate(-58.71 -39.01)"/><path class="cls-1" d="M536.36,274.75a2.32,2.32,0,0,0-2.32,2.32V282a2.32,2.32,0,1,0,4.64,0v-4.95A2.32,2.32,0,0,0,536.36,274.75Z" transform="translate(-58.71 -39.01)"/><path class="cls-1" d="M546.27,274.75a2.32,2.32,0,0,0-2.32,2.32V282a2.32,2.32,0,1,0,4.63,0v-4.95A2.31,2.31,0,0,0,546.27,274.75Z" transform="translate(-58.71 -39.01)"/><path class="cls-1" d="M556.17,274.75a2.31,2.31,0,0,0-2.31,2.32V282a2.32,2.32,0,1,0,4.63,0v-4.95A2.32,2.32,0,0,0,556.17,274.75Z" transform="translate(-58.71 -39.01)"/><path class="cls-1" d="M566.08,274.75a2.32,2.32,0,0,0-2.32,2.32V282a2.32,2.32,0,1,0,4.63,0v-4.95A2.31,2.31,0,0,0,566.08,274.75Z" transform="translate(-58.71 -39.01)"/><path class="cls-1" d="M576,274.75a2.31,2.31,0,0,0-2.31,2.32V282a2.32,2.32,0,1,0,4.63,0v-4.95A2.32,2.32,0,0,0,576,274.75Z" transform="translate(-58.71 -39.01)"/><path class="cls-1" d="M585.89,274.75a2.32,2.32,0,0,0-2.32,2.32V282a2.32,2.32,0,0,0,4.64,0v-4.95A2.32,2.32,0,0,0,585.89,274.75Z" transform="translate(-58.71 -39.01)"/><path class="cls-1" d="M595.8,274.75a2.32,2.32,0,0,0-2.32,2.32V282a2.32,2.32,0,1,0,4.63,0v-4.95A2.31,2.31,0,0,0,595.8,274.75Z" transform="translate(-58.71 -39.01)"/><path class="cls-1" d="M605.7,274.75a2.32,2.32,0,0,0-2.32,2.32V282a2.32,2.32,0,1,0,4.64,0v-4.95A2.32,2.32,0,0,0,605.7,274.75Z" transform="translate(-58.71 -39.01)"/><line class="cls-1" x1="455.31" y1="232.88" x2="455.31" y2="261"/><text class="cls-2" transform="translate(419.54 286.01)">3. Some of the <tspan class="cls-3" x="86.22" y="0">c</tspan><tspan x="92.47" y="0">arbon is </tspan><tspan x="0" y="16.8">then (</tspan><tspan class="cls-3" x="33.99" y="16.8">r</tspan><tspan x="38.71" y="16.8">e)</tspan><tspan class="cls-4" x="49.89" y="16.8">c</tspan><tspan x="56.14" y="16.8">a</tspan><tspan class="cls-5" x="63.19" y="16.8">p</tspan><tspan class="cls-6" x="70.73" y="16.8">tu</tspan><tspan class="cls-3" x="83.07" y="16.8">r</tspan><tspan x="87.79" y="16.8">ed during </tspan><tspan x="0" y="33.6">burning and </tspan><tspan class="cls-7" x="74.11" y="33.6">s</tspan><tspan class="cls-8" x="79.7" y="33.6">t</tspan><tspan x="84.24" y="33.6">o</tspan><tspan class="cls-3" x="91.82" y="33.6">r</tspan><tspan x="96.54" y="33.6">ed </tspan><tspan x="0" y="50.4">unde</tspan><tspan class="cls-3" x="29.99" y="50.4">r</tspan><tspan x="34.71" y="50.4">g</tspan><tspan class="cls-4" x="41.76" y="50.4">r</tspan><tspan x="46.48" y="50.4">ound.</tspan></text><text class="cls-9" transform="translate(434.82 108.17)"><tspan class="cls-10">C</tspan><tspan x="6.5" y="0">O2</tspan></text><text class="cls-9" transform="translate(478.02 96.19)"><tspan class="cls-10">C</tspan><tspan x="6.5" y="0">O2</tspan></text><ellipse class="cls-11" cx="529.49" cy="375.22" rx="71.03" ry="15.27"/><text class="cls-9" transform="translate(490.78 377.77)"><tspan class="cls-10">C</tspan><tspan x="6.5" y="0">O2</tspan></text><text class="cls-9" transform="translate(524.98 377.77)"><tspan class="cls-10">C</tspan><tspan x="6.5" y="0">O2</tspan></text><text class="cls-9" transform="translate(555.69 377.77)"><tspan class="cls-10">C</tspan><tspan x="6.5" y="0">O2</tspan></text><path class="cls-12" d="M510.57,408.74h-1.83v-1.21a.61.61,0,0,0-.61-.61h-3.66a.61.61,0,0,0-.61.61v1.21H492.57a1.5,1.5,0,0,1-1.51-1.5v-9.47h1.22a.61.61,0,0,0,.61-.61V393.5a.62.62,0,0,0-.61-.61h-1.22v-1.82h-11v1.82h-1.21a.61.61,0,0,0-.61.61v3.66a.61.61,0,0,0,.61.61h1.21v13.07a8.9,8.9,0,0,0,8.89,8.88h14.89v1.22a.61.61,0,0,0,.61.61h3.66a.62.62,0,0,0,.61-.61v-1.22h1.83ZM481.3,392.28h8.54v.61H481.3Zm-1.83,4.27v-2.44h12.2v2.44h-12.2ZM489,418.5a7.68,7.68,0,0,1-7.67-7.66V397.77h8.54v9.47a2.72,2.72,0,0,0,2.73,2.72h11.29v8.54Zm18.55,1.83h-2.44V408.14h2.44v12.19Zm1.83-1.83h-.61V410h.61Z" transform="translate(-58.71 -39.01)"/></g><g id="Layer_2" data-name="Layer 2"><text class="cls-2" transform="translate(252.09 86.09)">2. The biomass is <tspan x="0" y="16.8">ha</tspan><tspan class="cls-13" x="14.67" y="16.8">r</tspan><tspan class="cls-14" x="19.88" y="16.8">v</tspan><tspan x="26.36" y="16.8">e</tspan><tspan class="cls-7" x="33.31" y="16.8">s</tspan><tspan class="cls-8" x="38.89" y="16.8">t</tspan><tspan x="43.43" y="16.8">ed and burnt </tspan><tspan class="cls-3" x="121.63" y="16.8">f</tspan><tspan x="125.58" y="16.8">or </tspan><tspan x="0" y="33.6">ene</tspan><tspan class="cls-3" x="21.55" y="33.6">r</tspan><tspan class="cls-15" x="26.26" y="33.6">g</tspan><tspan class="cls-16" x="33.53" y="33.6">y</tspan><tspan x="39.58" y="33.6">. </tspan><tspan class="cls-17" x="45.86" y="33.6">A</tspan><tspan x="53.8" y="33.6">s it burns, the </tspan><tspan x="0" y="50.4">biomass </tspan><tspan class="cls-3" x="51.97" y="50.4">r</tspan><tspan x="56.68" y="50.4">el</tspan><tspan class="cls-8" x="67.2" y="50.4">e</tspan><tspan x="73.95" y="50.4">ases </tspan><tspan class="cls-4" x="102.48" y="50.4">c</tspan><tspan x="108.72" y="50.4">arbon </tspan><tspan x="0" y="67.2">in</tspan><tspan class="cls-8" x="11.1" y="67.2">t</tspan><tspan x="15.64" y="67.2">o the </tspan><tspan class="cls-8" x="48.12" y="67.2">a</tspan><tspan x="54.98" y="67.2">tmosphe</tspan><tspan class="cls-3" x="107.1" y="67.2">r</tspan><tspan x="111.82" y="67.2">e.</tspan></text><path class="cls-12" d="M319.68,302.75a.45.45,0,0,0,.18-.62,4.12,4.12,0,0,1,0-3.54.45.45,0,0,0-.18-.62.49.49,0,0,0-.62.17,5.25,5.25,0,0,0,0,4.43.55.55,0,0,0,.4.22C319.55,302.79,319.64,302.79,319.68,302.75Z" transform="translate(-58.71 -39.01)"/><path class="cls-12" d="M323.89,300.36a3.5,3.5,0,0,1,.39-1.77.45.45,0,1,0-.79-.45,5.25,5.25,0,0,0,0,4.43.53.53,0,0,0,.4.22.38.38,0,0,0,.22,0,.44.44,0,0,0,.17-.62A3.54,3.54,0,0,1,323.89,300.36Z" transform="translate(-58.71 -39.01)"/><path class="cls-12" d="M334.06,297.7h-2.65a.45.45,0,0,0,0,.89h2.65a.45.45,0,1,0,0-.89Z" transform="translate(-58.71 -39.01)"/><path class="cls-12" d="M342.91,297.85a3.78,3.78,0,0,0-1-1.48,5.19,5.19,0,0,0,1.47-4,6.85,6.85,0,0,0-.36-2.25.4.4,0,0,0-.09-.25A2.6,2.6,0,0,0,340.7,288h-19c-1.46,0-2.65,1.94-2.65,4.42a5.6,5.6,0,0,0,1.18,3.71,1.74,1.74,0,0,0-.74-.17c-1.51,0-2.66,1.95-2.66,4.43s1.15,4.42,2.66,4.42H340.7c1.51,0,2.66-1.94,2.66-4.42a6.81,6.81,0,0,0-.36-2.25A.45.45,0,0,0,342.91,297.85Zm-19,6h-.08c-.5-.05-1-.6-1.35-1.48v0a5.8,5.8,0,0,1-.34-2c0-2.08.93-3.54,1.78-3.54s1.77,1.46,1.77,3.54S324.73,303.9,323.89,303.9Zm-2.22-7.08h.6a4.24,4.24,0,0,0-.6,1.05,4,4,0,0,0-.73-1.22A1.7,1.7,0,0,0,321.67,296.82Zm0-8c.84,0,1.77,1.46,1.77,3.54s-.93,3.54-1.77,3.54-1.77-1.46-1.77-3.54S320.83,288.85,321.67,288.85Zm-4,11.51c0-2.08.93-3.54,1.77-3.54s1.77,1.46,1.77,3.54-.87,3.44-1.69,3.53h-.08C318.62,303.9,317.69,302.44,317.69,300.36Zm3.64,3.17a3.63,3.63,0,0,0,.27-.52h.14a4,4,0,0,0,.53.89H321.1Z" transform="translate(-58.71 -39.01)"/><path class="cls-12" d="M336.72,300.36a.41.41,0,0,0-.44-.44H335a.41.41,0,0,0-.44.44.41.41,0,0,0,.44.44h1.33A.42.42,0,0,0,336.72,300.36Z" transform="translate(-58.71 -39.01)"/><path class="cls-12" d="M332.74,300.36a.42.42,0,0,0-.45-.44h-4.42a.41.41,0,0,0-.44.44.41.41,0,0,0,.44.44h4.42A.42.42,0,0,0,332.74,300.36Z" transform="translate(-58.71 -39.01)"/><path class="cls-12" d="M340.26,302.13h-3.54a.44.44,0,0,0,0,.88h3.54a.44.44,0,1,0,0-.88Z" transform="translate(-58.71 -39.01)"/><path class="cls-12" d="M333.62,302.13h-.88a.44.44,0,1,0,0,.88h.88a.44.44,0,1,0,0-.88Z" transform="translate(-58.71 -39.01)"/><path class="cls-12" d="M321.67,294.83a1.49,1.49,0,0,0,.22-.05.45.45,0,0,0,.18-.62,4.12,4.12,0,0,1,0-3.54.45.45,0,0,0-.18-.62.49.49,0,0,0-.62.18,5.33,5.33,0,0,0,0,4.42A.53.53,0,0,0,321.67,294.83Z" transform="translate(-58.71 -39.01)"/><path class="cls-12" d="M337.16,295.05h3.54a.45.45,0,1,0,0-.89h-3.54a.45.45,0,0,0,0,.89Z" transform="translate(-58.71 -39.01)"/><path class="cls-12" d="M335,294.16h-4.43a.45.45,0,0,0,0,.89H335a.45.45,0,0,0,0-.89Z" transform="translate(-58.71 -39.01)"/><path class="cls-12" d="M353.46,303.3a.44.44,0,0,0,.18-.61,4.14,4.14,0,0,1,0-3.55.44.44,0,0,0-.18-.61.49.49,0,0,0-.62.17,5.25,5.25,0,0,0,0,4.43.53.53,0,0,0,.4.22A.3.3,0,0,0,353.46,303.3Z" transform="translate(-58.71 -39.01)"/><path class="cls-12" d="M357.66,300.92a3.56,3.56,0,0,1,.4-1.78.47.47,0,0,0-.18-.61.49.49,0,0,0-.62.17,5.35,5.35,0,0,0,0,4.43.55.55,0,0,0,.4.22c.09,0,.18,0,.22,0a.45.45,0,0,0,.18-.62A3.54,3.54,0,0,1,357.66,300.92Z" transform="translate(-58.71 -39.01)"/><path class="cls-12" d="M367.84,298.26h-2.65a.42.42,0,0,0-.45.44.42.42,0,0,0,.45.44h2.65a.41.41,0,0,0,.44-.44A.41.41,0,0,0,367.84,298.26Z" transform="translate(-58.71 -39.01)"/><path class="cls-12" d="M376.69,298.41a3.69,3.69,0,0,0-1-1.48,5.15,5.15,0,0,0,1.48-4,6.81,6.81,0,0,0-.36-2.25.54.54,0,0,0-.09-.26,2.61,2.61,0,0,0-2.21-1.92h-19c-1.46,0-2.65,2-2.65,4.43a5.6,5.6,0,0,0,1.17,3.7,1.84,1.84,0,0,0-.73-.16c-1.51,0-2.66,1.95-2.66,4.43s1.15,4.42,2.66,4.42h21.24c1.51,0,2.66-1.95,2.66-4.42a6.91,6.91,0,0,0-.36-2.26A.5.5,0,0,0,376.69,298.41Zm-19,6h-.08c-.49-.05-1-.6-1.34-1.48v0a5.8,5.8,0,0,1-.34-2c0-2.08.93-3.55,1.77-3.55s1.77,1.47,1.77,3.55S358.5,304.46,357.66,304.46Zm-2.21-7.09h.6a4,4,0,0,0-.6,1.06,3.75,3.75,0,0,0-.74-1.22A1.73,1.73,0,0,0,355.45,297.37Zm0-8c.84,0,1.77,1.46,1.77,3.54s-.93,3.54-1.77,3.54-1.77-1.46-1.77-3.54S354.61,289.41,355.45,289.41Zm-4,11.51c0-2.09.93-3.55,1.77-3.55s1.77,1.46,1.77,3.55-.87,3.44-1.69,3.53h-.08C352.4,304.46,351.47,303,351.47,300.92Zm3.64,3.17a3.63,3.63,0,0,0,.27-.52h.14a4.28,4.28,0,0,0,.53.89h-1.17Z" transform="translate(-58.71 -39.01)"/><path class="cls-12" d="M370.5,300.92a.42.42,0,0,0-.44-.45h-1.33a.45.45,0,0,0,0,.89h1.33A.42.42,0,0,0,370.5,300.92Z" transform="translate(-58.71 -39.01)"/><path class="cls-12" d="M366.51,300.92a.42.42,0,0,0-.44-.45h-4.42a.45.45,0,1,0,0,.89h4.42A.41.41,0,0,0,366.51,300.92Z" transform="translate(-58.71 -39.01)"/><path class="cls-12" d="M374,302.69H370.5a.41.41,0,0,0-.44.44.41.41,0,0,0,.44.44H374a.42.42,0,0,0,.44-.44A.41.41,0,0,0,374,302.69Z" transform="translate(-58.71 -39.01)"/><path class="cls-12" d="M367.4,302.69h-.89a.41.41,0,0,0-.44.44.42.42,0,0,0,.44.44h.89a.41.41,0,0,0,.44-.44A.41.41,0,0,0,367.4,302.69Z" transform="translate(-58.71 -39.01)"/><path class="cls-12" d="M355.45,295.38a1.81,1.81,0,0,0,.22,0,.45.45,0,0,0,.18-.62,4.12,4.12,0,0,1,0-3.54.45.45,0,0,0-.18-.62.48.48,0,0,0-.62.18,5.33,5.33,0,0,0,0,4.42A.55.55,0,0,0,355.45,295.38Z" transform="translate(-58.71 -39.01)"/><path class="cls-12" d="M370.94,295.6h3.54a.41.41,0,0,0,.44-.44.41.41,0,0,0-.44-.44h-3.54a.41.41,0,0,0-.44.44A.41.41,0,0,0,370.94,295.6Z" transform="translate(-58.71 -39.01)"/><path class="cls-12" d="M368.73,294.72H364.3a.42.42,0,0,0-.44.44.41.41,0,0,0,.44.44h4.43a.41.41,0,0,0,.44-.44A.42.42,0,0,0,368.73,294.72Z" transform="translate(-58.71 -39.01)"/><path class="cls-12" d="M387.24,302.86a.44.44,0,0,0,.17-.62,4.21,4.21,0,0,1,0-3.54.44.44,0,0,0-.17-.62.49.49,0,0,0-.62.18,5.25,5.25,0,0,0,0,4.43.53.53,0,0,0,.4.22A.32.32,0,0,0,387.24,302.86Z" transform="translate(-58.71 -39.01)"/><path class="cls-12" d="M391.44,300.47a3.5,3.5,0,0,1,.4-1.77.46.46,0,0,0-.8-.44,5.35,5.35,0,0,0,0,4.43.55.55,0,0,0,.4.22c.09,0,.18,0,.22-.05a.45.45,0,0,0,.18-.62A3.47,3.47,0,0,1,391.44,300.47Z" transform="translate(-58.71 -39.01)"/><path class="cls-12" d="M401.62,297.82H399a.44.44,0,1,0,0,.88h2.65a.44.44,0,0,0,0-.88Z" transform="translate(-58.71 -39.01)"/><path class="cls-12" d="M410.46,298a3.52,3.52,0,0,0-1-1.48,5.15,5.15,0,0,0,1.47-4,6.92,6.92,0,0,0-.35-2.26.43.43,0,0,0-.1-.25c-.47-1.17-1.26-1.92-2.2-1.92h-19c-1.46,0-2.66,1.95-2.66,4.43a5.57,5.57,0,0,0,1.18,3.7,1.69,1.69,0,0,0-.73-.16c-1.51,0-2.66,1.94-2.66,4.42s1.15,4.43,2.66,4.43h21.24c1.5,0,2.65-1.95,2.65-4.43a6.9,6.9,0,0,0-.35-2.25A.4.4,0,0,0,410.46,298Zm-19,6h-.08c-.5-.05-1-.61-1.34-1.48v0a5.82,5.82,0,0,1-.34-2c0-2.08.93-3.54,1.77-3.54s1.77,1.46,1.77,3.54S392.28,304,391.44,304Zm-2.21-7.08h.59a4.12,4.12,0,0,0-.59,1.06,3.93,3.93,0,0,0-.74-1.22A1.86,1.86,0,0,0,389.23,296.93Zm0-8c.84,0,1.77,1.46,1.77,3.54s-.93,3.54-1.77,3.54-1.77-1.46-1.77-3.54S388.39,289,389.23,289Zm-4,11.5c0-2.08.92-3.54,1.77-3.54s1.77,1.46,1.77,3.54-.87,3.44-1.69,3.54H387C386.17,304,385.25,302.55,385.25,300.47Zm3.64,3.18c.09-.16.19-.34.27-.52h.14a4.17,4.17,0,0,0,.52.88h-1.17Z" transform="translate(-58.71 -39.01)"/><path class="cls-12" d="M404.28,300.47a.42.42,0,0,0-.45-.44h-1.32a.45.45,0,1,0,0,.89h1.32A.43.43,0,0,0,404.28,300.47Z" transform="translate(-58.71 -39.01)"/><path class="cls-12" d="M400.29,300.47a.41.41,0,0,0-.44-.44h-4.43a.45.45,0,0,0,0,.89h4.43A.42.42,0,0,0,400.29,300.47Z" transform="translate(-58.71 -39.01)"/><path class="cls-12" d="M407.82,302.24h-3.54a.45.45,0,1,0,0,.89h3.54a.45.45,0,0,0,0-.89Z" transform="translate(-58.71 -39.01)"/><path class="cls-12" d="M401.18,302.24h-.89a.45.45,0,0,0,0,.89h.89a.45.45,0,0,0,0-.89Z" transform="translate(-58.71 -39.01)"/><path class="cls-12" d="M389.23,294.94a1.81,1.81,0,0,0,.22,0,.45.45,0,0,0,.18-.62,4.12,4.12,0,0,1,0-3.54.45.45,0,0,0-.18-.62.49.49,0,0,0-.62.17,5.25,5.25,0,0,0,0,4.43A.55.55,0,0,0,389.23,294.94Z" transform="translate(-58.71 -39.01)"/><path class="cls-12" d="M404.72,295.16h3.54a.42.42,0,0,0,.44-.44.41.41,0,0,0-.44-.44h-3.54a.41.41,0,0,0-.44.44A.41.41,0,0,0,404.72,295.16Z" transform="translate(-58.71 -39.01)"/><path class="cls-12" d="M402.51,294.28h-4.43a.41.41,0,0,0-.44.44.41.41,0,0,0,.44.44h4.43a.42.42,0,0,0,.44-.44A.41.41,0,0,0,402.51,294.28Z" transform="translate(-58.71 -39.01)"/><line class="cls-18" x1="301.81" y1="206.96" x2="325.83" y2="206.96"/><polygon class="cls-19" points="323.35 210.03 322.83 209.48 325.54 206.96 322.83 204.45 323.35 203.9 326.64 206.96 323.35 210.03"/></g><g id="Layer_1" data-name="Layer 1"><line class="cls-20" x1="54.71" y1="225.45" x2="55.06" y2="266.03"/><line class="cls-20" x1="54.82" y1="235.93" x2="60.64" y2="227.88"/><line class="cls-20" x1="54.89" y1="240.82" x2="45.69" y2="231.63"/><ellipse class="cls-20" cx="54.73" cy="227.88" rx="14.58" ry="23.16"/><line class="cls-20" x1="47.86" y1="265.51" x2="61.81" y2="265.34"/><line class="cls-20" x1="77.58" y1="213.82" x2="77.93" y2="254.4"/><line class="cls-20" x1="77.69" y1="224.3" x2="83.51" y2="216.25"/><line class="cls-20" x1="77.76" y1="229.19" x2="68.56" y2="220"/><path class="cls-20" d="M127.46,272.59c2.65,4.32,4.76,5.84,8.86,5.84,8.05,0,14.57-10.37,14.57-23.16s-6.52-23.16-14.57-23.16c-6.86,0-12.61,5.87-14.17,16" transform="translate(-58.71 -39.01)"/><line class="cls-20" x1="70.73" y1="253.88" x2="84.68" y2="253.71"/><line class="cls-20" x1="100.71" y1="202.51" x2="101.06" y2="243.09"/><line class="cls-20" x1="100.82" y1="212.99" x2="106.64" y2="204.95"/><line class="cls-20" x1="100.89" y1="217.88" x2="91.7" y2="208.69"/><path class="cls-20" d="M150.59,261.28c2.65,4.32,4.76,5.84,8.86,5.84,8.05,0,14.58-10.37,14.58-23.16s-6.53-23.16-14.58-23.16c-6.86,0-12.61,5.87-14.16,16" transform="translate(-58.71 -39.01)"/><line class="cls-20" x1="93.86" y1="242.57" x2="107.81" y2="242.4"/><line class="cls-20" x1="128.45" y1="224.76" x2="128.8" y2="265.35"/><line class="cls-20" x1="128.56" y1="235.25" x2="134.37" y2="227.2"/><line class="cls-20" x1="128.62" y1="240.14" x2="119.43" y2="230.94"/><ellipse class="cls-20" cx="128.47" cy="227.2" rx="14.58" ry="23.16"/><line class="cls-20" x1="121.6" y1="264.83" x2="135.55" y2="264.65"/><line class="cls-20" x1="151.32" y1="213.13" x2="151.67" y2="253.71"/><line class="cls-20" x1="151.43" y1="223.62" x2="157.24" y2="215.57"/><line class="cls-20" x1="151.49" y1="228.5" x2="142.3" y2="219.31"/><path class="cls-20" d="M201.19,271.9c2.65,4.33,4.77,5.84,8.86,5.84,8,0,14.58-10.37,14.58-23.16s-6.53-23.16-14.58-23.16c-6.85,0-12.6,5.87-14.16,16" transform="translate(-58.71 -39.01)"/><line class="cls-20" x1="144.47" y1="253.2" x2="158.42" y2="253.02"/><line class="cls-20" x1="174.45" y1="201.82" x2="174.8" y2="242.41"/><line class="cls-20" x1="174.56" y1="212.31" x2="180.38" y2="204.26"/><line class="cls-20" x1="174.63" y1="217.2" x2="165.43" y2="208"/><path class="cls-20" d="M224.33,260.6c2.64,4.32,4.76,5.83,8.86,5.83,8.05,0,14.57-10.37,14.57-23.16s-6.52-23.16-14.57-23.16c-6.86,0-12.61,5.88-14.17,16" transform="translate(-58.71 -39.01)"/><line class="cls-20" x1="167.6" y1="241.89" x2="181.55" y2="241.71"/><text class="cls-2" transform="translate(34.91 86.09)">1. Biomass c<tspan class="cls-3" x="72.08" y="0">r</tspan><tspan x="76.8" y="0" xml:space="preserve">ops  (li</tspan><tspan class="cls-21" x="114.88" y="0">k</tspan><tspan x="121.56" y="0">e </tspan><tspan x="0" y="16.8">t</tspan><tspan class="cls-3" x="4.73" y="16.8">r</tspan><tspan x="9.45" y="16.8">ees or </tspan><tspan class="cls-22" x="47.25" y="16.8">c</tspan><tspan x="53.34" y="16.8">orn) </tspan><tspan class="cls-4" x="80.48" y="16.8">c</tspan><tspan x="86.73" y="16.8">a</tspan><tspan class="cls-23" x="93.78" y="16.8">p</tspan><tspan class="cls-24" x="101.32" y="16.8">tu</tspan><tspan class="cls-4" x="113.66" y="16.8">r</tspan><tspan x="118.38" y="16.8">e </tspan><tspan class="cls-3" x="0" y="33.6">c</tspan><tspan x="6.24" y="33.6">arbon as th</tspan><tspan class="cls-25" x="72.01" y="33.6">e</tspan><tspan x="79.03" y="33.6">y g</tspan><tspan class="cls-4" x="95.42" y="33.6">r</tspan><tspan class="cls-14" x="100.14" y="33.6">o</tspan><tspan class="cls-26" x="107.67" y="33.6">w</tspan><tspan x="117.15" y="33.6">.</tspan></text><text class="cls-9" transform="translate(57.04 163.04)"><tspan class="cls-27">C</tspan><tspan x="6.5" y="0">O2</tspan></text><text class="cls-9" transform="translate(100.24 151.07)"><tspan class="cls-10">C</tspan><tspan x="6.5" y="0">O2</tspan></text><text class="cls-9" transform="translate(140.65 162.97)"><tspan class="cls-10">C</tspan><tspan x="6.5" y="0">O2</tspan></text><line class="cls-18" x1="122.03" y1="161.48" x2="122.03" y2="185.5"/><polygon class="cls-19" points="118.97 183.01 119.51 182.5 122.03 185.21 124.55 182.5 125.1 183.01 122.03 186.31 118.97 183.01"/></g><g id="Base"><line class="cls-28" y1="265.75" x2="651.29" y2="265.75"/><text class="cls-29" transform="translate(193.22 12.45)">Bioene<tspan class="cls-30" x="44.73" y="0">r</tspan><tspan class="cls-31" x="50.17" y="0">g</tspan><tspan x="58.12" y="0">y with Carbon Ca</tspan><tspan class="cls-32" x="166.92" y="0">p</tspan><tspan x="175.05" y="0">tu</tspan><tspan class="cls-33" x="188.8" y="0">r</tspan><tspan class="cls-34" x="194.25" y="0">e + </tspan><tspan class="cls-35" x="215.55" y="0">S</tspan><tspan class="cls-36" x="223.33" y="0">t</tspan><tspan x="228.51" y="0">o</tspan><tspan class="cls-35" x="236.74" y="0">r</tspan><tspan x="241.95" y="0">a</tspan><tspan class="cls-37" x="249.69" y="0">g</tspan><tspan x="257.25" y="0">e</tspan></text></g></svg>