<svg xmlns="http://www.w3.org/2000/svg" viewBox="0 0 659.78 396.08"><defs><style>.cls-1,.cls-18,.cls-20,.cls-25,.cls-9{fill:none;stroke-miterlimit:10;}.cls-1{stroke:#010101;}.cls-2{font-size:11px;}.cls-2,.cls-7{fill:#231f20;font-family:SourceSansPro-Regular, Source Sans Pro;}.cls-3{letter-spacing:-0.01em;}.cls-4{letter-spacing:-0.02em;}.cls-5{letter-spacing:-0.02em;}.cls-6{letter-spacing:-0.01em;}.cls-7{font-size:12.16px;}.cls-8{letter-spacing:-0.03em;}.cls-9{stroke:#8b8989;}.cls-10{fill:#010101;}.cls-11{letter-spacing:0.02em;}.cls-12{letter-spacing:0em;}.cls-13{letter-spacing:0.02em;}.cls-14{letter-spacing:-0.04em;}.cls-15{letter-spacing:0.02em;}.cls-16{letter-spacing:-0.01em;}.cls-17{letter-spacing:-0.01em;}.cls-18,.cls-25{stroke:#111410;}.cls-18{stroke-width:0.75px;}.cls-19{fill:#111410;}.cls-20{stroke:#0e110c;}.cls-21{letter-spacing:-0.02em;}.cls-22{letter-spacing:-0.02em;}.cls-23{letter-spacing:0em;}.cls-24{letter-spacing:-0.04em;}.cls-26{font-size:15.2px;fill:#3d6e71;font-family:SourceSansPro-SemiBold, Source Sans Pro;font-weight:600;}.cls-27{letter-spacing:-0.01em;}.cls-28{letter-spacing:0.01em;}.cls-29{letter-spacing:-0.02em;}.cls-30{letter-spacing:-0.03em;}.cls-31{letter-spacing:-0.02em;}.cls-32{letter-spacing:-0.03em;}</style></defs><title>diagram</title><g id="Layer_3" data-name="Layer 3"><path class="cls-1" d="M636.18,311.71H628.5V279.44a7.36,7.36,0,0,0-4.86-12.89H608.28l-2.37-37.94a2.34,2.34,0,0,0-2.34-2.2h-10a2.35,2.35,0,0,0-2.34,2.2l-2.37,37.94H583.2l-2.38-37.94a2.34,2.34,0,0,0-2.34-2.2h-10a2.35,2.35,0,0,0-2.35,2.2l-2.37,37.94h-5.62l-2.37-37.94a2.35,2.35,0,0,0-2.35-2.2h-10a2.34,2.34,0,0,0-2.34,2.2l-2.37,37.94h-6.54l-1.46-65.44a2.34,2.34,0,0,0-2.34-2.3H513.25a2.35,2.35,0,0,0-2.34,2.3l-1.68,75.48H490.68a7.36,7.36,0,0,0-4.86,12.89v22.23h-5.18a2.35,2.35,0,1,0,0,4.69H636.18a2.35,2.35,0,1,0,0-4.69Zm-120.92,0H490.51V284.26h.22m-.22,0h24.75m-2.11,27.45,95.44-30.43H623.8v30.43H523.13V281.28h85.46" transform="translate(-54.47 -47.81)"/><path class="cls-1" d="M525,184.47" transform="translate(-54.47 -47.81)"/><path class="cls-1" d="M524.42,185.33" transform="translate(-54.47 -47.81)"/><path class="cls-1" d="M523.4,185.3" transform="translate(-54.47 -47.81)"/><path class="cls-1" d="M521.61,186.31" transform="translate(-54.47 -47.81)"/><path class="cls-1" d="M527.8,189.58a4.86,4.86,0,0,0,3-1,7.7,7.7,0,0,0,8.39,1.52,9.89,9.89,0,0,0,10.24,2.3A13.29,13.29,0,1,0,552.11,175a9.89,9.89,0,0,0-12.91.87,7.61,7.61,0,0,0-3.05-.63,7.72,7.72,0,0,0-7.07,4.62,5,5,0,0,0-1.28-.17,4.93,4.93,0,0,0-4.66,3.36,2,2,0,0,0-.35,0,3.26,3.26,0,0,0-3.26,3.26,1,1,0,0,0,1,1" transform="translate(-54.47 -47.81)"/><path class="cls-1" d="M527.8,187.5" transform="translate(-54.47 -47.81)"/><path class="cls-1" d="M531.68,186.4" transform="translate(-54.47 -47.81)"/><path class="cls-1" d="M536.15,188.61" transform="translate(-54.47 -47.81)"/><path class="cls-1" d="M538.91,187.88" transform="translate(-54.47 -47.81)"/><path class="cls-1" d="M546.16,190.84" transform="translate(-54.47 -47.81)"/><path class="cls-1" d="M549.44,190.11" transform="translate(-54.47 -47.81)"/><path class="cls-1" d="M560.63,196.4" transform="translate(-54.47 -47.81)"/><path class="cls-1" d="M560.63,174" transform="translate(-54.47 -47.81)"/><path class="cls-1" d="M552.86,177.14" transform="translate(-54.47 -47.81)"/><path class="cls-1" d="M551.44,177.16" transform="translate(-54.47 -47.81)"/><path class="cls-1" d="M546.16,175.11" transform="translate(-54.47 -47.81)"/><path class="cls-1" d="M538.34,286.62A2.35,2.35,0,0,0,536,289v5a2.35,2.35,0,1,0,4.7,0v-5A2.35,2.35,0,0,0,538.34,286.62Z" transform="translate(-54.47 -47.81)"/><path class="cls-1" d="M548.38,286.62A2.35,2.35,0,0,0,546,289v5a2.35,2.35,0,1,0,4.69,0v-5A2.35,2.35,0,0,0,548.38,286.62Z" transform="translate(-54.47 -47.81)"/><path class="cls-1" d="M558.41,286.62a2.35,2.35,0,0,0-2.35,2.35v5a2.35,2.35,0,0,0,4.7,0v-5A2.35,2.35,0,0,0,558.41,286.62Z" transform="translate(-54.47 -47.81)"/><path class="cls-1" d="M568.45,286.62A2.35,2.35,0,0,0,566.1,289v5a2.35,2.35,0,1,0,4.69,0v-5A2.35,2.35,0,0,0,568.45,286.62Z" transform="translate(-54.47 -47.81)"/><path class="cls-1" d="M578.48,286.62a2.35,2.35,0,0,0-2.35,2.35v5a2.35,2.35,0,0,0,4.7,0v-5A2.35,2.35,0,0,0,578.48,286.62Z" transform="translate(-54.47 -47.81)"/><path class="cls-1" d="M588.52,286.62a2.35,2.35,0,0,0-2.35,2.35v5a2.35,2.35,0,1,0,4.69,0v-5A2.35,2.35,0,0,0,588.52,286.62Z" transform="translate(-54.47 -47.81)"/><path class="cls-1" d="M598.55,286.62A2.35,2.35,0,0,0,596.2,289v5a2.35,2.35,0,0,0,4.7,0v-5A2.35,2.35,0,0,0,598.55,286.62Z" transform="translate(-54.47 -47.81)"/><path class="cls-1" d="M608.59,286.62a2.35,2.35,0,0,0-2.35,2.35v5a2.35,2.35,0,1,0,4.69,0v-5A2.35,2.35,0,0,0,608.59,286.62Z" transform="translate(-54.47 -47.81)"/><line class="cls-1" x1="461.25" y1="235.92" x2="461.25" y2="264.4"/><text class="cls-2" transform="translate(425.01 287.47)">3. Some of the <tspan class="cls-3" x="67.75" y="0">c</tspan><tspan x="72.66" y="0">arbon is then </tspan><tspan x="0" y="13.2">(</tspan><tspan class="cls-3" x="3.33" y="13.2">r</tspan><tspan x="7.04" y="13.2">e)</tspan><tspan class="cls-3" x="15.83" y="13.2">c</tspan><tspan x="20.74" y="13.2">a</tspan><tspan class="cls-4" x="26.28" y="13.2">p</tspan><tspan x="32.2" y="13.2">tu</tspan><tspan class="cls-3" x="41.9" y="13.2">r</tspan><tspan x="45.61" y="13.2">ed during burning and </tspan><tspan class="cls-5" x="0" y="26.4">s</tspan><tspan class="cls-6" x="4.39" y="26.4">t</tspan><tspan x="7.95" y="26.4">o</tspan><tspan class="cls-3" x="13.91" y="26.4">r</tspan><tspan x="17.62" y="26.4">ed unde</tspan><tspan class="cls-3" x="54.94" y="26.4">r</tspan><tspan x="58.65" y="26.4">g</tspan><tspan class="cls-3" x="64.2" y="26.4">r</tspan><tspan x="67.9" y="26.4">ound.</tspan></text><text class="cls-7" transform="translate(440.49 109.58)"><tspan class="cls-8">C</tspan><tspan x="6.59" y="0">O2</tspan></text><text class="cls-7" transform="translate(484.25 97.45)"><tspan class="cls-8">C</tspan><tspan x="6.59" y="0">O2</tspan></text><ellipse class="cls-9" cx="536.4" cy="380.11" rx="71.96" ry="15.47"/><text class="cls-7" transform="translate(497.17 382.7)"><tspan class="cls-8">C</tspan><tspan x="6.59" y="0">O2</tspan></text><text class="cls-7" transform="translate(531.82 382.7)"><tspan class="cls-8">C</tspan><tspan x="6.59" y="0">O2</tspan></text><text class="cls-7" transform="translate(562.93 382.7)"><tspan class="cls-8">C</tspan><tspan x="6.59" y="0">O2</tspan></text><path class="cls-10" d="M512.21,422.36h-1.85v-1.23a.62.62,0,0,0-.62-.62H506a.62.62,0,0,0-.62.62v1.23H494a1.52,1.52,0,0,1-1.53-1.52v-9.59h1.23a.62.62,0,0,0,.62-.62v-3.71a.61.61,0,0,0-.62-.61h-1.23v-1.86H481.33v1.86H480.1a.61.61,0,0,0-.62.61v3.71a.62.62,0,0,0,.62.62h1.23v13.23a9,9,0,0,0,9,9h15.09v1.23a.61.61,0,0,0,.62.62h3.7a.62.62,0,0,0,.62-.62v-1.23h1.85Zm-29.64-16.67h8.64v.62h-8.64ZM480.71,410v-2.47h12.36V410H480.71Zm9.62,22.23a7.77,7.77,0,0,1-7.76-7.76V411.25h8.64v9.59A2.77,2.77,0,0,0,494,423.6h11.44v8.64Zm18.79,1.86h-2.47V421.75h2.47V434.1Zm1.86-1.86h-.62V423.6H511Z" transform="translate(-54.47 -47.81)"/></g><g id="Layer_2" data-name="Layer 2"><text class="cls-2" transform="translate(255.38 84.94)">2. The biomass is ha<tspan class="cls-11" x="91.82" y="0">r</tspan><tspan class="cls-12" x="95.91" y="0">v</tspan><tspan x="101" y="0">e</tspan><tspan class="cls-5" x="106.46" y="0">s</tspan><tspan class="cls-6" x="110.85" y="0">t</tspan><tspan x="114.41" y="0">ed and </tspan><tspan x="0" y="13.2">burnt </tspan><tspan class="cls-3" x="27.82" y="13.2">f</tspan><tspan x="30.92" y="13.2">or ene</tspan><tspan class="cls-3" x="59.83" y="13.2">r</tspan><tspan class="cls-13" x="63.54" y="13.2">g</tspan><tspan class="cls-14" x="69.25" y="13.2">y</tspan><tspan x="74" y="13.2">. </tspan><tspan class="cls-15" x="78.94" y="13.2">A</tspan><tspan x="85.17" y="13.2">s it burns, the </tspan><tspan x="0" y="26.4">biomass </tspan><tspan class="cls-3" x="40.83" y="26.4">r</tspan><tspan x="44.54" y="26.4">el</tspan><tspan class="cls-16" x="52.8" y="26.4">e</tspan><tspan x="58.1" y="26.4">ases </tspan><tspan class="cls-17" x="80.52" y="26.4">c</tspan><tspan x="85.43" y="26.4">arbon in</tspan><tspan class="cls-16" x="123.77" y="26.4">t</tspan><tspan x="127.34" y="26.4">o </tspan><tspan x="0" y="39.6">the </tspan><tspan class="cls-16" x="17.36" y="39.6">a</tspan><tspan x="22.75" y="39.6">tmosphe</tspan><tspan class="cls-3" x="63.7" y="39.6">r</tspan><tspan x="67.41" y="39.6">e.</tspan></text><path class="cls-10" d="M318.84,315a.45.45,0,0,0,.18-.62,3.48,3.48,0,0,1-.41-1.8,3.43,3.43,0,0,1,.41-1.79.47.47,0,0,0-.18-.63.5.5,0,0,0-.63.18,5.36,5.36,0,0,0,0,4.48.53.53,0,0,0,.4.23A.33.33,0,0,0,318.84,315Z" transform="translate(-54.47 -47.81)"/><path class="cls-10" d="M323.1,312.56a3.57,3.57,0,0,1,.4-1.79.5.5,0,0,0-.18-.63.51.51,0,0,0-.63.18,5.37,5.37,0,0,0,0,4.48.53.53,0,0,0,.41.23c.09,0,.18,0,.22,0a.44.44,0,0,0,.18-.62A3.62,3.62,0,0,1,323.1,312.56Z" transform="translate(-54.47 -47.81)"/><path class="cls-10" d="M333.41,309.87h-2.69a.45.45,0,0,0,0,.9h2.69a.45.45,0,0,0,0-.9Z" transform="translate(-54.47 -47.81)"/><path class="cls-10" d="M342.37,310a3.65,3.65,0,0,0-1-1.5,5.23,5.23,0,0,0,1.49-4,7,7,0,0,0-.36-2.28.45.45,0,0,0-.09-.26,2.64,2.64,0,0,0-2.24-1.94H320.86c-1.48,0-2.69,2-2.69,4.48a5.67,5.67,0,0,0,1.19,3.76,1.79,1.79,0,0,0-.75-.17c-1.52,0-2.69,2-2.69,4.48s1.17,4.49,2.69,4.49h21.52c1.53,0,2.69-2,2.69-4.49a7,7,0,0,0-.36-2.28A.4.4,0,0,0,342.37,310Zm-19.27,6.12H323c-.51-.06-1-.62-1.37-1.5v0a5.9,5.9,0,0,1-.34-2.05c0-2.1.95-3.58,1.8-3.58s1.79,1.48,1.79,3.58S324,316.15,323.1,316.15ZM320.86,309h.6a3.86,3.86,0,0,0-.6,1.06,4,4,0,0,0-.75-1.23A1.72,1.72,0,0,0,320.86,309Zm0-8.07c.85,0,1.79,1.48,1.79,3.58s-.94,3.59-1.79,3.59-1.8-1.48-1.8-3.59S320,300.91,320.86,300.91Zm-4,11.65c0-2.1.94-3.58,1.79-3.58s1.8,1.48,1.8,3.58-.88,3.49-1.71,3.58h-.09C317.76,316.15,316.82,314.67,316.82,312.56Zm3.69,3.22a3.76,3.76,0,0,0,.27-.53h.15a4.36,4.36,0,0,0,.53.9h-1.19Z" transform="translate(-54.47 -47.81)"/><path class="cls-10" d="M336.1,312.56a.43.43,0,0,0-.45-.45h-1.34a.45.45,0,0,0,0,.9h1.34A.43.43,0,0,0,336.1,312.56Z" transform="translate(-54.47 -47.81)"/><path class="cls-10" d="M332.06,312.56a.42.42,0,0,0-.44-.45h-4.49a.45.45,0,1,0,0,.9h4.49A.42.42,0,0,0,332.06,312.56Z" transform="translate(-54.47 -47.81)"/><path class="cls-10" d="M339.69,314.36H336.1a.45.45,0,1,0,0,.89h3.59a.45.45,0,0,0,0-.89Z" transform="translate(-54.47 -47.81)"/><path class="cls-10" d="M333,314.36h-.9a.45.45,0,0,0,0,.89h.9a.45.45,0,1,0,0-.89Z" transform="translate(-54.47 -47.81)"/><path class="cls-10" d="M320.86,307c.08,0,.17,0,.22,0a.45.45,0,0,0,.18-.62,3.51,3.51,0,0,1-.4-1.8,3.46,3.46,0,0,1,.4-1.79.47.47,0,0,0-.18-.63.51.51,0,0,0-.63.18,5.37,5.37,0,0,0,0,4.48A.53.53,0,0,0,320.86,307Z" transform="translate(-54.47 -47.81)"/><path class="cls-10" d="M336.55,307.18h3.58a.45.45,0,1,0,0-.89h-3.58a.45.45,0,1,0,0,.89Z" transform="translate(-54.47 -47.81)"/><path class="cls-10" d="M334.31,306.29h-4.49a.45.45,0,1,0,0,.89h4.49a.45.45,0,0,0,0-.89Z" transform="translate(-54.47 -47.81)"/><path class="cls-10" d="M353.06,315.55a.46.46,0,0,0,.18-.63,3.43,3.43,0,0,1-.41-1.79,3.48,3.48,0,0,1,.41-1.8.45.45,0,0,0-.18-.62.49.49,0,0,0-.63.18,5.37,5.37,0,0,0,0,4.48.55.55,0,0,0,.4.22A.4.4,0,0,0,353.06,315.55Z" transform="translate(-54.47 -47.81)"/><path class="cls-10" d="M357.32,313.13a3.51,3.51,0,0,1,.4-1.8.46.46,0,0,0-.81-.44,5.37,5.37,0,0,0,0,4.48.55.55,0,0,0,.41.22.38.38,0,0,0,.22,0,.46.46,0,0,0,.18-.63A3.46,3.46,0,0,1,357.32,313.13Z" transform="translate(-54.47 -47.81)"/><path class="cls-10" d="M367.63,310.44h-2.69a.45.45,0,1,0,0,.89h2.69a.45.45,0,1,0,0-.89Z" transform="translate(-54.47 -47.81)"/><path class="cls-10" d="M376.59,310.59a3.71,3.71,0,0,0-1-1.5,5.22,5.22,0,0,0,1.49-4,7,7,0,0,0-.36-2.28.43.43,0,0,0-.09-.26c-.48-1.18-1.29-1.95-2.24-1.95H355.07c-1.48,0-2.69,2-2.69,4.49a5.64,5.64,0,0,0,1.2,3.75,1.79,1.79,0,0,0-.75-.17c-1.52,0-2.69,2-2.69,4.49s1.17,4.48,2.69,4.48h21.52c1.53,0,2.69-2,2.69-4.48a7,7,0,0,0-.36-2.28A.43.43,0,0,0,376.59,310.59Zm-19.27,6.12h-.09c-.5,0-1-.61-1.36-1.5v0a6,6,0,0,1-.34-2.05c0-2.11.94-3.59,1.8-3.59s1.79,1.48,1.79,3.59S358.17,316.71,357.32,316.71Zm-2.25-7.17h.61a4.4,4.4,0,0,0-.61,1.07,4.16,4.16,0,0,0-.74-1.24A1.71,1.71,0,0,0,355.07,309.54Zm0-8.07c.86,0,1.8,1.48,1.8,3.59s-.94,3.58-1.8,3.58-1.79-1.48-1.79-3.58S354.22,301.47,355.07,301.47Zm-4,11.66c0-2.11.94-3.59,1.79-3.59s1.8,1.48,1.8,3.59-.88,3.48-1.71,3.58h-.09C352,316.71,351,315.23,351,313.13Zm3.69,3.22a4.39,4.39,0,0,0,.27-.53h.15a3.68,3.68,0,0,0,.53.89h-1.19Z" transform="translate(-54.47 -47.81)"/><path class="cls-10" d="M370.32,313.13a.43.43,0,0,0-.45-.45h-1.35a.45.45,0,0,0,0,.9h1.35A.43.43,0,0,0,370.32,313.13Z" transform="translate(-54.47 -47.81)"/><path class="cls-10" d="M366.28,313.13a.43.43,0,0,0-.45-.45h-4.48a.45.45,0,0,0,0,.9h4.48A.43.43,0,0,0,366.28,313.13Z" transform="translate(-54.47 -47.81)"/><path class="cls-10" d="M373.9,314.92h-3.58a.45.45,0,0,0,0,.9h3.58a.45.45,0,1,0,0-.9Z" transform="translate(-54.47 -47.81)"/><path class="cls-10" d="M367.18,314.92h-.9a.45.45,0,0,0,0,.9h.9a.45.45,0,0,0,0-.9Z" transform="translate(-54.47 -47.81)"/><path class="cls-10" d="M355.07,307.52c.09,0,.18,0,.23,0a.47.47,0,0,0,.18-.63,3.43,3.43,0,0,1-.41-1.79,3.48,3.48,0,0,1,.41-1.8.45.45,0,0,0-.18-.62.49.49,0,0,0-.63.18,5.37,5.37,0,0,0,0,4.48A.55.55,0,0,0,355.07,307.52Z" transform="translate(-54.47 -47.81)"/><path class="cls-10" d="M370.77,307.75h3.58a.45.45,0,1,0,0-.9h-3.58a.45.45,0,1,0,0,.9Z" transform="translate(-54.47 -47.81)"/><path class="cls-10" d="M368.52,306.85H364a.45.45,0,0,0,0,.9h4.48a.45.45,0,1,0,0-.9Z" transform="translate(-54.47 -47.81)"/><path class="cls-10" d="M387.27,315.1a.45.45,0,0,0,.18-.63,4.21,4.21,0,0,1,0-3.58.45.45,0,0,0-.18-.63.48.48,0,0,0-.62.18,5.27,5.27,0,0,0,0,4.48.53.53,0,0,0,.4.23C387.14,315.15,387.23,315.15,387.27,315.1Z" transform="translate(-54.47 -47.81)"/><path class="cls-10" d="M391.53,312.68a3.4,3.4,0,0,1,.41-1.79.5.5,0,0,0-.18-.63.49.49,0,0,0-.63.18,5.37,5.37,0,0,0,0,4.48.53.53,0,0,0,.4.23.33.33,0,0,0,.23,0,.46.46,0,0,0,.18-.63A3.4,3.4,0,0,1,391.53,312.68Z" transform="translate(-54.47 -47.81)"/><path class="cls-10" d="M401.85,310h-2.69a.45.45,0,0,0,0,.9h2.69a.45.45,0,0,0,0-.9Z" transform="translate(-54.47 -47.81)"/><path class="cls-10" d="M410.8,310.14a3.61,3.61,0,0,0-1-1.5,5.26,5.26,0,0,0,1.49-4,7,7,0,0,0-.36-2.28.46.46,0,0,0-.1-.26,2.62,2.62,0,0,0-2.23-1.94H389.29c-1.48,0-2.69,2-2.69,4.48a5.62,5.62,0,0,0,1.2,3.75,1.78,1.78,0,0,0-.75-.16c-1.52,0-2.69,2-2.69,4.48s1.17,4.48,2.69,4.48h21.52c1.52,0,2.69-2,2.69-4.48a7,7,0,0,0-.36-2.28A.46.46,0,0,0,410.8,310.14Zm-19.27,6.13h-.08c-.5-.05-1-.61-1.36-1.5v0a6,6,0,0,1-.34-2.05c0-2.11.94-3.59,1.79-3.59s1.8,1.48,1.8,3.59S392.39,316.27,391.53,316.27Zm-2.24-7.18h.61a4.4,4.4,0,0,0-.61,1.07,4,4,0,0,0-.74-1.23A1.86,1.86,0,0,0,389.29,309.09Zm0-8.07c.85,0,1.8,1.48,1.8,3.59s-.95,3.59-1.8,3.59-1.79-1.48-1.79-3.59S388.44,301,389.29,301Zm-4,11.66c0-2.11.94-3.59,1.79-3.59s1.79,1.48,1.79,3.59-.88,3.49-1.7,3.58h-.09C386.2,316.27,385.26,314.79,385.26,312.68ZM389,315.9c.09-.17.19-.34.27-.53h.14a4,4,0,0,0,.54.9h-1.19Z" transform="translate(-54.47 -47.81)"/><path class="cls-10" d="M404.54,312.68a.43.43,0,0,0-.45-.45h-1.35a.45.45,0,1,0,0,.9h1.35A.43.43,0,0,0,404.54,312.68Z" transform="translate(-54.47 -47.81)"/><path class="cls-10" d="M400.5,312.68a.43.43,0,0,0-.45-.45h-4.48a.45.45,0,0,0,0,.9h4.48A.43.43,0,0,0,400.5,312.68Z" transform="translate(-54.47 -47.81)"/><path class="cls-10" d="M408.12,314.47h-3.58a.45.45,0,0,0,0,.9h3.58a.45.45,0,1,0,0-.9Z" transform="translate(-54.47 -47.81)"/><path class="cls-10" d="M401.4,314.47h-.9a.45.45,0,1,0,0,.9h.9a.45.45,0,1,0,0-.9Z" transform="translate(-54.47 -47.81)"/><path class="cls-10" d="M389.29,307.07c.09,0,.18,0,.23,0a.46.46,0,0,0,.18-.63,4.11,4.11,0,0,1,0-3.58.46.46,0,0,0-.18-.63.49.49,0,0,0-.63.18,5.37,5.37,0,0,0,0,4.48A.51.51,0,0,0,389.29,307.07Z" transform="translate(-54.47 -47.81)"/><path class="cls-10" d="M405,307.3h3.59a.45.45,0,0,0,0-.9H405a.45.45,0,0,0,0,.9Z" transform="translate(-54.47 -47.81)"/><path class="cls-10" d="M402.74,306.4h-4.48a.45.45,0,0,0,0,.9h4.48a.45.45,0,0,0,0-.9Z" transform="translate(-54.47 -47.81)"/><line class="cls-18" x1="305.74" y1="209.66" x2="330.09" y2="209.66"/><polygon class="cls-19" points="327.6 212.73 327.09 212.18 329.8 209.66 327.09 207.14 327.6 206.59 330.9 209.66 327.6 212.73"/></g><g id="Layer_1" data-name="Layer 1"><line class="cls-20" x1="55.42" y1="228.39" x2="55.78" y2="269.5"/><line class="cls-20" x1="55.53" y1="239.01" x2="61.43" y2="230.85"/><line class="cls-20" x1="55.6" y1="243.96" x2="46.29" y2="234.65"/><ellipse class="cls-20" cx="55.45" cy="230.85" rx="14.77" ry="23.46"/><line class="cls-20" x1="48.48" y1="268.97" x2="62.62" y2="268.8"/><line class="cls-20" x1="78.59" y1="216.6" x2="78.95" y2="257.72"/><line class="cls-20" x1="78.7" y1="227.23" x2="84.6" y2="219.07"/><line class="cls-20" x1="78.77" y1="232.18" x2="69.46" y2="222.86"/><path class="cls-20" d="M124.11,284.43c2.68,4.38,4.82,5.92,9,5.92,8.16,0,14.77-10.51,14.77-23.47s-6.61-23.46-14.77-23.46c-6.94,0-12.77,6-14.34,16.21" transform="translate(-54.47 -47.81)"/><line class="cls-20" x1="71.65" y1="257.19" x2="85.79" y2="257.01"/><line class="cls-20" x1="102.03" y1="205.15" x2="102.38" y2="246.26"/><line class="cls-20" x1="102.14" y1="215.77" x2="108.03" y2="207.62"/><line class="cls-20" x1="102.21" y1="220.72" x2="92.89" y2="211.41"/><path class="cls-20" d="M147.54,273c2.69,4.38,4.83,5.91,9,5.91,8.15,0,14.76-10.5,14.76-23.46S164.67,232,156.52,232c-7,0-12.77,5.95-14.35,16.21" transform="translate(-54.47 -47.81)"/><line class="cls-20" x1="95.09" y1="245.74" x2="109.22" y2="245.56"/><line class="cls-20" x1="130.12" y1="227.69" x2="130.48" y2="268.8"/><line class="cls-20" x1="130.23" y1="238.31" x2="136.13" y2="230.16"/><line class="cls-20" x1="130.3" y1="243.26" x2="120.99" y2="233.95"/><ellipse class="cls-20" cx="130.14" cy="230.16" rx="14.77" ry="23.46"/><line class="cls-20" x1="123.18" y1="268.28" x2="137.31" y2="268.1"/><line class="cls-20" x1="153.29" y1="215.91" x2="153.65" y2="257.02"/><line class="cls-20" x1="153.4" y1="226.53" x2="159.29" y2="218.38"/><line class="cls-20" x1="153.47" y1="231.48" x2="144.16" y2="222.17"/><path class="cls-20" d="M198.81,283.74c2.68,4.38,4.82,5.91,9,5.91,8.16,0,14.77-10.5,14.77-23.46s-6.61-23.46-14.77-23.46c-6.94,0-12.77,6-14.35,16.21" transform="translate(-54.47 -47.81)"/><line class="cls-20" x1="146.35" y1="256.5" x2="160.48" y2="256.32"/><line class="cls-20" x1="176.73" y1="204.45" x2="177.08" y2="245.57"/><line class="cls-20" x1="176.84" y1="215.08" x2="182.73" y2="206.92"/><line class="cls-20" x1="176.9" y1="220.03" x2="167.59" y2="210.71"/><path class="cls-20" d="M222.24,272.28c2.68,4.38,4.82,5.92,9,5.92,8.16,0,14.77-10.51,14.77-23.47s-6.61-23.46-14.77-23.46c-6.94,0-12.77,5.95-14.34,16.21" transform="translate(-54.47 -47.81)"/><line class="cls-20" x1="169.79" y1="245.04" x2="183.92" y2="244.86"/><text class="cls-2" transform="translate(35.36 84.94)">1. Biomass c<tspan class="cls-3" x="56.64" y="0">r</tspan><tspan x="60.35" y="0" xml:space="preserve">ops  (li</tspan><tspan class="cls-21" x="90.27" y="0">k</tspan><tspan x="95.51" y="0">e t</tspan><tspan class="cls-17" x="106.89" y="0">r</tspan><tspan x="110.59" y="0">ees or </tspan><tspan class="cls-22" x="0" y="13.2">c</tspan><tspan x="4.79" y="13.2">orn) </tspan><tspan class="cls-3" x="26.11" y="13.2">c</tspan><tspan x="31.02" y="13.2">a</tspan><tspan class="cls-4" x="36.56" y="13.2">p</tspan><tspan x="42.48" y="13.2">tu</tspan><tspan class="cls-3" x="52.18" y="13.2">r</tspan><tspan x="55.89" y="13.2">e </tspan><tspan class="cls-3" x="63.55" y="13.2">c</tspan><tspan x="68.45" y="13.2">arbon as th</tspan><tspan class="cls-23" x="120.13" y="13.2">e</tspan><tspan x="125.64" y="13.2">y </tspan><tspan x="0" y="26.4">g</tspan><tspan class="cls-3" x="5.54" y="26.4">r</tspan><tspan class="cls-12" x="9.25" y="26.4">o</tspan><tspan class="cls-24" x="15.17" y="26.4">w</tspan><tspan x="22.62" y="26.4">.</tspan></text><text class="cls-7" transform="translate(57.78 165.17)"><tspan class="cls-8">C</tspan><tspan x="6.59" y="0">O2</tspan></text><text class="cls-7" transform="translate(101.54 153.04)"><tspan class="cls-8">C</tspan><tspan x="6.59" y="0">O2</tspan></text><text class="cls-7" transform="translate(142.48 165.09)"><tspan class="cls-8">C</tspan><tspan x="6.59" y="0">O2</tspan></text><line class="cls-18" x1="123.62" y1="163.58" x2="123.62" y2="187.93"/><polygon class="cls-19" points="120.56 185.44 121.11 184.93 123.62 187.64 126.14 184.93 126.69 185.44 123.62 188.74 120.56 185.44"/></g><g id="Base"><line class="cls-25" y1="269.21" x2="659.78" y2="269.21"/><text class="cls-26" transform="translate(195.74 12.61)">Bioene<tspan class="cls-27" x="45.31" y="0">r</tspan><tspan class="cls-28" x="50.83" y="0">g</tspan><tspan x="58.88" y="0">y with Carbon Ca</tspan><tspan class="cls-29" x="169.09" y="0">p</tspan><tspan x="177.33" y="0">tu</tspan><tspan class="cls-27" x="191.26" y="0">r</tspan><tspan x="196.78" y="0">e + </tspan><tspan class="cls-30" x="218.35" y="0">S</tspan><tspan class="cls-31" x="226.24" y="0">t</tspan><tspan x="231.48" y="0">o</tspan><tspan class="cls-32" x="239.83" y="0">r</tspan><tspan x="245.1" y="0">a</tspan><tspan class="cls-31" x="252.94" y="0">g</tspan><tspan x="260.6" y="0">e</tspan></text></g></svg>