<?xml version="1.0" encoding="utf-8"?>
<!-- Generator: Adobe Illustrator 23.1.1, SVG Export Plug-In . SVG Version: 6.00 Build 0)  -->
<svg version="1.1" id="Layer_1" xmlns="http://www.w3.org/2000/svg" xmlns:xlink="http://www.w3.org/1999/xlink" x="0px" y="0px"
	 viewBox="0 0 768.7 512.5" style="enable-background:new 0 0 768.7 512.5;" xml:space="preserve">
<style type="text/css">
	.st0{fill:none;stroke:#010101;stroke-miterlimit:10;}
	.st1{fill:#231F20;}
	.st2{font-family:'SourceSansPro-Regular';}
	.st3{font-size:14px;}
	.st4{font-size:12px;}
	.st5{fill:none;stroke:#8B8989;stroke-miterlimit:10;}
	.st6{fill:#010101;}
	.st7{fill:none;stroke:#8B8989;stroke-width:0.75;stroke-miterlimit:10;}
	.st8{fill:#8B8989;}
	.st9{fill:none;stroke:#0E110C;stroke-miterlimit:10;}
	.st10{fill:#3D6E71;}
	.st11{font-family:'SourceSansPro-SemiBold';}
	.st12{font-size:15px;}
</style>
<title>beccs</title>
<g id="Layer_3">
	<path class="st0" d="M632.9,299.5h-7.6v-31.8c3-2.6,3.3-7.2,0.7-10.2c-1.4-1.6-3.4-2.5-5.5-2.5h-15.2l-2.3-37.4
		c-0.1-1.2-1.1-2.2-2.3-2.2h-9.9c-1.2,0-2.2,1-2.3,2.2l-2.3,37.4h-5.5l-2.3-37.4c-0.1-1.2-1.1-2.2-2.3-2.2h-9.9
		c-1.2,0-2.2,1-2.3,2.2l-2.3,37.4h-5.5l-2.3-37.4c-0.1-1.2-1.1-2.2-2.3-2.2h-9.9c-1.2,0-2.2,1-2.3,2.2l-2.3,37.4h-6.5l-1.4-64.6
		c0-1.3-1.1-2.3-2.3-2.3h-14.9c-1.3,0-2.3,1-2.3,2.3l-1.7,74.5h-18.3c-4,0-7.3,3.3-7.3,7.3c0,2.1,0.9,4.1,2.5,5.5v21.9h-5.1
		c-1.3,0-2.3,1-2.3,2.3s1,2.3,2.3,2.3h153.5c1.3,0,2.3-1,2.3-2.3S634.2,299.5,632.9,299.5L632.9,299.5z M512.9,299.5h-23.8v-27.1
		h0.2 M489.1,272.4h24.4 M511.5,299.5h5.2v-31.8l8.9-12.7l-1.4-62.2h-10.3l-1.6,70.8l103.4,0.4l5.1,5.5v30h-99.4v-30h99.4"/>
	<path class="st0" d="M526,179c1.1,0,2.1-0.3,3-1c2.2,2.1,5.5,2.7,8.3,1.5c1.8,1.8,4.3,2.8,6.9,2.8c1.1,0,2.2-0.2,3.2-0.6
		c3.9,6.1,12,7.8,18.1,3.9c6.1-3.9,7.8-12,3.9-18.1c-3.9-6.1-12-7.8-18.1-3.9c-0.4,0.3-0.9,0.6-1.3,0.9c-3.9-2.9-9.3-2.5-12.8,0.9
		c-3.9-1.7-8.3,0.1-10,3.9c0,0,0,0,0,0c-0.4-0.1-0.8-0.2-1.3-0.2c-2.1,0-3.9,1.3-4.6,3.3c-0.1,0-0.2,0-0.3,0c-1.8,0-3.2,1.4-3.2,3.2
		c0,0.6,0.4,1,1,1"/>
	<path class="st0" d="M536.4,274.8c-1.3,0-2.3,1-2.3,2.3l0,0v4.9c0,1.3,1,2.3,2.3,2.3s2.3-1,2.3-2.3l0,0v-5
		C538.7,275.8,537.6,274.7,536.4,274.8z"/>
	<path class="st0" d="M546.3,274.8c-1.3,0-2.3,1-2.3,2.3l0,0v4.9c-0.1,1.3,0.9,2.4,2.2,2.5c1.3,0.1,2.4-0.9,2.5-2.2
		c0-0.1,0-0.2,0-0.3v-5C548.6,275.8,547.5,274.8,546.3,274.8z"/>
	<path class="st0" d="M556.2,274.8c-1.3,0-2.3,1-2.3,2.3c0,0,0,0,0,0v4.9c-0.1,1.3,0.9,2.4,2.2,2.5c1.3,0.1,2.4-0.9,2.5-2.2
		c0-0.1,0-0.2,0-0.3v-5C558.5,275.8,557.4,274.7,556.2,274.8z"/>
	<path class="st0" d="M566.1,274.8c-1.3,0-2.3,1-2.3,2.3l0,0v4.9c-0.1,1.3,0.9,2.4,2.2,2.5c1.3,0.1,2.4-0.9,2.5-2.2
		c0-0.1,0-0.2,0-0.3v-5C568.4,275.8,567.4,274.8,566.1,274.8z"/>
	<path class="st0" d="M576,274.8c-1.3,0-2.3,1-2.3,2.3c0,0,0,0,0,0v4.9c-0.1,1.3,0.9,2.4,2.2,2.5c1.3,0.1,2.4-0.9,2.5-2.2
		c0-0.1,0-0.2,0-0.3v-5C578.3,275.8,577.3,274.7,576,274.8z"/>
	<path class="st0" d="M585.9,274.8c-1.3,0-2.3,1-2.3,2.3l0,0v4.9c0,1.3,1,2.3,2.3,2.3s2.3-1,2.3-2.3l0,0v-5
		C588.2,275.8,587.2,274.7,585.9,274.8z"/>
	<path class="st0" d="M595.8,274.8c-1.3,0-2.3,1-2.3,2.3l0,0v4.9c-0.1,1.3,0.9,2.4,2.2,2.5c1.3,0.1,2.4-0.9,2.5-2.2
		c0-0.1,0-0.2,0-0.3v-5C598.1,275.8,597.1,274.8,595.8,274.8z"/>
	<path class="st0" d="M605.7,274.8c-1.3,0-2.3,1-2.3,2.3l0,0v4.9c0,1.3,1,2.3,2.3,2.3s2.3-1,2.3-2.3l0,0v-5
		C608,275.8,607,274.7,605.7,274.8z"/>
	<line class="st0" x1="513.6" y1="271.6" x2="513.6" y2="300.3"/>
	<text transform="matrix(1 0 0 1 478.26 325.02)" class="st1 st2 st3">3. Some of the </text>
	<text transform="matrix(1 0 0 1 564.48 325.02)" class="st1 st2 st3">c</text>
	<text transform="matrix(1 0 0 1 570.73 325.02)" class="st1 st2 st3">arbon is </text>
	<text transform="matrix(1 0 0 1 478.26 341.82)" class="st1 st2 st3">then (</text>
	<text transform="matrix(1 0 0 1 512.25 341.82)" class="st1 st2 st3">r</text>
	<text transform="matrix(1 0 0 1 516.97 341.82)" class="st1 st2 st3">e)</text>
	<text transform="matrix(1 0 0 1 528.15 341.82)" class="st1 st2 st3">c</text>
	<text transform="matrix(1 0 0 1 534.4 341.82)" class="st1 st2 st3">a</text>
	<text transform="matrix(1 0 0 1 541.45 341.82)" class="st1 st2 st3">p</text>
	<text transform="matrix(1 0 0 1 548.99 341.82)" class="st1 st2 st3">tu</text>
	<text transform="matrix(1 0 0 1 561.33 341.82)" class="st1 st2 st3">r</text>
	<text transform="matrix(1 0 0 1 566.05 341.82)" class="st1 st2 st3">ed during </text>
	<text transform="matrix(1 0 0 1 478.26 358.62)" class="st1 st2 st3">burning and </text>
	<text transform="matrix(1 0 0 1 552.37 358.62)" class="st1 st2 st3">s</text>
	<text transform="matrix(1 0 0 1 557.96 358.62)" class="st1 st2 st3">t</text>
	<text transform="matrix(1 0 0 1 562.5 358.62)" class="st1 st2 st3">o</text>
	<text transform="matrix(1 0 0 1 570.08 358.62)" class="st1 st2 st3">r</text>
	<text transform="matrix(1 0 0 1 574.8 358.62)" class="st1 st2 st3">ed </text>
	<text transform="matrix(1 0 0 1 478.26 375.42)" class="st1 st2 st3">unde</text>
	<text transform="matrix(1 0 0 1 508.25 375.42)" class="st1 st2 st3">r</text>
	<text transform="matrix(1 0 0 1 512.97 375.42)" class="st1 st2 st3">g</text>
	<text transform="matrix(1 0 0 1 520.02 375.42)" class="st1 st2 st3">r</text>
	<text transform="matrix(1 0 0 1 524.74 375.42)" class="st1 st2 st3">ound</text>
	<text transform="matrix(1 0 0 1 493.53 147.18)" class="st1 st2 st4">C</text>
	<text transform="matrix(1 0 0 1 500.03 147.18)" class="st1 st2 st4">O2</text>
	<text transform="matrix(1 0 0 1 536.73 135.21)" class="st1 st2 st4">C</text>
	<text transform="matrix(1 0 0 1 543.23 135.21)" class="st1 st2 st4">O2</text>
	<ellipse class="st5" cx="588.2" cy="414.2" rx="71" ry="15.3"/>
	<text transform="matrix(1 0 0 1 549.49 416.79)" class="st1 st2 st4">C</text>
	<text transform="matrix(1 0 0 1 555.99 416.79)" class="st1 st2 st4">O2</text>
	<text transform="matrix(1 0 0 1 583.69 416.79)" class="st1 st2 st4">C</text>
	<text transform="matrix(1 0 0 1 590.19 416.79)" class="st1 st2 st4">O2</text>
	<text transform="matrix(1 0 0 1 614.4 416.79)" class="st1 st2 st4">C</text>
	<text transform="matrix(1 0 0 1 620.9 416.79)" class="st1 st2 st4">O2</text>
	<path class="st6" d="M510.6,408.7h-1.8v-1.2c0-0.3-0.3-0.6-0.6-0.6h-3.7c-0.3,0-0.6,0.3-0.6,0.6v1.2h-11.3c-0.8,0-1.5-0.7-1.5-1.5
		c0,0,0,0,0,0v-9.5h1.2c0.3,0,0.6-0.3,0.6-0.6v-3.7c0-0.3-0.3-0.6-0.6-0.6h-1.2v-1.8h-11v1.8h-1.2c-0.3,0-0.6,0.3-0.6,0.6v3.7
		c0,0.3,0.3,0.6,0.6,0.6h1.2v13.1c0,4.9,4,8.9,8.9,8.9h14.9v1.2c0,0.3,0.3,0.6,0.6,0.6h3.7c0.3,0,0.6-0.3,0.6-0.6v-1.2h1.8
		L510.6,408.7z M481.3,392.3h8.5v0.6h-8.5V392.3z M479.5,396.5v-2.4h12.2v2.4H479.5z M489,418.5c-4.2,0-7.7-3.4-7.7-7.7v-13.1h8.5
		v9.5c0,1.5,1.2,2.7,2.7,2.7c0,0,0,0,0,0h11.3v8.5H489z M507.5,420.3h-2.4v-12.2h2.4V420.3L507.5,420.3z M509.4,418.5h-0.6V410h0.6
		V418.5z"/>
</g>
<g>
	<text transform="matrix(1 0 0 1 310.81 125.1)" class="st1 st2 st3">2. The biomass is </text>
	<text transform="matrix(1 0 0 1 310.81 141.9)" class="st1 st2 st3">ha</text>
	<text transform="matrix(1 0 0 1 325.48 141.9)" class="st1 st2 st3">r</text>
	<text transform="matrix(1 0 0 1 330.69 141.9)" class="st1 st2 st3">v</text>
	<text transform="matrix(1 0 0 1 337.17 141.9)" class="st1 st2 st3">e</text>
	<text transform="matrix(1 0 0 1 344.12 141.9)" class="st1 st2 st3">s</text>
	<text transform="matrix(1 0 0 1 349.7 141.9)" class="st1 st2 st3">t</text>
	<text transform="matrix(1 0 0 1 354.24 141.9)" class="st1 st2 st3">ed and burnt </text>
	<text transform="matrix(1 0 0 1 432.44 141.9)" class="st1 st2 st3">f</text>
	<text transform="matrix(1 0 0 1 436.39 141.9)" class="st1 st2 st3">or </text>
	<text transform="matrix(1 0 0 1 310.81 158.7)" class="st1 st2 st3">ene</text>
	<text transform="matrix(1 0 0 1 332.36 158.7)" class="st1 st2 st3">r</text>
	<text transform="matrix(1 0 0 1 337.07 158.7)" class="st1 st2 st3">g</text>
	<text transform="matrix(1 0 0 1 344.34 158.7)" class="st1 st2 st3">y</text>
	<text transform="matrix(1 0 0 1 350.39 158.7)" class="st1 st2 st3">. </text>
	<text transform="matrix(1 0 0 1 356.67 158.7)" class="st1 st2 st3">A</text>
	<text transform="matrix(1 0 0 1 364.61 158.7)" class="st1 st2 st3">s it burns, the </text>
	<text transform="matrix(1 0 0 1 310.81 175.5)" class="st1 st2 st3">biomass </text>
	<text transform="matrix(1 0 0 1 362.78 175.5)" class="st1 st2 st3">r</text>
	<text transform="matrix(1 0 0 1 367.49 175.5)" class="st1 st2 st3">el</text>
	<text transform="matrix(1 0 0 1 378.01 175.5)" class="st1 st2 st3">e</text>
	<text transform="matrix(1 0 0 1 384.76 175.5)" class="st1 st2 st3">ases </text>
	<text transform="matrix(1 0 0 1 413.29 175.5)" class="st1 st2 st3">c</text>
	<text transform="matrix(1 0 0 1 419.53 175.5)" class="st1 st2 st3">arbon </text>
	<text transform="matrix(1 0 0 1 310.81 192.3)" class="st1 st2 st3">in</text>
	<text transform="matrix(1 0 0 1 321.91 192.3)" class="st1 st2 st3">t</text>
	<text transform="matrix(1 0 0 1 326.45 192.3)" class="st1 st2 st3">o the </text>
	<text transform="matrix(1 0 0 1 358.93 192.3)" class="st1 st2 st3">a</text>
	<text transform="matrix(1 0 0 1 365.79 192.3)" class="st1 st2 st3">tmosphe</text>
	<text transform="matrix(1 0 0 1 417.91 192.3)" class="st1 st2 st3">r</text>
	<text transform="matrix(1 0 0 1 422.63 192.3)" class="st1 st2 st3">e.</text>
	<path class="st6" d="M319.7,302.8c0.2-0.1,0.3-0.4,0.2-0.6c0,0,0,0,0,0c-0.5-1.1-0.5-2.4,0-3.5c0.1-0.2,0-0.5-0.2-0.6c0,0,0,0,0,0
		c-0.2-0.1-0.5,0-0.6,0.2c-0.7,1.4-0.7,3,0,4.4c0.1,0.1,0.2,0.2,0.4,0.2C319.5,302.8,319.6,302.8,319.7,302.8z"/>
	<path class="st6" d="M323.9,300.4c0-0.6,0.1-1.2,0.4-1.8c0.1-0.2,0-0.5-0.2-0.6c-0.2-0.1-0.5,0-0.6,0.2c-0.7,1.4-0.7,3,0,4.4
		c0.1,0.1,0.2,0.2,0.4,0.2c0.1,0,0.1,0,0.2,0c0.2-0.1,0.3-0.4,0.2-0.6c0,0,0,0,0,0C324,301.6,323.9,301,323.9,300.4z"/>
	<path class="st6" d="M334.1,297.7h-2.6c-0.2,0-0.4,0.3-0.4,0.5c0,0.2,0.2,0.3,0.4,0.4h2.6c0.2,0,0.5-0.1,0.5-0.4
		c0-0.2-0.1-0.5-0.4-0.5C334.1,297.7,334.1,297.7,334.1,297.7z"/>
	<path class="st6" d="M342.9,297.9c-0.2-0.6-0.6-1.1-1-1.5c1-1.1,1.6-2.5,1.5-4c0-0.8-0.1-1.5-0.4-2.2c0-0.1,0-0.2-0.1-0.2
		c-0.3-1-1.2-1.8-2.2-1.9h-19c-1.5,0-2.6,1.9-2.6,4.4c-0.1,1.3,0.4,2.7,1.2,3.7c-0.2-0.1-0.5-0.2-0.7-0.2c-1.5,0-2.7,2-2.7,4.4
		s1.1,4.4,2.7,4.4h21.2c1.5,0,2.7-1.9,2.7-4.4c0-0.8-0.1-1.5-0.4-2.2C343,298,343,297.9,342.9,297.9z M323.9,303.9L323.9,303.9
		c-0.6,0-1.1-0.6-1.4-1.5l0,0c-0.2-0.6-0.3-1.3-0.3-2c0-2.1,0.9-3.5,1.8-3.5s1.8,1.5,1.8,3.5S324.7,303.9,323.9,303.9L323.9,303.9z
		 M321.7,296.8h0.6c-0.2,0.3-0.5,0.7-0.6,1c-0.2-0.4-0.4-0.9-0.7-1.2C321.2,296.7,321.4,296.8,321.7,296.8L321.7,296.8z
		 M321.7,288.8c0.8,0,1.8,1.5,1.8,3.5s-0.9,3.5-1.8,3.5s-1.8-1.5-1.8-3.5S320.8,288.9,321.7,288.8L321.7,288.8z M317.7,300.3
		c0-2.1,0.9-3.5,1.8-3.5s1.8,1.5,1.8,3.5s-0.9,3.4-1.7,3.5h-0.1C318.6,303.9,317.7,302.4,317.7,300.3L317.7,300.3z M321.3,303.5
		c0.1-0.2,0.2-0.3,0.3-0.5h0.1c0.1,0.3,0.3,0.6,0.5,0.9h-1.2L321.3,303.5z"/>
	<path class="st6" d="M336.7,300.4c0-0.2-0.2-0.4-0.4-0.4c0,0,0,0-0.1,0H335c-0.2,0-0.4,0.2-0.4,0.4c0,0,0,0,0,0.1
		c0,0.2,0.2,0.4,0.4,0.4c0,0,0,0,0.1,0h1.3C336.6,300.8,336.7,300.6,336.7,300.4z"/>
	<path class="st6" d="M332.7,300.4c0-0.2-0.2-0.4-0.4-0.4c0,0,0,0-0.1,0h-4.4c-0.2,0-0.4,0.2-0.4,0.4c0,0,0,0,0,0.1
		c0,0.2,0.2,0.4,0.4,0.4c0,0,0,0,0.1,0h4.4C332.5,300.8,332.7,300.6,332.7,300.4C332.7,300.4,332.7,300.4,332.7,300.4z"/>
	<path class="st6" d="M340.3,302.1h-3.5c-0.2,0-0.4,0.2-0.4,0.4s0.2,0.4,0.4,0.4h3.5c0.2,0,0.4-0.2,0.4-0.4S340.5,302.1,340.3,302.1
		z"/>
	<path class="st6" d="M333.6,302.1h-0.9c-0.2,0-0.4,0.2-0.4,0.4s0.2,0.4,0.4,0.4h0.9c0.2,0,0.4-0.2,0.4-0.4S333.9,302.1,333.6,302.1
		z"/>
	<path class="st6" d="M321.7,294.8c0.1,0,0.1,0,0.2,0c0.2-0.1,0.3-0.4,0.2-0.6c0,0,0,0,0,0c-0.5-1.1-0.5-2.4,0-3.5
		c0.1-0.2,0-0.5-0.2-0.6c0,0,0,0,0,0c-0.2-0.1-0.5,0-0.6,0.2c-0.6,1.4-0.6,3,0,4.4C321.4,294.7,321.5,294.8,321.7,294.8z"/>
	<path class="st6" d="M337.2,295h3.5c0.2,0,0.5-0.1,0.5-0.4c0-0.2-0.1-0.5-0.4-0.5c0,0-0.1,0-0.1,0h-3.5c-0.2,0-0.4,0.3-0.4,0.5
		C336.8,294.9,337,295,337.2,295z"/>
	<path class="st6" d="M335,294.2h-4.4c-0.2,0-0.4,0.3-0.4,0.5c0,0.2,0.2,0.3,0.4,0.4h4.4c0.2,0,0.4-0.3,0.4-0.5
		C335.3,294.3,335.2,294.2,335,294.2z"/>
	<path class="st6" d="M353.5,303.3c0.2-0.1,0.3-0.4,0.2-0.6c0,0,0,0,0,0c-0.5-1.1-0.5-2.4,0-3.5c0.1-0.2,0-0.5-0.2-0.6c0,0,0,0,0,0
		c-0.2-0.1-0.5,0-0.6,0.2c-0.7,1.4-0.7,3,0,4.4c0.1,0.1,0.2,0.2,0.4,0.2C353.3,303.4,353.4,303.3,353.5,303.3z"/>
	<path class="st6" d="M357.7,300.9c0-0.6,0.1-1.2,0.4-1.8c0.1-0.2,0-0.5-0.2-0.6c-0.2-0.1-0.5,0-0.6,0.2c-0.6,1.4-0.6,3,0,4.4
		c0.1,0.1,0.2,0.2,0.4,0.2c0.1,0,0.2,0,0.2,0c0.2-0.1,0.3-0.4,0.2-0.6c0,0,0,0,0,0C357.8,302.2,357.6,301.5,357.7,300.9z"/>
	<path class="st6" d="M367.8,298.3h-2.6c-0.2,0-0.4,0.2-0.4,0.4c0,0,0,0,0,0.1c0,0.2,0.2,0.4,0.4,0.4c0,0,0,0,0.1,0h2.6
		c0.2,0,0.4-0.2,0.4-0.4c0,0,0,0,0-0.1C368.3,298.5,368.1,298.3,367.8,298.3C367.9,298.3,367.9,298.3,367.8,298.3z"/>
	<path class="st6" d="M376.7,298.4c-0.2-0.6-0.6-1.1-1-1.5c1-1.1,1.6-2.5,1.5-4c0-0.8-0.1-1.5-0.4-2.2c0-0.1,0-0.2-0.1-0.3
		c-0.3-1-1.1-1.8-2.2-1.9h-19c-1.5,0-2.6,2-2.6,4.4c-0.1,1.3,0.4,2.6,1.2,3.7c-0.2-0.1-0.5-0.2-0.7-0.2c-1.5,0-2.7,2-2.7,4.4
		s1.1,4.4,2.7,4.4h21.2c1.5,0,2.7-2,2.7-4.4c0-0.8-0.1-1.5-0.4-2.3C376.8,298.6,376.8,298.5,376.7,298.4z M357.7,304.4L357.7,304.4
		c-0.6,0-1.1-0.6-1.4-1.5l0,0c-0.2-0.6-0.3-1.3-0.3-2c0-2.1,0.9-3.5,1.8-3.5s1.8,1.5,1.8,3.5S358.5,304.5,357.7,304.4L357.7,304.4z
		 M355.5,297.3h0.6c-0.3,0.3-0.5,0.7-0.6,1.1c-0.2-0.5-0.4-0.9-0.7-1.2C355,297.3,355.2,297.4,355.5,297.3L355.5,297.3z
		 M355.5,289.3c0.8,0,1.8,1.5,1.8,3.5s-0.9,3.5-1.8,3.5s-1.8-1.5-1.8-3.5S354.6,289.4,355.5,289.3L355.5,289.3z M351.5,300.8
		c0-2.1,0.9-3.5,1.8-3.5s1.8,1.5,1.8,3.5s-0.9,3.4-1.7,3.5h-0.1C352.4,304.5,351.5,303,351.5,300.8L351.5,300.8z M355.1,304
		c0.1-0.2,0.2-0.3,0.3-0.5h0.1c0.1,0.3,0.3,0.6,0.5,0.9h-1.2L355.1,304z"/>
	<path class="st6" d="M370.5,300.9c0-0.2-0.2-0.4-0.4-0.4c0,0,0,0-0.1,0h-1.3c-0.2,0-0.4,0.3-0.4,0.5c0,0.2,0.2,0.3,0.4,0.4h1.3
		C370.3,301.4,370.5,301.2,370.5,300.9C370.5,300.9,370.5,300.9,370.5,300.9z"/>
	<path class="st6" d="M366.5,300.9c0-0.2-0.2-0.4-0.4-0.4c0,0,0,0-0.1,0h-4.4c-0.2,0-0.5,0.1-0.5,0.4c0,0.2,0.1,0.5,0.4,0.5
		c0,0,0.1,0,0.1,0h4.4C366.3,301.4,366.5,301.2,366.5,300.9C366.5,301,366.5,300.9,366.5,300.9z"/>
	<path class="st6" d="M374,302.7h-3.5c-0.2,0-0.4,0.2-0.4,0.4c0,0,0,0,0,0.1c0,0.2,0.2,0.4,0.4,0.4c0,0,0,0,0.1,0h3.5
		c0.2,0,0.4-0.2,0.4-0.4c0,0,0,0,0,0C374.5,302.9,374.3,302.7,374,302.7C374,302.7,374,302.7,374,302.7z"/>
	<path class="st6" d="M367.4,302.7h-0.9c-0.2,0-0.4,0.2-0.4,0.4c0,0,0,0,0,0.1c0,0.2,0.2,0.4,0.4,0.4c0,0,0,0,0,0h0.9
		c0.2,0,0.4-0.2,0.4-0.4c0,0,0,0,0-0.1C367.9,302.9,367.7,302.7,367.4,302.7C367.4,302.7,367.4,302.7,367.4,302.7z"/>
	<path class="st6" d="M355.5,295.4c0.1,0,0.1,0,0.2,0c0.2-0.1,0.3-0.4,0.2-0.6c0,0,0,0,0,0c-0.5-1.1-0.5-2.4,0-3.5
		c0.1-0.2,0-0.5-0.2-0.6c0,0,0,0,0,0c-0.2-0.1-0.5,0-0.6,0.2c-0.6,1.4-0.6,3,0,4.4C355.2,295.3,355.3,295.4,355.5,295.4z"/>
	<path class="st6" d="M370.9,295.6h3.5c0.2,0,0.4-0.2,0.4-0.4c0,0,0,0,0-0.1c0-0.2-0.2-0.4-0.4-0.4c0,0,0,0-0.1,0h-3.5
		c-0.2,0-0.4,0.2-0.4,0.4c0,0,0,0,0,0.1C370.5,295.4,370.7,295.6,370.9,295.6C370.9,295.6,370.9,295.6,370.9,295.6z"/>
	<path class="st6" d="M368.7,294.7h-4.4c-0.2,0-0.4,0.2-0.4,0.4c0,0,0,0,0,0c0,0.2,0.2,0.4,0.4,0.4c0,0,0,0,0.1,0h4.4
		c0.2,0,0.4-0.2,0.4-0.4c0,0,0,0,0-0.1C369.2,294.9,369,294.7,368.7,294.7C368.8,294.7,368.7,294.7,368.7,294.7z"/>
	<path class="st6" d="M387.2,302.9c0.2-0.1,0.3-0.4,0.2-0.6c0,0,0,0,0,0c-0.5-1.1-0.5-2.4,0-3.5c0.1-0.2,0.1-0.5-0.1-0.6
		c0,0,0,0,0,0c-0.2-0.1-0.5,0-0.6,0.2c-0.7,1.4-0.7,3,0,4.4c0.1,0.1,0.2,0.2,0.4,0.2C387.1,302.9,387.2,302.9,387.2,302.9z"/>
	<path class="st6" d="M391.4,300.5c0-0.6,0.1-1.2,0.4-1.8c0.1-0.2,0-0.5-0.3-0.6c-0.2-0.1-0.4,0-0.5,0.2c-0.6,1.4-0.6,3,0,4.4
		c0.1,0.1,0.2,0.2,0.4,0.2c0.1,0,0.2,0,0.2,0c0.2-0.1,0.3-0.4,0.2-0.6c0,0,0,0,0,0C391.6,301.7,391.4,301.1,391.4,300.5z"/>
	<path class="st6" d="M401.6,297.8H399c-0.2,0-0.4,0.2-0.4,0.4s0.2,0.4,0.4,0.4h2.6c0.2,0,0.4-0.2,0.4-0.4S401.9,297.8,401.6,297.8
		L401.6,297.8z"/>
	<path class="st6" d="M410.5,298c-0.2-0.6-0.5-1.1-1-1.5c1-1.1,1.6-2.5,1.5-4c0-0.8-0.1-1.5-0.4-2.3c0-0.1,0-0.2-0.1-0.2
		c-0.5-1.2-1.3-1.9-2.2-1.9h-19c-1.5,0-2.7,2-2.7,4.4c-0.1,1.3,0.4,2.6,1.2,3.7c-0.2-0.1-0.5-0.2-0.7-0.2c-1.5,0-2.7,1.9-2.7,4.4
		s1.1,4.4,2.7,4.4h21.2c1.5,0,2.6-2,2.6-4.4c0-0.8-0.1-1.5-0.4-2.2C410.6,298.1,410.5,298.1,410.5,298z M391.5,304L391.5,304
		c-0.6,0-1.1-0.6-1.4-1.5l0,0c-0.2-0.6-0.3-1.3-0.3-2c0-2.1,0.9-3.5,1.8-3.5s1.8,1.5,1.8,3.5S392.3,304,391.5,304L391.5,304z
		 M389.2,296.9h0.6c-0.2,0.3-0.4,0.7-0.6,1.1c-0.2-0.4-0.4-0.9-0.7-1.2C388.7,296.9,389,296.9,389.2,296.9L389.2,296.9z
		 M389.2,288.9c0.8,0,1.8,1.5,1.8,3.5s-0.9,3.5-1.8,3.5s-1.8-1.5-1.8-3.5S388.4,289,389.2,288.9L389.2,288.9z M385.2,300.4
		c0-2.1,0.9-3.5,1.8-3.5s1.8,1.5,1.8,3.5s-0.9,3.4-1.7,3.5H387C386.2,304,385.2,302.5,385.2,300.4L385.2,300.4z M388.9,303.6
		c0.1-0.2,0.2-0.3,0.3-0.5h0.1c0.1,0.3,0.3,0.6,0.5,0.9h-1.2L388.9,303.6z"/>
	<path class="st6" d="M404.3,300.5c0-0.2-0.2-0.4-0.4-0.4c0,0,0,0-0.1,0h-1.3c-0.2,0-0.5,0.1-0.5,0.4c0,0.2,0.1,0.5,0.4,0.5
		c0,0,0.1,0,0.1,0h1.3C404.1,300.9,404.3,300.7,404.3,300.5C404.3,300.5,404.3,300.5,404.3,300.5z"/>
	<path class="st6" d="M400.3,300.5c0-0.2-0.2-0.4-0.4-0.4c0,0,0,0-0.1,0h-4.4c-0.2,0-0.4,0.3-0.4,0.5c0,0.2,0.2,0.3,0.4,0.4h4.4
		C400.1,300.9,400.3,300.8,400.3,300.5C400.3,300.5,400.3,300.5,400.3,300.5z"/>
	<path class="st6" d="M407.8,302.2h-3.5c-0.2,0-0.5,0.1-0.5,0.4c0,0.2,0.1,0.5,0.4,0.5c0,0,0.1,0,0.1,0h3.5c0.2,0,0.4-0.3,0.4-0.5
		C408.2,302.4,408,302.3,407.8,302.2z"/>
	<path class="st6" d="M401.2,302.2h-0.9c-0.2,0-0.4,0.3-0.4,0.5c0,0.2,0.2,0.3,0.4,0.4h0.9c0.2,0,0.4-0.3,0.4-0.5
		C401.5,302.4,401.4,302.3,401.2,302.2z"/>
	<path class="st6" d="M389.2,294.9c0.1,0,0.1,0,0.2,0c0.2-0.1,0.3-0.4,0.2-0.6c0,0,0,0,0,0c-0.5-1.1-0.5-2.4,0-3.5
		c0.1-0.2,0-0.5-0.2-0.6c0,0,0,0,0,0c-0.2-0.1-0.5,0-0.6,0.2c-0.7,1.4-0.7,3,0,4.4C388.9,294.9,389.1,294.9,389.2,294.9z"/>
	<path class="st6" d="M404.7,295.2h3.5c0.2,0,0.4-0.2,0.4-0.4c0,0,0,0,0,0c0-0.2-0.2-0.4-0.4-0.4c0,0,0,0-0.1,0h-3.5
		c-0.2,0-0.4,0.2-0.4,0.4c0,0,0,0,0,0.1C404.3,294.9,404.4,295.1,404.7,295.2C404.7,295.2,404.7,295.2,404.7,295.2z"/>
	<path class="st6" d="M402.5,294.3h-4.4c-0.2,0-0.4,0.2-0.4,0.4c0,0,0,0,0,0.1c0,0.2,0.2,0.4,0.4,0.4c0,0,0,0,0.1,0h4.4
		c0.2,0,0.4-0.2,0.4-0.4c0,0,0,0,0,0C403,294.5,402.8,294.3,402.5,294.3C402.6,294.3,402.5,294.3,402.5,294.3z"/>
	<line class="st7" x1="360.5" y1="246" x2="384.5" y2="246"/>
	<polygon class="st8" points="382.1,249 381.5,248.5 384.2,246 381.5,243.5 382.1,242.9 385.4,246 	"/>
</g>
<g>
	<line class="st9" x1="113.4" y1="264.5" x2="113.8" y2="305"/>
	<line class="st9" x1="113.5" y1="275" x2="119.3" y2="266.9"/>
	<line class="st9" x1="113.6" y1="279.8" x2="104.4" y2="270.6"/>
	<ellipse class="st9" cx="113.4" cy="266.9" rx="14.6" ry="23.2"/>
	<line class="st9" x1="106.6" y1="304.5" x2="120.5" y2="304.4"/>
	<line class="st9" x1="136.3" y1="252.8" x2="136.6" y2="293.4"/>
	<line class="st9" x1="136.4" y1="263.3" x2="142.2" y2="255.3"/>
	<line class="st9" x1="136.5" y1="268.2" x2="127.3" y2="259"/>
	<path class="st9" d="M127.5,272.6c2.7,4.3,4.8,5.8,8.9,5.8c8.1,0,14.6-10.4,14.6-23.2s-6.5-23.2-14.6-23.2c-6.9,0-12.6,5.9-14.2,16
		"/>
	<line class="st9" x1="129.4" y1="292.9" x2="143.4" y2="292.7"/>
	<line class="st9" x1="159.4" y1="241.5" x2="159.8" y2="282.1"/>
	<line class="st9" x1="159.5" y1="252" x2="165.4" y2="244"/>
	<line class="st9" x1="159.6" y1="256.9" x2="150.4" y2="247.7"/>
	<path class="st9" d="M150.6,261.3c2.6,4.3,4.8,5.8,8.9,5.8c8.1,0,14.6-10.4,14.6-23.2s-6.5-23.2-14.6-23.2c-6.9,0-12.6,5.9-14.2,16
		"/>
	<line class="st9" x1="152.6" y1="281.6" x2="166.5" y2="281.4"/>
	<line class="st9" x1="187.2" y1="263.8" x2="187.5" y2="304.4"/>
	<line class="st9" x1="187.3" y1="274.3" x2="193.1" y2="266.2"/>
	<line class="st9" x1="187.3" y1="279.1" x2="178.1" y2="270"/>
	<ellipse class="st9" cx="187.2" cy="266.2" rx="14.6" ry="23.2"/>
	<line class="st9" x1="180.3" y1="303.8" x2="194.3" y2="303.7"/>
	<line class="st9" x1="210" y1="252.1" x2="210.4" y2="292.7"/>
	<line class="st9" x1="210.1" y1="262.6" x2="216" y2="254.6"/>
	<line class="st9" x1="210.2" y1="267.5" x2="201" y2="258.3"/>
	<path class="st9" d="M201.2,271.9c2.6,4.3,4.8,5.8,8.9,5.8c8,0,14.6-10.4,14.6-23.2s-6.5-23.2-14.6-23.2c-6.9,0-12.6,5.9-14.2,16"
		/>
	<line class="st9" x1="203.2" y1="292.2" x2="217.1" y2="292"/>
	<line class="st9" x1="233.2" y1="240.8" x2="233.5" y2="281.4"/>
	<line class="st9" x1="233.3" y1="251.3" x2="239.1" y2="243.3"/>
	<line class="st9" x1="233.3" y1="256.2" x2="224.1" y2="247"/>
	<path class="st9" d="M224.3,260.6c2.6,4.3,4.8,5.8,8.9,5.8c8.1,0,14.6-10.4,14.6-23.2s-6.5-23.2-14.6-23.2c-6.9,0-12.6,5.9-14.2,16
		"/>
	<line class="st9" x1="226.3" y1="280.9" x2="240.3" y2="280.7"/>
	<text transform="matrix(1 0 0 1 93.62 125.1)" class="st1 st2 st3">1. Biomass c</text>
	<text transform="matrix(1 0 0 1 165.7 125.1)" class="st1 st2 st3">r</text>
	<text transform="matrix(1 0 0 1 170.42 125.1)" class="st1 st2 st3">ops  (li</text>
	<text transform="matrix(1 0 0 1 208.5 125.1)" class="st1 st2 st3">k</text>
	<text transform="matrix(1 0 0 1 215.18 125.1)" class="st1 st2 st3">e </text>
	<text transform="matrix(1 0 0 1 93.62 141.9)" class="st1 st2 st3">t</text>
	<text transform="matrix(1 0 0 1 98.35 141.9)" class="st1 st2 st3">r</text>
	<text transform="matrix(1 0 0 1 103.07 141.9)" class="st1 st2 st3">ees or </text>
	<text transform="matrix(1 0 0 1 140.87 141.9)" class="st1 st2 st3">c</text>
	<text transform="matrix(1 0 0 1 146.96 141.9)" class="st1 st2 st3">orn) </text>
	<text transform="matrix(1 0 0 1 174.1 141.9)" class="st1 st2 st3">c</text>
	<text transform="matrix(1 0 0 1 180.35 141.9)" class="st1 st2 st3">a</text>
	<text transform="matrix(1 0 0 1 187.4 141.9)" class="st1 st2 st3">p</text>
	<text transform="matrix(1 0 0 1 194.94 141.9)" class="st1 st2 st3">tu</text>
	<text transform="matrix(1 0 0 1 207.28 141.9)" class="st1 st2 st3">r</text>
	<text transform="matrix(1 0 0 1 212 141.9)" class="st1 st2 st3">e </text>
	<text transform="matrix(1 0 0 1 93.62 158.7)" class="st1 st2 st3">c</text>
	<text transform="matrix(1 0 0 1 99.86 158.7)" class="st1 st2 st3">arbon as th</text>
	<text transform="matrix(1 0 0 1 165.63 158.7)" class="st1 st2 st3">e</text>
	<text transform="matrix(1 0 0 1 172.65 158.7)" class="st1 st2 st3">y g</text>
	<text transform="matrix(1 0 0 1 189.04 158.7)" class="st1 st2 st3">r</text>
	<text transform="matrix(1 0 0 1 193.76 158.7)" class="st1 st2 st3">o</text>
	<text transform="matrix(1 0 0 1 201.29 158.7)" class="st1 st2 st3">w</text>
	<text transform="matrix(1 0 0 1 115.75 202.06)" class="st1 st2 st4">C</text>
	<text transform="matrix(1 0 0 1 122.25 202.06)" class="st1 st2 st4">O2</text>
	<text transform="matrix(1 0 0 1 158.95 190.08)" class="st1 st2 st4">C</text>
	<text transform="matrix(1 0 0 1 165.45 190.08)" class="st1 st2 st4">O2</text>
	<text transform="matrix(1 0 0 1 199.36 201.98)" class="st1 st2 st4">C</text>
	<text transform="matrix(1 0 0 1 205.86 201.98)" class="st1 st2 st4">O2</text>
	<line class="st7" x1="180.8" y1="200.5" x2="180.8" y2="224.5"/>
	<polygon class="st8" points="177.7,222 178.2,221.5 180.7,224.2 183.3,221.5 183.8,222 180.7,225.3 	"/>
</g>
<g id="Base">
	<line class="st5" x1="58.7" y1="304.8" x2="710" y2="304.8"/>
	<text transform="matrix(1 0 0 1 251.93 51.46)" class="st10 st11 st12">Bioene</text>
	<text transform="matrix(1 0 0 1 296.66 51.46)" class="st10 st11 st12">r</text>
	<text transform="matrix(1 0 0 1 302.1 51.46)" class="st10 st11 st12">g</text>
	<text transform="matrix(1 0 0 1 310.05 51.46)" class="st10 st11 st12">y with Carbon Ca</text>
	<text transform="matrix(1 0 0 1 418.85 51.46)" class="st10 st11 st12">p</text>
	<text transform="matrix(1 0 0 1 426.98 51.46)" class="st10 st11 st12">tu</text>
	<text transform="matrix(1 0 0 1 440.73 51.46)" class="st10 st11 st12">r</text>
	<text transform="matrix(1 0 0 1 446.18 51.46)" class="st10 st11 st12">e + </text>
	<text transform="matrix(1 0 0 1 467.48 51.46)" class="st10 st11 st12">S</text>
	<text transform="matrix(1 0 0 1 475.26 51.46)" class="st10 st11 st12">t</text>
	<text transform="matrix(1 0 0 1 480.44 51.46)" class="st10 st11 st12">o</text>
	<text transform="matrix(1 0 0 1 488.67 51.46)" class="st10 st11 st12">r</text>
	<text transform="matrix(1 0 0 1 493.88 51.46)" class="st10 st11 st12">a</text>
	<text transform="matrix(1 0 0 1 501.62 51.46)" class="st10 st11 st12">g</text>
	<text transform="matrix(1 0 0 1 509.18 51.46)" class="st10 st11 st12">e</text>
</g>
</svg>
