<svg xmlns="http://www.w3.org/2000/svg" viewBox="0 0 768.72 512.78"><defs><style>.cls-1,.cls-13,.cls-24,.cls-26,.cls-27,.cls-35{fill:none;}.cls-1{stroke:#0e110c;}.cls-1,.cls-13,.cls-24,.cls-26,.cls-27{stroke-miterlimit:10;}.cls-2{font-size:12px;}.cls-11,.cls-2{fill:#231f20;font-family:SourceSansPro-Regular, Source Sans Pro;}.cls-3{letter-spacing:-0.01em;}.cls-4{letter-spacing:-0.02em;}.cls-5{letter-spacing:-0.01em;}.cls-6{letter-spacing:-0.02em;}.cls-7{letter-spacing:-0.02em;}.cls-8{letter-spacing:0.01em;}.cls-9{letter-spacing:0em;}.cls-10{letter-spacing:-0.04em;}.cls-11{font-size:12.16px;}.cls-12{letter-spacing:-0.03em;}.cls-13,.cls-27{stroke:#111410;}.cls-13{stroke-width:0.75px;}.cls-14{fill:#111410;}.cls-15{letter-spacing:0.02em;}.cls-16{letter-spacing:-0.02em;}.cls-17{letter-spacing:-0.01em;}.cls-18{letter-spacing:0.01em;}.cls-19{letter-spacing:-0.03em;}.cls-20{letter-spacing:0em;}.cls-21{letter-spacing:0.02em;}.cls-22{letter-spacing:-0.01em;}.cls-23{fill:#010101;}.cls-24{stroke:#010101;}.cls-25{letter-spacing:-0.02em;}.cls-26{stroke:#8b8989;}.cls-28{font-size:15.2px;fill:#3d6e71;}.cls-28,.cls-36{font-family:SourceSansPro-SemiBold, Source Sans Pro;font-weight:600;}.cls-29{letter-spacing:-0.01em;}.cls-30{letter-spacing:0.01em;}.cls-31{letter-spacing:-0.02em;}.cls-32{letter-spacing:-0.03em;}.cls-33{letter-spacing:-0.02em;}.cls-34{letter-spacing:-0.03em;}.cls-36{font-size:21px;fill:#b2735d;}</style></defs><title>missing</title><g id="Layer_1" data-name="Layer 1"><line class="cls-1" x1="109.89" y1="276.2" x2="110.25" y2="317.31"/><line class="cls-1" x1="110" y1="286.82" x2="115.9" y2="278.67"/><line class="cls-1" x1="110.07" y1="291.77" x2="100.76" y2="282.46"/><ellipse class="cls-1" cx="109.91" cy="278.67" rx="14.77" ry="23.46"/><line class="cls-1" x1="102.95" y1="316.79" x2="117.08" y2="316.61"/><line class="cls-1" x1="133.06" y1="264.42" x2="133.42" y2="305.53"/><line class="cls-1" x1="133.17" y1="275.04" x2="139.06" y2="266.88"/><line class="cls-1" x1="133.24" y1="279.99" x2="123.93" y2="270.68"/><path class="cls-1" d="M124.11,284.43c2.68,4.38,4.82,5.92,9,5.92,8.16,0,14.77-10.51,14.77-23.47s-6.61-23.46-14.77-23.46c-6.94,0-12.77,6-14.34,16.21"/><line class="cls-1" x1="126.12" y1="305" x2="140.25" y2="304.83"/><line class="cls-1" x1="156.5" y1="252.96" x2="156.85" y2="294.07"/><line class="cls-1" x1="156.61" y1="263.58" x2="162.5" y2="255.43"/><line class="cls-1" x1="156.67" y1="268.53" x2="147.36" y2="259.22"/><path class="cls-1" d="M147.54,273c2.69,4.38,4.83,5.91,9,5.91,8.15,0,14.76-10.5,14.76-23.46S164.67,232,156.52,232c-7,0-12.77,5.95-14.35,16.21"/><line class="cls-1" x1="149.56" y1="293.55" x2="163.69" y2="293.37"/><line class="cls-1" x1="184.59" y1="275.5" x2="184.94" y2="316.62"/><line class="cls-1" x1="184.7" y1="286.13" x2="190.59" y2="277.97"/><line class="cls-1" x1="184.77" y1="291.08" x2="175.45" y2="281.76"/><ellipse class="cls-1" cx="184.61" cy="277.97" rx="14.77" ry="23.46"/><line class="cls-1" x1="177.65" y1="316.09" x2="191.78" y2="315.91"/><line class="cls-1" x1="207.76" y1="263.72" x2="208.11" y2="304.83"/><line class="cls-1" x1="207.87" y1="274.34" x2="213.76" y2="266.19"/><line class="cls-1" x1="207.94" y1="279.29" x2="198.62" y2="269.98"/><path class="cls-1" d="M198.81,283.74c2.68,4.38,4.82,5.91,9,5.91,8.16,0,14.77-10.5,14.77-23.46s-6.61-23.46-14.77-23.46c-6.94,0-12.77,6-14.35,16.21"/><line class="cls-1" x1="200.82" y1="304.31" x2="214.95" y2="304.13"/><line class="cls-1" x1="231.19" y1="252.27" x2="231.55" y2="293.38"/><line class="cls-1" x1="231.3" y1="262.89" x2="237.2" y2="254.73"/><line class="cls-1" x1="231.37" y1="267.84" x2="222.06" y2="258.53"/><path class="cls-1" d="M222.24,272.28c2.68,4.38,4.82,5.92,9,5.92,8.16,0,14.77-10.51,14.77-23.47s-6.61-23.46-14.77-23.46c-6.94,0-12.77,5.95-14.34,16.21"/><line class="cls-1" x1="224.25" y1="292.85" x2="238.39" y2="292.68"/><text class="cls-2" transform="translate(89.83 133.47)">1. Biomass c<tspan class="cls-3" x="61.79" y="0">r</tspan><tspan x="65.83" y="0" xml:space="preserve">ops  (li</tspan><tspan class="cls-4" x="98.47" y="0">k</tspan><tspan x="104.19" y="0">e t</tspan><tspan class="cls-5" x="116.6" y="0">r</tspan><tspan x="120.65" y="0">ees or </tspan><tspan class="cls-6" x="0" y="14.4">c</tspan><tspan x="5.22" y="14.4">orn) </tspan><tspan class="cls-3" x="28.49" y="14.4">c</tspan><tspan x="33.84" y="14.4">a</tspan><tspan class="cls-7" x="39.89" y="14.4">p</tspan><tspan x="46.34" y="14.4">tu</tspan><tspan class="cls-3" x="56.93" y="14.4">r</tspan><tspan x="60.97" y="14.4">e </tspan><tspan class="cls-3" x="69.32" y="14.4">c</tspan><tspan x="74.67" y="14.4">arbon as th</tspan><tspan class="cls-8" x="131.05" y="14.4">e</tspan><tspan x="137.06" y="14.4">y </tspan><tspan x="0" y="28.8">g</tspan><tspan class="cls-3" x="6.05" y="28.8">r</tspan><tspan class="cls-9" x="10.09" y="28.8">o</tspan><tspan class="cls-10" x="16.55" y="28.8">w</tspan><tspan x="24.67" y="28.8">.</tspan></text><text class="cls-11" transform="translate(112.25 212.98)"><tspan class="cls-12">C</tspan><tspan x="6.59" y="0">O2</tspan></text><text class="cls-11" transform="translate(156.01 200.85)"><tspan class="cls-12">C</tspan><tspan x="6.59" y="0">O2</tspan></text><text class="cls-11" transform="translate(196.95 212.9)"><tspan class="cls-12">C</tspan><tspan x="6.59" y="0">O2</tspan></text><line class="cls-13" x1="178.09" y1="211.4" x2="178.09" y2="235.74"/><polygon class="cls-14" points="175.02 233.25 175.57 232.74 178.09 235.45 180.61 232.74 181.16 233.25 178.09 236.55 175.02 233.25"/><text class="cls-2" transform="translate(309.85 133.47)">2. The biomass is ha<tspan class="cls-15" x="100.16" y="0">r</tspan><tspan class="cls-9" x="104.62" y="0">v</tspan><tspan x="110.18" y="0">e</tspan><tspan class="cls-16" x="116.13" y="0">s</tspan><tspan class="cls-17" x="120.92" y="0">t</tspan><tspan x="124.81" y="0">ed </tspan><tspan x="0" y="14.4">and burnt </tspan><tspan class="cls-3" x="52.02" y="14.4">f</tspan><tspan x="55.4" y="14.4">or ene</tspan><tspan class="cls-5" x="86.94" y="14.4">r</tspan><tspan class="cls-18" x="90.98" y="14.4">g</tspan><tspan class="cls-19" x="97.21" y="14.4">y</tspan><tspan class="cls-20" x="102.39" y="14.4">. </tspan><tspan class="cls-21" x="107.78" y="14.4">A</tspan><tspan x="114.59" y="14.4">s it </tspan><tspan x="0" y="28.8">burns, the biomass </tspan><tspan class="cls-3" x="97.78" y="28.8">r</tspan><tspan x="101.83" y="28.8">el</tspan><tspan class="cls-22" x="110.84" y="28.8">e</tspan><tspan x="116.62" y="28.8">ases </tspan><tspan class="cls-3" x="0" y="43.2">c</tspan><tspan x="5.35" y="43.2">arbon in</tspan><tspan class="cls-22" x="47.18" y="43.2">t</tspan><tspan x="51.07" y="43.2">o the </tspan><tspan class="cls-22" x="78.91" y="43.2">a</tspan><tspan x="84.79" y="43.2">tmosphe</tspan><tspan class="cls-3" x="129.47" y="43.2">r</tspan><tspan x="133.51" y="43.2">e.</tspan></text><path class="cls-23" d="M318.84,315a.45.45,0,0,0,.18-.62,3.48,3.48,0,0,1-.41-1.8,3.43,3.43,0,0,1,.41-1.79.47.47,0,0,0-.18-.63.5.5,0,0,0-.63.18,5.36,5.36,0,0,0,0,4.48.53.53,0,0,0,.4.23A.33.33,0,0,0,318.84,315Z"/><path class="cls-23" d="M323.1,312.56a3.57,3.57,0,0,1,.4-1.79.5.5,0,0,0-.18-.63.51.51,0,0,0-.63.18,5.37,5.37,0,0,0,0,4.48.53.53,0,0,0,.41.23c.09,0,.18,0,.22,0a.44.44,0,0,0,.18-.62A3.62,3.62,0,0,1,323.1,312.56Z"/><path class="cls-23" d="M333.41,309.87h-2.69a.45.45,0,0,0,0,.9h2.69a.45.45,0,0,0,0-.9Z"/><path class="cls-23" d="M342.37,310a3.65,3.65,0,0,0-1-1.5,5.23,5.23,0,0,0,1.49-4,7,7,0,0,0-.36-2.28.45.45,0,0,0-.09-.26,2.64,2.64,0,0,0-2.24-1.94H320.86c-1.48,0-2.69,2-2.69,4.48a5.67,5.67,0,0,0,1.19,3.76,1.79,1.79,0,0,0-.75-.17c-1.52,0-2.69,2-2.69,4.48s1.17,4.49,2.69,4.49h21.52c1.53,0,2.69-2,2.69-4.49a7,7,0,0,0-.36-2.28A.4.4,0,0,0,342.37,310Zm-19.27,6.12H323c-.51-.06-1-.62-1.37-1.5v0a5.9,5.9,0,0,1-.34-2.05c0-2.1.95-3.58,1.8-3.58s1.79,1.48,1.79,3.58S324,316.15,323.1,316.15ZM320.86,309h.6a3.86,3.86,0,0,0-.6,1.06,4,4,0,0,0-.75-1.23A1.72,1.72,0,0,0,320.86,309Zm0-8.07c.85,0,1.79,1.48,1.79,3.58s-.94,3.59-1.79,3.59-1.8-1.48-1.8-3.59S320,300.91,320.86,300.91Zm-4,11.65c0-2.1.94-3.58,1.79-3.58s1.8,1.48,1.8,3.58-.88,3.49-1.71,3.58h-.09C317.76,316.15,316.82,314.67,316.82,312.56Zm3.69,3.22a3.76,3.76,0,0,0,.27-.53h.15a4.36,4.36,0,0,0,.53.9h-1.19Z"/><path class="cls-23" d="M336.1,312.56a.43.43,0,0,0-.45-.45h-1.34a.45.45,0,0,0,0,.9h1.34A.43.43,0,0,0,336.1,312.56Z"/><path class="cls-23" d="M332.06,312.56a.42.42,0,0,0-.44-.45h-4.49a.45.45,0,1,0,0,.9h4.49A.42.42,0,0,0,332.06,312.56Z"/><path class="cls-23" d="M339.69,314.36H336.1a.45.45,0,1,0,0,.89h3.59a.45.45,0,0,0,0-.89Z"/><path class="cls-23" d="M333,314.36h-.9a.45.45,0,0,0,0,.89h.9a.45.45,0,1,0,0-.89Z"/><path class="cls-23" d="M320.86,307c.08,0,.17,0,.22,0a.45.45,0,0,0,.18-.62,3.51,3.51,0,0,1-.4-1.8,3.46,3.46,0,0,1,.4-1.79.47.47,0,0,0-.18-.63.51.51,0,0,0-.63.18,5.37,5.37,0,0,0,0,4.48A.53.53,0,0,0,320.86,307Z"/><path class="cls-23" d="M336.55,307.18h3.58a.45.45,0,1,0,0-.89h-3.58a.45.45,0,1,0,0,.89Z"/><path class="cls-23" d="M334.31,306.29h-4.49a.45.45,0,1,0,0,.89h4.49a.45.45,0,0,0,0-.89Z"/><path class="cls-23" d="M353.06,315.55a.46.46,0,0,0,.18-.63,3.43,3.43,0,0,1-.41-1.79,3.48,3.48,0,0,1,.41-1.8.45.45,0,0,0-.18-.62.49.49,0,0,0-.63.18,5.37,5.37,0,0,0,0,4.48.55.55,0,0,0,.4.22A.4.4,0,0,0,353.06,315.55Z"/><path class="cls-23" d="M357.32,313.13a3.51,3.51,0,0,1,.4-1.8.46.46,0,0,0-.81-.44,5.37,5.37,0,0,0,0,4.48.55.55,0,0,0,.41.22.38.38,0,0,0,.22,0,.46.46,0,0,0,.18-.63A3.46,3.46,0,0,1,357.32,313.13Z"/><path class="cls-23" d="M367.63,310.44h-2.69a.45.45,0,1,0,0,.89h2.69a.45.45,0,1,0,0-.89Z"/><path class="cls-23" d="M376.59,310.59a3.71,3.71,0,0,0-1-1.5,5.22,5.22,0,0,0,1.49-4,7,7,0,0,0-.36-2.28.43.43,0,0,0-.09-.26c-.48-1.18-1.29-1.95-2.24-1.95H355.07c-1.48,0-2.69,2-2.69,4.49a5.64,5.64,0,0,0,1.2,3.75,1.79,1.79,0,0,0-.75-.17c-1.52,0-2.69,2-2.69,4.49s1.17,4.48,2.69,4.48h21.52c1.53,0,2.69-2,2.69-4.48a7,7,0,0,0-.36-2.28A.43.43,0,0,0,376.59,310.59Zm-19.27,6.12h-.09c-.5,0-1-.61-1.36-1.5v0a6,6,0,0,1-.34-2.05c0-2.11.94-3.59,1.8-3.59s1.79,1.48,1.79,3.59S358.17,316.71,357.32,316.71Zm-2.25-7.17h.61a4.4,4.4,0,0,0-.61,1.07,4.16,4.16,0,0,0-.74-1.24A1.71,1.71,0,0,0,355.07,309.54Zm0-8.07c.86,0,1.8,1.48,1.8,3.59s-.94,3.58-1.8,3.58-1.79-1.48-1.79-3.58S354.22,301.47,355.07,301.47Zm-4,11.66c0-2.11.94-3.59,1.79-3.59s1.8,1.48,1.8,3.59-.88,3.48-1.71,3.58h-.09C352,316.71,351,315.23,351,313.13Zm3.69,3.22a4.39,4.39,0,0,0,.27-.53h.15a3.68,3.68,0,0,0,.53.89h-1.19Z"/><path class="cls-23" d="M370.32,313.13a.43.43,0,0,0-.45-.45h-1.35a.45.45,0,0,0,0,.9h1.35A.43.43,0,0,0,370.32,313.13Z"/><path class="cls-23" d="M366.28,313.13a.43.43,0,0,0-.45-.45h-4.48a.45.45,0,0,0,0,.9h4.48A.43.43,0,0,0,366.28,313.13Z"/><path class="cls-23" d="M373.9,314.92h-3.58a.45.45,0,0,0,0,.9h3.58a.45.45,0,1,0,0-.9Z"/><path class="cls-23" d="M367.18,314.92h-.9a.45.45,0,0,0,0,.9h.9a.45.45,0,0,0,0-.9Z"/><path class="cls-23" d="M355.07,307.52c.09,0,.18,0,.23,0a.47.47,0,0,0,.18-.63,3.43,3.43,0,0,1-.41-1.79,3.48,3.48,0,0,1,.41-1.8.45.45,0,0,0-.18-.62.49.49,0,0,0-.63.18,5.37,5.37,0,0,0,0,4.48A.55.55,0,0,0,355.07,307.52Z"/><path class="cls-23" d="M370.77,307.75h3.58a.45.45,0,1,0,0-.9h-3.58a.45.45,0,1,0,0,.9Z"/><path class="cls-23" d="M368.52,306.85H364a.45.45,0,0,0,0,.9h4.48a.45.45,0,1,0,0-.9Z"/><path class="cls-23" d="M387.27,315.1a.45.45,0,0,0,.18-.63,4.21,4.21,0,0,1,0-3.58.45.45,0,0,0-.18-.63.48.48,0,0,0-.62.18,5.27,5.27,0,0,0,0,4.48.53.53,0,0,0,.4.23C387.14,315.15,387.23,315.15,387.27,315.1Z"/><path class="cls-23" d="M391.53,312.68a3.4,3.4,0,0,1,.41-1.79.5.5,0,0,0-.18-.63.49.49,0,0,0-.63.18,5.37,5.37,0,0,0,0,4.48.53.53,0,0,0,.4.23.33.33,0,0,0,.23,0,.46.46,0,0,0,.18-.63A3.4,3.4,0,0,1,391.53,312.68Z"/><path class="cls-23" d="M401.85,310h-2.69a.45.45,0,0,0,0,.9h2.69a.45.45,0,0,0,0-.9Z"/><path class="cls-23" d="M410.8,310.14a3.61,3.61,0,0,0-1-1.5,5.26,5.26,0,0,0,1.49-4,7,7,0,0,0-.36-2.28.46.46,0,0,0-.1-.26,2.62,2.62,0,0,0-2.23-1.94H389.29c-1.48,0-2.69,2-2.69,4.48a5.62,5.62,0,0,0,1.2,3.75,1.78,1.78,0,0,0-.75-.16c-1.52,0-2.69,2-2.69,4.48s1.17,4.48,2.69,4.48h21.52c1.52,0,2.69-2,2.69-4.48a7,7,0,0,0-.36-2.28A.46.46,0,0,0,410.8,310.14Zm-19.27,6.13h-.08c-.5-.05-1-.61-1.36-1.5v0a6,6,0,0,1-.34-2.05c0-2.11.94-3.59,1.79-3.59s1.8,1.48,1.8,3.59S392.39,316.27,391.53,316.27Zm-2.24-7.18h.61a4.4,4.4,0,0,0-.61,1.07,4,4,0,0,0-.74-1.23A1.86,1.86,0,0,0,389.29,309.09Zm0-8.07c.85,0,1.8,1.48,1.8,3.59s-.95,3.59-1.8,3.59-1.79-1.48-1.79-3.59S388.44,301,389.29,301Zm-4,11.66c0-2.11.94-3.59,1.79-3.59s1.79,1.48,1.79,3.59-.88,3.49-1.7,3.58h-.09C386.2,316.27,385.26,314.79,385.26,312.68ZM389,315.9c.09-.17.19-.34.27-.53h.14a4,4,0,0,0,.54.9h-1.19Z"/><path class="cls-23" d="M404.54,312.68a.43.43,0,0,0-.45-.45h-1.35a.45.45,0,1,0,0,.9h1.35A.43.43,0,0,0,404.54,312.68Z"/><path class="cls-23" d="M400.5,312.68a.43.43,0,0,0-.45-.45h-4.48a.45.45,0,0,0,0,.9h4.48A.43.43,0,0,0,400.5,312.68Z"/><path class="cls-23" d="M408.12,314.47h-3.58a.45.45,0,0,0,0,.9h3.58a.45.45,0,1,0,0-.9Z"/><path class="cls-23" d="M401.4,314.47h-.9a.45.45,0,1,0,0,.9h.9a.45.45,0,1,0,0-.9Z"/><path class="cls-23" d="M389.29,307.07c.09,0,.18,0,.23,0a.46.46,0,0,0,.18-.63,4.11,4.11,0,0,1,0-3.58.46.46,0,0,0-.18-.63.49.49,0,0,0-.63.18,5.37,5.37,0,0,0,0,4.48A.51.51,0,0,0,389.29,307.07Z"/><path class="cls-23" d="M405,307.3h3.59a.45.45,0,0,0,0-.9H405a.45.45,0,0,0,0,.9Z"/><path class="cls-23" d="M402.74,306.4h-4.48a.45.45,0,0,0,0,.9h4.48a.45.45,0,0,0,0-.9Z"/><line class="cls-13" x1="360.21" y1="257.47" x2="384.56" y2="257.47"/><polygon class="cls-14" points="382.07 260.54 381.56 259.99 384.27 257.47 381.56 254.96 382.07 254.41 385.37 257.47 382.07 260.54"/><path class="cls-24" d="M636.18,311.71H628.5V279.44a7.36,7.36,0,0,0-4.86-12.89H608.28l-2.37-37.94a2.34,2.34,0,0,0-2.34-2.2h-10a2.35,2.35,0,0,0-2.34,2.2l-2.37,37.94H583.2l-2.38-37.94a2.34,2.34,0,0,0-2.34-2.2h-10a2.35,2.35,0,0,0-2.35,2.2l-2.37,37.94h-5.62l-2.37-37.94a2.35,2.35,0,0,0-2.35-2.2h-10a2.34,2.34,0,0,0-2.34,2.2l-2.37,37.94h-6.54l-1.46-65.44a2.34,2.34,0,0,0-2.34-2.3H513.25a2.35,2.35,0,0,0-2.34,2.3l-1.68,75.48H490.68a7.36,7.36,0,0,0-4.86,12.89v22.23h-5.18a2.35,2.35,0,1,0,0,4.69H636.18a2.35,2.35,0,1,0,0-4.69Zm-120.92,0H490.51V284.26h.22m-.22,0h24.75m-2.11,27.45,95.44-30.43H623.8v30.43H523.13V281.28h85.46"/><path class="cls-24" d="M525,184.47"/><path class="cls-24" d="M524.42,185.33"/><path class="cls-24" d="M523.4,185.3"/><path class="cls-24" d="M521.61,186.31"/><path class="cls-24" d="M527.8,189.58a4.86,4.86,0,0,0,3-1,7.7,7.7,0,0,0,8.39,1.52,9.89,9.89,0,0,0,10.24,2.3A13.29,13.29,0,1,0,552.11,175a9.89,9.89,0,0,0-12.91.87,7.61,7.61,0,0,0-3.05-.63,7.72,7.72,0,0,0-7.07,4.62,5,5,0,0,0-1.28-.17,4.93,4.93,0,0,0-4.66,3.36,2,2,0,0,0-.35,0,3.26,3.26,0,0,0-3.26,3.26,1,1,0,0,0,1,1"/><path class="cls-24" d="M527.8,187.5"/><path class="cls-24" d="M531.68,186.4"/><path class="cls-24" d="M536.15,188.61"/><path class="cls-24" d="M538.91,187.88"/><path class="cls-24" d="M546.16,190.84"/><path class="cls-24" d="M549.44,190.11"/><path class="cls-24" d="M560.63,196.4"/><path class="cls-24" d="M560.63,174"/><path class="cls-24" d="M552.86,177.14"/><path class="cls-24" d="M551.44,177.16"/><path class="cls-24" d="M546.16,175.11"/><path class="cls-24" d="M538.34,286.62A2.35,2.35,0,0,0,536,289v5a2.35,2.35,0,1,0,4.7,0v-5A2.35,2.35,0,0,0,538.34,286.62Z"/><path class="cls-24" d="M548.38,286.62A2.35,2.35,0,0,0,546,289v5a2.35,2.35,0,1,0,4.69,0v-5A2.35,2.35,0,0,0,548.38,286.62Z"/><path class="cls-24" d="M558.41,286.62a2.35,2.35,0,0,0-2.35,2.35v5a2.35,2.35,0,0,0,4.7,0v-5A2.35,2.35,0,0,0,558.41,286.62Z"/><path class="cls-24" d="M568.45,286.62A2.35,2.35,0,0,0,566.1,289v5a2.35,2.35,0,1,0,4.69,0v-5A2.35,2.35,0,0,0,568.45,286.62Z"/><path class="cls-24" d="M578.48,286.62a2.35,2.35,0,0,0-2.35,2.35v5a2.35,2.35,0,0,0,4.7,0v-5A2.35,2.35,0,0,0,578.48,286.62Z"/><path class="cls-24" d="M588.52,286.62a2.35,2.35,0,0,0-2.35,2.35v5a2.35,2.35,0,1,0,4.69,0v-5A2.35,2.35,0,0,0,588.52,286.62Z"/><path class="cls-24" d="M598.55,286.62A2.35,2.35,0,0,0,596.2,289v5a2.35,2.35,0,0,0,4.7,0v-5A2.35,2.35,0,0,0,598.55,286.62Z"/><path class="cls-24" d="M608.59,286.62a2.35,2.35,0,0,0-2.35,2.35v5a2.35,2.35,0,1,0,4.69,0v-5A2.35,2.35,0,0,0,608.59,286.62Z"/><line class="cls-24" x1="515.72" y1="283.73" x2="515.72" y2="312.21"/><text class="cls-2" transform="translate(479.48 336)">3. Some of the <tspan class="cls-3" x="73.91" y="0">c</tspan><tspan x="79.26" y="0">arbon is then </tspan><tspan x="0" y="14.4">(</tspan><tspan class="cls-3" x="3.64" y="14.4">r</tspan><tspan x="7.68" y="14.4">e)</tspan><tspan class="cls-5" x="17.27" y="14.4">c</tspan><tspan x="22.62" y="14.4">a</tspan><tspan class="cls-25" x="28.67" y="14.4">p</tspan><tspan x="35.12" y="14.4">tu</tspan><tspan class="cls-3" x="45.71" y="14.4">r</tspan><tspan x="49.75" y="14.4">ed during burning </tspan><tspan x="0" y="28.8">and </tspan><tspan class="cls-16" x="21.67" y="28.8">s</tspan><tspan class="cls-17" x="26.46" y="28.8">t</tspan><tspan x="30.35" y="28.8">o</tspan><tspan class="cls-3" x="36.85" y="28.8">r</tspan><tspan x="40.9" y="28.8">ed unde</tspan><tspan class="cls-5" x="81.61" y="28.8">r</tspan><tspan x="85.65" y="28.8">g</tspan><tspan class="cls-3" x="91.7" y="28.8">r</tspan><tspan x="95.75" y="28.8">ound.</tspan></text><text class="cls-11" transform="translate(494.96 157.39)"><tspan class="cls-12">C</tspan><tspan x="6.59" y="0">O2</tspan></text><text class="cls-11" transform="translate(538.72 145.26)"><tspan class="cls-12">C</tspan><tspan x="6.59" y="0">O2</tspan></text><ellipse class="cls-26" cx="590.86" cy="427.92" rx="71.96" ry="15.47"/><text class="cls-11" transform="translate(551.64 430.51)"><tspan class="cls-12">C</tspan><tspan x="6.59" y="0">O2</tspan></text><text class="cls-11" transform="translate(586.29 430.51)"><tspan class="cls-12">C</tspan><tspan x="6.59" y="0">O2</tspan></text><text class="cls-11" transform="translate(617.4 430.51)"><tspan class="cls-12">C</tspan><tspan x="6.59" y="0">O2</tspan></text><path class="cls-23" d="M512.21,422.36h-1.85v-1.23a.62.62,0,0,0-.62-.62H506a.62.62,0,0,0-.62.62v1.23H494a1.52,1.52,0,0,1-1.53-1.52v-9.59h1.23a.62.62,0,0,0,.62-.62v-3.71a.61.61,0,0,0-.62-.61h-1.23v-1.86H481.33v1.86H480.1a.61.61,0,0,0-.62.61v3.71a.62.62,0,0,0,.62.62h1.23v13.23a9,9,0,0,0,9,9h15.09v1.23a.61.61,0,0,0,.62.62h3.7a.62.62,0,0,0,.62-.62v-1.23h1.85Zm-29.64-16.67h8.64v.62h-8.64ZM480.71,410v-2.47h12.36V410H480.71Zm9.62,22.23a7.77,7.77,0,0,1-7.76-7.76V411.25h8.64v9.59A2.77,2.77,0,0,0,494,423.6h11.44v8.64Zm18.79,1.86h-2.47V421.75h2.47V434.1Zm1.86-1.86h-.62V423.6H511Z"/></g><g id="Base"><line class="cls-27" x1="54.47" y1="317.02" x2="714.25" y2="317.02"/><text class="cls-28" transform="translate(250.21 60.42)">Bioene<tspan class="cls-29" x="45.31" y="0">r</tspan><tspan class="cls-30" x="50.83" y="0">g</tspan><tspan x="58.88" y="0">y with Carbon Ca</tspan><tspan class="cls-31" x="169.09" y="0">p</tspan><tspan x="177.33" y="0">tu</tspan><tspan class="cls-29" x="191.26" y="0">r</tspan><tspan x="196.78" y="0">e + </tspan><tspan class="cls-32" x="218.35" y="0">S</tspan><tspan class="cls-33" x="226.24" y="0">t</tspan><tspan x="231.48" y="0">o</tspan><tspan class="cls-34" x="239.83" y="0">r</tspan><tspan x="245.1" y="0">a</tspan><tspan class="cls-33" x="252.94" y="0">g</tspan><tspan x="260.6" y="0">e</tspan></text><rect class="cls-35" width="768.72" height="512.78"/><text class="cls-36" transform="translate(54.27 219.39)">?</text><text class="cls-36" transform="translate(541.37 99.36)">?</text><text class="cls-36" transform="translate(333.68 231.28)">?</text><text class="cls-36" transform="translate(700.32 199.33)">?</text><text class="cls-36" transform="translate(658.16 106.62)">?</text><text class="cls-36" transform="translate(160.62 76.91)">?</text><text class="cls-36" transform="translate(246.95 102.63)">?</text></g></svg>