<svg id="Layer_1" data-name="Layer 1" xmlns="http://www.w3.org/2000/svg" viewBox="0 0 768.72 512.78"><defs><style>.cls-1,.cls-12,.cls-18,.cls-19,.cls-20,.cls-26{fill:none;}.cls-1{stroke:#0e110c;}.cls-1,.cls-12,.cls-18,.cls-19,.cls-20{stroke-miterlimit:10;}.cls-10,.cls-11,.cls-14,.cls-15,.cls-16,.cls-2,.cls-21,.cls-22,.cls-23,.cls-24,.cls-25,.cls-27,.cls-3,.cls-4,.cls-5,.cls-6,.cls-7,.cls-8,.cls-9{isolation:isolate;}.cls-14,.cls-15,.cls-16,.cls-3,.cls-4,.cls-5,.cls-6,.cls-7,.cls-8,.cls-9{font-size:12px;}.cls-10,.cls-11,.cls-14,.cls-15,.cls-16,.cls-27,.cls-3,.cls-4,.cls-5,.cls-6,.cls-7,.cls-8,.cls-9{fill:#231f20;}.cls-10,.cls-11,.cls-14,.cls-15,.cls-16,.cls-3,.cls-4,.cls-5,.cls-6,.cls-7,.cls-8,.cls-9{font-family:SourceSansPro-Regular, Source Sans Pro;}.cls-4{letter-spacing:-0.01em;}.cls-5{letter-spacing:-0.02em;}.cls-6{letter-spacing:-0.02em;}.cls-7{letter-spacing:-0.01em;}.cls-8{letter-spacing:0.01em;}.cls-9{letter-spacing:-0.04em;}.cls-10,.cls-11{font-size:12.16px;}.cls-10{letter-spacing:-0.03em;}.cls-12,.cls-20{stroke:#111410;}.cls-12{stroke-width:0.75px;}.cls-13{fill:#111410;}.cls-14{letter-spacing:0.02em;}.cls-15{letter-spacing:-0.03em;}.cls-16{letter-spacing:0.02em;}.cls-17{fill:#010101;}.cls-18{stroke:#010101;}.cls-19{stroke:#8b8989;}.cls-21,.cls-22,.cls-23,.cls-24,.cls-25{font-size:15.2px;fill:#3d6e71;}.cls-21,.cls-22,.cls-23,.cls-24,.cls-25,.cls-27{font-family:SourceSansPro-SemiBold, Source Sans Pro;font-weight:600;}.cls-22{letter-spacing:-0.01em;}.cls-23{letter-spacing:0.01em;}.cls-24{letter-spacing:-0.02em;}.cls-25{letter-spacing:-0.03em;}.cls-27{opacity:0.5;font-size:21px;}</style></defs><title>missing</title><line class="cls-1" x1="109.89" y1="276.2" x2="110.25" y2="317.31"/><line class="cls-1" x1="110" y1="286.82" x2="115.9" y2="278.67"/><line class="cls-1" x1="110.07" y1="291.77" x2="100.76" y2="282.46"/><ellipse class="cls-1" cx="109.91" cy="278.67" rx="14.77" ry="23.46"/><line class="cls-1" x1="102.95" y1="316.79" x2="117.08" y2="316.61"/><line class="cls-1" x1="133.06" y1="264.42" x2="133.42" y2="305.53"/><line class="cls-1" x1="133.17" y1="275.04" x2="139.06" y2="266.88"/><line class="cls-1" x1="133.24" y1="279.99" x2="123.93" y2="270.68"/><path class="cls-1" d="M124.11,284.43c2.68,4.38,4.82,5.92,9,5.92,8.16,0,14.77-10.51,14.77-23.47s-6.61-23.46-14.77-23.46c-6.94,0-12.77,6-14.34,16.21" transform="translate(0 0)"/><line class="cls-1" x1="126.12" y1="305" x2="140.25" y2="304.83"/><line class="cls-1" x1="156.5" y1="252.96" x2="156.85" y2="294.07"/><line class="cls-1" x1="156.61" y1="263.58" x2="162.5" y2="255.43"/><line class="cls-1" x1="156.67" y1="268.53" x2="147.36" y2="259.22"/><path class="cls-1" d="M147.54,273c2.69,4.38,4.83,5.91,9,5.91,8.15,0,14.76-10.5,14.76-23.46S164.67,232,156.52,232c-7,0-12.77,5.95-14.35,16.21" transform="translate(0 0)"/><line class="cls-1" x1="149.56" y1="293.55" x2="163.69" y2="293.37"/><line class="cls-1" x1="184.59" y1="275.5" x2="184.94" y2="316.62"/><line class="cls-1" x1="184.7" y1="286.13" x2="190.59" y2="277.97"/><line class="cls-1" x1="184.77" y1="291.08" x2="175.45" y2="281.76"/><ellipse class="cls-1" cx="184.61" cy="277.97" rx="14.77" ry="23.46"/><line class="cls-1" x1="177.65" y1="316.09" x2="191.78" y2="315.91"/><line class="cls-1" x1="207.76" y1="263.72" x2="208.11" y2="304.83"/><line class="cls-1" x1="207.87" y1="274.34" x2="213.76" y2="266.19"/><line class="cls-1" x1="207.94" y1="279.29" x2="198.62" y2="269.98"/><path class="cls-1" d="M198.81,283.74c2.68,4.38,4.82,5.91,9,5.91,8.16,0,14.77-10.5,14.77-23.46s-6.61-23.46-14.77-23.46c-6.94,0-12.77,6-14.35,16.21" transform="translate(0 0)"/><line class="cls-1" x1="200.82" y1="304.31" x2="214.95" y2="304.13"/><line class="cls-1" x1="231.19" y1="252.27" x2="231.55" y2="293.38"/><line class="cls-1" x1="231.3" y1="262.89" x2="237.2" y2="254.73"/><line class="cls-1" x1="231.37" y1="267.84" x2="222.06" y2="258.53"/><path class="cls-1" d="M222.24,272.28c2.68,4.38,4.82,5.92,9,5.92,8.16,0,14.77-10.51,14.77-23.47s-6.61-23.46-14.77-23.46c-6.94,0-12.77,5.95-14.34,16.21" transform="translate(0 0)"/><line class="cls-1" x1="224.25" y1="292.85" x2="238.39" y2="292.68"/><g class="cls-2"><text class="cls-3" transform="translate(89.83 133.47)">1. Biomass c</text><text class="cls-4" transform="translate(151.62 133.47)">r</text><text class="cls-3" transform="translate(155.66 133.47)"><tspan xml:space="preserve">ops  (li</tspan></text><text class="cls-5" transform="translate(188.3 133.47)">k</text><text class="cls-3" transform="translate(194.02 133.47)">e t</text><text class="cls-4" transform="translate(206.43 133.47)">r</text><text class="cls-3" transform="translate(210.48 133.47)">ees or </text><text class="cls-6" transform="translate(89.83 147.87)">c</text><text class="cls-3" transform="translate(95.05 147.87)">orn) </text><text class="cls-7" transform="translate(118.32 147.87)">c</text><text class="cls-3" transform="translate(123.67 147.87)">a</text><text class="cls-5" transform="translate(129.72 147.87)">p</text><text class="cls-3" transform="translate(136.17 147.87)">tu</text><text class="cls-4" transform="translate(146.76 147.87)">r</text><text class="cls-3" transform="translate(150.8 147.87)">e </text><text class="cls-7" transform="translate(159.15 147.87)">c</text><text class="cls-3" transform="translate(164.5 147.87)">arbon as th</text><text class="cls-8" transform="translate(220.88 147.87)">e</text><text class="cls-3" transform="translate(226.89 147.87)">y </text><text class="cls-3" transform="translate(89.83 162.27)">g</text><text class="cls-4" transform="translate(95.88 162.27)">r</text><text class="cls-3" transform="translate(99.92 162.27)">o</text><text class="cls-9" transform="translate(106.38 162.27)">w</text><text class="cls-3" transform="translate(114.5 162.27)">.</text></g><g class="cls-2"><text class="cls-10" transform="translate(112.25 212.98)">C</text><text class="cls-11" transform="translate(118.84 212.98)">O2</text></g><g class="cls-2"><text class="cls-10" transform="translate(156.01 200.85)">C</text><text class="cls-11" transform="translate(162.6 200.85)">O2</text></g><g class="cls-2"><text class="cls-10" transform="translate(196.95 212.9)">C</text><text class="cls-11" transform="translate(203.54 212.9)">O2</text></g><line class="cls-12" x1="178.09" y1="211.4" x2="178.09" y2="235.74"/><polygon class="cls-13" points="175.02 233.25 175.57 232.74 178.09 235.45 180.61 232.74 181.16 233.25 178.09 236.55 175.02 233.25"/><g class="cls-2"><text class="cls-3" transform="translate(309.85 133.47)">2. The biomass is ha</text><text class="cls-14" transform="translate(410.01 133.47)">r</text><text class="cls-3" transform="translate(414.47 133.47)">v</text><text class="cls-3" transform="translate(420.03 133.47)">e</text><text class="cls-6" transform="translate(425.98 133.47)">s</text><text class="cls-4" transform="translate(430.77 133.47)">t</text><text class="cls-3" transform="translate(434.66 133.47)">ed </text><text class="cls-3" transform="translate(309.85 147.87)">and burnt </text><text class="cls-4" transform="translate(361.87 147.87)">f</text><text class="cls-3" transform="translate(365.25 147.87)">or ene</text><text class="cls-4" transform="translate(396.79 147.87)">r</text><text class="cls-8" transform="translate(400.83 147.87)">g</text><text class="cls-15" transform="translate(407.06 147.87)">y</text><text class="cls-3" transform="translate(412.24 147.87)">. </text><text class="cls-16" transform="translate(417.63 147.87)">A</text><text class="cls-3" transform="translate(424.44 147.87)">s it </text><text class="cls-3" transform="translate(309.85 162.27)">burns, the biomass </text><text class="cls-4" transform="translate(407.63 162.27)">r</text><text class="cls-3" transform="translate(411.68 162.27)">el</text><text class="cls-7" transform="translate(420.69 162.27)">e</text><text class="cls-3" transform="translate(426.47 162.27)">ases </text><text class="cls-7" transform="translate(309.85 176.67)">c</text><text class="cls-3" transform="translate(315.2 176.67)">arbon in</text><text class="cls-4" transform="translate(357.03 176.67)">t</text><text class="cls-3" transform="translate(360.92 176.67)">o the </text><text class="cls-4" transform="translate(388.76 176.67)">a</text><text class="cls-3" transform="translate(394.64 176.67)">tmosphe</text><text class="cls-4" transform="translate(439.32 176.67)">r</text><text class="cls-3" transform="translate(443.36 176.67)">e.</text></g><path class="cls-17" d="M318.84,315a.46.46,0,0,0,.19-.61h0a4.13,4.13,0,0,1,0-3.59.47.47,0,0,0-.18-.63.49.49,0,0,0-.63.18,5.39,5.39,0,0,0,0,4.48.54.54,0,0,0,.4.23A.37.37,0,0,0,318.84,315Z" transform="translate(0 0)"/><path class="cls-17" d="M323.1,312.56a3.59,3.59,0,0,1,.4-1.79.49.49,0,0,0-.18-.63.52.52,0,0,0-.63.18,5.39,5.39,0,0,0,0,4.48.51.51,0,0,0,.41.23h.22a.44.44,0,0,0,.2-.59l0,0A3.6,3.6,0,0,1,323.1,312.56Z" transform="translate(0 0)"/><path class="cls-17" d="M333.41,309.87h-2.69a.45.45,0,0,0,0,.9h2.69a.45.45,0,0,0,0-.9Z" transform="translate(0 0)"/><path class="cls-17" d="M342.37,310a3.64,3.64,0,0,0-1-1.5,5.26,5.26,0,0,0,1.49-4,6.8,6.8,0,0,0-.36-2.28.43.43,0,0,0-.09-.26,2.65,2.65,0,0,0-2.24-1.94H320.86c-1.48,0-2.69,2-2.69,4.48a5.66,5.66,0,0,0,1.19,3.76,1.75,1.75,0,0,0-.75-.17c-1.52,0-2.69,2-2.69,4.48s1.17,4.49,2.69,4.49h21.52c1.53,0,2.69-2,2.69-4.49a6.8,6.8,0,0,0-.36-2.28A.39.39,0,0,0,342.37,310Zm-19.27,6.12H323c-.51-.06-1-.62-1.37-1.5h0a6,6,0,0,1-.34-2.05c0-2.1.95-3.58,1.8-3.58s1.79,1.48,1.79,3.58-.88,3.58-1.78,3.58ZM320.86,309h.6a4,4,0,0,0-.6,1.06,4,4,0,0,0-.75-1.23A1.75,1.75,0,0,0,320.86,309Zm0-8.07c.85,0,1.79,1.48,1.79,3.58s-.94,3.59-1.79,3.59-1.8-1.48-1.8-3.59.94-3.6,1.8-3.6Zm-4,11.65c0-2.1.94-3.58,1.79-3.58s1.8,1.48,1.8,3.58-.88,3.49-1.71,3.58h-.09c-.89,0-1.83-1.49-1.83-3.6Zm3.69,3.22a5.28,5.28,0,0,0,.27-.53H321a4.53,4.53,0,0,0,.53.9h-1.19Z" transform="translate(0 0)"/><path class="cls-17" d="M336.1,312.56a.43.43,0,0,0-.41-.45h-1.38a.45.45,0,0,0,0,.9h1.34a.43.43,0,0,0,.45-.41Z" transform="translate(0 0)"/><path class="cls-17" d="M332.06,312.56a.42.42,0,0,0-.39-.45h-4.54a.45.45,0,1,0,0,.9h4.49a.42.42,0,0,0,.44-.4Z" transform="translate(0 0)"/><path class="cls-17" d="M339.69,314.36H336.1a.44.44,0,0,0-.51.38.45.45,0,0,0,.38.51h3.72a.45.45,0,0,0,0-.89Z" transform="translate(0 0)"/><path class="cls-17" d="M333,314.36h-.9a.45.45,0,0,0,0,.89h.9a.44.44,0,0,0,.51-.38.45.45,0,0,0-.38-.51Z" transform="translate(0 0)"/><path class="cls-17" d="M320.86,307h.22a.46.46,0,0,0,.19-.61h0a3.52,3.52,0,0,1-.4-1.8,3.48,3.48,0,0,1,.4-1.79.47.47,0,0,0-.18-.63.52.52,0,0,0-.63.18,5.39,5.39,0,0,0,0,4.48A.52.52,0,0,0,320.86,307Z" transform="translate(0 0)"/><path class="cls-17" d="M336.55,307.18h3.58a.44.44,0,0,0,.51-.38.45.45,0,0,0-.38-.51.29.29,0,0,0-.13,0h-3.58a.44.44,0,0,0-.51.38.45.45,0,0,0,.38.51Z" transform="translate(0 0)"/><path class="cls-17" d="M334.31,306.29h-4.49a.44.44,0,0,0-.51.38.45.45,0,0,0,.38.51h4.62a.45.45,0,0,0,0-.89Z" transform="translate(0 0)"/><path class="cls-17" d="M353.06,315.55a.46.46,0,0,0,.18-.62h0a4.13,4.13,0,0,1,0-3.59.44.44,0,0,0-.17-.61h0a.49.49,0,0,0-.63.18,5.39,5.39,0,0,0,0,4.48.54.54,0,0,0,.4.22A.37.37,0,0,0,353.06,315.55Z" transform="translate(0 0)"/><path class="cls-17" d="M357.32,313.13a3.52,3.52,0,0,1,.4-1.8.46.46,0,0,0-.81-.44,5.39,5.39,0,0,0,0,4.48.56.56,0,0,0,.41.22.41.41,0,0,0,.22,0,.45.45,0,0,0,.18-.62h0A3.41,3.41,0,0,1,357.32,313.13Z" transform="translate(0 0)"/><path class="cls-17" d="M367.63,310.44h-2.69a.44.44,0,0,0-.51.38.45.45,0,0,0,.38.51h2.82a.44.44,0,0,0,.51-.38.45.45,0,0,0-.38-.51Z" transform="translate(0 0)"/><path class="cls-17" d="M376.59,310.59a3.71,3.71,0,0,0-1-1.5,5.23,5.23,0,0,0,1.49-4,6.8,6.8,0,0,0-.36-2.28.41.41,0,0,0-.09-.26c-.48-1.18-1.29-1.95-2.24-1.95H355.07c-1.48,0-2.69,2-2.69,4.49a5.66,5.66,0,0,0,1.2,3.75,1.75,1.75,0,0,0-.75-.17c-1.52,0-2.69,2-2.69,4.49s1.17,4.48,2.69,4.48h21.52c1.53,0,2.69-2,2.69-4.48a6.8,6.8,0,0,0-.36-2.28A.44.44,0,0,0,376.59,310.59Zm-19.27,6.12h-.09c-.5,0-1-.61-1.36-1.5h0a6,6,0,0,1-.34-2c0-2.11.94-3.59,1.8-3.59s1.79,1.48,1.79,3.59S358.17,316.71,357.32,316.71Zm-2.25-7.17h.61a4.55,4.55,0,0,0-.61,1.07,4.13,4.13,0,0,0-.74-1.24,1.71,1.71,0,0,0,.74.17Zm0-8.07c.86,0,1.8,1.48,1.8,3.59s-.94,3.58-1.8,3.58-1.79-1.48-1.79-3.58.94-3.59,1.79-3.59Zm-4,11.66c0-2.11.94-3.59,1.79-3.59s1.8,1.48,1.8,3.59-.88,3.48-1.71,3.58h-.09c-.86,0-1.86-1.48-1.86-3.58Zm3.69,3.22a5.28,5.28,0,0,0,.27-.53h.15a3.49,3.49,0,0,0,.53.89h-1.19Z" transform="translate(0 0)"/><path class="cls-17" d="M370.32,313.13a.43.43,0,0,0-.41-.45h-1.39a.45.45,0,0,0,0,.9h1.35a.43.43,0,0,0,.45-.41Z" transform="translate(0 0)"/><path class="cls-17" d="M366.28,313.13a.43.43,0,0,0-.41-.45h-4.52a.45.45,0,0,0,0,.9h4.48a.43.43,0,0,0,.45-.41Z" transform="translate(0 0)"/><path class="cls-17" d="M373.9,314.92h-3.58a.45.45,0,0,0,0,.9h3.58a.45.45,0,1,0,0-.9Z" transform="translate(0 0)"/><path class="cls-17" d="M367.18,314.92h-.9a.45.45,0,0,0,0,.9h.9a.45.45,0,0,0,0-.9Z" transform="translate(0 0)"/><path class="cls-17" d="M355.07,307.52h.23a.47.47,0,0,0,.18-.63,4.13,4.13,0,0,1,0-3.59.44.44,0,0,0-.17-.61h0a.49.49,0,0,0-.63.18,5.39,5.39,0,0,0,0,4.48A.55.55,0,0,0,355.07,307.52Z" transform="translate(0 0)"/><path class="cls-17" d="M370.77,307.75h3.58a.45.45,0,1,0,0-.9h-3.58a.45.45,0,1,0,0,.9Z" transform="translate(0 0)"/><path class="cls-17" d="M368.52,306.85H364a.45.45,0,1,0,0,.9h4.48a.45.45,0,1,0,0-.9h0Z" transform="translate(0 0)"/><path class="cls-17" d="M387.27,315.1a.45.45,0,0,0,.19-.61v0a4.23,4.23,0,0,1,0-3.58.45.45,0,0,0-.16-.62h0a.48.48,0,0,0-.62.18,5.24,5.24,0,0,0,0,4.48.54.54,0,0,0,.4.23C387.14,315.15,387.23,315.15,387.27,315.1Z" transform="translate(0 0)"/><path class="cls-17" d="M391.53,312.68a3.4,3.4,0,0,1,.41-1.79.46.46,0,0,0-.81-.45,5.39,5.39,0,0,0,0,4.48.54.54,0,0,0,.4.23.31.31,0,0,0,.23,0,.45.45,0,0,0,.18-.62h0A3.37,3.37,0,0,1,391.53,312.68Z" transform="translate(0 0)"/><path class="cls-17" d="M401.85,310h-2.69a.45.45,0,0,0,0,.9h2.69a.45.45,0,1,0,0-.9Z" transform="translate(0 0)"/><path class="cls-17" d="M410.8,310.14a3.64,3.64,0,0,0-1-1.5,5.26,5.26,0,0,0,1.49-4,6.8,6.8,0,0,0-.36-2.28.49.49,0,0,0-.1-.26,2.63,2.63,0,0,0-2.23-1.94H389.29c-1.48,0-2.69,2-2.69,4.48a5.59,5.59,0,0,0,1.2,3.75,1.78,1.78,0,0,0-.75-.16c-1.52,0-2.69,2-2.69,4.48s1.17,4.48,2.69,4.48h21.52c1.52,0,2.69-2,2.69-4.48a6.8,6.8,0,0,0-.36-2.28A.43.43,0,0,0,410.8,310.14Zm-19.27,6.13h-.08c-.5,0-1-.61-1.36-1.5h0a6,6,0,0,1-.34-2c0-2.11.94-3.59,1.79-3.59s1.8,1.48,1.8,3.59-.95,3.55-1.81,3.55Zm-2.24-7.18h.61a4.55,4.55,0,0,0-.61,1.07,4,4,0,0,0-.74-1.23,1.86,1.86,0,0,0,.74.16Zm0-8.07c.85,0,1.8,1.48,1.8,3.59s-.95,3.59-1.8,3.59-1.79-1.48-1.79-3.59.94-3.61,1.79-3.61Zm-4,11.66c0-2.11.94-3.59,1.79-3.59s1.79,1.48,1.79,3.59-.88,3.49-1.7,3.58h-.09c-.88,0-1.82-1.47-1.82-3.58ZM389,315.9c.09-.17.19-.34.27-.53h.14a3.91,3.91,0,0,0,.54.9h-1.19Z" transform="translate(0 0)"/><path class="cls-17" d="M404.54,312.68a.43.43,0,0,0-.41-.45h-1.39a.45.45,0,1,0,0,.9h1.35a.43.43,0,0,0,.45-.41Z" transform="translate(0 0)"/><path class="cls-17" d="M400.5,312.68a.43.43,0,0,0-.41-.45h-4.52a.45.45,0,0,0,0,.9h4.48a.43.43,0,0,0,.45-.41Z" transform="translate(0 0)"/><path class="cls-17" d="M408.12,314.47h-3.58a.45.45,0,0,0,0,.9h3.58a.45.45,0,1,0,0-.9Z" transform="translate(0 0)"/><path class="cls-17" d="M401.4,314.47h-.9a.45.45,0,1,0,0,.9h.9a.45.45,0,1,0,0-.9Z" transform="translate(0 0)"/><path class="cls-17" d="M389.29,307.07h.23a.45.45,0,0,0,.18-.62h0a4.09,4.09,0,0,1,0-3.58.47.47,0,0,0-.17-.63h0a.49.49,0,0,0-.63.18,5.39,5.39,0,0,0,0,4.48A.52.52,0,0,0,389.29,307.07Z" transform="translate(0 0)"/><path class="cls-17" d="M405,307.3h3.59a.45.45,0,0,0,0-.9H405a.45.45,0,0,0,0,.9Z" transform="translate(0 0)"/><path class="cls-17" d="M402.74,306.4h-4.48a.45.45,0,0,0,0,.9h4.48a.45.45,0,0,0,0-.9Z" transform="translate(0 0)"/><line class="cls-12" x1="360.21" y1="257.47" x2="384.56" y2="257.47"/><polygon class="cls-13" points="382.07 260.54 381.56 259.99 384.27 257.47 381.56 254.96 382.07 254.41 385.37 257.47 382.07 260.54"/><path class="cls-18" d="M636.18,311.71H628.5V279.44a7.36,7.36,0,0,0-4.86-12.89H608.28l-2.37-37.94a2.34,2.34,0,0,0-2.34-2.2h-10a2.34,2.34,0,0,0-2.34,2.2l-2.37,37.94H583.2l-2.38-37.94a2.34,2.34,0,0,0-2.34-2.2h-10a2.35,2.35,0,0,0-2.35,2.2l-2.37,37.94h-5.62l-2.37-37.94a2.35,2.35,0,0,0-2.35-2.2h-10a2.34,2.34,0,0,0-2.34,2.2l-2.37,37.94h-6.54l-1.46-65.44a2.33,2.33,0,0,0-2.34-2.3H513.25a2.36,2.36,0,0,0-2.34,2.3l-1.68,75.48H490.68a7.36,7.36,0,0,0-4.86,12.89v22.23h-5.18a2.35,2.35,0,0,0-.31,4.69,1.6,1.6,0,0,0,.31,0H636.18a2.35,2.35,0,1,0,.31-4.69Zm-120.92,0H490.51V284.26h.22m-.22,0h24.75m-2.11,27.45,95.44-30.43H623.8v30.43H523.13V281.28h85.46" transform="translate(0 0)"/><path class="cls-18" d="M525,184.47" transform="translate(0 0)"/><path class="cls-18" d="M524.42,185.33" transform="translate(0 0)"/><path class="cls-18" d="M523.4,185.3" transform="translate(0 0)"/><path class="cls-18" d="M521.61,186.31" transform="translate(0 0)"/><path class="cls-18" d="M527.8,189.58a4.86,4.86,0,0,0,3-1,7.7,7.7,0,0,0,8.39,1.52,9.89,9.89,0,0,0,10.24,2.3,13.29,13.29,0,1,0,4-18.37,14,14,0,0,0-1.32,1,9.88,9.88,0,0,0-12.91.87,7.61,7.61,0,0,0-3.05-.63,7.72,7.72,0,0,0-7.07,4.62,5.06,5.06,0,0,0-1.28-.17,4.94,4.94,0,0,0-4.66,3.36,2,2,0,0,0-.35,0,3.26,3.26,0,0,0-3.26,3.26h0a1,1,0,0,0,1,1" transform="translate(0 0)"/><path class="cls-18" d="M527.8,187.5" transform="translate(0 0)"/><path class="cls-18" d="M531.68,186.4" transform="translate(0 0)"/><path class="cls-18" d="M536.15,188.61" transform="translate(0 0)"/><path class="cls-18" d="M538.91,187.88" transform="translate(0 0)"/><path class="cls-18" d="M546.16,190.84" transform="translate(0 0)"/><path class="cls-18" d="M549.44,190.11" transform="translate(0 0)"/><path class="cls-18" d="M560.63,196.4" transform="translate(0 0)"/><path class="cls-18" d="M560.63,174" transform="translate(0 0)"/><path class="cls-18" d="M552.86,177.14" transform="translate(0 0)"/><path class="cls-18" d="M551.44,177.16" transform="translate(0 0)"/><path class="cls-18" d="M546.16,175.11" transform="translate(0 0)"/><path class="cls-18" d="M538.34,286.62A2.35,2.35,0,0,0,536,289v5a2.35,2.35,0,0,0,4.7,0v-5a2.35,2.35,0,0,0-2.32-2.38Z" transform="translate(0 0)"/><path class="cls-18" d="M548.38,286.62a2.35,2.35,0,0,0-2.38,2.32V294a2.35,2.35,0,1,0,4.69.31,1.6,1.6,0,0,0,0-.31v-5A2.35,2.35,0,0,0,548.38,286.62Z" transform="translate(0 0)"/><path class="cls-18" d="M558.41,286.62a2.35,2.35,0,0,0-2.35,2.35v5a2.35,2.35,0,0,0,4.7,0v-5a2.35,2.35,0,0,0-2.35-2.35Z" transform="translate(0 0)"/><path class="cls-18" d="M568.45,286.62A2.35,2.35,0,0,0,566.1,289v5a2.35,2.35,0,0,0,4.69.31,1.6,1.6,0,0,0,0-.31v-5a2.35,2.35,0,0,0-2.32-2.38Z" transform="translate(0 0)"/><path class="cls-18" d="M578.48,286.62a2.35,2.35,0,0,0-2.35,2.35v5a2.35,2.35,0,0,0,4.7,0v-5a2.35,2.35,0,0,0-2.35-2.35Z" transform="translate(0 0)"/><path class="cls-18" d="M588.52,286.62a2.35,2.35,0,0,0-2.35,2.35v5a2.35,2.35,0,1,0,4.69.31,1.6,1.6,0,0,0,0-.31v-5A2.36,2.36,0,0,0,588.52,286.62Z" transform="translate(0 0)"/><path class="cls-18" d="M598.55,286.62A2.35,2.35,0,0,0,596.2,289v5a2.35,2.35,0,0,0,4.7,0v-5a2.35,2.35,0,0,0-2.32-2.38Z" transform="translate(0 0)"/><path class="cls-18" d="M608.59,286.62a2.35,2.35,0,0,0-2.35,2.35v5a2.35,2.35,0,1,0,4.69.31,1.6,1.6,0,0,0,0-.31v-5A2.36,2.36,0,0,0,608.59,286.62Z" transform="translate(0 0)"/><line class="cls-18" x1="515.72" y1="283.73" x2="515.72" y2="312.21"/><g class="cls-2"><text class="cls-3" transform="translate(479.48 336)">3. Some of the </text><text class="cls-7" transform="translate(553.39 336)">c</text><text class="cls-3" transform="translate(558.74 336)">arbon is then </text><text class="cls-3" transform="translate(479.48 350.4)">(</text><text class="cls-4" transform="translate(483.12 350.4)">r</text><text class="cls-3" transform="translate(487.16 350.4)">e)</text><text class="cls-7" transform="translate(496.75 350.4)">c</text><text class="cls-3" transform="translate(502.1 350.4)">a</text><text class="cls-5" transform="translate(508.15 350.4)">p</text><text class="cls-3" transform="translate(514.6 350.4)">tu</text><text class="cls-4" transform="translate(525.19 350.4)">r</text><text class="cls-3" transform="translate(529.23 350.4)">ed during burning </text><text class="cls-3" transform="translate(479.48 364.8)">and </text><text class="cls-6" transform="translate(501.15 364.8)">s</text><text class="cls-4" transform="translate(505.94 364.8)">t</text><text class="cls-3" transform="translate(509.83 364.8)">o</text><text class="cls-4" transform="translate(516.33 364.8)">r</text><text class="cls-3" transform="translate(520.38 364.8)">ed unde</text><text class="cls-4" transform="translate(561.09 364.8)">r</text><text class="cls-3" transform="translate(565.13 364.8)">g</text><text class="cls-4" transform="translate(571.18 364.8)">r</text><text class="cls-3" transform="translate(575.23 364.8)">ound.</text></g><g class="cls-2"><text class="cls-10" transform="translate(494.96 157.39)">C</text><text class="cls-11" transform="translate(501.55 157.39)">O2</text></g><g class="cls-2"><text class="cls-10" transform="translate(538.72 145.26)">C</text><text class="cls-11" transform="translate(545.31 145.26)">O2</text></g><ellipse class="cls-19" cx="590.86" cy="427.92" rx="71.96" ry="15.47"/><g class="cls-2"><text class="cls-10" transform="translate(551.64 430.51)">C</text><text class="cls-11" transform="translate(558.23 430.51)">O2</text></g><g class="cls-2"><text class="cls-10" transform="translate(586.29 430.51)">C</text><text class="cls-11" transform="translate(592.88 430.51)">O2</text></g><g class="cls-2"><text class="cls-10" transform="translate(617.4 430.51)">C</text><text class="cls-11" transform="translate(623.99 430.51)">O2</text></g><path class="cls-17" d="M512.21,422.36h-1.85v-1.23a.62.62,0,0,0-.62-.62H506a.62.62,0,0,0-.62.62v1.23H494a1.52,1.52,0,0,1-1.53-1.51h0v-9.59h1.23a.62.62,0,0,0,.62-.62v-3.71a.61.61,0,0,0-.61-.61h-1.24v-1.86H481.33v1.86H480.1a.61.61,0,0,0-.62.6h0v3.71a.62.62,0,0,0,.62.62h1.23v13.23a9,9,0,0,0,9,9h15.09v1.23a.61.61,0,0,0,.6.62h3.72a.62.62,0,0,0,.62-.62v-1.23h1.85Zm-29.64-16.67h8.64v.62h-8.64ZM480.71,410v-2.47h12.36V410Zm9.62,22.23a7.78,7.78,0,0,1-7.76-7.76V411.25h8.64v9.59A2.77,2.77,0,0,0,494,423.6h11.45v8.64Zm18.79,1.86h-2.47V421.75h2.47V434.1Zm1.86-1.86h-.62V423.6H511Z" transform="translate(0 0)"/><g id="Base"><line class="cls-20" x1="54.47" y1="317.02" x2="714.25" y2="317.02"/><g class="cls-2"><text class="cls-21" transform="translate(250.21 60.42)">Bioene</text><text class="cls-22" transform="translate(295.52 60.42)">r</text><text class="cls-23" transform="translate(301.04 60.42)">g</text><text class="cls-21" transform="translate(309.09 60.42)">y with Carbon Ca</text><text class="cls-24" transform="translate(419.3 60.42)">p</text><text class="cls-21" transform="translate(427.54 60.42)">tu</text><text class="cls-22" transform="translate(441.47 60.42)">r</text><text class="cls-21" transform="translate(446.99 60.42)">e + </text><text class="cls-25" transform="translate(468.56 60.42)">S</text><text class="cls-24" transform="translate(476.45 60.42)">t</text><text class="cls-21" transform="translate(481.69 60.42)">o</text><text class="cls-25" transform="translate(490.04 60.42)">r</text><text class="cls-21" transform="translate(495.31 60.42)">a</text><text class="cls-24" transform="translate(503.15 60.42)">g</text><text class="cls-21" transform="translate(510.81 60.42)">e</text></g><rect class="cls-26" width="768.72" height="512.78"/><text class="cls-27" transform="translate(54.27 219.39)">?</text><text class="cls-27" transform="translate(541.37 99.36)">?</text><text class="cls-27" transform="translate(333.68 231.28)">?</text><text class="cls-27" transform="translate(700.32 199.33)">?</text><text class="cls-27" transform="translate(658.16 106.62)">?</text><text class="cls-27" transform="translate(160.62 76.91)">?</text><text class="cls-27" transform="translate(246.95 102.63)">?</text></g></svg>