<svg xmlns:xlink="http://www.w3.org/1999/xlink" xmlns="http://www.w3.org/2000/svg" height="552.5" width="850"><g transform="translate(30,0)"><path class="line0" d="M0,300.4639175257732L1.4409716881492194,299.60051546391753C2.8819433762984388,298.7371134020618,5.7638867525968775,297.01030927835046,8.64977799653408,296.14690721649487C11.535669240471284,295.28350515463916,14.42550835204725,295.28350515463916,17.311399595984454,295.28350515463916C20.19729083992166,295.28350515463916,23.079234216220097,295.28350515463916,25.961177592518535,295.28350515463916C28.843120968816976,295.28350515463916,31.725064345115413,295.28350515463916,34.60700772141385,295.28350515463916C37.48895109771229,295.28350515463916,40.370894474010726,295.28350515463916,43.25678571794793,294.4201030927835C46.14267696188514,293.5567010309278,49.0325160734611,291.82989690721644,51.918407317398305,290.96649484536084C54.80429856133551,290.10309278350513,57.68624193763395,290.10309278350513,60.56818531393239,290.10309278350513C63.45012869023083,290.10309278350513,66.33207206652926,290.10309278350513,67.77304375467848,290.10309278350513L69.2140154428277,290.10309278350513" fill="none" stroke-width="1" stroke="#070C0D"></path><path class="line1" d="M0,222.7577319587629L1.4409716881492194,222.7577319587629C2.8819433762984388,222.7577319587629,5.7638867525968775,222.7577319587629,8.64977799653408,221.89432989690724C11.535669240471284,221.03092783505156,14.42550835204725,219.30412371134022,17.311399595984454,218.44072164948454C20.19729083992166,217.57731958762886,23.079234216220097,217.57731958762886,25.961177592518535,216.7139175257732C28.843120968816976,215.85051546391753,31.725064345115413,214.1237113402062,34.60700772141385,213.26030927835052C37.48895109771229,212.3969072164949,40.370894474010726,212.3969072164949,43.25678571794793,211.5335051546392C46.14267696188514,210.6701030927835,49.0325160734611,208.94329896907217,51.918407317398305,208.0798969072165C54.80429856133551,207.2164948453608,57.68624193763395,207.2164948453608,60.56818531393239,206.35309278350516C63.45012869023083,205.48969072164948,66.33207206652926,203.76288659793815,69.2140154428277,202.89948453608247C72.09595881912614,202.03608247422684,74.97790219542458,202.03608247422684,77.86379343936177,202.89948453608247C80.74968468329898,203.76288659793815,83.63952379487495,205.48969072164948,86.52541503881214,208.0798969072165C89.41130628274936,210.6701030927835,92.29324965904779,214.1237113402062,95.17519303534624,216.7139175257732C98.05713641164466,219.30412371134022,100.93907978794311,221.03092783505156,103.82102316424154,223.62113402061857C106.70296654053998,226.21134020618558,109.58490991683841,229.66494845360828,112.47080116077564,232.2551546391753C115.35669240471283,234.84536082474224,118.24653151628881,236.5721649484536,121.132422760226,239.16237113402062C124.0183140041632,241.75257731958763,126.90025738046165,245.2061855670103,129.7822007567601,247.7963917525773C132.66414413305853,250.38659793814432,135.54608750935697,252.11340206185568,138.4280308856554,254.7036082474227C141.30997426195384,257.2938144329897,144.19191763825228,260.7474226804124,147.0778088821895,263.3376288659794C149.9637001261267,265.9278350515464,152.85353923770265,267.6546391752577,155.73943048163986,270.24484536082474C158.62532172557707,272.83505154639175,161.5072651018755,276.2886597938145,164.38920847817394,278.8788659793815C167.27115185447238,281.4690721649485,170.15309523077082,283.1958762886598,173.03503860706925,284.9226804123711C175.9169819833677,286.6494845360824,178.79892535966613,288.3762886597938,181.6848166036033,290.10309278350513C184.57070784754055,291.82989690721644,187.46054695911653,293.5567010309278,190.3464382030537,295.28350515463916C193.2323294469909,297.01030927835046,196.11427282328933,298.7371134020618,198.9962161995878,300.4639175257732C201.8781595758862,302.19072164948454,204.76010295218464,303.9175257731959,207.64204632848308,305.64432989690727C210.52398970478148,307.3711340206186,213.40593308107995,309.09793814432993,216.29182432501716,311.6881443298969C219.17771556895437,314.2783505154639,222.06755468053038,317.73195876288656,224.9534459244676,320.3221649484536C227.83933716840477,322.9123711340206,230.72128054470318,324.63917525773195,233.60322392100161,326.3659793814433C236.48516729730008,328.0927835051546,239.3671106735985,329.819587628866,242.24905404989693,331.54639175257734C245.13099742619536,333.27319587628864,248.01294080249377,335,250.898832046431,336.72680412371136C253.78472329036822,338.45360824742266,256.67456240194423,340.180412371134,259.5604536458814,341.9072164948454C262.44634488981865,343.6340206185567,265.3282882661171,345.36082474226805,268.2102316424155,347.0876288659794C271.09217501871393,348.8144329896907,273.97411839501234,350.5412371134021,276.8560617713108,352.2680412371133C279.7380051476093,353.99484536082474,282.6199485239077,355.7216494845361,285.50583976784486,357.44845360824746C288.39173101178204,359.17525773195877,291.28157012335805,360.9020618556701,294.1674613672953,362.6288659793815C297.05335261123247,364.3556701030928,299.9352959875309,366.08247422680415,302.8172393638293,367.8092783505155C305.69918274012775,369.5360824742268,308.5811261164262,371.2628865979382,311.4630694927246,372.12628865979383C314.3450128690231,372.98969072164954,317.22695624532156,372.98969072164954,320.11284748925874,373.85309278350513C322.9987387331959,374.71649484536084,325.8885778447719,376.4432989690722,328.7744690887091,377.3067010309278C331.66036033264635,378.17010309278356,334.54230370894476,378.17010309278356,337.4242470852432,379.03350515463916C340.3061904615417,379.8969072164948,343.1881338378401,381.62371134020617,346.0700772141385,382.4871134020618C348.9520205904369,383.3505154639175,351.8339639667354,383.3505154639175,354.7198552106726,384.2139175257732C357.60574645460974,385.07731958762884,360.49558556618575,386.8041237113402,363.38147681012293,388.5309278350515C366.26736805406017,390.2577319587629,369.14931143035864,391.9845360824743,372.03125480665705,392.8479381443299C374.9131981829555,393.71134020618564,377.795141559254,393.71134020618564,380.6770849355524,394.57474226804123C383.55902831185085,395.43814432989694,386.4409716881492,397.1649484536083,389.32686293208644,398.89175257731955C392.21275417602357,400.61855670103097,395.1025932875996,402.34536082474233,397.9884845315368,403.2087628865979C400.874375775474,404.0721649484537,403.75631915177246,404.0721649484537,406.6382625280708,404.9355670103093C409.5202059043693,405.79896907216494,412.40214928066774,407.5257731958763,415.28409265696615,409.2525773195876C418.1660360332646,410.97938144329896,421.0479794095631,412.7061855670103,423.93387065350026,413.569587628866C426.8197618974375,414.4329896907216,429.7096010090134,414.4329896907216,432.59549225295063,415.29639175257734C435.4813834968879,416.159793814433,438.3633268731863,417.88659793814435,441.24527024948475,418.75C444.1272136257832,419.61340206185577,447.0091570020816,419.61340206185577,449.8911003783801,420.47680412371136C452.77304375467844,421.340206185567,455.6549871309769,423.0670103092784,458.54087837491414,423.930412371134C461.4267696188513,424.7938144329897,464.3166087304273,424.7938144329897,467.20249997436446,425.6572164948454C470.0883912183017,426.52061855670104,472.97033459460016,428.2474226804124,475.85227797089857,429.11082474226805C478.73422134719704,429.9742268041238,481.6161647234954,429.9742268041238,484.4981080997939,429.9742268041237C487.3800514760923,429.9742268041238,490.2619948523907,429.9742268041238,493.14788609632797,430.8376288659794C496.0337773402651,431.70103092783506,498.9236164518411,433.4278350515464,501.80950769577834,434.2912371134021C504.6953989397155,435.1546391752577,507.577342316014,435.1546391752577,510.45928569231245,436.01804123711344C513.3412290686109,436.8814432989691,516.2231724449093,438.60824742268045,519.1051158212077,439.4716494845361C521.9870591975063,440.33505154639175,524.8690025738047,440.33505154639175,527.7548938177418,441.19845360824746C530.6407850616791,442.0618556701031,533.5306241732551,443.7886597938145,536.4165154171923,444.6520618556701C539.3024066611295,445.5154639175258,542.1843500374279,445.5154639175258,545.0662934137263,445.5154639175258C547.9482367900247,445.5154639175258,550.8301801663232,445.5154639175258,553.7121235426216,446.3788659793815C556.59406691892,447.24226804123714,559.4760102952185,448.9690721649485,562.3619015391557,449.83247422680415C565.2477927830929,450.6958762886598,568.1376318946689,450.6958762886598,571.023523138606,451.5592783505155C573.9094143825432,452.42268041237116,576.7913577588416,454.1494845360825,579.6733011351402,455.0128865979382C582.5552445114386,455.87628865979383,585.437187887737,455.87628865979383,588.3191312640355,455.87628865979383C591.2010746403338,455.87628865979383,594.0830180166323,455.87628865979383,596.9689092605695,455.87628865979383C599.8548005045067,455.87628865979383,602.7446396160827,455.87628865979383,605.6305308600199,456.73969072164954C608.5164221039571,457.60309278350513,611.3983654802556,459.32989690721644,614.2803088565539,460.19329896907215C617.1622522328524,461.0567010309278,620.0441956091508,461.0567010309278,622.9261389854493,461.0567010309278C625.8080823617478,461.0567010309278,628.6900257380462,461.0567010309278,631.5759169819834,461.0567010309278C634.4618082259207,461.0567010309278,637.3516473374966,461.0567010309278,640.2375385814338,461.0567010309278C643.123429825371,461.0567010309278,646.0053732016694,461.0567010309278,648.8873165779678,461.0567010309278C651.7692599542662,461.0567010309278,654.6512033305647,461.0567010309278,657.5331467068631,461.0567010309278C660.4150900831615,461.0567010309278,663.2970334594601,461.0567010309278,666.1829247033972,461.0567010309278C669.0688159473344,461.0567010309278,671.9586550589105,461.0567010309278,674.8445463028477,461.0567010309278C677.7304375467849,461.0567010309278,680.6123809230833,461.0567010309278,683.4943242993817,461.0567010309278C686.3762676756801,461.0567010309278,689.2582110519785,461.0567010309278,692.140154428277,461.0567010309278C695.0220978045754,461.0567010309278,697.9040411808738,461.0567010309278,700.7899324248111,461.0567010309278C703.6758236687483,461.0567010309278,706.5656627803243,461.0567010309278,709.4515540242614,461.0567010309278C712.3374452681986,461.0567010309278,715.2193886444971,461.0567010309278,718.1013320207954,461.92010309278345C720.9832753970941,462.78350515463916,723.8652187733924,464.51030927835046,726.747162149691,465.37371134020617C729.6291055259893,466.2371134020619,732.5110489022877,466.2371134020619,735.396940146225,466.2371134020619C738.2828313901622,466.2371134020619,741.1726705017381,466.2371134020619,744.0585617456753,466.2371134020619C746.9444529896124,466.2371134020619,749.8263963659109,466.2371134020619,752.7083397422093,466.2371134020619C755.5902831185077,466.2371134020619,758.4722264948063,466.2371134020619,761.3541698711048,466.2371134020619C764.2361132474031,466.2371134020619,767.1180566237016,466.2371134020619,768.5590283118509,466.2371134020619L770,466.2371134020619" fill="none" stroke-width="1" stroke="#049DBF"></path><path class="line2" d="M0,222.7577319587629L1.4409716881492194,222.7577319587629C2.8819433762984388,222.7577319587629,5.7638867525968775,222.7577319587629,8.64977799653408,221.89432989690724C11.535669240471284,221.03092783505156,14.42550835204725,219.30412371134022,17.311399595984454,218.44072164948454C20.19729083992166,217.57731958762886,23.079234216220097,217.57731958762886,25.961177592518535,216.7139175257732C28.843120968816976,215.85051546391753,31.725064345115413,214.1237113402062,34.60700772141385,213.26030927835052C37.48895109771229,212.3969072164949,40.370894474010726,212.3969072164949,43.25678571794793,211.5335051546392C46.14267696188514,210.6701030927835,49.0325160734611,208.94329896907217,51.918407317398305,208.0798969072165C54.80429856133551,207.2164948453608,57.68624193763395,207.2164948453608,60.56818531393239,206.35309278350516C63.45012869023083,205.48969072164948,66.33207206652926,203.76288659793815,69.2140154428277,202.89948453608247C72.09595881912614,202.03608247422684,74.97790219542458,202.03608247422684,77.86379343936177,203.76288659793815C80.74968468329898,205.4896907216495,83.63952379487495,208.9432989690722,86.52541503881214,213.26030927835052C89.41130628274936,217.57731958762892,92.29324965904779,222.75773195876295,95.17519303534624,227.93814432989691C98.05713641164466,233.11855670103094,100.93907978794311,238.29896907216497,103.82102316424154,243.479381443299C106.70296654053998,248.659793814433,109.58490991683841,253.84020618556698,112.47080116077564,258.15721649484533C115.35669240471283,262.4742268041237,118.24653151628881,265.9278350515464,121.132422760226,270.24484536082474C124.0183140041632,274.5618556701031,126.90025738046165,279.7422680412371,129.7822007567601,284.9226804123711C132.66414413305853,290.10309278350513,135.54608750935697,295.28350515463916,138.4280308856554,300.4639175257732C141.30997426195384,305.6443298969072,144.19191763825228,310.82474226804123,147.0778088821895,315.1417525773196C149.9637001261267,319.4587628865979,152.85353923770265,322.9123711340206,155.73943048163986,327.229381443299C158.62532172557707,331.54639175257734,161.5072651018755,336.72680412371136,164.38920847817394,340.180412371134C167.27115185447238,343.6340206185567,170.15309523077082,345.36082474226805,173.03503860706925,347.0876288659794C175.9169819833677,348.8144329896907,178.79892535966613,350.5412371134021,181.6848166036033,353.13144329896903C184.57070784754055,355.7216494845361,187.46054695911653,359.17525773195877,190.3464382030537,361.7654639175257C193.2323294469909,364.3556701030928,196.11427282328933,366.08247422680415,198.9962161995878,367.8092783505155C201.8781595758862,369.5360824742268,204.76010295218464,371.2628865979382,207.64204632848308,373.8530927835052C210.52398970478148,376.44329896907215,213.40593308107995,379.8969072164948,216.29182432501716,382.4871134020618C219.17771556895437,385.07731958762884,222.06755468053038,386.8041237113402,224.9534459244676,388.5309278350515C227.83933716840477,390.2577319587629,230.72128054470318,391.9845360824743,233.60322392100161,394.57474226804123C236.48516729730008,397.1649484536083,239.3671106735985,400.61855670103097,242.24905404989693,403.2087628865979C245.13099742619536,405.79896907216494,248.01294080249377,407.5257731958763,250.898832046431,408.38917525773195C253.78472329036822,409.2525773195876,256.67456240194423,409.2525773195876,259.5604536458814,410.1159793814433C262.44634488981865,410.97938144329896,265.3282882661171,412.7061855670103,268.2102316424155,414.4329896907216C271.09217501871393,416.159793814433,273.97411839501234,417.88659793814435,276.8560617713108,418.75C279.7380051476093,419.61340206185577,282.6199485239077,419.61340206185577,285.50583976784486,420.47680412371136C288.39173101178204,421.340206185567,291.28157012335805,423.0670103092784,294.1674613672953,423.930412371134C297.05335261123247,424.7938144329897,299.9352959875309,424.7938144329897,302.8172393638293,425.6572164948454C305.69918274012775,426.52061855670104,308.5811261164262,428.2474226804124,311.4630694927246,429.9742268041237C314.3450128690231,431.70103092783506,317.22695624532156,433.4278350515464,320.11284748925874,434.2912371134021C322.9987387331959,435.1546391752577,325.8885778447719,435.1546391752577,328.7744690887091,436.01804123711344C331.66036033264635,436.8814432989691,334.54230370894476,438.60824742268045,337.4242470852432,439.4716494845361C340.3061904615417,440.33505154639175,343.1881338378401,440.33505154639175,346.0700772141385,440.33505154639175C348.9520205904369,440.33505154639175,351.8339639667354,440.33505154639175,354.7198552106726,441.19845360824746C357.60574645460974,442.0618556701031,360.49558556618575,443.7886597938145,363.38147681012293,444.6520618556701C366.26736805406017,445.5154639175258,369.14931143035864,445.5154639175258,372.03125480665705,445.5154639175258C374.9131981829555,445.5154639175258,377.795141559254,445.5154639175258,380.6770849355524,446.3788659793815C383.55902831185085,447.24226804123714,386.4409716881492,448.9690721649485,389.32686293208644,449.83247422680415C392.21275417602357,450.6958762886598,395.1025932875996,450.6958762886598,397.9884845315368,450.6958762886598C400.874375775474,450.6958762886598,403.75631915177246,450.6958762886598,406.6382625280708,450.6958762886598C409.5202059043693,450.6958762886598,412.40214928066774,450.6958762886598,415.28409265696615,451.5592783505155C418.1660360332646,452.42268041237116,421.0479794095631,454.1494845360825,423.93387065350026,455.0128865979382C426.8197618974375,455.87628865979383,429.7096010090134,455.87628865979383,432.59549225295063,456.73969072164954C435.4813834968879,457.60309278350513,438.3633268731863,459.32989690721644,441.24527024948475,460.19329896907215C444.1272136257832,461.0567010309278,447.0091570020816,461.0567010309278,449.8911003783801,461.0567010309278C452.77304375467844,461.0567010309278,455.6549871309769,461.0567010309278,458.54087837491414,461.92010309278345C461.4267696188513,462.78350515463916,464.3166087304273,464.51030927835046,467.20249997436446,465.37371134020617C470.0883912183017,466.2371134020619,472.97033459460016,466.2371134020619,475.85227797089857,467.1005154639176C478.73422134719704,467.9639175257732,481.6161647234954,469.6907216494845,484.4981080997939,470.5541237113402C487.3800514760923,471.41752577319585,490.2619948523907,471.41752577319585,493.14788609632797,472.2809278350515C496.0337773402651,473.1443298969072,498.9236164518411,474.8711340206185,501.80950769577834,475.7345360824742C504.6953989397155,476.5979381443299,507.577342316014,476.5979381443299,510.45928569231245,476.5979381443299C513.3412290686109,476.5979381443299,516.2231724449093,476.5979381443299,519.1051158212077,476.5979381443299C521.9870591975063,476.5979381443299,524.8690025738047,476.5979381443299,527.7548938177418,476.5979381443299C530.6407850616791,476.5979381443299,533.5306241732551,476.5979381443299,536.4165154171923,477.4613402061855C539.3024066611295,478.32474226804123,542.1843500374279,480.05154639175254,545.0662934137263,480.9149484536083C547.9482367900247,481.77835051546396,550.8301801663232,481.77835051546396,553.7121235426216,481.77835051546396C556.59406691892,481.77835051546396,559.4760102952185,481.77835051546396,562.3619015391557,481.77835051546396C565.2477927830929,481.77835051546396,568.1376318946689,481.77835051546396,571.023523138606,481.77835051546396C573.9094143825432,481.77835051546396,576.7913577588416,481.77835051546396,579.6733011351402,481.77835051546396C582.5552445114386,481.77835051546396,585.437187887737,481.77835051546396,588.3191312640355,482.64175257731966C591.2010746403338,483.50515463917526,594.0830180166323,485.23195876288656,596.9689092605695,486.0953608247423C599.8548005045067,486.9587628865979,602.7446396160827,486.9587628865979,605.6305308600199,486.9587628865979C608.5164221039571,486.9587628865979,611.3983654802556,486.9587628865979,614.2803088565539,486.9587628865979C617.1622522328524,486.9587628865979,620.0441956091508,486.9587628865979,622.9261389854493,486.9587628865979C625.8080823617478,486.9587628865979,628.6900257380462,486.9587628865979,631.5759169819834,486.9587628865979C634.4618082259207,486.9587628865979,637.3516473374966,486.9587628865979,640.2375385814338,486.9587628865979C643.123429825371,486.9587628865979,646.0053732016694,486.9587628865979,648.8873165779678,486.9587628865979C651.7692599542662,486.9587628865979,654.6512033305647,486.9587628865979,657.5331467068631,486.9587628865979C660.4150900831615,486.9587628865979,663.2970334594601,486.9587628865979,666.1829247033972,486.9587628865979C669.0688159473344,486.9587628865979,671.9586550589105,486.9587628865979,674.8445463028477,486.9587628865979C677.7304375467849,486.9587628865979,680.6123809230833,486.9587628865979,683.4943242993817,486.9587628865979C686.3762676756801,486.9587628865979,689.2582110519785,486.9587628865979,692.140154428277,487.8221649484536C695.0220978045754,488.6855670103093,697.9040411808738,490.4123711340206,700.7899324248111,491.2757731958763C703.6758236687483,492.13917525773195,706.5656627803243,492.13917525773195,709.4515540242614,492.13917525773195C712.3374452681986,492.13917525773195,715.2193886444971,492.13917525773195,718.1013320207954,492.13917525773195C720.9832753970941,492.13917525773195,723.8652187733924,492.13917525773195,726.747162149691,493.0025773195876C729.6291055259893,493.8659793814433,732.5110489022877,495.5927835051546,735.396940146225,496.4561855670103C738.2828313901622,497.319587628866,741.1726705017381,497.319587628866,744.0585617456753,497.319587628866C746.9444529896124,497.319587628866,749.8263963659109,497.319587628866,752.7083397422093,497.319587628866C755.5902831185077,497.319587628866,758.4722264948063,497.319587628866,761.3541698711048,498.1829896907216C764.2361132474031,499.04639175257734,767.1180566237016,500.77319587628864,768.5590283118509,501.63659793814435L770,502.5" fill="none" stroke-width="1" stroke="#93A603"></path><path class="line3" d="M34.60700772141385,212.39690721649487L36.04797940956307,212.39690721649484C37.48895109771229,212.3969072164949,40.370894474010726,212.3969072164949,43.25678571794793,212.39690721649484C46.14267696188514,212.3969072164949,49.0325160734611,212.3969072164949,51.918407317398305,211.5335051546392C54.80429856133551,210.6701030927835,57.68624193763395,208.94329896907217,60.56818531393239,208.0798969072165C63.45012869023083,207.2164948453608,66.33207206652926,207.2164948453608,69.2140154428277,208.94329896907217C72.09595881912614,210.6701030927835,74.97790219542458,214.1237113402062,77.86379343936177,214.98711340206185C80.74968468329898,215.85051546391753,83.63952379487495,214.1237113402062,86.52541503881214,213.26030927835052C89.41130628274936,212.3969072164949,92.29324965904779,212.3969072164949,95.17519303534624,211.5335051546392C98.05713641164466,210.6701030927835,100.93907978794311,208.94329896907217,103.82102316424154,208.0798969072165C106.70296654053998,207.2164948453608,109.58490991683841,207.2164948453608,112.47080116077564,206.35309278350516C115.35669240471283,205.48969072164948,118.24653151628881,203.76288659793815,121.132422760226,202.89948453608247C124.0183140041632,202.03608247422684,126.90025738046165,202.03608247422684,129.7822007567601,201.17268041237114C132.66414413305853,200.30927835051548,135.54608750935697,198.58247422680415,138.4280308856554,197.71907216494847C141.30997426195384,196.85567010309282,144.19191763825228,196.85567010309282,147.0778088821895,195.99226804123714C149.9637001261267,195.12886597938146,152.85353923770265,193.4020618556701,155.73943048163986,192.53865979381442C158.62532172557707,191.67525773195874,161.5072651018755,191.67525773195874,164.38920847817394,190.81185567010309C167.27115185447238,189.9484536082474,170.15309523077082,188.22164948453607,173.03503860706925,187.3582474226804C175.9169819833677,186.49484536082477,178.79892535966613,186.49484536082477,181.6848166036033,186.4948453608247C184.57070784754055,186.49484536082477,187.46054695911653,186.49484536082477,190.3464382030537,185.63144329896906C193.2323294469909,184.7680412371134,196.11427282328933,183.04123711340208,198.9962161995878,182.1778350515464C201.8781595758862,181.31443298969074,204.76010295218464,181.31443298969074,207.64204632848308,181.31443298969074C210.52398970478148,181.31443298969074,213.40593308107995,181.31443298969074,216.29182432501716,181.31443298969074C219.17771556895437,181.31443298969074,222.06755468053038,181.31443298969074,224.9534459244676,180.45103092783506C227.83933716840477,179.58762886597938,230.72128054470318,177.86082474226805,233.60322392100161,176.99742268041237C236.48516729730008,176.13402061855672,239.3671106735985,176.13402061855672,242.24905404989693,176.13402061855666C245.13099742619536,176.13402061855672,248.01294080249377,176.13402061855672,250.898832046431,176.13402061855666C253.78472329036822,176.13402061855672,256.67456240194423,176.13402061855672,259.5604536458814,176.13402061855666C262.44634488981865,176.13402061855672,265.3282882661171,176.13402061855672,268.2102316424155,176.13402061855666C271.09217501871393,176.13402061855672,273.97411839501234,176.13402061855672,276.8560617713108,175.270618556701C279.7380051476093,174.40721649484536,282.6199485239077,172.68041237113403,285.50583976784486,171.81701030927834C288.39173101178204,170.9536082474227,291.28157012335805,170.9536082474227,294.1674613672953,170.9536082474227C297.05335261123247,170.9536082474227,299.9352959875309,170.9536082474227,302.8172393638293,170.9536082474227C305.69918274012775,170.9536082474227,308.5811261164262,170.9536082474227,311.4630694927246,170.9536082474227C314.3450128690231,170.9536082474227,317.22695624532156,170.9536082474227,320.11284748925874,170.9536082474227C322.9987387331959,170.9536082474227,325.8885778447719,170.9536082474227,328.7744690887091,170.9536082474227C331.66036033264635,170.9536082474227,334.54230370894476,170.9536082474227,337.4242470852432,170.9536082474227C340.3061904615417,170.9536082474227,343.1881338378401,170.9536082474227,346.0700772141385,170.9536082474227C348.9520205904369,170.9536082474227,351.8339639667354,170.9536082474227,354.7198552106726,170.9536082474227C357.60574645460974,170.9536082474227,360.49558556618575,170.9536082474227,363.38147681012293,170.9536082474227C366.26736805406017,170.9536082474227,369.14931143035864,170.9536082474227,372.03125480665705,170.9536082474227C374.9131981829555,170.9536082474227,377.795141559254,170.9536082474227,380.6770849355524,170.9536082474227C383.55902831185085,170.9536082474227,386.4409716881492,170.9536082474227,389.32686293208644,170.9536082474227C392.21275417602357,170.9536082474227,395.1025932875996,170.9536082474227,397.9884845315368,171.81701030927834C400.874375775474,172.68041237113403,403.75631915177246,174.40721649484536,406.6382625280708,175.27061855670104C409.5202059043693,176.13402061855672,412.40214928066774,176.13402061855672,415.28409265696615,176.13402061855666C418.1660360332646,176.13402061855672,421.0479794095631,176.13402061855672,423.93387065350026,176.13402061855666C426.8197618974375,176.13402061855672,429.7096010090134,176.13402061855672,432.59549225295063,176.99742268041234C435.4813834968879,177.86082474226805,438.3633268731863,179.58762886597938,441.24527024948475,180.45103092783506C444.1272136257832,181.31443298969074,447.0091570020816,181.31443298969074,449.8911003783801,181.31443298969074C452.77304375467844,181.31443298969074,455.6549871309769,181.31443298969074,458.54087837491414,181.31443298969074C461.4267696188513,181.31443298969074,464.3166087304273,181.31443298969074,467.20249997436446,181.31443298969074C470.0883912183017,181.31443298969074,472.97033459460016,181.31443298969074,475.85227797089857,182.1778350515464C478.73422134719704,183.04123711340208,481.6161647234954,184.7680412371134,484.4981080997939,185.6314432989691C487.3800514760923,186.49484536082477,490.2619948523907,186.49484536082477,493.14788609632797,186.4948453608247C496.0337773402651,186.49484536082477,498.9236164518411,186.49484536082477,501.80950769577834,186.4948453608247C504.6953989397155,186.49484536082477,507.577342316014,186.49484536082477,510.45928569231245,186.4948453608247C513.3412290686109,186.49484536082477,516.2231724449093,186.49484536082477,519.1051158212077,186.4948453608247C521.9870591975063,186.49484536082477,524.8690025738047,186.49484536082477,527.7548938177418,187.3582474226804C530.6407850616791,188.22164948453607,533.5306241732551,189.9484536082474,536.4165154171923,190.81185567010309C539.3024066611295,191.67525773195874,542.1843500374279,191.67525773195874,545.0662934137263,191.67525773195874C547.9482367900247,191.67525773195874,550.8301801663232,191.67525773195874,553.7121235426216,191.67525773195874C556.59406691892,191.67525773195874,559.4760102952185,191.67525773195874,562.3619015391557,191.67525773195874C565.2477927830929,191.67525773195874,568.1376318946689,191.67525773195874,571.023523138606,192.53865979381442C573.9094143825432,193.4020618556701,576.7913577588416,195.12886597938146,579.6733011351402,195.99226804123714C582.5552445114386,196.85567010309282,585.437187887737,196.85567010309282,588.3191312640355,196.85567010309282C591.2010746403338,196.85567010309282,594.0830180166323,196.85567010309282,596.9689092605695,196.85567010309282C599.8548005045067,196.85567010309282,602.7446396160827,196.85567010309282,605.6305308600199,197.71907216494847C608.5164221039571,198.58247422680415,611.3983654802556,200.30927835051548,614.2803088565539,201.17268041237116C617.1622522328524,202.03608247422684,620.0441956091508,202.03608247422684,622.9261389854493,202.0360824742268C625.8080823617478,202.03608247422684,628.6900257380462,202.03608247422684,631.5759169819834,202.89948453608247C634.4618082259207,203.76288659793815,637.3516473374966,205.48969072164948,640.2375385814338,206.35309278350516C643.123429825371,207.2164948453608,646.0053732016694,207.2164948453608,648.8873165779678,208.0798969072165C651.7692599542662,208.94329896907217,654.6512033305647,210.6701030927835,657.5331467068631,211.5335051546392C660.4150900831615,212.3969072164949,663.2970334594601,212.3969072164949,666.1829247033972,212.39690721649484C669.0688159473344,212.3969072164949,671.9586550589105,212.3969072164949,674.8445463028477,213.26030927835052C677.7304375467849,214.1237113402062,680.6123809230833,215.85051546391753,683.4943242993817,216.7139175257732C686.3762676756801,217.57731958762886,689.2582110519785,217.57731958762886,692.140154428277,217.57731958762886C695.0220978045754,217.57731958762886,697.9040411808738,217.57731958762886,700.7899324248111,218.44072164948454C703.6758236687483,219.30412371134022,706.5656627803243,221.03092783505156,709.4515540242614,221.89432989690724C712.3374452681986,222.7577319587629,715.2193886444971,222.7577319587629,718.1013320207954,222.7577319587629C720.9832753970941,222.7577319587629,723.8652187733924,222.7577319587629,726.747162149691,222.7577319587629C729.6291055259893,222.7577319587629,732.5110489022877,222.7577319587629,735.396940146225,223.62113402061857C738.2828313901622,224.48453608247425,741.1726705017381,226.21134020618558,744.0585617456753,227.07474226804126C746.9444529896124,227.93814432989697,749.8263963659109,227.93814432989697,752.7083397422093,227.93814432989691C755.5902831185077,227.93814432989697,758.4722264948063,227.93814432989697,761.3541698711048,227.93814432989691C764.2361132474031,227.93814432989697,767.1180566237016,227.93814432989697,768.5590283118509,227.93814432989691L770,227.93814432989694" fill="none" stroke-width="1" stroke="#F2B705"></path><path class="line4" d="M0,243.479381443299L1.4409716881492194,242.61597938144334C2.8819433762984388,241.75257731958763,5.7638867525968775,240.02577319587627,8.64977799653408,238.29896907216494C11.535669240471284,236.5721649484536,14.42550835204725,234.84536082474224,17.311399595984454,233.11855670103094C20.19729083992166,231.3917525773196,23.079234216220097,229.66494845360828,25.961177592518535,227.93814432989691C28.843120968816976,226.21134020618558,31.725064345115413,224.48453608247425,34.60700772141385,222.7577319587629C37.48895109771229,221.03092783505156,40.370894474010726,219.30412371134022,43.25678571794793,217.57731958762886C46.14267696188514,215.85051546391753,49.0325160734611,214.1237113402062,51.918407317398305,213.26030927835052C54.80429856133551,212.3969072164949,57.68624193763395,212.3969072164949,60.56818531393239,211.5335051546392C63.45012869023083,210.6701030927835,66.33207206652926,208.94329896907217,69.2140154428277,207.2164948453608C72.09595881912614,205.48969072164948,74.97790219542458,203.76288659793815,77.86379343936177,202.0360824742268C80.74968468329898,200.30927835051548,83.63952379487495,198.58247422680415,86.52541503881214,196.85567010309282C89.41130628274936,195.12886597938146,92.29324965904779,193.4020618556701,95.17519303534624,192.53865979381442C98.05713641164466,191.67525773195874,100.93907978794311,191.67525773195874,103.82102316424154,190.81185567010309C106.70296654053998,189.9484536082474,109.58490991683841,188.22164948453607,112.47080116077564,186.4948453608247C115.35669240471283,184.7680412371134,118.24653151628881,183.04123711340208,121.132422760226,182.1778350515464C124.0183140041632,181.31443298969074,126.90025738046165,181.31443298969074,129.7822007567601,180.45103092783506C132.66414413305853,179.58762886597938,135.54608750935697,177.86082474226805,138.4280308856554,176.99742268041237C141.30997426195384,176.13402061855672,144.19191763825228,176.13402061855672,147.0778088821895,175.270618556701C149.9637001261267,174.40721649484536,152.85353923770265,172.68041237113403,155.73943048163986,170.9536082474227C158.62532172557707,169.22680412371136,161.5072651018755,167.50000000000003,164.38920847817394,166.63659793814438C167.27115185447238,165.7731958762887,170.15309523077082,165.7731958762887,173.03503860706925,164.90979381443302C175.9169819833677,164.04639175257734,178.79892535966613,162.31958762886597,181.6848166036033,160.59278350515464C184.57070784754055,158.86597938144328,187.46054695911653,157.13917525773195,190.3464382030537,156.2757731958763C193.2323294469909,155.41237113402062,196.11427282328933,155.41237113402062,198.9962161995878,154.54896907216497C201.8781595758862,153.68556701030928,204.76010295218464,151.95876288659795,207.64204632848308,151.0953608247423C210.52398970478148,150.23195876288662,213.40593308107995,150.23195876288662,216.29182432501716,149.36855670103094C219.17771556895437,148.5051546391753,222.06755468053038,146.77835051546393,224.9534459244676,145.05154639175257C227.83933716840477,143.32474226804123,230.72128054470318,141.5979381443299,233.60322392100161,140.73453608247425C236.48516729730008,139.87113402061857,239.3671106735985,139.87113402061857,242.24905404989693,139.0077319587629C245.13099742619536,138.14432989690724,248.01294080249377,136.4175257731959,250.898832046431,134.69072164948457C253.78472329036822,132.9639175257732,256.67456240194423,131.23711340206185,259.5604536458814,130.37371134020617C262.44634488981865,129.5103092783505,265.3282882661171,129.5103092783505,268.2102316424155,128.64690721649484C271.09217501871393,127.78350515463916,273.97411839501234,126.05670103092784,276.8560617713108,124.3298969072165C279.7380051476093,122.60309278350515,282.6199485239077,120.87628865979383,285.50583976784486,119.14948453608248C288.39173101178204,117.42268041237115,291.28157012335805,115.69587628865979,294.1674613672953,113.96907216494844C297.05335261123247,112.2422680412371,299.9352959875309,110.51546391752576,302.8172393638293,108.78865979381443C305.69918274012775,107.0618556701031,308.5811261164262,105.33505154639177,311.4630694927246,104.4716494845361C314.3450128690231,103.60824742268044,317.22695624532156,103.60824742268044,320.11284748925874,102.74484536082475C322.9987387331959,101.88144329896909,325.8885778447719,100.15463917525773,328.7744690887091,98.42783505154638C331.66036033264635,96.70103092783505,334.54230370894476,94.9742268041237,337.4242470852432,93.24742268041238C340.3061904615417,91.52061855670104,343.1881338378401,89.79381443298969,346.0700772141385,88.93041237113403C348.9520205904369,88.06701030927837,351.8339639667354,88.06701030927837,354.7198552106726,87.20360824742271C357.60574645460974,86.34020618556701,360.49558556618575,84.61340206185567,363.38147681012293,82.88659793814433C366.26736805406017,81.15979381443299,369.14931143035864,79.43298969072164,372.03125480665705,78.56958762886599C374.9131981829555,77.70618556701031,377.795141559254,77.70618556701031,380.6770849355524,76.84278350515464C383.55902831185085,75.97938144329898,386.4409716881492,74.25257731958764,389.32686293208644,72.52577319587631C392.21275417602357,70.79896907216495,395.1025932875996,69.07216494845362,397.9884845315368,68.20876288659794C400.874375775474,67.34536082474226,403.75631915177246,67.34536082474226,406.6382625280708,66.48195876288659C409.5202059043693,65.61855670103093,412.40214928066774,63.891752577319586,415.28409265696615,62.16494845360825C418.1660360332646,60.438144329896915,421.0479794095631,58.71134020618558,423.93387065350026,57.84793814432991C426.8197618974375,56.98453608247425,429.7096010090134,56.98453608247425,432.59549225295063,56.12113402061858C435.4813834968879,55.257731958762896,438.3633268731863,53.530927835051536,441.24527024948475,52.66752577319587C444.1272136257832,51.80412371134019,447.0091570020816,51.80412371134019,449.8911003783801,50.940721649484516C452.77304375467844,50.07731958762886,455.6549871309769,48.350515463917525,458.54087837491414,47.48711340206185C461.4267696188513,46.62371134020619,464.3166087304273,46.62371134020619,467.20249997436446,46.62371134020618C470.0883912183017,46.62371134020619,472.97033459460016,46.62371134020619,475.85227797089857,45.76030927835052C478.73422134719704,44.896907216494846,481.6161647234954,43.17010309278353,484.4981080997939,42.306701030927854C487.3800514760923,41.44329896907219,490.2619948523907,41.44329896907219,493.14788609632797,40.579896907216515C496.0337773402651,39.716494845360835,498.9236164518411,37.98969072164948,501.80950769577834,37.1262886597938C504.6953989397155,36.26288659793813,507.577342316014,36.26288659793813,510.45928569231245,36.26288659793813C513.3412290686109,36.26288659793813,516.2231724449093,36.26288659793813,519.1051158212077,35.39948453608246C521.9870591975063,34.536082474226795,524.8690025738047,32.809278350515456,527.7548938177418,31.94587628865979C530.6407850616791,31.082474226804123,533.5306241732551,31.082474226804123,536.4165154171923,31.082474226804123C539.3024066611295,31.082474226804123,542.1843500374279,31.082474226804123,545.0662934137263,30.219072164948457C547.9482367900247,29.35567010309279,550.8301801663232,27.62886597938146,553.7121235426216,26.76546391752579C556.59406691892,25.902061855670123,559.4760102952185,25.902061855670123,562.3619015391557,25.902061855670123C565.2477927830929,25.902061855670123,568.1376318946689,25.902061855670123,571.023523138606,25.902061855670123C573.9094143825432,25.902061855670123,576.7913577588416,25.902061855670123,579.6733011351402,25.038659793814446C582.5552445114386,24.17525773195877,585.437187887737,22.44845360824742,588.3191312640355,21.585051546391743C591.2010746403338,20.721649484536066,594.0830180166323,20.721649484536066,596.9689092605695,20.72164948453607C599.8548005045067,20.721649484536066,602.7446396160827,20.721649484536066,605.6305308600199,20.72164948453607C608.5164221039571,20.721649484536066,611.3983654802556,20.721649484536066,614.2803088565539,20.72164948453607C617.1622522328524,20.721649484536066,620.0441956091508,20.721649484536066,622.9261389854493,20.72164948453607C625.8080823617478,20.721649484536066,628.6900257380462,20.721649484536066,631.5759169819834,20.72164948453607C634.4618082259207,20.721649484536066,637.3516473374966,20.721649484536066,640.2375385814338,20.72164948453607C643.123429825371,20.721649484536066,646.0053732016694,20.721649484536066,648.8873165779678,20.72164948453607C651.7692599542662,20.721649484536066,654.6512033305647,20.721649484536066,657.5331467068631,20.72164948453607C660.4150900831615,20.721649484536066,663.2970334594601,20.721649484536066,666.1829247033972,20.72164948453607C669.0688159473344,20.721649484536066,671.9586550589105,20.721649484536066,674.8445463028477,20.72164948453607C677.7304375467849,20.721649484536066,680.6123809230833,20.721649484536066,683.4943242993817,21.585051546391743C686.3762676756801,22.44845360824742,689.2582110519785,24.17525773195877,692.140154428277,25.038659793814446C695.0220978045754,25.902061855670123,697.9040411808738,25.902061855670123,700.7899324248111,26.76546391752579C703.6758236687483,27.62886597938146,706.5656627803243,29.35567010309279,709.4515540242614,30.219072164948457C712.3374452681986,31.082474226804123,715.2193886444971,31.082474226804123,718.1013320207954,31.94587628865979C720.9832753970941,32.809278350515456,723.8652187733924,34.536082474226795,726.747162149691,35.39948453608246C729.6291055259893,36.26288659793813,732.5110489022877,36.26288659793813,735.396940146225,37.1262886597938C738.2828313901622,37.98969072164948,741.1726705017381,39.716494845360835,744.0585617456753,40.579896907216515C746.9444529896124,41.44329896907219,749.8263963659109,41.44329896907219,752.7083397422093,42.306701030927854C755.5902831185077,43.17010309278353,758.4722264948063,44.896907216494846,761.3541698711048,45.76030927835052C764.2361132474031,46.62371134020619,767.1180566237016,46.62371134020619,768.5590283118509,46.62371134020618L770,46.623711340206185" fill="none" stroke-width="1" stroke="#0468BF"></path><g transform="translate(0,502.5)" id="x-axis" fill="none" font-size="10" font-family="sans-serif" text-anchor="middle"><path class="domain" stroke="#070C0D" d="M0,6V0H770V6" fill="none"></path><g class="tick" opacity="1" transform="translate(77.85984557172301,0)" fill="none"><line stroke="#070C0D" y2="6" fill="none"></line><text fill="#070C0D" y="9" dy="0.71em">2020</text></g><g class="tick" opacity="1" transform="translate(164.38920847817394,0)" fill="none"><line stroke="#070C0D" y2="6" fill="none"></line><text fill="#070C0D" y="9" dy="0.71em">2030</text></g><g class="tick" opacity="1" transform="translate(250.89488417879224,0)" fill="none"><line stroke="#070C0D" y2="6" fill="none"></line><text fill="#070C0D" y="9" dy="0.71em">2040</text></g><g class="tick" opacity="1" transform="translate(337.4242470852432,0)" fill="none"><line stroke="#070C0D" y2="6" fill="none"></line><text fill="#070C0D" y="9" dy="0.71em">2050</text></g><g class="tick" opacity="1" transform="translate(423.92992278586155,0)" fill="none"><line stroke="#070C0D" y2="6" fill="none"></line><text fill="#070C0D" y="9" dy="0.71em">2060</text></g><g class="tick" opacity="1" transform="translate(510.45928569231245,0)" fill="none"><line stroke="#070C0D" y2="6" fill="none"></line><text fill="#070C0D" y="9" dy="0.71em">2070</text></g><g class="tick" opacity="1" transform="translate(596.9649613929307,0)" fill="none"><line stroke="#070C0D" y2="6" fill="none"></line><text fill="#070C0D" y="9" dy="0.71em">2080</text></g><g class="tick" opacity="1" transform="translate(683.4943242993817,0)" fill="none"><line stroke="#070C0D" y2="6" fill="none"></line><text fill="#070C0D" y="9" dy="0.71em">2090</text></g><g class="tick" opacity="1" transform="translate(770,0)" fill="none"><line stroke="#070C0D" y2="6" fill="none"></line><text fill="#070C0D" y="9" dy="0.71em">2100</text></g></g><g id="y-axis" fill="none" font-size="10" font-family="sans-serif" text-anchor="end"><path class="domain" stroke="#070C0D" d="M-6,502.5H0V0H-6" fill="none"></path><g class="tick" opacity="1" transform="translate(0,476.5979381443299)" fill="none"><line stroke="#070C0D" x2="-6" fill="none"></line><text fill="#070C0D" x="-9" dy="0.32em">0</text></g><g class="tick" opacity="1" transform="translate(0,424.7938144329897)" fill="none"><line stroke="#070C0D" x2="-6" fill="none"></line><text fill="#070C0D" x="-9" dy="0.32em">10</text></g><g class="tick" opacity="1" transform="translate(0,372.9896907216495)" fill="none"><line stroke="#070C0D" x2="-6" fill="none"></line><text fill="#070C0D" x="-9" dy="0.32em">20</text></g><g class="tick" opacity="1" transform="translate(0,321.1855670103092)" fill="none"><line stroke="#070C0D" x2="-6" fill="none"></line><text fill="#070C0D" x="-9" dy="0.32em">30</text></g><g class="tick" opacity="1" transform="translate(0,269.3814432989691)" fill="none"><line stroke="#070C0D" x2="-6" fill="none"></line><text fill="#070C0D" x="-9" dy="0.32em">40</text></g><g class="tick" opacity="1" transform="translate(0,217.57731958762886)" fill="none"><line stroke="#070C0D" x2="-6" fill="none"></line><text fill="#070C0D" x="-9" dy="0.32em">50</text></g><g class="tick" opacity="1" transform="translate(0,165.7731958762887)" fill="none"><line stroke="#070C0D" x2="-6" fill="none"></line><text fill="#070C0D" x="-9" dy="0.32em">60</text></g><g class="tick" opacity="1" transform="translate(0,113.96907216494844)" fill="none"><line stroke="#070C0D" x2="-6" fill="none"></line><text fill="#070C0D" x="-9" dy="0.32em">70</text></g><g class="tick" opacity="1" transform="translate(0,62.16494845360825)" fill="none"><line stroke="#070C0D" x2="-6" fill="none"></line><text fill="#070C0D" x="-9" dy="0.32em">80</text></g><g class="tick" opacity="1" transform="translate(0,10.36082474226806)" fill="none"><line stroke="#070C0D" x2="-6" fill="none"></line><text fill="#070C0D" x="-9" dy="0.32em">90</text></g></g></g></svg>