<svg xmlns:xlink="http://www.w3.org/1999/xlink" xmlns="http://www.w3.org/2000/svg" height="552.5" width="850"><g transform="translate(30,0)"><path class="line0" d="M15.703749231714813,293.12499999999994L18.321040770333948,290.7986111111111C20.938332308953083,288.4722222222222,26.172915386191352,283.8194444444444,31.41466912517927,279.1666666666667C36.65642286416718,274.5138888888889,41.90534726490474,269.8611111111111,47.14710100389265,267.53472222222223C52.38885474288056,265.2083333333333,57.62343782011883,265.2083333333333,62.85802089735711,265.2083333333333C68.09260397459538,265.2083333333333,73.32718705183365,265.2083333333333,78.56177012907192,262.8819444444444C83.79635320631019,260.55555555555554,89.03093628354846,255.90277777777774,94.27269002253638,253.57638888888889C99.51444376152428,251.25,104.76336816226183,251.25,110.00512190124975,248.92361111111111C115.24687564023766,246.5972222222222,120.48145871747595,241.94444444444443,125.71604179471422,239.61805555555554C130.95062487195247,237.29166666666666,136.18520794919075,237.29166666666666,141.419791026429,237.29166666666666C146.65437410366727,237.29166666666666,151.88895718090555,237.29166666666666,157.13071091989346,237.29166666666666C162.3724646588814,237.29166666666666,167.62138905961896,237.29166666666666,172.86314279860687,237.29166666666666C178.10489653759475,237.29166666666666,183.33947961483304,237.29166666666666,188.5740626920713,237.29166666666666C193.80864576930958,237.29166666666666,199.04322884654786,237.29166666666666,204.27781192378612,237.29166666666666C209.51239500102437,237.29166666666666,214.74697807826263,237.29166666666666,219.98873181725057,234.96527777777774C225.23048555623848,232.63888888888889,230.47940995697604,227.9861111111111,235.72116369596395,225.6597222222222C240.96291743495183,223.33333333333334,246.19750051219012,223.33333333333334,251.4320835894284,221.00694444444443C256.6666666666667,218.68055555555554,261.90124974390494,214.02777777777774,267.1358328211432,209.375C272.37041589838145,204.72222222222217,277.60499897561976,200.06944444444443,282.84675271460765,197.74305555555551C288.0885064535956,195.41666666666663,293.33743085433315,195.41666666666663,298.57918459332103,193.09027777777774C303.8209383323089,190.76388888888889,309.0555214095472,186.11111111111111,314.2901044867855,183.78472222222226C319.52468756402374,181.45833333333337,324.75927064126205,181.45833333333337,329.9938537185003,183.78472222222226C335.22843679573856,186.11111111111111,340.4630198729769,190.76388888888889,345.70477361196475,190.76388888888889C350.9465273509527,190.76388888888889,356.1954517516902,186.11111111111111,361.4372054906781,183.78472222222226C366.6789592296661,181.45833333333337,371.9135423069043,181.45833333333337,377.1481253841426,181.45833333333337C382.38270846138084,181.45833333333337,387.6172915386191,181.45833333333337,392.8518746158574,179.13194444444449C398.0864576930956,176.80555555555557,403.3210407703339,172.15277777777783,408.5627945093218,169.8263888888889C413.8045482483098,167.50000000000003,419.0534726490473,167.50000000000003,424.2952263880352,167.50000000000003C429.53698012702307,167.50000000000003,434.7715632042614,167.50000000000003,440.0061462814997,167.50000000000003C445.240729358738,167.50000000000003,450.47531243597626,167.50000000000003,455.70989551321446,165.17361111111111C460.9444785904528,162.84722222222226,466.17906166769103,158.19444444444446,471.4208154066789,155.86805555555557C476.66256914566685,153.54166666666669,481.9114935464044,153.54166666666669,487.15324728539235,151.2152777777778C492.39500102438024,148.8888888888889,497.62958410161855,144.23611111111111,502.86416717885686,139.58333333333334C508.098750256095,134.93055555555557,513.3333333333334,130.2777777777778,518.5679164105716,125.625C523.8024994878098,120.97222222222221,529.0370825650481,116.31944444444444,534.2788363040361,111.66666666666667C539.520590043024,107.01388888888887,544.7695144437615,102.36111111111109,550.0112681827494,97.70833333333331C555.2530219217374,93.05555555555554,560.4876049989756,88.40277777777776,565.7221880762139,83.74999999999999C570.9567711534522,79.09722222222221,576.1913542306905,74.44444444444441,581.4259373079287,69.79166666666666C586.6605203851669,65.13888888888887,591.8951034624052,60.48611111111112,597.1368572013931,60.486111111111114C602.378610940381,60.48611111111112,607.6275353411186,65.13888888888887,612.8692890801066,62.81249999999999C618.1110428190945,60.48611111111111,623.3456258963328,51.180555555555564,628.580208973571,44.20138888888891C633.8147920508092,37.222222222222236,639.0493751280475,32.56944444444446,644.2839582052858,27.916666666666682C649.5185412825241,23.2638888888889,654.7531243597623,18.611111111111118,659.9948780987503,16.28472222222223C665.2366318377382,13.958333333333337,670.4855562384757,13.958333333333337,675.7273099774637,13.958333333333341C680.9690637164516,13.958333333333337,686.2036467936899,13.958333333333337,691.4382298709282,13.958333333333341C696.6728129481663,13.958333333333337,701.9073960254046,13.958333333333337,707.141979102643,13.958333333333341C712.3765621798811,13.958333333333337,717.6111452571195,13.958333333333337,722.8528989961073,11.63194444444445C728.0946527350952,9.305555555555559,733.3435771358328,4.6527777777777795,738.5853308748207,2.3263888888888897C743.8270846138086,0,749.0616676910469,0,754.2962507682852,0C759.5308338455234,0,764.7654169227617,0,767.3827084613808,0L770,0" fill="none" stroke-width="1" stroke="#070C0D"></path><path class="line1" d="M628.580208973571,-167.49999999999997L631.19750051219,-169.82638888888889C633.8147920508092,-172.15277777777774,639.0493751280475,-176.80555555555557,644.2839582052858,-179.13194444444449C649.5185412825241,-181.45833333333337,654.7531243597623,-181.45833333333337,659.9948780987503,-183.78472222222226C665.2366318377382,-186.11111111111111,670.4855562384757,-190.76388888888889,675.7273099774637,-193.09027777777774C680.9690637164516,-195.41666666666663,686.2036467936899,-195.41666666666663,691.4382298709282,-197.74305555555554C696.6728129481663,-200.06944444444443,701.9073960254046,-204.72222222222226,707.141979102643,-207.04861111111111C712.3765621798811,-209.37500000000003,717.6111452571195,-209.37500000000003,722.8528989961073,-211.7013888888889C728.0946527350952,-214.0277777777778,733.3435771358328,-218.68055555555554,738.5853308748207,-221.00694444444443C743.8270846138086,-223.33333333333334,749.0616676910469,-223.33333333333334,754.2962507682852,-225.6597222222222C759.5308338455234,-227.98611111111111,764.7654169227617,-232.6388888888889,770,-234.96527777777783C775.2345830772383,-237.2916666666667,780.4691661544765,-237.2916666666667,785.7109198934644,-234.9652777777778C790.9526736324524,-232.6388888888889,796.2015980331898,-227.98611111111111,801.4433517721778,-221.00694444444443C806.6851055111657,-214.02777777777774,811.919688588404,-204.72222222222217,817.1542716656423,-197.74305555555551C822.3888547428805,-190.76388888888889,827.6234378201189,-186.11111111111111,832.8580208973572,-179.13194444444446C838.0926039745954,-172.15277777777783,843.3271870518337,-162.84722222222226,848.5689407908216,-155.86805555555557C853.8106945298096,-148.88888888888889,859.059618930547,-144.2361111111111,864.3013726695349,-137.25694444444443C869.5431264085228,-130.27777777777774,874.7777094857611,-120.97222222222224,880.0122925629994,-113.99305555555559C885.2468756402377,-107.01388888888891,890.4814587174759,-102.36111111111113,895.7160417947142,-95.38194444444444C900.9506248719523,-88.40277777777776,906.1852079491906,-79.0972222222222,911.4269616881787,-72.11805555555554C916.6687154271666,-65.13888888888887,921.9176398279042,-60.48611111111112,927.159393566892,-53.50694444444446C932.4011473058799,-46.5277777777778,937.6357303831182,-37.222222222222236,942.8703134603564,-30.243055555555557C948.1048965375948,-23.263888888888882,953.3394796148331,-18.611111111111082,958.5740626920714,-13.958333333333302C963.8086457693097,-9.305555555555523,969.0432288465478,-4.652777777777762,974.2849825855357,9.177843670234628e-15C979.5267363245235,4.6527777777777795,984.7756607252612,9.305555555555559,990.0174144642492,13.958333333333337C995.2591682032371,18.611111111111118,1000.4937512804754,23.2638888888889,1005.7283343577137,27.916666666666682C1010.9629174349519,32.56944444444446,1016.1975005121902,37.222222222222236,1021.4320835894283,41.87500000000002C1026.6666666666667,46.5277777777778,1031.901249743905,51.18055555555558,1037.143003482893,58.159722222222236C1042.3847572218808,65.1388888888889,1047.6336816226183,74.44444444444444,1052.8754353616062,81.4236111111111C1058.117189100594,88.40277777777776,1063.3517721778323,93.05555555555554,1068.5863552550707,97.70833333333331C1073.820938332309,102.36111111111109,1079.0555214095473,107.01388888888887,1084.2901044867856,111.66666666666667C1089.5246875640237,116.31944444444444,1094.759270641262,120.97222222222221,1100.0010243802499,125.625C1105.242778119238,130.2777777777778,1110.4917025199754,134.93055555555557,1115.7334562589635,139.58333333333334C1120.9752099979514,144.23611111111111,1126.2097930751895,148.8888888888889,1131.4443761524278,153.54166666666669C1136.6789592296661,158.19444444444446,1141.9135423069044,162.84722222222226,1147.1481253841428,167.50000000000003C1152.3827084613808,172.15277777777783,1157.6172915386192,176.80555555555557,1162.8590452776073,181.45833333333334C1168.1007990165951,186.11111111111111,1173.3497234173326,190.76388888888889,1178.5914771563205,195.41666666666663C1183.8332308953084,200.06944444444443,1189.0678139725467,204.72222222222217,1194.302397049785,209.37499999999997C1199.536980127023,214.02777777777774,1204.7715632042614,218.68055555555554,1210.0061462815,221.00694444444443C1215.240729358738,223.33333333333334,1220.4753124359763,223.33333333333334,1225.7170661749642,225.6597222222222C1230.9588199139523,227.9861111111111,1236.2077443146898,232.63888888888889,1241.4494980536774,234.9652777777778C1246.6912517926655,237.29166666666666,1251.9258348699038,237.29166666666666,1257.1604179471422,239.61805555555554C1262.3950010243802,241.94444444444443,1267.6295841016185,246.5972222222222,1272.8641671788566,248.92361111111111C1278.098750256095,251.25,1283.3333333333333,251.25,1288.5750870723211,253.57638888888889C1293.816840811309,255.90277777777774,1299.0657652120465,260.55555555555554,1304.3075189510346,265.2083333333333C1309.5492726900225,269.8611111111111,1314.7838557672608,274.5138888888889,1320.0184388444989,276.84027777777777C1325.2530219217372,279.1666666666667,1330.4876049989755,279.1666666666667,1335.7221880762138,281.4930555555556C1340.956771153452,283.8194444444444,1346.1913542306904,288.4722222222222,1351.4331079696783,293.125C1356.6748617086662,297.77777777777777,1361.923786109404,302.4305555555556,1367.1655398483917,304.7569444444445C1372.4072935873799,307.08333333333337,1377.6418766646182,307.08333333333337,1382.8764597418565,309.40972222222223C1388.1110428190943,311.73611111111114,1393.3456258963326,316.38888888888886,1398.580208973571,321.0416666666667C1403.8147920508093,325.6944444444444,1409.0493751280476,330.34722222222223,1414.2911288670355,332.67361111111114C1419.5328826060233,335.00000000000006,1424.7818070067608,335.00000000000006,1430.023560745749,337.3263888888889C1435.2653144847366,339.6527777777778,1440.4998975619749,344.3055555555556,1445.7344806392132,346.6319444444444C1450.9690637164513,348.9583333333333,1456.2036467936896,348.9583333333333,1461.438229870928,351.2847222222222C1466.6728129481662,353.6111111111111,1471.9073960254045,358.2638888888889,1477.1491497643926,360.59027777777777C1482.3909035033805,362.9166666666667,1487.639827904118,362.9166666666667,1492.881581643106,365.2430555555556C1498.1233353820937,367.5694444444445,1503.357918459332,372.22222222222223,1508.5925015365704,374.54861111111114C1513.8270846138087,376.875,1519.061667691047,376.875,1524.2962507682853,376.875C1529.5308338455234,376.875,1534.7654169227617,376.875,1540.0071706617498,379.2013888888889C1545.2489244007375,381.52777777777777,1550.4978488014751,386.1805555555555,1555.7396025404632,388.5069444444444C1560.981356279451,390.8333333333333,1566.215939356689,390.8333333333333,1571.4505224339273,393.1597222222222C1576.6851055111656,395.4861111111111,1581.919688588404,400.1388888888889,1587.1542716656422,402.46527777777777C1592.3888547428805,404.7916666666667,1597.6234378201189,404.7916666666667,1602.865191559107,407.1180555555556C1608.1069452980946,409.4444444444445,1613.3558696988323,414.09722222222223,1618.5976234378202,416.4236111111111C1623.839377176808,418.75,1629.0739602540464,418.75,1634.3085433312847,418.75C1639.543126408523,418.75,1644.7777094857613,418.75,1650.0122925629996,421.0763888888889C1655.2468756402377,423.4027777777778,1660.481458717476,428.0555555555556,1665.7232124564637,430.3819444444445C1670.9649661954518,432.7083333333333,1676.2138905961892,432.7083333333333,1681.4556443351773,435.03472222222223C1686.6973980741652,437.36111111111114,1691.9319811514035,442.01388888888886,1697.1665642286418,444.34027777777777C1702.40114730588,446.6666666666667,1707.6357303831182,446.6666666666667,1712.8703134603563,446.6666666666666C1718.1048965375946,446.6666666666667,1723.339479614833,446.6666666666667,1728.5812333538208,446.6666666666666C1733.8229870928087,446.6666666666667,1739.0719114935464,446.6666666666667,1744.313665232534,448.9930555555555C1749.5554189715222,451.3194444444444,1754.7900020487605,455.9722222222222,1760.0245851259988,458.2986111111111C1765.259168203237,460.625,1770.4937512804754,460.625,1775.7283343577137,460.625C1780.962917434952,460.625,1786.1975005121901,460.625,1791.4392542511778,460.625C1796.6810079901659,460.625,1801.9299323909036,460.625,1807.1716861298912,460.625C1812.4134398688793,460.625,1817.6480229461176,460.625,1822.882606023356,460.625C1828.1171891005943,460.625,1833.3517721778323,460.625,1838.5863552550707,460.625C1843.820938332309,460.625,1849.0555214095473,460.625,1854.2972751485352,460.625C1859.539028887523,460.625,1864.7879532882605,460.625,1870.0297070272484,460.625C1875.2714607662365,460.625,1880.5060438434746,460.625,1885.7406269207129,460.625C1890.9752099979512,460.625,1896.2097930751895,460.625,1901.4443761524278,460.625C1906.6789592296661,460.625,1911.9135423069044,460.625,1917.1552960458923,460.625C1922.3970497848802,460.625,1927.6459741856177,460.625,1932.8877279246053,460.625C1938.1294816635934,460.625,1943.3640647408317,460.625,1948.59864781807,462.9513888888889C1953.8332308953084,465.27777777777777,1959.0678139725467,469.9305555555555,1964.302397049785,472.2569444444444C1969.5369801270233,474.5833333333333,1974.7715632042616,474.5833333333333,1980.0133169432493,474.5833333333333C1985.2550706822374,474.5833333333333,1990.5039950829748,474.5833333333333,1995.7457488219627,474.5833333333333C2000.9875025609506,474.5833333333333,2006.222085638189,474.5833333333333,2011.4566687154272,474.5833333333333C2016.6912517926655,474.5833333333333,2021.9258348699038,474.5833333333333,2027.1604179471422,474.5833333333333C2032.39500102438,474.5833333333333,2037.6295841016188,474.5833333333333,2040.2468756402377,474.5833333333333L2042.8641671788569,474.5833333333333" fill="none" stroke-width="1" stroke="#F2F2F2"></path><path class="line2" d="M628.580208973571,-167.49999999999997L631.19750051219,-169.82638888888889C633.8147920508092,-172.15277777777774,639.0493751280475,-176.80555555555557,644.2839582052858,-179.13194444444449C649.5185412825241,-181.45833333333337,654.7531243597623,-181.45833333333337,659.9948780987503,-183.78472222222226C665.2366318377382,-186.11111111111111,670.4855562384757,-190.76388888888889,675.7273099774637,-193.09027777777774C680.9690637164516,-195.41666666666663,686.2036467936899,-195.41666666666663,691.4382298709282,-197.74305555555554C696.6728129481663,-200.06944444444443,701.9073960254046,-204.72222222222226,707.141979102643,-207.04861111111111C712.3765621798811,-209.37500000000003,717.6111452571195,-209.37500000000003,722.8528989961073,-211.7013888888889C728.0946527350952,-214.0277777777778,733.3435771358328,-218.68055555555554,738.5853308748207,-221.00694444444443C743.8270846138086,-223.33333333333334,749.0616676910469,-223.33333333333334,754.2962507682852,-225.6597222222222C759.5308338455234,-227.98611111111111,764.7654169227617,-232.6388888888889,770,-234.96527777777783C775.2345830772383,-237.2916666666667,780.4691661544765,-237.2916666666667,785.7109198934644,-232.6388888888889C790.9526736324524,-227.98611111111117,796.2015980331898,-218.68055555555557,801.4433517721778,-207.04861111111111C806.6851055111657,-195.41666666666666,811.919688588404,-181.45833333333334,817.1542716656423,-167.49999999999997C822.3888547428805,-153.54166666666666,827.6234378201189,-139.58333333333334,832.8580208973572,-125.625C838.0926039745954,-111.66666666666669,843.3271870518337,-97.70833333333337,848.5689407908216,-86.07638888888891C853.8106945298096,-74.44444444444447,859.059618930547,-65.13888888888891,864.3013726695349,-53.50694444444446C869.5431264085228,-41.875,874.7777094857611,-27.916666666666643,880.0122925629994,-13.9583333333333C885.2468756402377,3.671137468093851e-14,890.4814587174759,13.958333333333357,895.7160417947142,27.916666666666675C900.9506248719523,41.875,906.1852079491906,55.83333333333332,911.4269616881787,67.46527777777776C916.6687154271666,79.0972222222222,921.9176398279042,88.40277777777776,927.159393566892,100.03472222222221C932.4011473058799,111.66666666666667,937.6357303831182,125.625,942.8703134603564,134.93055555555557C948.1048965375948,144.23611111111111,953.3394796148331,148.8888888888889,958.5740626920714,153.54166666666669C963.8086457693097,158.19444444444446,969.0432288465478,162.84722222222226,974.2849825855357,169.82638888888889C979.5267363245235,176.80555555555557,984.7756607252612,186.1111111111111,990.0174144642492,193.09027777777774C995.2591682032371,200.06944444444443,1000.4937512804754,204.72222222222217,1005.7283343577137,209.37499999999997C1010.9629174349519,214.02777777777774,1016.1975005121902,218.68055555555554,1021.4320835894283,225.6597222222222C1026.6666666666667,232.63888888888889,1031.901249743905,241.94444444444443,1037.143003482893,248.9236111111111C1042.3847572218808,255.90277777777774,1047.6336816226183,260.55555555555554,1052.8754353616062,265.2083333333333C1058.117189100594,269.8611111111111,1063.3517721778323,274.5138888888889,1068.5863552550707,281.4930555555556C1073.820938332309,288.47222222222223,1079.0555214095473,297.7777777777778,1084.2901044867856,304.7569444444445C1089.5246875640237,311.73611111111114,1094.759270641262,316.38888888888886,1100.0010243802499,318.71527777777777C1105.242778119238,321.04166666666663,1110.4917025199754,321.04166666666663,1115.7334562589635,323.3680555555555C1120.9752099979514,325.6944444444444,1126.2097930751895,330.34722222222223,1131.4443761524278,335.00000000000006C1136.6789592296661,339.6527777777778,1141.9135423069044,344.3055555555556,1147.1481253841428,346.6319444444444C1152.3827084613808,348.9583333333333,1157.6172915386192,348.9583333333333,1162.8590452776073,351.2847222222222C1168.1007990165951,353.6111111111111,1173.3497234173326,358.2638888888889,1178.5914771563205,360.59027777777777C1183.8332308953084,362.9166666666667,1189.0678139725467,362.9166666666667,1194.302397049785,365.2430555555556C1199.536980127023,367.5694444444445,1204.7715632042614,372.22222222222223,1210.0061462815,376.875C1215.240729358738,381.52777777777777,1220.4753124359763,386.1805555555555,1225.7170661749642,388.5069444444444C1230.9588199139523,390.8333333333333,1236.2077443146898,390.8333333333333,1241.4494980536774,393.1597222222222C1246.6912517926655,395.4861111111111,1251.9258348699038,400.1388888888889,1257.1604179471422,402.46527777777777C1262.3950010243802,404.7916666666667,1267.6295841016185,404.7916666666667,1272.8641671788566,404.7916666666667C1278.098750256095,404.7916666666667,1283.3333333333333,404.7916666666667,1288.5750870723211,407.1180555555556C1293.816840811309,409.4444444444445,1299.0657652120465,414.09722222222223,1304.3075189510346,416.4236111111111C1309.5492726900225,418.75,1314.7838557672608,418.75,1320.0184388444989,418.75C1325.2530219217372,418.75,1330.4876049989755,418.75,1335.7221880762138,421.0763888888889C1340.956771153452,423.4027777777778,1346.1913542306904,428.0555555555556,1351.4331079696783,430.3819444444445C1356.6748617086662,432.7083333333333,1361.923786109404,432.7083333333333,1367.1655398483917,432.7083333333334C1372.4072935873799,432.7083333333333,1377.6418766646182,432.7083333333333,1382.8764597418565,432.7083333333334C1388.1110428190943,432.7083333333333,1393.3456258963326,432.7083333333333,1398.580208973571,435.03472222222223C1403.8147920508093,437.36111111111114,1409.0493751280476,442.01388888888886,1414.2911288670355,444.34027777777777C1419.5328826060233,446.6666666666667,1424.7818070067608,446.6666666666667,1430.023560745749,448.9930555555555C1435.2653144847366,451.3194444444444,1440.4998975619749,455.9722222222222,1445.7344806392132,458.2986111111111C1450.9690637164513,460.625,1456.2036467936896,460.625,1461.438229870928,460.625C1466.6728129481662,460.625,1471.9073960254045,460.625,1477.1491497643926,462.9513888888889C1482.3909035033805,465.27777777777777,1487.639827904118,469.9305555555555,1492.881581643106,472.2569444444444C1498.1233353820937,474.5833333333333,1503.357918459332,474.5833333333333,1508.5925015365704,476.9097222222222C1513.8270846138087,479.2361111111111,1519.061667691047,483.8888888888889,1524.2962507682853,486.21527777777777C1529.5308338455234,488.5416666666667,1534.7654169227617,488.5416666666667,1540.0071706617498,490.8680555555556C1545.2489244007375,493.1944444444445,1550.4978488014751,497.84722222222223,1555.7396025404632,500.1736111111111C1560.981356279451,502.5,1566.215939356689,502.5,1571.4505224339273,502.5C1576.6851055111656,502.5,1581.919688588404,502.5,1587.1542716656422,502.5C1592.3888547428805,502.5,1597.6234378201189,502.5,1602.865191559107,502.5C1608.1069452980946,502.5,1613.3558696988323,502.5,1618.5976234378202,504.82638888888886C1623.839377176808,507.15277777777777,1629.0739602540464,511.8055555555555,1634.3085433312847,514.1319444444443C1639.543126408523,516.4583333333333,1644.7777094857613,516.4583333333333,1650.0122925629996,516.4583333333331C1655.2468756402377,516.4583333333333,1660.481458717476,516.4583333333333,1665.7232124564637,516.4583333333331C1670.9649661954518,516.4583333333333,1676.2138905961892,516.4583333333333,1681.4556443351773,516.4583333333331C1686.6973980741652,516.4583333333333,1691.9319811514035,516.4583333333333,1697.1665642286418,516.4583333333331C1702.40114730588,516.4583333333333,1707.6357303831182,516.4583333333333,1712.8703134603563,518.7847222222221C1718.1048965375946,521.111111111111,1723.339479614833,525.7638888888888,1728.5812333538208,528.0902777777777C1733.8229870928087,530.4166666666666,1739.0719114935464,530.4166666666666,1744.313665232534,530.4166666666666C1749.5554189715222,530.4166666666666,1754.7900020487605,530.4166666666666,1760.0245851259988,530.4166666666666C1765.259168203237,530.4166666666666,1770.4937512804754,530.4166666666666,1775.7283343577137,530.4166666666666C1780.962917434952,530.4166666666666,1786.1975005121901,530.4166666666666,1791.4392542511778,530.4166666666666C1796.6810079901659,530.4166666666666,1801.9299323909036,530.4166666666666,1807.1716861298912,530.4166666666666C1812.4134398688793,530.4166666666666,1817.6480229461176,530.4166666666666,1822.882606023356,530.4166666666666C1828.1171891005943,530.4166666666666,1833.3517721778323,530.4166666666666,1838.5863552550707,530.4166666666666C1843.820938332309,530.4166666666666,1849.0555214095473,530.4166666666666,1854.2972751485352,530.4166666666666C1859.539028887523,530.4166666666666,1864.7879532882605,530.4166666666666,1870.0297070272484,530.4166666666666C1875.2714607662365,530.4166666666666,1880.5060438434746,530.4166666666666,1885.7406269207129,530.4166666666666C1890.9752099979512,530.4166666666666,1896.2097930751895,530.4166666666666,1901.4443761524278,532.7430555555555C1906.6789592296661,535.0694444444445,1911.9135423069044,539.7222222222222,1917.1552960458923,542.0486111111111C1922.3970497848802,544.375,1927.6459741856177,544.375,1932.8877279246053,544.375C1938.1294816635934,544.375,1943.3640647408317,544.375,1948.59864781807,544.375C1953.8332308953084,544.375,1959.0678139725467,544.375,1964.302397049785,546.7013888888889C1969.5369801270233,549.0277777777778,1974.7715632042616,553.6805555555555,1980.0133169432493,556.0069444444445C1985.2550706822374,558.3333333333334,1990.5039950829748,558.3333333333334,1995.7457488219627,558.3333333333334C2000.9875025609506,558.3333333333334,2006.222085638189,558.3333333333334,2011.4566687154272,558.3333333333334C2016.6912517926655,558.3333333333334,2021.9258348699038,558.3333333333334,2027.1604179471422,560.6597222222223C2032.39500102438,562.9861111111112,2037.6295841016188,567.6388888888888,2040.2468756402377,569.9652777777777L2042.8641671788569,572.2916666666666" fill="none" stroke-width="1" stroke="#F2F2F2"></path><path class="line3" d="M707.141979102643,-209.37500000000003L709.759270641262,-209.37500000000003C712.3765621798811,-209.37500000000003,717.6111452571195,-209.37500000000003,722.8528989961073,-209.37500000000003C728.0946527350952,-209.37500000000003,733.3435771358328,-209.37500000000003,738.5853308748207,-211.7013888888889C743.8270846138086,-214.0277777777778,749.0616676910469,-218.68055555555554,754.2962507682852,-221.00694444444443C759.5308338455234,-223.33333333333334,764.7654169227617,-223.33333333333334,770,-218.68055555555551C775.2345830772383,-214.02777777777774,780.4691661544765,-204.72222222222217,785.7109198934644,-202.3958333333333C790.9526736324524,-200.06944444444443,796.2015980331898,-204.72222222222226,801.4433517721778,-207.04861111111111C806.6851055111657,-209.37500000000003,811.919688588404,-209.37500000000003,817.1542716656423,-211.7013888888889C822.3888547428805,-214.0277777777778,827.6234378201189,-218.68055555555554,832.8580208973572,-221.00694444444443C838.0926039745954,-223.33333333333334,843.3271870518337,-223.33333333333334,848.5689407908216,-225.6597222222222C853.8106945298096,-227.98611111111111,859.059618930547,-232.6388888888889,864.3013726695349,-234.96527777777783C869.5431264085228,-237.2916666666667,874.7777094857611,-237.2916666666667,880.0122925629994,-239.61805555555557C885.2468756402377,-241.94444444444449,890.4814587174759,-246.59722222222226,895.7160417947142,-248.92361111111111C900.9506248719523,-251.25,906.1852079491906,-251.25,911.4269616881787,-253.57638888888889C916.6687154271666,-255.90277777777774,921.9176398279042,-260.5555555555555,927.159393566892,-262.8819444444444C932.4011473058799,-265.20833333333326,937.6357303831182,-265.20833333333326,942.8703134603564,-267.5347222222222C948.1048965375948,-269.8611111111111,953.3394796148331,-274.51388888888886,958.5740626920714,-276.84027777777777C963.8086457693097,-279.1666666666667,969.0432288465478,-279.1666666666667,974.2849825855357,-279.1666666666667C979.5267363245235,-279.1666666666667,984.7756607252612,-279.1666666666667,990.0174144642492,-281.4930555555556C995.2591682032371,-283.8194444444444,1000.4937512804754,-288.4722222222222,1005.7283343577137,-290.7986111111111C1010.9629174349519,-293.12499999999994,1016.1975005121902,-293.12499999999994,1021.4320835894283,-293.12499999999994C1026.6666666666667,-293.12499999999994,1031.901249743905,-293.12499999999994,1037.143003482893,-293.12499999999994C1042.3847572218808,-293.12499999999994,1047.6336816226183,-293.12499999999994,1052.8754353616062,-295.45138888888886C1058.117189100594,-297.77777777777777,1063.3517721778323,-302.4305555555556,1068.5863552550707,-304.7569444444445C1073.820938332309,-307.08333333333337,1079.0555214095473,-307.08333333333337,1084.2901044867856,-307.0833333333334C1089.5246875640237,-307.08333333333337,1094.759270641262,-307.08333333333337,1100.0010243802499,-307.0833333333334C1105.242778119238,-307.08333333333337,1110.4917025199754,-307.08333333333337,1115.7334562589635,-307.0833333333334C1120.9752099979514,-307.08333333333337,1126.2097930751895,-307.08333333333337,1131.4443761524278,-307.0833333333334C1136.6789592296661,-307.08333333333337,1141.9135423069044,-307.08333333333337,1147.1481253841428,-309.40972222222223C1152.3827084613808,-311.73611111111114,1157.6172915386192,-316.38888888888886,1162.8590452776073,-318.71527777777777C1168.1007990165951,-321.04166666666663,1173.3497234173326,-321.04166666666663,1178.5914771563205,-321.0416666666666C1183.8332308953084,-321.04166666666663,1189.0678139725467,-321.04166666666663,1194.302397049785,-321.0416666666666C1199.536980127023,-321.04166666666663,1204.7715632042614,-321.04166666666663,1210.0061462815,-321.0416666666666C1215.240729358738,-321.04166666666663,1220.4753124359763,-321.04166666666663,1225.7170661749642,-321.0416666666666C1230.9588199139523,-321.04166666666663,1236.2077443146898,-321.04166666666663,1241.4494980536774,-321.0416666666666C1246.6912517926655,-321.04166666666663,1251.9258348699038,-321.04166666666663,1257.1604179471422,-321.0416666666666C1262.3950010243802,-321.04166666666663,1267.6295841016185,-321.04166666666663,1272.8641671788566,-321.0416666666666C1278.098750256095,-321.04166666666663,1283.3333333333333,-321.04166666666663,1288.5750870723211,-321.0416666666666C1293.816840811309,-321.04166666666663,1299.0657652120465,-321.04166666666663,1304.3075189510346,-321.0416666666666C1309.5492726900225,-321.04166666666663,1314.7838557672608,-321.04166666666663,1320.0184388444989,-321.0416666666666C1325.2530219217372,-321.04166666666663,1330.4876049989755,-321.04166666666663,1335.7221880762138,-321.0416666666666C1340.956771153452,-321.04166666666663,1346.1913542306904,-321.04166666666663,1351.4331079696783,-321.0416666666666C1356.6748617086662,-321.04166666666663,1361.923786109404,-321.04166666666663,1367.1655398483917,-318.71527777777777C1372.4072935873799,-316.38888888888886,1377.6418766646182,-311.73611111111114,1382.8764597418565,-309.40972222222223C1388.1110428190943,-307.08333333333337,1393.3456258963326,-307.08333333333337,1398.580208973571,-307.0833333333334C1403.8147920508093,-307.08333333333337,1409.0493751280476,-307.08333333333337,1414.2911288670355,-307.0833333333334C1419.5328826060233,-307.08333333333337,1424.7818070067608,-307.08333333333337,1430.023560745749,-304.7569444444445C1435.2653144847366,-302.4305555555556,1440.4998975619749,-297.77777777777777,1445.7344806392132,-295.45138888888886C1450.9690637164513,-293.12499999999994,1456.2036467936896,-293.12499999999994,1461.438229870928,-293.12499999999994C1466.6728129481662,-293.12499999999994,1471.9073960254045,-293.12499999999994,1477.1491497643926,-293.12499999999994C1482.3909035033805,-293.12499999999994,1487.639827904118,-293.12499999999994,1492.881581643106,-293.12499999999994C1498.1233353820937,-293.12499999999994,1503.357918459332,-293.12499999999994,1508.5925015365704,-290.7986111111111C1513.8270846138087,-288.4722222222222,1519.061667691047,-283.8194444444444,1524.2962507682853,-281.4930555555556C1529.5308338455234,-279.1666666666667,1534.7654169227617,-279.1666666666667,1540.0071706617498,-279.1666666666667C1545.2489244007375,-279.1666666666667,1550.4978488014751,-279.1666666666667,1555.7396025404632,-279.1666666666667C1560.981356279451,-279.1666666666667,1566.215939356689,-279.1666666666667,1571.4505224339273,-279.1666666666667C1576.6851055111656,-279.1666666666667,1581.919688588404,-279.1666666666667,1587.1542716656422,-279.1666666666667C1592.3888547428805,-279.1666666666667,1597.6234378201189,-279.1666666666667,1602.865191559107,-276.84027777777777C1608.1069452980946,-274.51388888888886,1613.3558696988323,-269.8611111111111,1618.5976234378202,-267.5347222222222C1623.839377176808,-265.20833333333326,1629.0739602540464,-265.20833333333326,1634.3085433312847,-265.20833333333326C1639.543126408523,-265.20833333333326,1644.7777094857613,-265.20833333333326,1650.0122925629996,-265.20833333333326C1655.2468756402377,-265.20833333333326,1660.481458717476,-265.20833333333326,1665.7232124564637,-265.20833333333326C1670.9649661954518,-265.20833333333326,1676.2138905961892,-265.20833333333326,1681.4556443351773,-262.8819444444444C1686.6973980741652,-260.5555555555555,1691.9319811514035,-255.90277777777774,1697.1665642286418,-253.57638888888889C1702.40114730588,-251.25,1707.6357303831182,-251.25,1712.8703134603563,-251.25C1718.1048965375946,-251.25,1723.339479614833,-251.25,1728.5812333538208,-251.25C1733.8229870928087,-251.25,1739.0719114935464,-251.25,1744.313665232534,-248.92361111111111C1749.5554189715222,-246.59722222222226,1754.7900020487605,-241.94444444444449,1760.0245851259988,-239.61805555555563C1765.259168203237,-237.2916666666667,1770.4937512804754,-237.2916666666667,1775.7283343577137,-237.2916666666667C1780.962917434952,-237.2916666666667,1786.1975005121901,-237.2916666666667,1791.4392542511778,-234.9652777777778C1796.6810079901659,-232.6388888888889,1801.9299323909036,-227.98611111111111,1807.1716861298912,-225.6597222222222C1812.4134398688793,-223.33333333333334,1817.6480229461176,-223.33333333333334,1822.882606023356,-221.00694444444443C1828.1171891005943,-218.68055555555554,1833.3517721778323,-214.0277777777778,1838.5863552550707,-211.7013888888889C1843.820938332309,-209.37500000000003,1849.0555214095473,-209.37500000000003,1854.2972751485352,-209.37500000000003C1859.539028887523,-209.37500000000003,1864.7879532882605,-209.37500000000003,1870.0297070272484,-207.04861111111117C1875.2714607662365,-204.72222222222226,1880.5060438434746,-200.06944444444443,1885.7406269207129,-197.74305555555551C1890.9752099979512,-195.41666666666663,1896.2097930751895,-195.41666666666663,1901.4443761524278,-195.41666666666663C1906.6789592296661,-195.41666666666663,1911.9135423069044,-195.41666666666663,1917.1552960458923,-193.09027777777774C1922.3970497848802,-190.76388888888889,1927.6459741856177,-186.11111111111111,1932.8877279246053,-183.78472222222226C1938.1294816635934,-181.45833333333337,1943.3640647408317,-181.45833333333337,1948.59864781807,-181.45833333333337C1953.8332308953084,-181.45833333333337,1959.0678139725467,-181.45833333333337,1964.302397049785,-181.45833333333337C1969.5369801270233,-181.45833333333337,1974.7715632042616,-181.45833333333337,1980.0133169432493,-179.13194444444446C1985.2550706822374,-176.80555555555557,1990.5039950829748,-172.15277777777774,1995.7457488219627,-169.82638888888889C2000.9875025609506,-167.49999999999997,2006.222085638189,-167.49999999999997,2011.4566687154272,-167.49999999999997C2016.6912517926655,-167.49999999999997,2021.9258348699038,-167.49999999999997,2027.1604179471422,-167.49999999999997C2032.39500102438,-167.49999999999997,2037.6295841016188,-167.49999999999997,2040.2468756402377,-167.49999999999997L2042.8641671788569,-167.49999999999997" fill="none" stroke-width="1" stroke="#F2F2F2"></path><path class="line4" d="M550.0184388444991,-97.70833333333331L552.6357303831182,-97.70833333333331C555.2530219217374,-97.70833333333331,560.4876049989756,-97.70833333333331,565.7221880762139,-97.70833333333331C570.9567711534522,-97.70833333333331,576.1913542306905,-97.70833333333331,581.4259373079287,-100.03472222222221C586.6605203851669,-102.36111111111113,591.8951034624052,-107.01388888888891,597.1368572013931,-109.34027777777783C602.378610940381,-111.6666666666667,607.6275353411186,-111.6666666666667,612.8692890801066,-111.66666666666673C618.1110428190945,-111.6666666666667,623.3456258963328,-111.6666666666667,628.580208973571,-113.9930555555556C633.8147920508092,-116.31944444444447,639.0493751280475,-120.97222222222224,644.2839582052858,-125.625C649.5185412825241,-130.27777777777774,654.7531243597623,-134.93055555555551,659.9948780987503,-139.5833333333333C665.2366318377382,-144.2361111111111,670.4855562384757,-148.88888888888889,675.7273099774637,-153.54166666666666C680.9690637164516,-158.19444444444446,686.2036467936899,-162.8472222222222,691.4382298709282,-167.49999999999997C696.6728129481663,-172.15277777777774,701.9073960254046,-176.80555555555557,707.141979102643,-181.45833333333334C712.3765621798811,-186.11111111111111,717.6111452571195,-190.76388888888889,722.8528989961073,-195.41666666666666C728.0946527350952,-200.06944444444443,733.3435771358328,-204.72222222222226,738.5853308748207,-207.04861111111111C743.8270846138086,-209.37500000000003,749.0616676910469,-209.37500000000003,754.2962507682852,-211.7013888888889C759.5308338455234,-214.0277777777778,764.7654169227617,-218.68055555555554,770,-223.33333333333334C775.2345830772383,-227.98611111111111,780.4691661544765,-232.6388888888889,785.7109198934644,-237.2916666666667C790.9526736324524,-241.94444444444449,796.2015980331898,-246.59722222222226,801.4433517721778,-251.25C806.6851055111657,-255.90277777777774,811.919688588404,-260.5555555555555,817.1542716656423,-262.8819444444444C822.3888547428805,-265.20833333333326,827.6234378201189,-265.20833333333326,832.8580208973572,-267.5347222222222C838.0926039745954,-269.8611111111111,843.3271870518337,-274.51388888888886,848.5689407908216,-279.1666666666667C853.8106945298096,-283.8194444444444,859.059618930547,-288.4722222222222,864.3013726695349,-290.7986111111111C869.5431264085228,-293.12499999999994,874.7777094857611,-293.12499999999994,880.0122925629994,-295.45138888888886C885.2468756402377,-297.77777777777777,890.4814587174759,-302.4305555555556,895.7160417947142,-304.7569444444445C900.9506248719523,-307.08333333333337,906.1852079491906,-307.08333333333337,911.4269616881787,-309.40972222222223C916.6687154271666,-311.73611111111114,921.9176398279042,-316.38888888888886,927.159393566892,-321.0416666666667C932.4011473058799,-325.6944444444444,937.6357303831182,-330.34722222222223,942.8703134603564,-332.67361111111114C948.1048965375948,-335.00000000000006,953.3394796148331,-335.00000000000006,958.5740626920714,-337.3263888888889C963.8086457693097,-339.6527777777778,969.0432288465478,-344.3055555555556,974.2849825855357,-348.9583333333333C979.5267363245235,-353.61111111111114,984.7756607252612,-358.2638888888889,990.0174144642492,-360.5902777777778C995.2591682032371,-362.91666666666674,1000.4937512804754,-362.91666666666674,1005.7283343577137,-365.24305555555566C1010.9629174349519,-367.5694444444445,1016.1975005121902,-372.22222222222223,1021.4320835894283,-374.54861111111114C1026.6666666666667,-376.875,1031.901249743905,-376.875,1037.143003482893,-379.20138888888886C1042.3847572218808,-381.52777777777777,1047.6336816226183,-386.1805555555555,1052.8754353616062,-390.83333333333326C1058.117189100594,-395.4861111111111,1063.3517721778323,-400.13888888888886,1068.5863552550707,-402.46527777777777C1073.820938332309,-404.7916666666667,1079.0555214095473,-404.7916666666667,1084.2901044867856,-407.1180555555556C1089.5246875640237,-409.4444444444444,1094.759270641262,-414.0972222222222,1100.0010243802499,-418.75C1105.242778119238,-423.40277777777777,1110.4917025199754,-428.0555555555556,1115.7334562589635,-430.3819444444445C1120.9752099979514,-432.7083333333333,1126.2097930751895,-432.7083333333333,1131.4443761524278,-435.03472222222223C1136.6789592296661,-437.36111111111114,1141.9135423069044,-442.01388888888886,1147.1481253841428,-446.6666666666667C1152.3827084613808,-451.3194444444444,1157.6172915386192,-455.97222222222223,1162.8590452776073,-460.62500000000006C1168.1007990165951,-465.2777777777778,1173.3497234173326,-469.9305555555556,1178.5914771563205,-474.5833333333333C1183.8332308953084,-479.23611111111114,1189.0678139725467,-483.8888888888889,1194.302397049785,-488.54166666666674C1199.536980127023,-493.1944444444445,1204.7715632042614,-497.84722222222223,1210.0061462815,-500.17361111111114C1215.240729358738,-502.5,1220.4753124359763,-502.5,1225.7170661749642,-504.82638888888886C1230.9588199139523,-507.15277777777777,1236.2077443146898,-511.8055555555555,1241.4494980536774,-516.4583333333333C1246.6912517926655,-521.111111111111,1251.9258348699038,-525.7638888888888,1257.1604179471422,-530.4166666666665C1262.3950010243802,-535.0694444444443,1267.6295841016185,-539.7222222222223,1272.8641671788566,-542.0486111111112C1278.098750256095,-544.3750000000001,1283.3333333333333,-544.3750000000001,1288.5750870723211,-546.701388888889C1293.816840811309,-549.0277777777778,1299.0657652120465,-553.6805555555557,1304.3075189510346,-558.3333333333334C1309.5492726900225,-562.9861111111112,1314.7838557672608,-567.6388888888888,1320.0184388444989,-569.9652777777777C1325.2530219217372,-572.2916666666666,1330.4876049989755,-572.2916666666666,1335.7221880762138,-574.6180555555555C1340.956771153452,-576.9444444444443,1346.1913542306904,-581.5972222222222,1351.4331079696783,-586.2499999999999C1356.6748617086662,-590.9027777777777,1361.923786109404,-595.5555555555557,1367.1655398483917,-597.8819444444446C1372.4072935873799,-600.2083333333335,1377.6418766646182,-600.2083333333335,1382.8764597418565,-602.5347222222223C1388.1110428190943,-604.8611111111112,1393.3456258963326,-609.513888888889,1398.580208973571,-614.1666666666667C1403.8147920508093,-618.8194444444445,1409.0493751280476,-623.4722222222223,1414.2911288670355,-625.7986111111112C1419.5328826060233,-628.125,1424.7818070067608,-628.125,1430.023560745749,-630.4513888888888C1435.2653144847366,-632.7777777777777,1440.4998975619749,-637.4305555555555,1445.7344806392132,-639.7569444444443C1450.9690637164513,-642.0833333333333,1456.2036467936896,-642.0833333333333,1461.438229870928,-644.4097222222221C1466.6728129481662,-646.736111111111,1471.9073960254045,-651.3888888888888,1477.1491497643926,-653.7152777777776C1482.3909035033805,-656.0416666666665,1487.639827904118,-656.0416666666665,1492.881581643106,-656.0416666666665C1498.1233353820937,-656.0416666666665,1503.357918459332,-656.0416666666665,1508.5925015365704,-658.3680555555554C1513.8270846138087,-660.6944444444443,1519.061667691047,-665.3472222222223,1524.2962507682853,-667.6736111111112C1529.5308338455234,-670.0000000000001,1534.7654169227617,-670.0000000000001,1540.0071706617498,-672.326388888889C1545.2489244007375,-674.6527777777778,1550.4978488014751,-679.3055555555557,1555.7396025404632,-681.6319444444445C1560.981356279451,-683.9583333333334,1566.215939356689,-683.9583333333334,1571.4505224339273,-683.9583333333334C1576.6851055111656,-683.9583333333334,1581.919688588404,-683.9583333333334,1587.1542716656422,-686.2847222222223C1592.3888547428805,-688.6111111111112,1597.6234378201189,-693.2638888888888,1602.865191559107,-695.5902777777778C1608.1069452980946,-697.9166666666666,1613.3558696988323,-697.9166666666666,1618.5976234378202,-697.9166666666666C1623.839377176808,-697.9166666666666,1629.0739602540464,-697.9166666666666,1634.3085433312847,-700.2430555555555C1639.543126408523,-702.5694444444443,1644.7777094857613,-707.2222222222222,1650.0122925629996,-709.548611111111C1655.2468756402377,-711.8749999999999,1660.481458717476,-711.8749999999999,1665.7232124564637,-711.8749999999999C1670.9649661954518,-711.8749999999999,1676.2138905961892,-711.8749999999999,1681.4556443351773,-711.8749999999999C1686.6973980741652,-711.8749999999999,1691.9319811514035,-711.8749999999999,1697.1665642286418,-714.2013888888888C1702.40114730588,-716.5277777777777,1707.6357303831182,-721.1805555555557,1712.8703134603563,-723.5069444444447C1718.1048965375946,-725.8333333333335,1723.339479614833,-725.8333333333335,1728.5812333538208,-725.8333333333335C1733.8229870928087,-725.8333333333335,1739.0719114935464,-725.8333333333335,1744.313665232534,-725.8333333333335C1749.5554189715222,-725.8333333333335,1754.7900020487605,-725.8333333333335,1760.0245851259988,-725.8333333333335C1765.259168203237,-725.8333333333335,1770.4937512804754,-725.8333333333335,1775.7283343577137,-725.8333333333335C1780.962917434952,-725.8333333333335,1786.1975005121901,-725.8333333333335,1791.4392542511778,-725.8333333333335C1796.6810079901659,-725.8333333333335,1801.9299323909036,-725.8333333333335,1807.1716861298912,-725.8333333333335C1812.4134398688793,-725.8333333333335,1817.6480229461176,-725.8333333333335,1822.882606023356,-725.8333333333335C1828.1171891005943,-725.8333333333335,1833.3517721778323,-725.8333333333335,1838.5863552550707,-725.8333333333335C1843.820938332309,-725.8333333333335,1849.0555214095473,-725.8333333333335,1854.2972751485352,-725.8333333333335C1859.539028887523,-725.8333333333335,1864.7879532882605,-725.8333333333335,1870.0297070272484,-725.8333333333335C1875.2714607662365,-725.8333333333335,1880.5060438434746,-725.8333333333335,1885.7406269207129,-723.5069444444445C1890.9752099979512,-721.1805555555557,1896.2097930751895,-716.5277777777777,1901.4443761524278,-714.2013888888888C1906.6789592296661,-711.8749999999999,1911.9135423069044,-711.8749999999999,1917.1552960458923,-709.548611111111C1922.3970497848802,-707.2222222222222,1927.6459741856177,-702.5694444444443,1932.8877279246053,-700.2430555555555C1938.1294816635934,-697.9166666666666,1943.3640647408317,-697.9166666666666,1948.59864781807,-695.5902777777777C1953.8332308953084,-693.2638888888888,1959.0678139725467,-688.6111111111112,1964.302397049785,-686.2847222222222C1969.5369801270233,-683.9583333333334,1974.7715632042616,-683.9583333333334,1980.0133169432493,-681.6319444444445C1985.2550706822374,-679.3055555555557,1990.5039950829748,-674.6527777777778,1995.7457488219627,-672.326388888889C2000.9875025609506,-670.0000000000001,2006.222085638189,-670.0000000000001,2011.4566687154272,-667.6736111111112C2016.6912517926655,-665.3472222222223,2021.9258348699038,-660.6944444444443,2027.1604179471422,-658.3680555555554C2032.39500102438,-656.0416666666665,2037.6295841016188,-656.0416666666665,2040.2468756402377,-656.0416666666665L2042.8641671788569,-656.0416666666665" fill="none" stroke-width="1" stroke="#F2F2F2"></path><g transform="translate(0,502.5)" id="x-axis" fill="none" font-size="10" font-family="sans-serif" text-anchor="middle"><path class="domain" stroke="#070C0D" d="M0,6V0H770V6" fill="none"></path><g class="tick" opacity="1" transform="translate(0,0)" fill="none"><line stroke="#070C0D" y2="6" fill="none"></line><text fill="#070C0D" y="9" dy="0.71em">1970</text></g><g class="tick" opacity="1" transform="translate(78.56177012907192,0)" fill="none"><line stroke="#070C0D" y2="6" fill="none"></line><text fill="#070C0D" y="9" dy="0.71em">1975</text></g><g class="tick" opacity="1" transform="translate(157.12354025814383,0)" fill="none"><line stroke="#070C0D" y2="6" fill="none"></line><text fill="#070C0D" y="9" dy="0.71em">1980</text></g><g class="tick" opacity="1" transform="translate(235.72833435771358,0)" fill="none"><line stroke="#070C0D" y2="6" fill="none"></line><text fill="#070C0D" y="9" dy="0.71em">1985</text></g><g class="tick" opacity="1" transform="translate(314.2901044867855,0)" fill="none"><line stroke="#070C0D" y2="6" fill="none"></line><text fill="#070C0D" y="9" dy="0.71em">1990</text></g><g class="tick" opacity="1" transform="translate(392.85187461585735,0)" fill="none"><line stroke="#070C0D" y2="6" fill="none"></line><text fill="#070C0D" y="9" dy="0.71em">1995</text></g><g class="tick" opacity="1" transform="translate(471.4136447449293,0)" fill="none"><line stroke="#070C0D" y2="6" fill="none"></line><text fill="#070C0D" y="9" dy="0.71em">2000</text></g><g class="tick" opacity="1" transform="translate(550.0184388444991,0)" fill="none"><line stroke="#070C0D" y2="6" fill="none"></line><text fill="#070C0D" y="9" dy="0.71em">2005</text></g><g class="tick" opacity="1" transform="translate(628.580208973571,0)" fill="none"><line stroke="#070C0D" y2="6" fill="none"></line><text fill="#070C0D" y="9" dy="0.71em">2010</text></g><g class="tick" opacity="1" transform="translate(707.141979102643,0)" fill="none"><line stroke="#070C0D" y2="6" fill="none"></line><text fill="#070C0D" y="9" dy="0.71em">2015</text></g></g><g id="y-axis" fill="none" font-size="10" font-family="sans-serif" text-anchor="end"><path class="domain" stroke="#070C0D" d="M-6,502.5H0V0H-6" fill="none"></path><g class="tick" opacity="1" transform="translate(0,502.5)" fill="none"><line stroke="#070C0D" x2="-6" fill="none"></line><text fill="#070C0D" x="-9" dy="0.32em">0</text></g><g class="tick" opacity="1" transform="translate(0,432.70833333333337)" fill="none"><line stroke="#070C0D" x2="-6" fill="none"></line><text fill="#070C0D" x="-9" dy="0.32em">5</text></g><g class="tick" opacity="1" transform="translate(0,362.9166666666667)" fill="none"><line stroke="#070C0D" x2="-6" fill="none"></line><text fill="#070C0D" x="-9" dy="0.32em">10</text></g><g class="tick" opacity="1" transform="translate(0,293.12499999999994)" fill="none"><line stroke="#070C0D" x2="-6" fill="none"></line><text fill="#070C0D" x="-9" dy="0.32em">15</text></g><g class="tick" opacity="1" transform="translate(0,223.33333333333331)" fill="none"><line stroke="#070C0D" x2="-6" fill="none"></line><text fill="#070C0D" x="-9" dy="0.32em">20</text></g><g class="tick" opacity="1" transform="translate(0,153.54166666666669)" fill="none"><line stroke="#070C0D" x2="-6" fill="none"></line><text fill="#070C0D" x="-9" dy="0.32em">25</text></g><g class="tick" opacity="1" transform="translate(0,83.74999999999999)" fill="none"><line stroke="#070C0D" x2="-6" fill="none"></line><text fill="#070C0D" x="-9" dy="0.32em">30</text></g><g class="tick" opacity="1" transform="translate(0,13.95833333333334)" fill="none"><line stroke="#070C0D" x2="-6" fill="none"></line><text fill="#070C0D" x="-9" dy="0.32em">35</text></g></g></g></svg>