<svg xmlns:xlink="http://www.w3.org/1999/xlink" xmlns="http://www.w3.org/2000/svg" height="552.5" width="850"><g transform="translate(30,0)"><path class="line0" d="M4.8527800103702186,502.5L5.659366851802427,502.5C6.465953693234636,502.5,8.079127376099052,502.5,9.69230105896347,502.5C11.305474741827886,502.5,12.918648424692305,502.5,14.531822107556723,502.5C16.144995790421138,502.5,17.758169473285555,502.5,19.3735529831128,502.5C20.988936492940045,502.5,22.606529829730118,502.5,24.221913339557364,502.5C25.83729684938461,502.5,27.450470532249028,502.5,29.06364421511344,502.5C30.67681789797786,502.5,32.289991580842276,502.5,33.90316526370669,502.5C35.5163389465711,502.5,37.12951262943553,502.5,38.74489613926277,500.1736111111111C40.36027964909002,497.84722222222223,41.97787298588009,493.1944444444445,43.59325649570733,490.8680555555556C45.20864000553458,488.5416666666667,46.821813688399,488.5416666666667,48.43498737126341,488.5416666666667C50.04816105412783,488.5416666666667,51.661334736992245,488.5416666666667,53.27450841985666,488.5416666666667C54.88768210272108,488.5416666666667,56.50085578558551,488.5416666666667,58.11623929541275,488.5416666666667C59.731622805239994,488.5416666666667,61.349216142030066,488.5416666666667,62.964599651857306,488.5416666666667C64.57998316168455,488.5416666666667,66.19315684454897,488.5416666666667,67.80633052741338,488.5416666666667C69.4195042102778,488.5416666666667,71.0326778931422,488.5416666666667,72.64585157600663,488.5416666666667C74.25902525887106,488.5416666666667,75.87219894173548,488.5416666666667,77.48758245156272,488.5416666666667C79.10296596138996,488.5416666666667,80.72055929818004,488.5416666666667,82.33594280800727,488.5416666666667C83.95132631783451,488.5416666666667,85.56450000069894,488.5416666666667,87.17767368356336,488.5416666666667C88.79084736642778,488.5416666666667,90.40402104929218,488.5416666666667,92.01719473215661,488.5416666666667C93.63036841502104,488.5416666666667,95.24354209788544,488.5416666666667,96.85892560771269,488.5416666666667C98.47430911753993,488.5416666666667,100.09190245433001,488.5416666666667,101.70728596415726,488.5416666666667C103.32266947398449,488.5416666666667,104.93584315684889,488.5416666666667,106.54901683971332,488.5416666666667C108.16219052257775,488.5416666666667,109.77536420544216,488.5416666666667,111.38853788830657,488.5416666666667C113.00171157117099,488.5416666666667,114.61488525403541,488.5416666666667,116.23026876386267,488.5416666666667C117.84565227368991,488.5416666666667,119.46324561047999,488.5416666666667,121.07862912030724,488.5416666666667C122.69401263013447,488.5416666666667,124.3071863129989,488.5416666666667,125.92035999586331,488.5416666666667C127.53353367872774,488.5416666666667,129.14670736159215,488.5416666666667,130.75988104445656,488.5416666666667C132.37305472732098,488.5416666666667,133.9862284101854,488.5416666666667,135.60161192001263,488.5416666666667C137.2169954298399,488.5416666666667,138.83458876662996,488.5416666666667,140.4499722764572,488.5416666666667C142.06535578628444,488.5416666666667,143.67852946914886,488.5416666666667,145.29170315201327,488.5416666666667C146.90487683487768,488.5416666666667,148.51805051774213,488.5416666666667,150.13122420060654,488.5416666666667C151.74439788347095,488.5416666666667,153.35757156633537,488.5416666666667,154.9729550761626,488.5416666666667C156.58833858598985,488.5416666666667,158.2059319227799,488.5416666666667,159.82131543260718,488.5416666666667C161.43669894243442,488.5416666666667,163.04987262529883,488.5416666666667,164.66304630816325,488.5416666666667C166.27621999102766,488.5416666666667,167.88939367389207,488.5416666666667,169.5025673567565,486.2152777777778C171.11574103962093,483.8888888888889,172.7289147224853,479.2361111111111,174.34429823231255,476.90972222222223C175.9596817421398,474.5833333333333,177.57727507892992,474.5833333333333,179.19265858875715,474.5833333333333C180.80804209858442,474.5833333333333,182.4212157814488,474.5833333333333,184.03438946431322,474.5833333333333C185.64756314717764,474.5833333333333,187.26073683004202,474.5833333333333,188.87391051290646,474.5833333333333C190.48708419577088,474.5833333333333,192.1002578786353,474.5833333333333,193.71343156149973,474.5833333333333C195.32660524436415,474.5833333333333,196.93977892722856,474.5833333333333,198.552952610093,474.5833333333333C200.16612629295741,474.5833333333333,201.7792999758218,474.5833333333333,203.3924736586862,474.5833333333333C205.00564734155066,474.5833333333333,206.61882102441507,474.5833333333333,208.23199470727948,474.5833333333333C209.84516839014387,474.5833333333333,211.4583420730083,474.5833333333333,213.07372558283555,474.5833333333333C214.6891090926628,474.5833333333333,216.30670242945288,474.5833333333333,217.92208593928012,472.2569444444444C219.53746944910736,469.9305555555555,221.1506431319718,465.27777777777777,222.7638168148362,462.9513888888889C224.3769904977006,460.625,225.99016418056502,460.625,227.60333786342946,460.625C229.21651154629387,460.625,230.8296852291583,460.625,232.44506873898555,460.625C234.0604522488128,460.625,235.67804558560283,460.625,237.29342909543007,460.625C238.90881260525734,460.625,240.52198628812175,460.625,242.13518641729493,460.625C243.74838654646817,460.625,245.36161312195017,460.625,246.97481325112338,460.625C248.58801338029662,460.625,250.20118706316103,460.625,251.81657057298824,460.625C253.4319540828155,460.625,255.04954741960555,460.625,256.6649309294328,460.625C258.28031443926005,460.625,259.89348812212444,460.625,261.5066618049889,460.625C263.1198354878533,460.625,264.7330091707177,460.625,266.34618285358215,460.625C267.9593565364466,460.625,269.572530219311,460.625,271.1878872828294,458.2986111111111C272.80324434634787,455.9722222222222,274.4207847905204,451.3194444444444,276.0361418540388,451.3194444444444C277.65149891755726,451.3194444444444,279.26467260042165,455.9722222222222,280.87778065347146,458.2986111111111C282.4908887065212,460.625,284.1039311297563,460.625,285.71710481262073,458.2986111111111C287.3302784954851,455.9722222222222,288.9435834379788,451.3194444444444,290.55903257762077,451.3194444444444C292.17448171726267,451.3194444444444,293.79207505405276,455.9722222222222,295.40745856388,458.2986111111111C297.0228420737073,460.625,298.6360157565717,460.625,300.2491894394361,458.2986111111111C301.86236312230056,455.9722222222222,303.47553680516495,451.3194444444444,305.08871048802934,448.9930555555555C306.7018841708937,446.6666666666667,308.31505785375816,446.6666666666667,309.93044136358543,446.6666666666666C311.54582487341264,446.6666666666667,313.16341821020274,446.6666666666667,314.77880172003,446.6666666666666C316.3941852298572,446.6666666666667,318.0073589127216,446.6666666666667,319.6205325955861,446.6666666666666C321.2337062784505,446.6666666666667,322.84687996131487,446.6666666666667,324.4599880143647,446.6666666666666C326.0730960674144,446.6666666666667,327.6861384906495,446.6666666666667,329.3014563706621,446.6666666666666C330.9167742506747,446.6666666666667,332.5343675874647,446.6666666666667,334.149751097292,446.6666666666666C335.76513460711925,446.6666666666667,337.37830828998364,446.6666666666667,338.9914819728481,446.6666666666666C340.6046556557125,446.6666666666667,342.2178293385769,446.6666666666667,343.83100302144135,448.9930555555555C345.4441767043058,451.3194444444444,347.0573503871702,455.9722222222222,348.67273389699744,458.2986111111111C350.2881174068247,460.625,351.9057107436147,460.625,353.52109425344196,458.2986111111111C355.13647776326917,455.9722222222222,356.7496514461336,451.3194444444444,358.36282512899805,448.9930555555555C359.97599881186244,446.6666666666667,361.5891724947269,446.6666666666667,363.2023461775913,446.6666666666666C364.8155198604557,446.6666666666667,366.42869354332015,446.6666666666667,368.0440770531473,446.6666666666666C369.65946056297463,446.6666666666667,371.2770538997647,446.6666666666667,372.8924374095919,446.6666666666666C374.5078209194192,446.6666666666667,376.12099460228364,446.6666666666667,377.734168285148,446.6666666666666C379.3473419680125,446.6666666666667,380.9605156508769,446.6666666666667,382.57368933374124,444.34027777777777C384.1868630166057,442.01388888888886,385.8000366994701,437.36111111111114,387.41542020929734,435.03472222222223C389.0308037191246,432.7083333333333,390.6483970559147,432.7083333333333,392.2637805657419,432.7083333333334C393.8791640755692,432.7083333333333,395.4923377584336,432.7083333333333,397.10551144129795,432.7083333333334C398.7186851241624,432.7083333333333,400.3318588070268,432.7083333333333,401.9450324898912,432.7083333333334C403.55820617275566,432.7083333333333,405.17137985562005,432.7083333333333,406.7867633654473,435.03472222222223C408.4021468752746,437.36111111111114,410.0197402120646,442.01388888888886,411.6351237218919,442.0138888888889C413.25050723171915,442.01388888888886,414.86368091458354,437.36111111111114,416.476854597448,435.03472222222223C418.0900282803124,432.7083333333333,419.7032019631768,432.7083333333333,421.31637564604125,432.7083333333334C422.9295493289057,432.7083333333333,424.54272301177,432.7083333333333,426.1581065215973,432.7083333333334C427.7734900314245,432.7083333333333,429.3910833682146,432.7083333333333,431.00646687804186,430.3819444444445C432.6218503878691,428.0555555555556,434.2350240707335,423.4027777777778,435.84819775359796,421.0763888888889C437.46137143646234,418.75,439.0745451193268,418.75,440.6877188021912,418.75C442.3008924850556,418.75,443.91406616792005,418.75,445.5294496777473,416.4236111111111C447.14483318757453,414.09722222222223,448.76242652436457,409.4444444444445,450.3778100341918,407.1180555555556C451.99319354401905,404.7916666666667,453.6063672268835,404.7916666666667,455.2195409097479,404.7916666666667C456.8327145926123,404.7916666666667,458.44588827547676,404.7916666666667,460.05906195834115,402.4652777777778C461.6722356412056,400.1388888888889,463.28540932407003,395.4861111111111,464.90079283389724,393.15972222222223C466.5161763437245,390.8333333333333,468.1337696805145,390.8333333333333,469.7491531903418,390.8333333333333C471.364536700169,390.8333333333333,472.9777103830334,390.8333333333333,474.5908840658978,388.5069444444444C476.2040577487623,386.1805555555555,477.8172314316267,381.52777777777777,479.43040511449107,379.20138888888886C481.04357879735556,376.875,482.65675248021995,376.875,484.27213599004716,376.875C485.8875194998745,376.875,487.5051128366645,376.875,489.12049634649173,374.5486111111111C490.73587985631906,372.22222222222223,492.3490535391834,367.5694444444445,493.96222722204783,365.2430555555556C495.5754009049122,362.9166666666667,497.18857458777666,362.9166666666667,498.8017482706411,360.5902777777778C500.4149219535055,358.2638888888889,502.0280956363699,353.6111111111111,503.6434791461972,351.28472222222223C505.2588626560244,348.9583333333333,506.8764559928145,348.9583333333333,508.49183950264177,346.6319444444444C510.107223012469,344.3055555555556,511.7203966953334,339.6527777777778,513.3335703781978,337.3263888888889C514.9467440610623,335.00000000000006,516.5599177439267,335.00000000000006,518.1730914267911,332.67361111111114C519.7862651096556,330.34722222222223,521.39943879252,325.6944444444444,523.0147302262237,321.0416666666667C524.6300216599275,316.38888888888886,526.2474308444707,311.73611111111114,527.0561354367422,309.40972222222223L527.8648400290139,307.08333333333337" fill="none" stroke-width="1" stroke="#070C0D"></path><g transform="translate(0,502.5)" id="x-axis" fill="none" font-size="10" font-family="sans-serif" text-anchor="middle"><path class="domain" stroke="#070C0D" d="M0,6V0H770V6" fill="none"></path><g class="tick" opacity="1" transform="translate(0,0)" fill="none"><line stroke="#070C0D" y2="6" fill="none"></line><text fill="#070C0D" y="9" dy="0.71em">1860</text></g><g class="tick" opacity="1" transform="translate(96.85671578074987,0)" fill="none"><line stroke="#070C0D" y2="6" fill="none"></line><text fill="#070C0D" y="9" dy="0.71em">1880</text></g><g class="tick" opacity="1" transform="translate(193.71343156149973,0)" fill="none"><line stroke="#070C0D" y2="6" fill="none"></line><text fill="#070C0D" y="9" dy="0.71em">1900</text></g><g class="tick" opacity="1" transform="translate(290.55688838047257,0)" fill="none"><line stroke="#070C0D" y2="6" fill="none"></line><text fill="#070C0D" y="9" dy="0.71em">1920</text></g><g class="tick" opacity="1" transform="translate(387.4132103823345,0)" fill="none"><line stroke="#070C0D" y2="6" fill="none"></line><text fill="#070C0D" y="9" dy="0.71em">1940</text></g><g class="tick" opacity="1" transform="translate(484.2699261630844,0)" fill="none"><line stroke="#070C0D" y2="6" fill="none"></line><text fill="#070C0D" y="9" dy="0.71em">1960</text></g><g class="tick" opacity="1" transform="translate(581.1260894870935,0)" fill="none"><line stroke="#070C0D" y2="6" fill="none"></line><text fill="#070C0D" y="9" dy="0.71em">1980</text></g><g class="tick" opacity="1" transform="translate(677.9828052678433,0)" fill="none"><line stroke="#070C0D" y2="6" fill="none"></line><text fill="#070C0D" y="9" dy="0.71em">2000</text></g></g><g id="y-axis" fill="none" font-size="10" font-family="sans-serif" text-anchor="end"><path class="domain" stroke="#070C0D" d="M-6,502.5H0V0H-6" fill="none"></path><g class="tick" opacity="1" transform="translate(0,502.5)" fill="none"><line stroke="#070C0D" x2="-6" fill="none"></line><text fill="#070C0D" x="-9" dy="0.32em">0</text></g><g class="tick" opacity="1" transform="translate(0,432.70833333333337)" fill="none"><line stroke="#070C0D" x2="-6" fill="none"></line><text fill="#070C0D" x="-9" dy="0.32em">5</text></g><g class="tick" opacity="1" transform="translate(0,362.9166666666667)" fill="none"><line stroke="#070C0D" x2="-6" fill="none"></line><text fill="#070C0D" x="-9" dy="0.32em">10</text></g><g class="tick" opacity="1" transform="translate(0,293.12499999999994)" fill="none"><line stroke="#070C0D" x2="-6" fill="none"></line><text fill="#070C0D" x="-9" dy="0.32em">15</text></g><g class="tick" opacity="1" transform="translate(0,223.33333333333331)" fill="none"><line stroke="#070C0D" x2="-6" fill="none"></line><text fill="#070C0D" x="-9" dy="0.32em">20</text></g><g class="tick" opacity="1" transform="translate(0,153.54166666666669)" fill="none"><line stroke="#070C0D" x2="-6" fill="none"></line><text fill="#070C0D" x="-9" dy="0.32em">25</text></g><g class="tick" opacity="1" transform="translate(0,83.74999999999999)" fill="none"><line stroke="#070C0D" x2="-6" fill="none"></line><text fill="#070C0D" x="-9" dy="0.32em">30</text></g><g class="tick" opacity="1" transform="translate(0,13.95833333333334)" fill="none"><line stroke="#070C0D" x2="-6" fill="none"></line><text fill="#070C0D" x="-9" dy="0.32em">35</text></g></g></g></svg>