<svg xmlns:xlink="http://www.w3.org/1999/xlink" xmlns="http://www.w3.org/2000/svg" height="552.5" width="850"><g transform="translate(30,0)"><path class="line0" d="M0,502.5L0.47676031237678895,502.5C0.9535206247535779,502.5,1.9070412495071558,502.5,2.8605618742607337,502.5C3.8140824990143116,502.5,4.7676031237678895,502.5,5.722429941158116,502.5C6.677256758548343,502.5,7.633389768575218,502.5,8.588216585965446,502.5C9.543043403355671,502.5,10.49656402810925,502.5,11.450084652862827,502.5C12.403605277616407,502.5,13.357125902369985,502.5,14.310646527123561,502.5C15.26416715187714,502.5,16.217687776630715,502.5,17.172514594020942,502.5C18.12734141141117,502.5,19.083474421438044,502.5,20.03830123882827,502.5C20.9931280562185,502.5,21.94664868097208,502.5,22.900169305725655,502.5C23.853689930479234,502.5,24.807210555232814,502.5,25.76073117998639,502.5C26.71425180473997,502.5,27.66777242949355,502.5,28.62259924688377,502.5C29.577426064274004,502.5,30.53355907430087,502.5,31.4883858916911,502.5C32.44321270908133,502.5,33.3967333338349,502.5,34.35025395858848,502.5C35.30377458334206,502.5,36.25729520809564,502.5,37.21081583284922,502.5C38.16433645760279,502.5,39.11785708235637,502.5,40.0726838997466,502.5C41.02751071713683,502.5,41.9836437271637,502.5,42.93847054455392,502.5C43.89329736194416,502.5,44.84681798669774,502.5,45.80033861145131,502.5C46.75385923620488,502.5,47.70737986095847,502.5,48.66090048571204,502.5C49.61442111046563,502.5,50.5679417352192,502.5,51.52276855260943,502.5C52.477595369999655,502.5,53.43372838002653,502.5,54.38855519741676,502.5C55.343382014806984,502.5,56.29690263956056,502.5,57.25042326431414,502.5C58.203943889067716,502.5,59.15746451382129,502.5,60.110985138574875,502.5C61.06450576332845,502.5,62.018026388082035,502.5,62.972853205472255,502.5C63.92768002286249,502.5,64.88381303288936,502.5,65.83863985027959,502.5C66.79346666766982,502.5,67.74698729242338,502.5,68.70050791717698,502.5C69.65402854193054,502.5,70.60754916668412,502.5,71.5610697914377,502.5C72.51459041619128,502.5,73.46811104094486,502.5,74.42293785833509,502.5C75.37776467572532,502.5,76.33389768575219,502.5,77.28872450314242,502.5C78.24355132053263,502.5,79.19707194528621,502.5,80.15059257003979,502.5C81.10411319479337,502.5,82.05763381954695,502.5,83.01115444430053,502.5C83.96467506905411,502.5,84.91819569380769,502.5,85.87302251119792,502.5C86.82784932858813,502.5,87.78398233861502,502.5,88.73880915600523,502.5C89.69363597339547,502.5,90.64715659814904,502.5,91.60067722290262,502.5C92.5541978476562,502.5,93.50771847240976,502.5,94.46123909716336,502.5C95.41475972191694,502.5,96.36828034667052,502.5,97.32310716406074,502.5C98.27793398145097,502.5,99.23406699147785,502.5,100.18889380886809,502.5C101.1437206262583,502.5,102.09724125101188,502.5,103.05076187576545,502.5C104.00428250051903,502.5,104.9578031252726,502.5,105.9113237500262,502.5C106.86484437477975,502.5,107.81836499953333,502.5,108.77319181692356,502.5C109.72801863431378,502.5,110.68415164434066,502.5,111.63897846173087,502.5C112.59380527912111,502.5,113.5473259038747,502.5,114.50084652862826,502.5C115.45436715338185,502.5,116.40788777813543,502.5,117.36140840288901,502.5C118.31492902764258,502.5,119.26844965239616,502.5,120.2232764697864,502.5C121.17810328717663,502.5,122.13423629720349,502.5,123.08906311459373,502.5C124.04388993198394,502.5,124.99741055673752,502.5,125.9509311814911,502.5C126.9044518062447,502.5,127.85797243099826,502.5,128.81149305575184,502.5C129.7650136805054,502.5,130.718534305259,502.5,131.67336112264923,502.5C132.62818794003945,502.5,133.5843209500663,502.5,134.53914776745657,502.5C135.49397458484677,502.5,136.44749520960036,502.5,137.4010158343539,502.5C138.3545364591075,502.5,139.3080570838611,502.5,140.26157770861468,502.5C141.21509833336825,502.5,142.1686189581218,502.5,143.1221395828754,502.5C144.07566020762897,502.5,145.02918083238254,502.5,145.98270145713613,502.5C146.93622208188972,502.5,147.88974270664332,502.5,148.84326333139688,502.5C149.79678395615045,502.5,150.75030458090404,502.5,151.7038252056576,502.5C152.65734583041117,502.5,153.61086645516477,502.5,154.565693272555,502.5C155.52052008994522,502.5,156.47665309997208,502.5,157.43147991736234,502.5C158.38630673475254,502.5,159.33982735950613,502.5,160.2933479842597,502.5C161.2468686090133,502.5,162.20038923376686,502.5,163.15390985852045,502.5C164.10743048327402,502.5,165.06095110802758,502.5,166.0157779254178,502.5C166.97060474280804,502.5,167.9267377528349,502.5,168.88156457022515,502.5C169.83639138761535,502.5,170.78991201236894,502.5,171.74343263712254,502.5C172.69695326187613,502.5,173.6504738866297,502.5,174.60399451138326,502.5C175.55751513613686,502.5,176.51103576089042,502.5,177.46586257828062,502.5C178.42068939567085,502.5,179.37682240569777,502.5,180.33164922308796,502.5C181.2864760404782,502.5,182.23999666523176,502.5,183.19351728998535,502.5C184.14703791473892,502.5,185.10055853949248,502.5,186.0540791642461,502.5C187.00759978899964,502.5,187.96112041375326,502.5,188.9159472311435,502.5C189.8707740485337,502.5,190.82690705856058,502.5,191.78173387595078,502.5C192.73656069334103,502.5,193.6900813180946,502.5,194.64360194284816,502.5C195.59712256760176,502.5,196.55064319235532,502.5,197.5041638171089,502.5C198.45768444186248,502.5,199.41120506661605,502.5,200.36603188400628,502.5C201.32085870139653,502.5,202.2769917114234,502.5,203.23181852881362,502.5C204.18664534620385,502.5,205.14016597095738,502.5,206.093686595711,502.5C207.04720722046454,502.5,208.00072784521817,502.5,208.95424846997173,502.5C209.9077690947253,502.5,210.86128971947892,502.5,211.81611653686912,502.5C212.77094335425934,502.5,213.7270763642862,502.5,214.68190318167646,502.5C215.63672999906666,502.5,216.59025062382022,502.5,217.5437712485738,502.5C218.4972918733274,502.5,219.45081249808098,502.5,220.40433312283457,502.5C221.35785374758814,502.5,222.3113743723417,502.5,223.26620118973196,502.5C224.2210280071222,502.5,225.17716101714905,502.5,226.13198783453927,502.5C227.08681465192947,502.5,228.04033527668307,502.5,228.99385590143663,502.5C229.94737652619025,502.5,230.90089715094382,502.5,231.85441777569744,502.5C232.80793840045098,502.5,233.76145902520454,502.5,234.71628584259477,502.5C235.67111265998497,502.5,236.6272456700119,502.5,237.5820724874021,502.5C238.5368993047923,502.5,239.49041992954594,502.5,240.4439405542995,502.5C241.39746117905307,502.5,242.3509818038066,502.5,243.30450242856023,502.5C244.25802305331376,502.5,245.2115436780674,502.5,246.1663704954576,502.5C247.12119731284784,502.5,248.0773303228747,502.5,249.0321571402649,502.5C249.98698395765516,502.5,250.94050458240872,502.5,251.8940252071623,502.5C252.84754583191588,502.5,253.80106645666945,502.5,254.754587081423,502.5C255.70810770617663,502.5,256.66162833093017,502.5,257.6164551483204,502.5C258.5712819657106,502.5,259.5274149757375,502.5,260.48224179312774,502.5C261.437068610518,502.5,262.39058923527153,502.5,263.3441098600251,502.5C264.2976304847787,502.5,265.25115110953226,502.5,266.20467173428585,502.5C267.15819235903945,502.5,268.11171298379304,502.5,269.06653980118324,502.5C270.0213666185735,502.5,270.97749962860036,502.5,271.93232644599055,502.5C272.8871532633808,502.5,273.8406738881344,502.5,274.794194512888,502.5C275.7477151376416,502.5,276.70123576239513,502.5,277.6547563871487,502.5C278.6082770119023,502.5,279.56179763665585,502.5,280.51662445404605,502.5C281.4714512714363,502.5,282.42758428146317,502.5,283.3824110988534,502.5C284.3372379162436,502.5,285.2907585409973,502.5,286.2442791657508,502.5C287.1977997905044,502.5,288.15132041525794,502.5,289.10484104001154,502.5C290.0583616647651,502.5,291.0118822895187,502.5,291.9667091069089,502.5C292.9215359242991,502.5,293.87766893432604,502.5,294.8324957517163,502.5C295.7873225691065,502.5,296.74084319386003,502.5,297.6943638186136,502.5C298.6478844433672,502.5,299.60140506812076,502.5,300.55492569287435,502.5C301.50844631762794,502.5,302.4619669423815,502.5,303.41679375977174,502.5C304.371620577162,502.5,305.32775358718885,502.5,306.28258040457905,502.5C307.2374072219693,502.5,308.19092784672284,502.5,309.14444847147644,502.5C310.09796909623,502.5,311.0514897209836,502.5,312.00501034573716,502.5C312.95853097049076,502.5,313.91205159524435,502.5,314.8668784126346,502.5C315.8217052300248,502.5,316.77783824005166,502.5,317.73266505744186,502.5C318.6874918748321,502.5,319.6410124995857,502.5,320.5945331243393,502.5C321.54805374909284,502.5,322.5015743738465,502.5,323.45509499860003,502.5C324.4086156233536,502.5,325.36213624810716,502.5,326.3169630654974,502.5C327.2717898828876,502.5,328.2279228929145,502.5,329.18274971030473,502.5C330.137576527695,502.5,331.0910971524485,502.5,332.0446177772021,502.5C332.9981384019557,502.5,333.95165902670925,502.5,334.90517965146284,502.5C335.85870027621644,502.5,336.81222090097,502.5,337.7670477183602,500.1736111111111C338.72187453575043,497.84722222222223,339.67800754577735,493.1944444444445,340.63283436316755,490.8680555555556C341.58766118055775,488.5416666666667,342.5411818053114,488.5416666666667,343.49470243006493,488.5416666666667C344.4482230548185,488.5416666666667,345.40174367957206,488.5416666666667,346.35526430432566,488.5416666666667C347.3087849290792,488.5416666666667,348.26230555383285,488.5416666666667,349.21713237122304,488.5416666666667C350.17195918861324,488.5416666666667,351.12809219864016,488.5416666666667,352.0829190160304,488.5416666666667C353.03774583342056,488.5416666666667,353.99126645817415,488.5416666666667,354.9447870829278,488.5416666666667C355.89830770768134,488.5416666666667,356.85182833243493,488.5416666666667,357.8053489571885,488.5416666666667C358.75886958194206,488.5416666666667,359.7123902066957,488.5416666666667,360.66721702408586,488.5416666666667C361.6220438414761,488.5416666666667,362.578176851503,488.5416666666667,363.5330036688932,488.5416666666667C364.4878304862834,488.5416666666667,365.441351111037,488.5416666666667,366.39487173579056,488.5416666666667C367.3483923605442,488.5416666666667,368.3019129852978,488.5416666666667,369.25543361005134,488.5416666666667C370.2089542348049,488.5416666666667,371.1624748595585,488.5416666666667,372.1173016769487,488.5416666666667C373.072128494339,488.5416666666667,374.02826150436584,488.5416666666667,374.98308832175604,488.5416666666667C375.9379151391463,488.5416666666667,376.89143576389984,488.5416666666667,377.84495638865343,488.5416666666667C378.79847701340697,488.5416666666667,379.7519976381606,488.5416666666667,380.70551826291415,488.5416666666667C381.65903888766775,488.5416666666667,382.6125595124213,488.5416666666667,383.56738632981154,488.5416666666667C384.52221314720174,488.5416666666667,385.4783461572286,488.5416666666667,386.4331729746188,488.5416666666667C387.3879997920091,488.5416666666667,388.34152041676265,488.5416666666667,389.29504104151624,488.5416666666667C390.2485616662698,488.5416666666667,391.2020822910234,488.5416666666667,392.155602915777,488.5416666666667C393.10912354053056,488.5416666666667,394.0626441652841,488.5416666666667,395.0174709826743,488.5416666666667C395.97229780006455,488.5416666666667,396.9284308100914,488.5416666666667,397.88325762748167,488.5416666666667C398.83808444487187,488.5416666666667,399.7916050696255,488.5416666666667,400.74512569437906,488.5416666666667C401.69864631913265,488.5416666666667,402.65216694388624,488.5416666666667,403.6056875686398,488.5416666666667C404.55920819339343,488.5416666666667,405.512728818147,488.5416666666667,406.46755563553717,488.5416666666667C407.4223824529274,488.5416666666667,408.3785154629543,488.5416666666667,409.33334228034454,488.5416666666667C410.28816909773474,488.5416666666667,411.2416897224883,488.5416666666667,412.1952103472419,488.5416666666667C413.1487309719955,488.5416666666667,414.10225159674906,488.5416666666667,415.05577222150265,486.2152777777778C416.0092928462562,483.8888888888889,416.96281347100984,479.2361111111111,417.91764028840004,476.90972222222223C418.8724671057903,474.5833333333333,419.82860011581715,474.5833333333333,420.7834269332074,474.5833333333333C421.7382537505976,474.5833333333333,422.69177437535114,474.5833333333333,423.6452950001047,474.5833333333333C424.59881562485833,474.5833333333333,425.5523362496119,474.5833333333333,426.50585687436546,474.5833333333333C427.459377499119,474.5833333333333,428.4128981238726,474.5833333333333,429.36641874862613,474.5833333333333C430.31993937337967,474.5833333333333,431.2734599981333,474.5833333333333,432.2269806228869,474.5833333333333C433.1805012476405,474.5833333333333,434.13402187239404,474.5833333333333,435.0875424971476,474.5833333333333C436.04106312190123,474.5833333333333,436.9945837466548,474.5833333333333,437.94810437140836,474.5833333333333C438.90162499616196,474.5833333333333,439.8551456209155,474.5833333333333,440.80997243830575,474.5833333333333C441.764799255696,474.5833333333333,442.72093226572287,474.5833333333333,443.67575908311306,472.2569444444444C444.6305859005033,469.9305555555555,445.58410652525686,465.27777777777777,446.53762715001045,462.9513888888889C447.491147774764,460.625,448.44466839951764,460.625,449.39818902427123,460.625C450.3517096490248,460.625,451.30523027377836,460.625,452.2600570911686,460.625C453.2148839085589,460.625,454.17101691858574,460.625,455.12584373597593,460.625C456.0806705533662,460.625,457.0341911781197,460.625,457.9877274348546,460.625C458.94126369158954,460.625,459.89481558030576,460.625,460.84835183704064,460.625C461.8018880937755,460.625,462.75540871852917,460.625,463.71023553591937,460.625C464.6650623533096,460.625,465.6211953633365,460.625,466.57602218072674,460.625C467.53084899811694,460.625,468.4843696228705,460.625,469.437890247624,460.625C470.39141087237766,460.625,471.34493149713126,460.625,472.2984521218848,460.625C473.2519727466384,460.625,474.2054933713919,460.625,475.1603045568009,458.2986111111111C476.1151157422098,455.9722222222222,477.071217488274,451.3194444444444,478.02602867368296,451.3194444444444C478.9808398590919,451.3194444444444,479.9343604838454,455.9722222222222,480.88784231588716,458.2986111111111C481.84132414792884,460.625,482.7947671872586,460.625,483.7482878120122,458.2986111111111C484.70180843676576,455.9722222222222,485.65540664694305,451.3194444444444,486.61027225704515,451.3194444444444C487.5651378671473,451.3194444444444,488.5212708771742,455.9722222222222,489.47609769456443,458.2986111111111C490.43092451195463,460.625,491.3844451367083,460.625,492.3379657614619,458.2986111111111C493.29148638621535,455.9722222222222,494.24500701096895,451.3194444444444,495.1985276357225,448.9930555555555C496.152048260476,446.6666666666667,497.1055688852296,446.6666666666667,498.0603957026198,446.6666666666666C499.0152225200101,446.6666666666667,499.971355530037,446.6666666666667,500.9261823474272,446.6666666666666C501.88100916481744,446.6666666666667,502.83452978957104,446.6666666666667,503.7880504143246,446.6666666666666C504.7415710390781,446.6666666666667,505.69509166383176,446.6666666666667,506.64857349587345,446.6666666666666C507.6020553279152,446.6666666666667,508.55549836724504,446.6666666666667,509.51028639192344,446.6666666666666C510.46507441660174,446.6666666666667,511.4212074266286,446.6666666666667,512.3760342440188,446.6666666666666C513.3308610614091,446.6666666666667,514.2843816861626,446.6666666666667,515.2379023109163,446.6666666666666C516.1914229356698,446.6666666666667,517.1449435604235,446.6666666666667,518.098464185177,448.9930555555555C519.0519848099306,451.3194444444444,520.0055054346841,455.9722222222222,520.9603322520744,458.2986111111111C521.9151590694646,460.625,522.8712920794915,460.625,523.8261188968817,458.2986111111111C524.780945714272,455.9722222222222,525.7344663390255,451.3194444444444,526.687986963779,448.9930555555555C527.6415075885326,446.6666666666667,528.5950282132862,446.6666666666667,529.5485488380398,446.6666666666666C530.5020694627933,446.6666666666667,531.455590087547,446.6666666666667,532.410416904937,446.6666666666666C533.3652437223274,446.6666666666667,534.3213767323542,446.6666666666667,535.2762035497445,446.6666666666666C536.2310303671347,446.6666666666667,537.1845509918884,446.6666666666667,538.1380716166419,446.6666666666666C539.0915922413955,446.6666666666667,540.045112866149,446.6666666666667,540.9986334909025,444.34027777777777C541.9521541156561,442.01388888888886,542.9056747404097,437.36111111111114,543.8605015578,435.03472222222223C544.8153283751902,432.7083333333333,545.7714613852171,432.7083333333333,546.7262882026074,432.7083333333334C547.6811150199975,432.7083333333333,548.6346356447511,432.7083333333333,549.5881562695047,432.7083333333334C550.5416768942582,432.7083333333333,551.4951975190119,432.7083333333333,552.4487181437654,432.7083333333334C553.4022387685189,432.7083333333333,554.3557593932725,432.7083333333333,555.3105862106628,435.03472222222223C556.265413028053,437.36111111111114,557.2215460380799,442.01388888888886,558.17637285547,442.0138888888889C559.1311996728604,442.01388888888886,560.0847202976139,437.36111111111114,561.0382409223675,435.03472222222223C561.9917615471212,432.7083333333333,562.9452821718747,432.7083333333333,563.8988027966283,432.7083333333334C564.8523234213818,432.7083333333333,565.8058440461355,432.7083333333333,566.7606708635257,432.7083333333334C567.7154976809159,432.7083333333333,568.6716306909427,432.7083333333333,569.6264575083329,430.3819444444445C570.5812843257231,428.0555555555556,571.5348049504768,423.4027777777778,572.4883255752303,421.0763888888889C573.441846199984,418.75,574.3953668247376,418.75,575.3488874494911,418.75C576.3024080742447,418.75,577.2559286989982,418.75,578.2107555163885,416.4236111111111C579.1655823337787,414.09722222222223,580.1217153438056,409.4444444444445,581.0765421611958,407.1180555555556C582.0313689785861,404.7916666666667,582.9848896033396,404.7916666666667,583.9384102280932,404.7916666666667C584.8919308528467,404.7916666666667,585.8454514776004,404.7916666666667,586.7989721023539,402.4652777777778C587.7524927271074,400.1388888888889,588.7060133518611,395.4861111111111,589.6608401692512,393.15972222222223C590.6156669866415,390.8333333333333,591.5717999966683,390.8333333333333,592.5266268140587,390.8333333333333C593.4814536314489,390.8333333333333,594.4349742562025,390.8333333333333,595.388494880956,388.5069444444444C596.3420155057096,386.1805555555555,597.2955361304631,381.52777777777777,598.2490567552168,379.20138888888886C599.2025773799704,376.875,600.156098004724,376.875,601.1109248221142,376.875C602.0657516395044,376.875,603.0218846495312,376.875,603.9767114669215,374.5486111111111C604.9315382843116,372.22222222222223,605.8850589090653,367.5694444444445,606.8385795338189,365.2430555555556C607.7921001585725,362.9166666666667,608.7456207833261,362.9166666666667,609.6991414080796,360.5902777777778C610.6526620328332,358.2638888888889,611.6061826575868,353.6111111111111,612.561009474977,351.28472222222223C613.5158362923672,348.9583333333333,614.4719693023941,348.9583333333333,615.4267961197843,346.6319444444444C616.3816229371745,344.3055555555556,617.335143561928,339.6527777777778,618.2886641866817,337.3263888888889C619.2421848114353,335.00000000000006,620.1957054361889,335.00000000000006,621.1492260609424,332.67361111111114C622.1027466856959,330.34722222222223,623.0562673104496,325.6944444444444,624.0110397031466,321.0416666666667C624.9658120958436,316.38888888888886,625.9218362564841,311.73611111111114,626.8766086491811,307.0833333333333C627.8313810418782,302.4305555555556,628.7849016666318,297.77777777777777,629.7384222913854,295.45138888888886C630.6919429161389,293.12499999999994,631.6454635408926,293.12499999999994,632.5989841656461,290.7986111111111C633.5525047903997,288.4722222222222,634.5060254151532,283.8194444444444,635.4608522325434,279.1666666666667C636.4156790499336,274.5138888888889,637.3718120599606,269.8611111111111,638.3266388773508,267.53472222222223C639.2814656947411,265.2083333333333,640.2349863194946,265.2083333333333,641.1885069442482,265.2083333333333C642.1420275690017,265.2083333333333,643.0955481937553,265.2083333333333,644.0490688185089,262.8819444444444C645.0025894432624,260.55555555555554,645.9561100680161,255.90277777777774,646.9109368854062,253.57638888888889C647.8657637027965,251.25,648.8218967128233,251.25,649.7767235302136,248.92361111111111C650.7315503476038,246.5972222222222,651.6850709723574,241.94444444444443,652.6385915971109,239.61805555555554C653.5921122218646,237.29166666666666,654.5456328466181,237.29166666666666,655.4991534713718,237.29166666666666C656.4526740961254,237.29166666666666,657.406194720879,237.29166666666666,658.3610215382691,237.29166666666666C659.3158483556593,237.29166666666666,660.2719813656862,237.29166666666666,661.2268081830765,237.29166666666666C662.1816350004666,237.29166666666666,663.1351556252202,237.29166666666666,664.0886762499738,237.29166666666666C665.0421968747273,237.29166666666666,665.995717499481,237.29166666666666,666.9492381242345,237.29166666666666C667.902758748988,237.29166666666666,668.8562793737416,237.29166666666666,669.8111061911319,234.96527777777774C670.7659330085221,232.63888888888889,671.7220660185491,227.9861111111111,672.6768928359393,225.6597222222222C673.6317196533295,223.33333333333334,674.585240278083,223.33333333333334,675.5387609028367,221.00694444444443C676.4922815275903,218.68055555555554,677.4458021523438,214.02777777777774,678.3993227770974,209.375C679.3528434018509,204.72222222222217,680.3063640266046,200.06944444444443,681.2611908439948,197.74305555555551C682.216017661385,195.41666666666663,683.1721506714117,195.41666666666663,684.126977488802,193.09027777777774C685.0818043061923,190.76388888888889,686.0353249309459,186.11111111111111,686.9888455556996,183.78472222222226C687.9423661804531,181.45833333333337,688.8958868052067,181.45833333333337,689.8494074299603,183.78472222222226C690.8029280547138,186.11111111111111,691.7564486794673,190.76388888888889,692.7112754968575,190.76388888888889C693.6661023142478,190.76388888888889,694.6222353242747,186.11111111111111,695.5770621416649,183.78472222222226C696.5318889590552,181.45833333333337,697.4854095838087,181.45833333333337,698.4389302085623,181.45833333333337C699.3924508333158,181.45833333333337,700.3459714580695,181.45833333333337,701.2994920828231,179.13194444444449C702.2530127075767,176.80555555555557,703.2065333323302,172.15277777777783,704.1613601497205,169.8263888888889C705.1161869671108,167.50000000000003,706.0723199771377,167.50000000000003,707.0271467945278,167.50000000000003C707.981973611918,167.50000000000003,708.9354942366716,167.50000000000003,709.8890148614252,167.50000000000003C710.8425354861787,167.50000000000003,711.7960561109322,167.50000000000003,712.7495767356859,165.17361111111111C713.7030973604395,162.84722222222226,714.6566179851931,158.19444444444446,715.6114448025833,155.86805555555557C716.5662716199735,153.54166666666669,717.5224046300003,153.54166666666669,718.4772314473906,151.2152777777778C719.4320582647807,148.8888888888889,720.3855788895344,144.23611111111111,721.339099514288,139.58333333333334C722.2926201390416,134.93055555555557,723.2461407637952,130.2777777777778,724.1996613885489,125.625C725.1531820133023,120.97222222222221,726.1067026380557,116.31944444444444,727.061529455446,111.66666666666667C728.0163562728362,107.01388888888887,728.9724892828632,102.36111111111109,729.9273161002534,97.70833333333331C730.8821429176436,93.05555555555554,731.8356635423971,88.40277777777776,732.7891841671508,83.74999999999999C733.7427047919044,79.09722222222221,734.696225416658,74.44444444444441,735.6497460414115,69.79166666666666C736.603266666165,65.13888888888887,737.5567872909187,60.48611111111112,738.5116141083089,60.486111111111114C739.4664409256992,60.48611111111112,740.4225739357261,65.13888888888887,741.3774007531161,62.81249999999999C742.3322275705065,60.48611111111111,743.28574819526,51.180555555555564,744.2392688200135,44.20138888888891C745.1927894447672,37.222222222222236,746.1463100695208,32.56944444444446,747.0998306942744,27.916666666666682C748.0533513190279,23.2638888888889,749.0068719437814,18.611111111111118,749.9616987611716,16.28472222222223C750.916525578562,13.958333333333337,751.8726585885888,13.958333333333337,752.827485405979,13.958333333333341C753.7823122233693,13.958333333333337,754.7358328481229,13.958333333333337,755.6893534728764,13.958333333333341C756.6428740976299,13.958333333333337,757.5963947223836,13.958333333333337,758.5499153471372,13.958333333333341C759.5034359718907,13.958333333333337,760.4569565966443,13.958333333333337,761.4117834140344,11.63194444444445C762.3666102314247,9.305555555555559,763.3227432414516,4.6527777777777795,764.2775700588419,2.3263888888888897C765.2323968762321,0,766.1859175009857,0,767.1394381257393,0C768.0929587504928,0,769.0464793752463,0,769.5232396876232,0L770,0" fill="none" stroke-width="1" stroke="#070C0D"></path><path class="area"></path></g></svg>