<svg xmlns:xlink="http://www.w3.org/1999/xlink" xmlns="http://www.w3.org/2000/svg" height="552.5" width="850"><g transform="translate(30,0)"><path class="line0" d="M0,502.5L0.47676031237678895,502.5C0.9535206247535779,502.5,1.9070412495071558,502.5,2.8605618742607337,502.5C3.8140824990143116,502.5,4.7676031237678895,502.5,5.722429941158116,502.5C6.677256758548343,502.5,7.633389768575218,502.5,8.588216585965446,502.5C9.543043403355671,502.5,10.49656402810925,502.5,11.450084652862827,502.5C12.403605277616407,502.5,13.357125902369985,502.5,14.310646527123561,502.5C15.26416715187714,502.5,16.217687776630715,502.5,17.172514594020942,502.5C18.12734141141117,502.5,19.083474421438044,502.5,20.03830123882827,502.5C20.9931280562185,502.5,21.94664868097208,502.5,22.900169305725655,502.5C23.853689930479234,502.5,24.807210555232814,502.5,25.76073117998639,502.5C26.71425180473997,502.5,27.66777242949355,502.5,28.62259924688377,502.5C29.577426064274004,502.5,30.53355907430087,502.5,31.4883858916911,502.5C32.44321270908133,502.5,33.3967333338349,502.5,34.35025395858848,502.5C35.30377458334206,502.5,36.25729520809564,502.5,37.21081583284922,502.5C38.16433645760279,502.5,39.11785708235637,502.5,40.0726838997466,502.5C41.02751071713683,502.5,41.9836437271637,502.5,42.93847054455392,502.5C43.89329736194416,502.5,44.84681798669774,502.5,45.80033861145131,502.5C46.75385923620488,502.5,47.70737986095847,502.5,48.66090048571204,502.5C49.61442111046563,502.5,50.5679417352192,502.5,51.52276855260943,502.5C52.477595369999655,502.5,53.43372838002653,502.5,54.38855519741676,502.5C55.343382014806984,502.5,56.29690263956056,502.5,57.25042326431414,502.5C58.203943889067716,502.5,59.15746451382129,502.5,60.110985138574875,502.5C61.06450576332845,502.5,62.018026388082035,502.5,62.972853205472255,502.5C63.92768002286249,502.5,64.88381303288936,502.5,65.83863985027959,502.5C66.79346666766982,502.5,67.74698729242338,502.5,68.70050791717698,502.5C69.65402854193054,502.5,70.60754916668412,502.5,71.5610697914377,502.5C72.51459041619128,502.5,73.46811104094486,502.5,74.42293785833509,502.5C75.37776467572532,502.5,76.33389768575219,502.5,77.28872450314242,502.5C78.24355132053263,502.5,79.19707194528621,502.5,80.15059257003979,502.5C81.10411319479337,502.5,82.05763381954695,502.5,83.01115444430053,502.5C83.96467506905411,502.5,84.91819569380769,502.5,85.87302251119792,502.5C86.82784932858813,502.5,87.78398233861502,502.5,88.73880915600523,502.5C89.69363597339547,502.5,90.64715659814904,502.5,91.60067722290262,502.5C92.5541978476562,502.5,93.50771847240976,502.5,94.46123909716336,502.5C95.41475972191694,502.5,96.36828034667052,502.5,97.32310716406074,502.5C98.27793398145097,502.5,99.23406699147785,502.5,100.18889380886809,502.5C101.1437206262583,502.5,102.09724125101188,502.5,103.05076187576545,502.5C104.00428250051903,502.5,104.9578031252726,502.5,105.9113237500262,502.5C106.86484437477975,502.5,107.81836499953333,502.5,108.77319181692356,502.5C109.72801863431378,502.5,110.68415164434066,502.5,111.63897846173087,502.5C112.59380527912111,502.5,113.5473259038747,502.5,114.50084652862826,502.5C115.45436715338185,502.5,116.40788777813543,502.5,117.36140840288901,502.5C118.31492902764258,502.5,119.26844965239616,502.5,120.2232764697864,502.5C121.17810328717663,502.5,122.13423629720349,502.5,123.08906311459373,502.5C124.04388993198394,502.5,124.99741055673752,502.5,125.9509311814911,502.5C126.9044518062447,502.5,127.85797243099826,502.5,128.81149305575184,502.5C129.7650136805054,502.5,130.718534305259,502.5,131.67336112264923,502.5C132.62818794003945,502.5,133.5843209500663,502.5,134.53914776745657,502.5C135.49397458484677,502.5,136.44749520960036,502.5,137.4010158343539,502.5C138.3545364591075,502.5,139.3080570838611,502.5,140.26157770861468,502.5C141.21509833336825,502.5,142.1686189581218,502.5,143.1221395828754,502.5C144.07566020762897,502.5,145.02918083238254,502.5,145.98270145713613,502.5C146.93622208188972,502.5,147.88974270664332,502.5,148.84326333139688,502.5C149.79678395615045,502.5,150.75030458090404,502.5,151.7038252056576,502.5C152.65734583041117,502.5,153.61086645516477,502.5,154.565693272555,502.5C155.52052008994522,502.5,156.47665309997208,502.5,157.43147991736234,502.5C158.38630673475254,502.5,159.33982735950613,502.5,160.2933479842597,502.5C161.2468686090133,502.5,162.20038923376686,502.5,163.15390985852045,502.5C164.10743048327402,502.5,165.06095110802758,502.5,166.0157779254178,502.5C166.97060474280804,502.5,167.9267377528349,502.5,168.88156457022515,502.5C169.83639138761535,502.5,170.78991201236894,502.5,171.74343263712254,502.5C172.69695326187613,502.5,173.6504738866297,502.5,174.60399451138326,502.5C175.55751513613686,502.5,176.51103576089042,502.5,177.46586257828062,502.5C178.42068939567085,502.5,179.37682240569777,502.5,180.33164922308796,502.5C181.2864760404782,502.5,182.23999666523176,502.5,183.19351728998535,502.5C184.14703791473892,502.5,185.10055853949248,502.5,186.0540791642461,502.5C187.00759978899964,502.5,187.96112041375326,502.5,188.9159472311435,502.5C189.8707740485337,502.5,190.82690705856058,502.5,191.78173387595078,502.5C192.73656069334103,502.5,193.6900813180946,502.5,194.64360194284816,502.5C195.59712256760176,502.5,196.55064319235532,502.5,197.5041638171089,502.5C198.45768444186248,502.5,199.41120506661605,502.5,200.36603188400628,502.5C201.32085870139653,502.5,202.2769917114234,502.5,203.23181852881362,502.5C204.18664534620385,502.5,205.14016597095738,502.5,206.093686595711,502.5C207.04720722046454,502.5,208.00072784521817,502.5,208.95424846997173,502.5C209.9077690947253,502.5,210.86128971947892,502.5,211.81611653686912,502.5C212.77094335425934,502.5,213.7270763642862,502.5,214.68190318167646,502.5C215.63672999906666,502.5,216.59025062382022,502.5,217.5437712485738,502.5C218.4972918733274,502.5,219.45081249808098,502.5,220.40433312283457,502.5C221.35785374758814,502.5,222.3113743723417,502.5,223.26620118973196,502.5C224.2210280071222,502.5,225.17716101714905,502.5,226.13198783453927,502.5C227.08681465192947,502.5,228.04033527668307,502.5,228.99385590143663,502.5C229.94737652619025,502.5,230.90089715094382,502.5,231.85441777569744,502.5C232.80793840045098,502.5,233.76145902520454,502.5,234.71628584259477,502.5C235.67111265998497,502.5,236.6272456700119,502.5,237.5820724874021,502.5C238.5368993047923,502.5,239.49041992954594,502.5,240.4439405542995,502.5C241.39746117905307,502.5,242.3509818038066,502.5,243.30450242856023,502.5C244.25802305331376,502.5,245.2115436780674,502.5,246.1663704954576,502.5C247.12119731284784,502.5,248.0773303228747,502.5,249.0321571402649,502.5C249.98698395765516,502.5,250.94050458240872,502.5,251.8940252071623,502.5C252.84754583191588,502.5,253.80106645666945,502.5,254.754587081423,502.5C255.70810770617663,502.5,256.66162833093017,502.5,257.6164551483204,502.5C258.5712819657106,502.5,259.5274149757375,502.5,260.48224179312774,502.5C261.437068610518,502.5,262.39058923527153,502.5,263.3441098600251,502.5C264.2976304847787,502.5,265.25115110953226,502.5,266.20467173428585,502.5C267.15819235903945,502.5,268.11171298379304,502.5,269.06653980118324,502.5C270.0213666185735,502.5,270.97749962860036,502.5,271.93232644599055,502.5C272.8871532633808,502.5,273.8406738881344,502.5,274.794194512888,502.5C275.7477151376416,502.5,276.70123576239513,502.5,277.6547563871487,502.5C278.6082770119023,502.5,279.56179763665585,502.5,280.51662445404605,502.5C281.4714512714363,502.5,282.42758428146317,502.5,283.3824110988534,502.5C284.3372379162436,502.5,285.2907585409973,502.5,286.2442791657508,502.5C287.1977997905044,502.5,288.15132041525794,502.5,289.10484104001154,502.5C290.0583616647651,502.5,291.0118822895187,502.5,291.9667091069089,502.5C292.9215359242991,502.5,293.87766893432604,502.5,294.8324957517163,502.5C295.7873225691065,502.5,296.74084319386003,502.5,297.6943638186136,502.5C298.6478844433672,502.5,299.60140506812076,502.5,300.55492569287435,502.5C301.50844631762794,502.5,302.4619669423815,502.5,303.41679375977174,502.5C304.371620577162,502.5,305.32775358718885,502.5,306.28258040457905,502.5C307.2374072219693,502.5,308.19092784672284,502.5,309.14444847147644,502.5C310.09796909623,502.5,311.0514897209836,502.5,312.00501034573716,502.5C312.95853097049076,502.5,313.91205159524435,502.5,314.8668784126346,502.5C315.8217052300248,502.5,316.77783824005166,502.5,317.73266505744186,502.5C318.6874918748321,502.5,319.6410124995857,502.5,320.5945331243393,502.5C321.54805374909284,502.5,322.5015743738465,502.5,323.45509499860003,502.5C324.4086156233536,502.5,325.36213624810716,502.5,326.3169630654974,502.5C327.2717898828876,502.5,328.2279228929145,502.5,329.18274971030473,502.5C330.137576527695,502.5,331.0910971524485,502.5,332.0446177772021,502.5C332.9981384019557,502.5,333.95165902670925,502.5,334.90517965146284,502.5C335.85870027621644,502.5,336.81222090097,502.5,337.7670477183602,500.1736111111111C338.72187453575043,497.84722222222223,339.67800754577735,493.1944444444445,340.63283436316755,490.8680555555556C341.58766118055775,488.5416666666667,342.5411818053114,488.5416666666667,343.49470243006493,488.5416666666667C344.4482230548185,488.5416666666667,345.40174367957206,488.5416666666667,346.35526430432566,488.5416666666667C347.3087849290792,488.5416666666667,348.26230555383285,488.5416666666667,349.21713237122304,488.5416666666667C350.17195918861324,488.5416666666667,351.12809219864016,488.5416666666667,352.0829190160304,488.5416666666667C353.03774583342056,488.5416666666667,353.99126645817415,488.5416666666667,354.9447870829278,488.5416666666667C355.89830770768134,488.5416666666667,356.85182833243493,488.5416666666667,357.8053489571885,488.5416666666667C358.75886958194206,488.5416666666667,359.7123902066957,488.5416666666667,360.66721702408586,488.5416666666667C361.6220438414761,488.5416666666667,362.578176851503,488.5416666666667,363.5330036688932,488.5416666666667C364.4878304862834,488.5416666666667,365.441351111037,488.5416666666667,366.39487173579056,488.5416666666667C367.3483923605442,488.5416666666667,368.3019129852978,488.5416666666667,369.25543361005134,488.5416666666667C370.2089542348049,488.5416666666667,371.1624748595585,488.5416666666667,372.1173016769487,488.5416666666667C373.072128494339,488.5416666666667,374.02826150436584,488.5416666666667,374.98308832175604,488.5416666666667C375.9379151391463,488.5416666666667,376.89143576389984,488.5416666666667,377.84495638865343,488.5416666666667C378.79847701340697,488.5416666666667,379.7519976381606,488.5416666666667,380.70551826291415,488.5416666666667C381.65903888766775,488.5416666666667,382.6125595124213,488.5416666666667,383.0893198247981,488.5416666666667L383.5660801371749,488.5416666666667" fill="none" stroke-width="1" stroke="#F2F2F2"></path><g transform="translate(0,502.5)" id="x-axis" fill="none" font-size="10" font-family="sans-serif" text-anchor="middle"><path class="domain" stroke="#070C0D" d="M0,6V0H770V6" fill="none"></path><g class="tick" opacity="1" transform="translate(28.621293054247126,0)" fill="none"><line stroke="#070C0D" y2="6" fill="none"></line><text fill="#070C0D" y="9" dy="0.71em">1760</text></g><g class="tick" opacity="1" transform="translate(85.87171631856127,0)" fill="none"><line stroke="#070C0D" y2="6" fill="none"></line><text fill="#070C0D" y="9" dy="0.71em">1780</text></g><g class="tick" opacity="1" transform="translate(143.1221395828754,0)" fill="none"><line stroke="#070C0D" y2="6" fill="none"></line><text fill="#070C0D" y="9" dy="0.71em">1800</text></g><g class="tick" opacity="1" transform="translate(200.36472569136964,0)" fill="none"><line stroke="#070C0D" y2="6" fill="none"></line><text fill="#070C0D" y="9" dy="0.71em">1820</text></g><g class="tick" opacity="1" transform="translate(257.61514895568376,0)" fill="none"><line stroke="#070C0D" y2="6" fill="none"></line><text fill="#070C0D" y="9" dy="0.71em">1840</text></g><g class="tick" opacity="1" transform="translate(314.86557221999794,0)" fill="none"><line stroke="#070C0D" y2="6" fill="none"></line><text fill="#070C0D" y="9" dy="0.71em">1860</text></g><g class="tick" opacity="1" transform="translate(372.11599548431207,0)" fill="none"><line stroke="#070C0D" y2="6" fill="none"></line><text fill="#070C0D" y="9" dy="0.71em">1880</text></g><g class="tick" opacity="1" transform="translate(429.36641874862613,0)" fill="none"><line stroke="#070C0D" y2="6" fill="none"></line><text fill="#070C0D" y="9" dy="0.71em">1900</text></g><g class="tick" opacity="1" transform="translate(486.6090048571204,0)" fill="none"><line stroke="#070C0D" y2="6" fill="none"></line><text fill="#070C0D" y="9" dy="0.71em">1920</text></g><g class="tick" opacity="1" transform="translate(543.8591953651634,0)" fill="none"><line stroke="#070C0D" y2="6" fill="none"></line><text fill="#070C0D" y="9" dy="0.71em">1940</text></g><g class="tick" opacity="1" transform="translate(601.1096186294775,0)" fill="none"><line stroke="#070C0D" y2="6" fill="none"></line><text fill="#070C0D" y="9" dy="0.71em">1960</text></g><g class="tick" opacity="1" transform="translate(658.3597153456325,0)" fill="none"><line stroke="#070C0D" y2="6" fill="none"></line><text fill="#070C0D" y="9" dy="0.71em">1980</text></g><g class="tick" opacity="1" transform="translate(715.6101386099466,0)" fill="none"><line stroke="#070C0D" y2="6" fill="none"></line><text fill="#070C0D" y="9" dy="0.71em">2000</text></g></g><g id="y-axis" fill="none" font-size="10" font-family="sans-serif" text-anchor="end"><path class="domain" stroke="#070C0D" d="M-6,502.5H0V0H-6" fill="none"></path><g class="tick" opacity="1" transform="translate(0,502.5)" fill="none"><line stroke="#070C0D" x2="-6" fill="none"></line><text fill="#070C0D" x="-9" dy="0.32em">0</text></g><g class="tick" opacity="1" transform="translate(0,432.70833333333337)" fill="none"><line stroke="#070C0D" x2="-6" fill="none"></line><text fill="#070C0D" x="-9" dy="0.32em">5</text></g><g class="tick" opacity="1" transform="translate(0,362.9166666666667)" fill="none"><line stroke="#070C0D" x2="-6" fill="none"></line><text fill="#070C0D" x="-9" dy="0.32em">10</text></g><g class="tick" opacity="1" transform="translate(0,293.12499999999994)" fill="none"><line stroke="#070C0D" x2="-6" fill="none"></line><text fill="#070C0D" x="-9" dy="0.32em">15</text></g><g class="tick" opacity="1" transform="translate(0,223.33333333333331)" fill="none"><line stroke="#070C0D" x2="-6" fill="none"></line><text fill="#070C0D" x="-9" dy="0.32em">20</text></g><g class="tick" opacity="1" transform="translate(0,153.54166666666669)" fill="none"><line stroke="#070C0D" x2="-6" fill="none"></line><text fill="#070C0D" x="-9" dy="0.32em">25</text></g><g class="tick" opacity="1" transform="translate(0,83.74999999999999)" fill="none"><line stroke="#070C0D" x2="-6" fill="none"></line><text fill="#070C0D" x="-9" dy="0.32em">30</text></g><g class="tick" opacity="1" transform="translate(0,13.95833333333334)" fill="none"><line stroke="#070C0D" x2="-6" fill="none"></line><text fill="#070C0D" x="-9" dy="0.32em">35</text></g></g></g></svg>