<?xml version="1.0" encoding="utf-8"?>
<!-- Generator: Adobe Illustrator 23.1.1, SVG Export Plug-In . SVG Version: 6.00 Build 0)  -->
<svg version="1.1" id="Layer_1" xmlns="http://www.w3.org/2000/svg" xmlns:xlink="http://www.w3.org/1999/xlink" x="0px" y="0px"
	 viewBox="0 0 850 552.5" style="enable-background:new 0 0 850 552.5;" xml:space="preserve">
<style type="text/css">
	.st0{fill:none;stroke:#070C0D;}
	.st1{fill:none;stroke:#F2F2F2;}
	.st2{fill:#070C0D;}
	.st3{font-family:'Helvetica';}
	.st4{font-size:10px;}
</style>
<g transform="translate(30,0)">
	<path class="st0" d="M0,502.5h0.5c0.5,0,1.4,0,2.4,0s1.9,0,2.9,0s1.9,0,2.9,0s1.9,0,2.9,0s1.9,0,2.9,0c1,0,1.9,0,2.9,0
		c1,0,1.9,0,2.9,0s1.9,0,2.9,0s1.9,0,2.9,0c1,0,1.9,0,2.9,0c1,0,1.9,0,2.9,0c1,0,1.9,0,2.9,0s1.9,0,2.9,0s1.9,0,2.9,0s1.9,0,2.9,0
		c1,0,1.9,0,2.9,0s1.9,0,2.9,0s1.9,0,2.9,0s1.9,0,2.9,0c1,0,1.9,0,2.9,0s1.9,0,2.9,0s1.9,0,2.9,0s1.9,0,2.9,0s1.9,0,2.9,0
		s1.9,0,2.9,0c1,0,1.9,0,2.9,0s1.9,0,2.9,0s1.9,0,2.9,0c1,0,1.9,0,2.9,0s1.9,0,2.9,0s1.9,0,2.9,0s1.9,0,2.9,0s1.9,0,2.9,0
		c1,0,1.9,0,2.9,0s1.9,0,2.9,0s1.9,0,2.9,0c1,0,1.9,0,2.9,0s1.9,0,2.9,0s1.9,0,2.9,0s1.9,0,2.9,0s1.9,0,2.9,0c1,0,1.9,0,2.9,0
		s1.9,0,2.9,0s1.9,0,2.9,0c1,0,1.9,0,2.9,0s1.9,0,2.9,0c1,0,1.9,0,2.9,0c1,0,1.9,0,2.9,0s1.9,0,2.9,0s1.9,0,2.9,0c1,0,1.9,0,2.9,0
		s1.9,0,2.9,0s1.9,0,2.9,0s1.9,0,2.9,0c1,0,1.9,0,2.9,0c1,0,1.9,0,2.9,0s1.9,0,2.9,0s1.9,0,2.9,0s1.9,0,2.9,0c1,0,1.9,0,2.9,0
		s1.9,0,2.9,0s1.9,0,2.9,0c1,0,1.9,0,2.9,0c1,0,1.9,0,2.9,0s1.9,0,2.9,0s1.9,0,2.9,0c1,0,1.9,0,2.9,0c1,0,1.9,0,2.9,0s1.9,0,2.9,0
		s1.9,0,2.9,0c1,0,1.9,0,2.9,0c1,0,1.9,0,2.9,0s1.9,0,2.9,0s1.9,0,2.9,0s1.9,0,2.9,0c1,0,1.9,0,2.9,0s1.9,0,2.9,0s1.9,0,2.9,0
		c1,0,1.9,0,2.9,0c1,0,1.9,0,2.9,0s1.9,0,2.9,0s1.9,0,2.9,0c1,0,1.9,0,2.9,0c1,0,1.9,0,2.9,0s1.9,0,2.9,0s1.9,0,2.9,0
		c1,0,1.9,0,2.9,0c1,0,1.9,0,2.9,0s1.9,0,2.9,0s1.9,0,2.9,0s1.9,0,2.9,0s1.9,0,2.9,0s1.9,0,2.9,0s1.9,0,2.9,0c1,0,1.9,0,2.9,0
		c1,0,1.9,0,2.9,0s1.9,0,2.9,0s1.9,0,2.9,0s1.9,0,2.9,0s1.9,0,2.9,0s1.9,0,2.9,0s1.9,0,2.9,0s1.9,0,2.9,0s1.9,0,2.9,0s1.9,0,2.9,0
		s1.9,0,2.9,0c1,0,1.9,0,2.9,0c1,0,1.9,0,2.9,0s1.9,0,2.9,0s1.9,0,2.9,0s1.9,0,2.9,0s1.9,0,2.9,0s1.9,0,2.9,0s1.9,0,2.9,0
		s1.9,0,2.9,0c1,0,1.9,0,2.9,0s1.9,0,2.9,0s1.9,0,2.9-2.3c1-2.3,1.9-7,2.9-9.3c1-2.3,1.9-2.3,2.9-2.3s1.9,0,2.9,0s1.9,0,2.9,0
		s1.9,0,2.9,0s1.9,0,2.9,0s1.9,0,2.9,0s1.9,0,2.9,0c1,0,1.9,0,2.9,0c1,0,1.9,0,2.9,0s1.9,0,2.9,0s1.9,0,2.9,0s1.9,0,2.9,0
		s1.9,0,2.9,0c1,0,1.9,0,2.9,0s1.9,0,2.9,0s1.9,0,2.9,0s1.9,0,2.9,0s1.9,0,2.9,0s1.9,0,2.9,0c1,0,1.9,0,2.9,0c1,0,1.9,0,2.9,0
		s1.9,0,2.9,0s1.9,0,2.9,0s1.9,0,2.9,0s1.9,0,2.9,0s1.9,0,2.9-2.3s1.9-7,2.9-9.3s1.9-2.3,2.9-2.3c1,0,1.9,0,2.9,0s1.9,0,2.9,0
		s1.9,0,2.9,0s1.9,0,2.9,0s1.9,0,2.9,0s1.9,0,2.9,0c1,0,1.9,0,2.9,0s1.9,0,2.9-2.3c1-2.3,1.9-7,2.9-9.3s1.9-2.3,2.9-2.3s1.9,0,2.9,0
		c1,0,1.9,0,2.9,0c1,0,1.9,0,2.9,0c1,0,1.9,0,2.9,0c1,0,1.9,0,2.9,0s1.9,0,2.9,0s1.9,0,2.9,0s1.9,0,2.9,0s1.9,0,2.9-2.3s1.9-7,2.9-7
		s1.9,4.7,2.9,7s1.9,2.3,2.9,0s1.9-7,2.9-7s1.9,4.7,2.9,7s1.9,2.3,2.9,0s1.9-7,2.9-9.3c1-2.3,1.9-2.3,2.9-2.3s1.9,0,2.9,0
		s1.9,0,2.9,0s1.9,0,2.9,0c1,0,1.9,0,2.9,0c1,0,1.9,0,2.9,0s1.9,0,2.9,0c1,0,1.9,0,2.9,2.3c1,2.3,1.9,7,2.9,9.3s1.9,2.3,2.9,0
		s1.9-7,2.9-9.3c1-2.3,1.9-2.3,2.9-2.3c1,0,1.9,0,2.9,0s1.9,0,2.9,0s1.9,0,2.9,0c1,0,1.9,0,2.9-2.3c1-2.3,1.9-7,2.9-9.3
		c1-2.3,1.9-2.3,2.9-2.3c1,0,1.9,0,2.9,0c1,0,1.9,0,2.9,0c1,0,1.9,0,2.9,2.3s1.9,7,2.9,7s1.9-4.7,2.9-7c1-2.3,1.9-2.3,2.9-2.3
		s1.9,0,2.9,0s1.9,0,2.9-2.3c1-2.3,1.9-7,2.9-9.3c1-2.3,1.9-2.3,2.9-2.3c1,0,1.9,0,2.9-2.3s1.9-7,2.9-9.3c1-2.3,1.9-2.3,2.9-2.3
		c1,0,1.9,0,2.9-2.3c1-2.3,1.9-7,2.9-9.3s1.9-2.3,2.9-2.3s1.9,0,2.9-2.3c1-2.3,1.9-7,2.9-9.3c1-2.3,1.9-2.3,2.9-2.3
		c1,0,1.9,0,2.9-2.3c1-2.3,1.9-7,2.9-9.3c1-2.3,1.9-2.3,2.9-4.7c1-2.3,1.9-7,2.9-9.3c1-2.3,1.9-2.3,2.9-4.7c1-2.3,1.9-7,2.9-9.3
		c1-2.3,1.9-2.3,2.9-4.7c1-2.3,1.9-7,2.9-11.6c1-4.7,1.9-9.3,2.9-14c1-4.7,1.9-9.3,2.9-11.6c1-2.3,1.9-2.3,2.9-4.7
		c1-2.3,1.9-7,2.9-11.6c1-4.7,1.9-9.3,2.9-11.6s1.9-2.3,2.9-2.3c1,0,1.9,0,2.9-2.3c1-2.3,1.9-7,2.9-9.3s1.9-2.3,2.9-4.7
		s1.9-7,2.9-9.3c1-2.3,1.9-2.3,2.9-2.3c1,0,1.9,0,2.9,0s1.9,0,2.9,0s1.9,0,2.9,0c1,0,1.9,0,2.9,0c1,0,1.9,0,2.9-2.3
		c1-2.3,1.9-7,2.9-9.3c1-2.3,1.9-2.3,2.9-4.7c1-2.3,1.9-7,2.9-11.6c1-4.7,1.9-9.3,2.9-11.6s1.9-2.3,2.9-4.7c1-2.3,1.9-7,2.9-9.3
		c1-2.3,1.9-2.3,2.9,0c1,2.3,1.9,7,2.9,7c1,0,1.9-4.7,2.9-7c1-2.3,1.9-2.3,2.9-2.3c1,0,1.9,0,2.9-2.3c1-2.3,1.9-7,2.9-9.3
		s1.9-2.3,2.9-2.3s1.9,0,2.9,0c1,0,1.9,0,2.9-2.3c1-2.3,1.9-7,2.9-9.3s1.9-2.3,2.9-4.7c1-2.3,1.9-7,2.9-11.6c1-4.7,1.9-9.3,2.9-14
		c1-4.7,1.9-9.3,2.9-14s1.9-9.3,2.9-14s1.9-9.3,2.9-14s1.9-9.3,2.9-14c1-4.7,1.9-9.3,2.9-9.3s1.9,4.7,2.9,2.3
		c1-2.3,1.9-11.6,2.9-18.6c1-7,1.9-11.6,2.9-16.3c1-4.7,1.9-9.3,2.9-11.6c1-2.3,1.9-2.3,2.9-2.3c1,0,1.9,0,2.9,0c1,0,1.9,0,2.9,0
		c1,0,1.9,0,2.9-2.3s1.9-7,2.9-9.3s1.9-2.3,2.9-2.3c1,0,1.9,0,2.4,0h0.5"/>
	<path class="st1" d="M744.2-167.5l0.5-2.3c0.5-2.3,1.4-7,2.4-9.3c1-2.3,1.9-2.3,2.9-4.7c1-2.3,1.9-7,2.9-9.3c1-2.3,1.9-2.3,2.9-4.7
		c1-2.3,1.9-7,2.9-9.3c1-2.3,1.9-2.3,2.9-4.7s1.9-7,2.9-9.3s1.9-2.3,2.9-4.7c1-2.3,1.9-7,2.9-9.3c1-2.3,1.9-2.3,2.9,0
		c1,2.3,1.9,7,2.9,14s1.9,16.3,2.9,23.3c1,7,1.9,11.6,2.9,18.6c1,7,1.9,16.3,2.9,23.3s1.9,11.6,2.9,18.6s1.9,16.3,2.9,23.3
		c1,7,1.9,11.6,2.9,18.6c1,7,1.9,16.3,2.9,23.3c1,7,1.9,11.6,2.9,18.6s1.9,16.3,2.9,23.3c1,7,1.9,11.6,2.9,16.3
		c1,4.7,1.9,9.3,2.9,14c1,4.7,1.9,9.3,2.9,14c1,4.7,1.9,9.3,2.9,14c1,4.7,1.9,9.3,2.9,14c1,4.7,1.9,9.3,2.9,16.3
		c1,7,1.9,16.3,2.9,23.3c1,7,1.9,11.6,2.9,16.3c1,4.7,1.9,9.3,2.9,14c1,4.7,1.9,9.3,2.9,14c1,4.7,1.9,9.3,2.9,14
		c1,4.7,1.9,9.3,2.9,14c1,4.7,1.9,9.3,2.9,14c1,4.7,1.9,9.3,2.9,14c1,4.7,1.9,9.3,2.9,14c1,4.7,1.9,9.3,2.9,14
		c1,4.7,1.9,9.3,2.9,11.6c1,2.3,1.9,2.3,2.9,4.7c1,2.3,1.9,7,2.9,9.3c1,2.3,1.9,2.3,2.9,4.7c1,2.3,1.9,7,2.9,9.3
		c1,2.3,1.9,2.3,2.9,4.7s1.9,7,2.9,11.6c1,4.7,1.9,9.3,2.9,11.6c1,2.3,1.9,2.3,2.9,4.7c1,2.3,1.9,7,2.9,11.6c1,4.7,1.9,9.3,2.9,11.6
		c1,2.3,1.9,2.3,2.9,4.7c1,2.3,1.9,7,2.9,11.6c1,4.7,1.9,9.3,2.9,11.6s1.9,2.3,2.9,4.7s1.9,7,2.9,9.3c1,2.3,1.9,2.3,2.9,4.7
		c1,2.3,1.9,7,2.9,9.3s1.9,2.3,2.9,4.7c1,2.3,1.9,7,2.9,9.3c1,2.3,1.9,2.3,2.9,2.3c1,0,1.9,0,2.9,2.3s1.9,7,2.9,9.3
		c1,2.3,1.9,2.3,2.9,4.7s1.9,7,2.9,9.3c1,2.3,1.9,2.3,2.9,4.7c1,2.3,1.9,7,2.9,9.3s1.9,2.3,2.9,2.3c1,0,1.9,0,2.9,2.3
		c1,2.3,1.9,7,2.9,9.3c1,2.3,1.9,2.3,2.9,4.7c1,2.3,1.9,7,2.9,9.3c1,2.3,1.9,2.3,2.9,2.3c1,0,1.9,0,2.9,0s1.9,0,2.9,2.3
		c1,2.3,1.9,7,2.9,9.3c1,2.3,1.9,2.3,2.9,2.3s1.9,0,2.9,0s1.9,0,2.9,0s1.9,0,2.9,0c1,0,1.9,0,2.9,0c1,0,1.9,0,2.9,0s1.9,0,2.9,0
		s1.9,0,2.9,0c1,0,1.9,0,2.9,0c1,0,1.9,0,2.9,0s1.9,0,2.9,0s1.9,0,2.9,2.3c1,2.3,1.9,7,2.9,9.3c1,2.3,1.9,2.3,2.9,2.3
		c1,0,1.9,0,2.9,0c1,0,1.9,0,2.9,0c1,0,1.9,0,2.9,0c1,0,1.9,0,2.4,0h0.5"/>
	<path class="st1" d="M744.2-167.5l0.5-2.3c0.5-2.3,1.4-7,2.4-9.3c1-2.3,1.9-2.3,2.9-4.7c1-2.3,1.9-7,2.9-9.3c1-2.3,1.9-2.3,2.9-4.7
		c1-2.3,1.9-7,2.9-9.3c1-2.3,1.9-2.3,2.9-4.7s1.9-7,2.9-9.3s1.9-2.3,2.9-4.7c1-2.3,1.9-7,2.9-9.3c1-2.3,1.9-2.3,2.9,2.3
		c1,4.7,1.9,14,2.9,25.6s1.9,25.6,2.9,39.5c1,14,1.9,27.9,2.9,41.9c1,14,1.9,27.9,2.9,39.5s1.9,20.9,2.9,32.6s1.9,25.6,2.9,39.5
		c1,14,1.9,27.9,2.9,41.9c1,14,1.9,27.9,2.9,39.5s1.9,20.9,2.9,32.6s1.9,25.6,2.9,34.9c1,9.3,1.9,14,2.9,18.6
		c1,4.7,1.9,9.3,2.9,16.3c1,7,1.9,16.3,2.9,23.3c1,7,1.9,11.6,2.9,16.3c1,4.7,1.9,9.3,2.9,16.3c1,7,1.9,16.3,2.9,23.3
		c1,7,1.9,11.6,2.9,16.3c1,4.7,1.9,9.3,2.9,16.3c1,7,1.9,16.3,2.9,23.3c1,7,1.9,11.6,2.9,14s1.9,2.3,2.9,4.7c1,2.3,1.9,7,2.9,11.6
		c1,4.7,1.9,9.3,2.9,11.6c1,2.3,1.9,2.3,2.9,4.7s1.9,7,2.9,9.3s1.9,2.3,2.9,4.7c1,2.3,1.9,7,2.9,11.6c1,4.7,1.9,9.3,2.9,11.6
		c1,2.3,1.9,2.3,2.9,4.7s1.9,7,2.9,9.3c1,2.3,1.9,2.3,2.9,2.3c1,0,1.9,0,2.9,2.3c1,2.3,1.9,7,2.9,9.3c1,2.3,1.9,2.3,2.9,2.3
		c1,0,1.9,0,2.9,2.3c1,2.3,1.9,7,2.9,9.3c1,2.3,1.9,2.3,2.9,2.3c1,0,1.9,0,2.9,0c1,0,1.9,0,2.9,2.3c1,2.3,1.9,7,2.9,9.3
		s1.9,2.3,2.9,4.7c1,2.3,1.9,7,2.9,9.3c1,2.3,1.9,2.3,2.9,2.3c1,0,1.9,0,2.9,2.3s1.9,7,2.9,9.3c1,2.3,1.9,2.3,2.9,4.7
		c1,2.3,1.9,7,2.9,9.3c1,2.3,1.9,2.3,2.9,4.7c1,2.3,1.9,7,2.9,9.3s1.9,2.3,2.9,2.3s1.9,0,2.9,0c1,0,1.9,0,2.9,0s1.9,0,2.9,2.3
		s1.9,7,2.9,9.3c1,2.3,1.9,2.3,2.9,2.3c1,0,1.9,0,2.9,0c1,0,1.9,0,2.9,0c1,0,1.9,0,2.9,0c1,0,1.9,0,2.9,2.3c1,2.3,1.9,7,2.9,9.3
		c1,2.3,1.9,2.3,2.9,2.3s1.9,0,2.9,0c1,0,1.9,0,2.9,0s1.9,0,2.9,0s1.9,0,2.9,0s1.9,0,2.9,0c1,0,1.9,0,2.9,0c1,0,1.9,0,2.9,0
		s1.9,0,2.9,0s1.9,0,2.9,0c1,0,1.9,0,2.9,2.3c1,2.3,1.9,7,2.9,9.3c1,2.3,1.9,2.3,2.9,2.3s1.9,0,2.9,0c1,0,1.9,0,2.9,2.3
		c1,2.3,1.9,7,2.9,9.3c1,2.3,1.9,2.3,2.9,2.3c1,0,1.9,0,2.9,0c1,0,1.9,0,2.9,2.3c1,2.3,1.9,7,2.4,9.3l0.5,2.3"/>
	<path class="st1" d="M758.5-209.4h0.5c0.5,0,1.4,0,2.4,0s1.9,0,2.9-2.3s1.9-7,2.9-9.3c1-2.3,1.9-2.3,2.9,2.3c1,4.7,1.9,14,2.9,16.3
		c1,2.3,1.9-2.3,2.9-4.7s1.9-2.3,2.9-4.7c1-2.3,1.9-7,2.9-9.3c1-2.3,1.9-2.3,2.9-4.7c1-2.3,1.9-7,2.9-9.3c1-2.3,1.9-2.3,2.9-4.7
		c1-2.3,1.9-7,2.9-9.3c1-2.3,1.9-2.3,2.9-4.7s1.9-7,2.9-9.3c1-2.3,1.9-2.3,2.9-4.7c1-2.3,1.9-7,2.9-9.3c1-2.3,1.9-2.3,2.9-2.3
		c1,0,1.9,0,2.9-2.3c1-2.3,1.9-7,2.9-9.3c1-2.3,1.9-2.3,2.9-2.3c1,0,1.9,0,2.9,0c1,0,1.9,0,2.9-2.3s1.9-7,2.9-9.3
		c1-2.3,1.9-2.3,2.9-2.3c1,0,1.9,0,2.9,0s1.9,0,2.9,0s1.9,0,2.9,0c1,0,1.9,0,2.9-2.3c1-2.3,1.9-7,2.9-9.3s1.9-2.3,2.9-2.3
		s1.9,0,2.9,0c1,0,1.9,0,2.9,0c1,0,1.9,0,2.9,0s1.9,0,2.9,0s1.9,0,2.9,0c1,0,1.9,0,2.9,0c1,0,1.9,0,2.9,0s1.9,0,2.9,0
		c1,0,1.9,0,2.9,0c1,0,1.9,0,2.9,0c1,0,1.9,0,2.9,0c1,0,1.9,0,2.9,2.3c1,2.3,1.9,7,2.9,9.3c1,2.3,1.9,2.3,2.9,2.3c1,0,1.9,0,2.9,0
		s1.9,0,2.9,2.3c1,2.3,1.9,7,2.9,9.3c1,2.3,1.9,2.3,2.9,2.3c1,0,1.9,0,2.9,0s1.9,0,2.9,0s1.9,0,2.9,2.3c1,2.3,1.9,7,2.9,9.3
		c1,2.3,1.9,2.3,2.9,2.3s1.9,0,2.9,0s1.9,0,2.9,0s1.9,0,2.9,0c1,0,1.9,0,2.9,2.3s1.9,7,2.9,9.3s1.9,2.3,2.9,2.3c1,0,1.9,0,2.9,0
		c1,0,1.9,0,2.9,0c1,0,1.9,0,2.9,2.3c1,2.3,1.9,7,2.9,9.3c1,2.3,1.9,2.3,2.9,2.3c1,0,1.9,0,2.9,0s1.9,0,2.9,2.3s1.9,7,2.9,9.3
		c1,2.3,1.9,2.3,2.9,2.3s1.9,0,2.9,2.3c1,2.3,1.9,7,2.9,9.3c1,2.3,1.9,2.3,2.9,4.7c1,2.3,1.9,7,2.9,9.3c1,2.3,1.9,2.3,2.9,2.3
		s1.9,0,2.9,2.3s1.9,7,2.9,9.3c1,2.3,1.9,2.3,2.9,2.3c1,0,1.9,0,2.9,2.3c1,2.3,1.9,7,2.9,9.3c1,2.3,1.9,2.3,2.9,2.3c1,0,1.9,0,2.9,0
		c1,0,1.9,0,2.9,2.3c1,2.3,1.9,7,2.9,9.3c1,2.3,1.9,2.3,2.9,2.3c1,0,1.9,0,2.9,0c1,0,1.9,0,2.4,0h0.5"/>
	<path class="st1" d="M729.9-97.7h0.5c0.5,0,1.4,0,2.4,0s1.9,0,2.9-2.3c1-2.3,1.9-7,2.9-9.3c1-2.3,1.9-2.3,2.9-2.3s1.9,0,2.9-2.3
		c1-2.3,1.9-7,2.9-11.6c1-4.7,1.9-9.3,2.9-14c1-4.7,1.9-9.3,2.9-14c1-4.7,1.9-9.3,2.9-14c1-4.7,1.9-9.3,2.9-14c1-4.7,1.9-9.3,2.9-14
		c1-4.7,1.9-9.3,2.9-11.6s1.9-2.3,2.9-4.7c1-2.3,1.9-7,2.9-11.6c1-4.7,1.9-9.3,2.9-14c1-4.7,1.9-9.3,2.9-14s1.9-9.3,2.9-11.6
		c1-2.3,1.9-2.3,2.9-4.7c1-2.3,1.9-7,2.9-11.6c1-4.7,1.9-9.3,2.9-11.6s1.9-2.3,2.9-4.7c1-2.3,1.9-7,2.9-9.3c1-2.3,1.9-2.3,2.9-4.7
		s1.9-7,2.9-11.6c1-4.7,1.9-9.3,2.9-11.6c1-2.3,1.9-2.3,2.9-4.7c1-2.3,1.9-7,2.9-11.6c1-4.7,1.9-9.3,2.9-11.6c1-2.3,1.9-2.3,2.9-4.7
		c1-2.3,1.9-7,2.9-9.3c1-2.3,1.9-2.3,2.9-4.7c1-2.3,1.9-7,2.9-11.6c1-4.7,1.9-9.3,2.9-11.6c1-2.3,1.9-2.3,2.9-4.7
		c1-2.3,1.9-7,2.9-11.6s1.9-9.3,2.9-11.6c1-2.3,1.9-2.3,2.9-4.7c1-2.3,1.9-7,2.9-11.6c1-4.7,1.9-9.3,2.9-14s1.9-9.3,2.9-14
		c1-4.7,1.9-9.3,2.9-14c1-4.7,1.9-9.3,2.9-11.6c1-2.3,1.9-2.3,2.9-4.7s1.9-7,2.9-11.6s1.9-9.3,2.9-14c1-4.7,1.9-9.3,2.9-11.6
		c1-2.3,1.9-2.3,2.9-4.7c1-2.3,1.9-7,2.9-11.6c1-4.7,1.9-9.3,2.9-11.6c1-2.3,1.9-2.3,2.9-4.7c1-2.3,1.9-7,2.9-11.6
		c1-4.7,1.9-9.3,2.9-11.6c1-2.3,1.9-2.3,2.9-4.7c1-2.3,1.9-7,2.9-11.6c1-4.7,1.9-9.3,2.9-11.6c1-2.3,1.9-2.3,2.9-4.7
		c1-2.3,1.9-7,2.9-9.3c1-2.3,1.9-2.3,2.9-4.7c1-2.3,1.9-7,2.9-9.3c1-2.3,1.9-2.3,2.9-2.3s1.9,0,2.9-2.3c1-2.3,1.9-7,2.9-9.3
		c1-2.3,1.9-2.3,2.9-4.7c1-2.3,1.9-7,2.9-9.3c1-2.3,1.9-2.3,2.9-2.3s1.9,0,2.9-2.3c1-2.3,1.9-7,2.9-9.3c1-2.3,1.9-2.3,2.9-2.3
		s1.9,0,2.9-2.3c1-2.3,1.9-7,2.9-9.3c1-2.3,1.9-2.3,2.9-2.3c1,0,1.9,0,2.9,0c1,0,1.9,0,2.9-2.3c1-2.3,1.9-7,2.9-9.3
		c1-2.3,1.9-2.3,2.9-2.3s1.9,0,2.9,0s1.9,0,2.9,0c1,0,1.9,0,2.9,0s1.9,0,2.9,0s1.9,0,2.9,0s1.9,0,2.9,0c1,0,1.9,0,2.9,0
		c1,0,1.9,0,2.9,0s1.9,0,2.9,0s1.9,0,2.9,2.3c1,2.3,1.9,7,2.9,9.3c1,2.3,1.9,2.3,2.9,4.7c1,2.3,1.9,7,2.9,9.3c1,2.3,1.9,2.3,2.9,4.7
		c1,2.3,1.9,7,2.9,9.3c1,2.3,1.9,2.3,2.9,4.7c1,2.3,1.9,7,2.9,9.3c1,2.3,1.9,2.3,2.9,4.7c1,2.3,1.9,7,2.9,9.3c1,2.3,1.9,2.3,2.4,2.3
		h0.5"/>
	<g id="x-axis" transform="translate(0,502.5)">
		<path class="st0" d="M0,6V0h770v6"/>
		<g transform="translate(28.621293054247126,0)">
			<line class="st0" x1="0" y1="0" x2="0" y2="6"/>
			<text transform="matrix(1 0 0 1 -11.123 16.1)" class="st2 st3 st4">1760</text>
		</g>
		<g transform="translate(85.87171631856127,0)">
			<line class="st0" x1="0" y1="0" x2="0" y2="6"/>
			<text transform="matrix(1 0 0 1 -11.123 16.1)" class="st2 st3 st4">1780</text>
		</g>
		<g transform="translate(143.1221395828754,0)">
			<line class="st0" x1="0" y1="0" x2="0" y2="6"/>
			<text transform="matrix(1 0 0 1 -11.123 16.1)" class="st2 st3 st4">1800</text>
		</g>
		<g transform="translate(200.36472569136964,0)">
			<line class="st0" x1="0" y1="0" x2="0" y2="6"/>
			<text transform="matrix(1 0 0 1 -11.123 16.1)" class="st2 st3 st4">1820</text>
		</g>
		<g transform="translate(257.61514895568376,0)">
			<line class="st0" x1="0" y1="0" x2="0" y2="6"/>
			<text transform="matrix(1 0 0 1 -11.123 16.1)" class="st2 st3 st4">1840</text>
		</g>
		<g transform="translate(314.86557221999794,0)">
			<line class="st0" x1="0" y1="0" x2="0" y2="6"/>
			<text transform="matrix(1 0 0 1 -11.123 16.1)" class="st2 st3 st4">1860</text>
		</g>
		<g transform="translate(372.11599548431207,0)">
			<line class="st0" x1="0" y1="0" x2="0" y2="6"/>
			<text transform="matrix(1 0 0 1 -11.123 16.1)" class="st2 st3 st4">1880</text>
		</g>
		<g transform="translate(429.36641874862613,0)">
			<line class="st0" x1="0" y1="0" x2="0" y2="6"/>
			<text transform="matrix(1 0 0 1 -11.123 16.1)" class="st2 st3 st4">1900</text>
		</g>
		<g transform="translate(486.6090048571204,0)">
			<line class="st0" x1="0" y1="0" x2="0" y2="6"/>
			<text transform="matrix(1 0 0 1 -11.123 16.1)" class="st2 st3 st4">1920</text>
		</g>
		<g transform="translate(543.8591953651634,0)">
			<line class="st0" x1="0" y1="0" x2="0" y2="6"/>
			<text transform="matrix(1 0 0 1 -11.123 16.1)" class="st2 st3 st4">1940</text>
		</g>
		<g transform="translate(601.1096186294775,0)">
			<line class="st0" x1="0" y1="0" x2="0" y2="6"/>
			<text transform="matrix(1 0 0 1 -11.123 16.1)" class="st2 st3 st4">1960</text>
		</g>
		<g transform="translate(658.3597153456325,0)">
			<line class="st0" x1="0" y1="0" x2="0" y2="6"/>
			<text transform="matrix(1 0 0 1 -11.123 16.1)" class="st2 st3 st4">1980</text>
		</g>
		<g transform="translate(715.6101386099466,0)">
			<line class="st0" x1="0" y1="0" x2="0" y2="6"/>
			<text transform="matrix(1 0 0 1 -11.123 16.1)" class="st2 st3 st4">2000</text>
		</g>
	</g>
	<g id="y-axis">
		<path class="st0" d="M-6,502.5h6V0h-6"/>
		<g transform="translate(0,502.5)">
			<line class="st0" x1="0" y1="0" x2="-6" y2="0"/>
			<text transform="matrix(1 0 0 1 -14.5615 3.2)" class="st2 st3 st4">0</text>
		</g>
		<g transform="translate(0,432.70833333333337)">
			<line class="st0" x1="0" y1="0" x2="-6" y2="0"/>
			<text transform="matrix(1 0 0 1 -14.5615 3.2)" class="st2 st3 st4">5</text>
		</g>
		<g transform="translate(0,362.9166666666667)">
			<line class="st0" x1="0" y1="0" x2="-6" y2="0"/>
			<text transform="matrix(1 0 0 1 -20.123 3.2)" class="st2 st3 st4">10</text>
		</g>
		<g transform="translate(0,293.12499999999994)">
			<line class="st0" x1="0" y1="0" x2="-6" y2="0"/>
			<text transform="matrix(1 0 0 1 -20.123 3.2)" class="st2 st3 st4">15</text>
		</g>
		<g transform="translate(0,223.33333333333331)">
			<line class="st0" x1="0" y1="0" x2="-6" y2="0"/>
			<text transform="matrix(1 0 0 1 -20.123 3.2)" class="st2 st3 st4">20</text>
		</g>
		<g transform="translate(0,153.54166666666669)">
			<line class="st0" x1="0" y1="0" x2="-6" y2="0"/>
			<text transform="matrix(1 0 0 1 -20.123 3.2)" class="st2 st3 st4">25</text>
		</g>
		<g transform="translate(0,83.74999999999999)">
			<line class="st0" x1="0" y1="0" x2="-6" y2="0"/>
			<text transform="matrix(1 0 0 1 -20.123 3.2)" class="st2 st3 st4">30</text>
		</g>
		<g transform="translate(0,13.95833333333334)">
			<line class="st0" x1="0" y1="0" x2="-6" y2="0"/>
			<text transform="matrix(1 0 0 1 -20.123 3.2)" class="st2 st3 st4">35</text>
		</g>
	</g>
</g>
</svg>
