<svg id="Layer_1" data-name="Layer 1" xmlns="http://www.w3.org/2000/svg" viewBox="0 0 600 400"><defs><style>.cls-1,.cls-2{fill:none;stroke-miterlimit:10;}.cls-1{stroke:#0e110c;}.cls-2{stroke:#010101;}</style></defs><title>diagram</title><line class="cls-1" x1="141.91" y1="240.82" x2="142.19" y2="272.99"/><line class="cls-1" x1="141.99" y1="249.13" x2="146.61" y2="242.75"/><line class="cls-1" x1="142.05" y1="253.01" x2="134.76" y2="245.72"/><ellipse class="cls-1" cx="141.92" cy="242.75" rx="11.55" ry="18.36"/><line class="cls-1" x1="136.48" y1="272.58" x2="147.54" y2="272.44"/><line class="cls-1" x1="160.04" y1="231.6" x2="160.31" y2="263.77"/><line class="cls-1" x1="160.12" y1="239.91" x2="164.73" y2="233.53"/><line class="cls-1" x1="160.18" y1="243.79" x2="152.89" y2="236.5"/><path class="cls-1" d="M153,247.26c2.1,3.43,3.78,4.63,7,4.63,6.38,0,11.56-8.22,11.56-18.36s-5.18-18.36-11.56-18.36c-5.43,0-10,4.66-11.22,12.69"/><line class="cls-1" x1="154.61" y1="263.36" x2="165.66" y2="263.22"/><line class="cls-1" x1="178.37" y1="222.64" x2="178.65" y2="254.81"/><line class="cls-1" x1="178.46" y1="230.95" x2="183.07" y2="224.57"/><line class="cls-1" x1="178.51" y1="234.82" x2="171.22" y2="227.54"/><path class="cls-1" d="M171.37,238.3c2.1,3.43,3.77,4.63,7,4.63,6.38,0,11.55-8.22,11.55-18.36s-5.17-18.36-11.55-18.36c-5.44,0-10,4.66-11.23,12.69"/><line class="cls-1" x1="172.94" y1="254.4" x2="184" y2="254.26"/><line class="cls-1" x1="200.35" y1="240.28" x2="200.63" y2="272.44"/><line class="cls-1" x1="200.44" y1="248.59" x2="205.05" y2="242.21"/><line class="cls-1" x1="200.49" y1="252.46" x2="193.21" y2="245.18"/><ellipse class="cls-1" cx="200.37" cy="242.21" rx="11.55" ry="18.36"/><line class="cls-1" x1="194.92" y1="272.03" x2="205.98" y2="271.89"/><line class="cls-1" x1="218.48" y1="231.06" x2="218.76" y2="263.22"/><line class="cls-1" x1="218.57" y1="239.37" x2="223.18" y2="232.99"/><line class="cls-1" x1="218.62" y1="243.24" x2="211.33" y2="235.96"/><path class="cls-1" d="M211.48,246.72c2.1,3.43,3.77,4.63,7,4.63,6.38,0,11.55-8.22,11.55-18.36s-5.17-18.36-11.55-18.36c-5.44,0-10,4.66-11.23,12.69"/><line class="cls-1" x1="213.05" y1="262.81" x2="224.11" y2="262.68"/><line class="cls-1" x1="236.82" y1="222.1" x2="237.09" y2="254.26"/><line class="cls-1" x1="236.9" y1="230.41" x2="241.51" y2="224.03"/><line class="cls-1" x1="236.96" y1="234.28" x2="229.67" y2="226.99"/><path class="cls-1" d="M229.81,237.76c2.1,3.42,3.78,4.62,7,4.62,6.38,0,11.56-8.22,11.56-18.35s-5.18-18.36-11.56-18.36c-5.43,0-10,4.65-11.22,12.68"/><line class="cls-1" x1="231.39" y1="253.85" x2="242.44" y2="253.71"/><path class="cls-2" d="M470.21,271.15h-4.94V250.4a4.74,4.74,0,0,0-3.13-8.3h-9.87l-1.53-24.4a1.51,1.51,0,0,0-1.5-1.41h-6.46a1.51,1.51,0,0,0-1.5,1.41l-1.53,24.4h-3.62l-1.52-24.4a1.51,1.51,0,0,0-1.51-1.41h-6.45a1.51,1.51,0,0,0-1.51,1.41l-1.52,24.4H420l-1.53-24.4a1.51,1.51,0,0,0-1.5-1.41h-6.46a1.51,1.51,0,0,0-1.5,1.41l-1.53,24.4h-4.2L402.34,200a1.51,1.51,0,0,0-1.51-1.47h-9.68a1.51,1.51,0,0,0-1.51,1.47l-1.08,48.55H376.63a4.73,4.73,0,0,0-3.12,8.29v14.3h-3.33a1.51,1.51,0,1,0,0,3h100a1.51,1.51,0,1,0,0-3Zm-78.16,0H376.53V253.49h.14m-.14,0h15.91m-1.36,17.65,3.4,0,0-20.75,5.78-8.3-.9-40.54-6.73,0,59.84,47,0,3h9.78v19.58H397.5V251.57h55m6.45-3,4.94-1.72-66.25-1.72,0,3.44"/><path class="cls-2" d="M404.87,196.72a7.05,7.05,0,0,0,4.36-1.51,11.17,11.17,0,0,0,12.16,2.21,14.42,14.42,0,0,0,10.1,4.14,14.21,14.21,0,0,0,4.75-.82,19.26,19.26,0,1,0,3.87-25.14,14.35,14.35,0,0,0-18.72,1.27A11,11,0,0,0,417,176a11.21,11.21,0,0,0-10.25,6.71,6.78,6.78,0,0,0-1.85-.26,7.16,7.16,0,0,0-6.76,4.87l-.5,0a4.74,4.74,0,0,0-4.74,4.74,1.51,1.51,0,0,0,1.51,1.51"/><path class="cls-2" d="M407.29,255a1.51,1.51,0,0,0-1.51,1.51v3.23a1.51,1.51,0,1,0,3,0v-3.23A1.52,1.52,0,0,0,407.29,255Z"/><path class="cls-2" d="M413.74,255a1.52,1.52,0,0,0-1.51,1.51v3.23a1.51,1.51,0,0,0,3,0v-3.23A1.52,1.52,0,0,0,413.74,255Z"/><path class="cls-2" d="M420.19,255a1.52,1.52,0,0,0-1.51,1.51v3.23a1.51,1.51,0,0,0,3,0v-3.23A1.51,1.51,0,0,0,420.19,255Z"/><path class="cls-2" d="M426.65,255a1.51,1.51,0,0,0-1.51,1.51v3.23a1.51,1.51,0,0,0,3,0v-3.23A1.52,1.52,0,0,0,426.65,255Z"/><path class="cls-2" d="M433.1,255a1.52,1.52,0,0,0-1.51,1.51v3.23a1.51,1.51,0,1,0,3,0v-3.23A1.51,1.51,0,0,0,433.1,255Z"/><path class="cls-2" d="M439.56,255a1.51,1.51,0,0,0-1.51,1.51v3.23a1.51,1.51,0,0,0,3,0v-3.23A1.52,1.52,0,0,0,439.56,255Z"/><path class="cls-2" d="M446,255a1.52,1.52,0,0,0-1.51,1.51v3.23a1.51,1.51,0,0,0,3,0v-3.23A1.52,1.52,0,0,0,446,255Z"/><path class="cls-2" d="M452.46,255a1.52,1.52,0,0,0-1.51,1.51v3.23a1.51,1.51,0,0,0,3,0v-3.23A1.51,1.51,0,0,0,452.46,255Z"/><line class="cls-2" x1="392.44" y1="252.99" x2="392.44" y2="271.65"/><line class="cls-1" x1="97.07" y1="272.75" x2="508.74" y2="274.7"/></svg>