<?xml version="1.0" encoding="utf-8"?>
<!-- Generator: Adobe Illustrator 23.1.1, SVG Export Plug-In . SVG Version: 6.00 Build 0)  -->
<svg version="1.1" id="Layer_1" transform="translate(100,100)"
	 xmlns="http://www.w3.org/2000/svg" xmlns:xlink="http://www.w3.org/1999/xlink" x="0px" y="0px" viewBox="0 0 1280 666"
	 style="enable-background:new 0 0 1280 666;" xml:space="preserve">
<style type="text/css">
	.st0{fill:none;stroke:#3C6E71;}
</style>
<path class="st0" d="M80.7,552.5c1.3,0,2.6,0,3.9,0s2.6,0,3.9,0s2.6,0,3.9,0s2.6,0,3.9,0s2.6,0,3.9,0s2.6,0,3.9,0s2.6,0,3.9,0
	s2.6,0,3.9,0s2.6,0,3.9,0s2.6,0,3.9,0s2.6,0,3.9,0s2.6,0,3.9,0s2.6,0,3.9,0s2.6,0,3.9,0s2.6,0,3.9,0c1.3,0,2.6,0,3.9,0
	c1.3,0,2.6,0,3.9,0s2.6,0,3.9,0s2.6,0,3.9,0c1.3,0,2.6,0,3.9,0c1.3,0,2.6,0,3.9,0s2.6,0,3.9,0s2.6,0,3.9,0c1.3,0,2.6,0,3.9,0
	c1.3,0,2.6,0,3.9,0s2.6,0,3.9,0s2.6,0,3.9,0c1.3,0,2.6,0,3.9,0c1.3,0,2.6,0,3.9,0c1.3,0,2.6,0,3.9,0c1.3,0,2.6,0,3.9,0
	c1.3,0,2.6,0,3.9,0c1.3,0,2.6,0,3.9,0s2.6,0,3.9,0c1.3,0,2.6,0,3.9,0c1.3,0,2.6,0,3.9,0c1.3,0,2.6,0,3.9,0s2.6,0,3.9,0
	c1.3,0,2.6,0,3.9,0c1.3,0,2.6,0,3.9,0c1.3,0,2.6,0,3.9,0s2.6,0,3.9,0c1.3,0,2.6,0,3.9,0c1.3,0,2.6,0,3.9,0c1.3,0,2.6,0,3.9,0
	c1.3,0,2.6,0,3.9,0s2.6,0,3.9,0s2.6,0,3.9,0s2.6,0,3.9,0s2.6,0,3.9,0s2.6,0,3.9,0s2.6,0,3.9,0s2.6,0,3.9,0s2.6,0,3.9,0s2.6,0,3.9,0
	s2.6,0,3.9,0s2.6,0,3.9,0s2.6,0,3.9,0s2.6,0,3.9,0s2.6,0,3.9,0s2.6,0,3.9,0s2.6,0,3.9,0s2.6,0,3.9,0s2.6,0,3.9,0s2.6,0,3.9,0
	s2.6,0,3.9,0s2.6,0,3.9,0s2.6,0,3.9,0s2.6,0,3.9,0s2.6,0,3.9,0s2.6,0,3.9,0s2.6,0,3.9,0s2.6,0,3.9,0s2.6,0,3.9,0s2.6,0,3.9,0
	s2.6,0,3.9,0s2.6,0,3.9,0s2.6,0,3.9,0s2.6,0,3.9,0s2.6,0,3.9,0s2.6,0,3.9,0s2.6,0,3.9,0s2.6,0,3.9,0s2.6,0,3.9,0s2.6,0,3.9,0
	s2.6,0,3.9,0s2.6,0,3.9,0s2.6,0,3.9,0s2.6,0,3.9,0s2.6,0,3.9,0s2.6,0,3.9,0s2.6,0,3.9,0s2.6,0,3.9,0s2.6,0,3.9,0s2.6,0,3.9,0
	s2.6,0,3.9,0s2.6,0,3.9,0s2.6,0,3.9,0s2.6,0,3.9,0s2.6,0,3.9,0s2.6,0,3.9,0s2.6,0,3.9,0s2.6,0,3.9,0s2.6,0,3.9,0s2.6,0,3.9,0
	s2.6,0,3.9,0s2.6,0,3.9,0s2.6,0,3.9,0s2.6,0,3.9,0s2.6,0,3.9,0s2.6,0,3.9,0s2.6,0,3.9-1.8s2.6-5.4,3.9-7.2s2.6-1.8,3.9-1.8
	s2.6,0,3.9,0c1.3,0,2.6,0,3.9,0c1.3,0,2.6,0,3.9,0s2.6,0,3.9,0s2.6,0,3.9,0s2.6,0,3.9,0s2.6,0,3.9,0s2.6,0,3.9,0s2.6,0,3.9,0
	s2.6,0,3.9,0c1.3,0,2.6,0,3.9,0s2.6,0,3.9,0c1.3,0,2.6,0,3.9,0s2.6,0,3.9,0c1.3,0,2.6,0,3.9,0s2.6,0,3.9,0s2.6,0,3.9,0s2.6,0,3.9,0
	s2.6,0,3.9,0s2.6,0,3.9,0s2.6,0,3.9,0c1.3,0,2.6,0,3.9,0s2.6,0,3.9,0c1.3,0,2.6,0,3.9,0s2.6,0,3.9-1.8s2.6-5.4,3.9-7.2
	s2.6-1.8,3.9-1.8s2.6,0,3.9,0c1.3,0,2.6,0,3.9,0s2.6,0,3.9,0c1.3,0,2.6,0,3.9,0s2.6,0,3.9,0s2.6,0,3.9,0s2.6,0,3.9,0s2.6,0,3.9-1.8
	c1.3-1.8,2.6-5.4,3.9-7.2s2.6-1.8,3.9-1.8c1.3,0,2.6,0,3.9,0s2.6,0,3.9,0c1.3,0,2.6,0,3.9,0s2.6,0,3.9,0s2.6,0,3.9,0s2.6,0,3.9,0
	s2.6,0,3.9,0c1.3,0,2.6,0,3.9,0s2.6,0,3.9-1.8c1.3-1.8,2.6-5.4,3.9-5.4s2.6,3.6,3.9,5.4c1.3,1.8,2.6,1.8,3.9,0
	c1.3-1.8,2.6-5.4,3.9-5.4s2.6,3.6,3.9,5.4c1.3,1.8,2.6,1.8,3.9,0c1.3-1.8,2.6-5.4,3.9-7.2c1.3-1.8,2.6-1.8,3.9-1.8s2.6,0,3.9,0
	c1.3,0,2.6,0,3.9,0s2.6,0,3.9,0s2.6,0,3.9,0s2.6,0,3.9,0s2.6,0,3.9,0c1.3,0,2.6,0,3.9,1.8s2.6,5.4,3.9,7.2c1.3,1.8,2.6,1.8,3.9,0
	c1.3-1.8,2.6-5.4,3.9-7.2s2.6-1.8,3.9-1.8s2.6,0,3.9,0s2.6,0,3.9,0c1.3,0,2.6,0,3.9,0s2.6,0,3.9-1.8c1.3-1.8,2.6-5.4,3.9-7.2
	c1.3-1.8,2.6-1.8,3.9-1.8s2.6,0,3.9,0s2.6,0,3.9,0s2.6,0,3.9,1.8c1.3,1.8,2.6,5.4,3.9,5.4s2.6-3.6,3.9-5.4c1.3-1.8,2.6-1.8,3.9-1.8
	s2.6,0,3.9,0c1.3,0,2.6,0,3.9-1.8s2.6-5.4,3.9-7.2c1.3-1.8,2.6-1.8,3.9-1.8s2.6,0,3.9-1.8c1.3-1.8,2.6-5.4,3.9-7.2
	c1.3-1.8,2.6-1.8,3.9-1.8s2.6,0,3.9-1.8c1.3-1.8,2.6-5.4,3.9-7.2c1.3-1.8,2.6-1.8,3.9-1.8s2.6,0,3.9-1.8s2.6-5.4,3.9-7.2
	c1.3-1.8,2.6-1.8,3.9-1.8c1.3,0,2.6,0,3.9-1.8c1.3-1.8,2.6-5.4,3.9-7.2c1.3-1.8,2.6-1.8,3.9-3.6c1.3-1.8,2.6-5.4,3.9-7.2
	c1.3-1.8,2.6-1.8,3.9-3.6s2.6-5.4,3.9-7.2c1.3-1.8,2.6-1.8,3.9-3.6c1.3-1.8,2.6-5.4,3.9-9s2.6-7.2,3.9-10.8c1.3-3.6,2.6-7.2,3.9-9
	c1.3-1.8,2.6-1.8,3.9-3.6c1.3-1.8,2.6-5.4,3.9-9s2.6-7.2,3.9-9c1.3-1.8,2.6-1.8,3.9-1.8s2.6,0,3.9-1.8s2.6-5.4,3.9-7.2
	c1.3-1.8,2.6-1.8,3.9-3.6c1.3-1.8,2.6-5.4,3.9-7.2c1.3-1.8,2.6-1.8,3.9-1.8s2.6,0,3.9,0c1.3,0,2.6,0,3.9,0s2.6,0,3.9,0s2.6,0,3.9,0
	s2.6,0,3.9-1.8c1.3-1.8,2.6-5.4,3.9-7.2c1.3-1.8,2.6-1.8,3.9-3.6c1.3-1.8,2.6-5.4,3.9-9c1.3-3.6,2.6-7.2,3.9-9s2.6-1.8,3.9-3.6
	c1.3-1.8,2.6-5.4,3.9-7.2c1.3-1.8,2.6-1.8,3.9,0c1.3,1.8,2.6,5.4,3.9,5.4c1.3,0,2.6-3.6,3.9-5.4c1.3-1.8,2.6-1.8,3.9-1.8
	c1.3,0,2.6,0,3.9-1.8c1.3-1.8,2.6-5.4,3.9-7.2c1.3-1.8,2.6-1.8,3.9-1.8s2.6,0,3.9,0c1.3,0,2.6,0,3.9-1.8s2.6-5.4,3.9-7.2
	s2.6-1.8,3.9-3.6c1.3-1.8,2.6-5.4,3.9-9s2.6-7.2,3.9-10.8c1.3-3.6,2.6-7.2,3.9-10.8s2.6-7.2,3.9-10.8s2.6-7.2,3.9-10.8
	s2.6-7.2,3.9-10.8s2.6-7.2,3.9-7.2s2.6,3.6,3.9,1.8s2.6-9,3.9-14.4s2.6-9,3.9-12.6s2.6-7.2,3.9-9s2.6-1.8,3.9-1.8s2.6,0,3.9,0
	s2.6,0,3.9,0s2.6,0,3.9-1.8s2.6-5.4,3.9-7.2s2.6-1.8,3.9-1.8s2.6,0,3.3,0h0.7"/>
</svg>
