<?xml version="1.0" encoding="utf-8"?>
<!-- Generator: Adobe Illustrator 23.1.1, SVG Export Plug-In . SVG Version: 6.00 Build 0)  -->
<svg version="1.1" id="Layer_1" transform="translate(100,100)"
	 xmlns="http://www.w3.org/2000/svg" xmlns:xlink="http://www.w3.org/1999/xlink" x="0px" y="0px" viewBox="0 0 1280 666"
	 style="enable-background:new 0 0 1280 666;" xml:space="preserve">
<style type="text/css">
	.st0{fill:none;stroke:#000000;}
	.st1{font-family:'Helvetica';}
	.st2{font-size:10px;}
</style>
<g transform="translate(30, 466)">
	<path class="st0" d="M27.2,93.3v-6h1080v6"/>
	<g transform="translate(39.27272727272727,0)">
		<line class="st0" x1="27.2" y1="87.3" x2="27.2" y2="93.3"/>
		<text transform="matrix(1 0 0 1 14.6724 103.3664)" class="st1 st2">1760</text>
	</g>
	<g transform="translate(117.81818181818181,0)">
		<line class="st0" x1="27.2" y1="87.3" x2="27.2" y2="93.3"/>
		<text transform="matrix(1 0 0 1 14.6724 103.3664)" class="st1 st2">1780</text>
	</g>
	<g transform="translate(196.36363636363637,0)">
		<line class="st0" x1="27.2" y1="87.3" x2="27.2" y2="93.3"/>
		<text transform="matrix(1 0 0 1 14.6724 103.3664)" class="st1 st2">1800</text>
	</g>
	<g transform="translate(274.9090909090909,0)">
		<line class="st0" x1="27.2" y1="87.3" x2="27.2" y2="93.3"/>
		<text transform="matrix(1 0 0 1 14.6724 103.3664)" class="st1 st2">1820</text>
	</g>
	<g transform="translate(353.45454545454544,0)">
		<line class="st0" x1="27.2" y1="87.3" x2="27.2" y2="93.3"/>
		<text transform="matrix(1 0 0 1 14.6724 103.3664)" class="st1 st2">1840</text>
	</g>
	<g transform="translate(432,0)">
		<line class="st0" x1="27.2" y1="87.3" x2="27.2" y2="93.3"/>
		<text transform="matrix(1 0 0 1 14.6724 103.3664)" class="st1 st2">1860</text>
	</g>
	<g transform="translate(510.54545454545456,0)">
		<line class="st0" x1="27.2" y1="87.3" x2="27.2" y2="93.3"/>
		<text transform="matrix(1 0 0 1 14.6723 103.3664)" class="st1 st2">1880</text>
	</g>
	<g transform="translate(589.090909090909,0)">
		<line class="st0" x1="27.2" y1="87.3" x2="27.2" y2="93.3"/>
		<text transform="matrix(1 0 0 1 14.6724 103.3664)" class="st1 st2">1900</text>
	</g>
	<g transform="translate(667.6363636363636,0)">
		<line class="st0" x1="27.2" y1="87.3" x2="27.2" y2="93.3"/>
		<text transform="matrix(1 0 0 1 14.6724 103.3664)" class="st1 st2">1920</text>
	</g>
	<g transform="translate(746.1818181818182,0)">
		<line class="st0" x1="27.2" y1="87.3" x2="27.2" y2="93.3"/>
		<text transform="matrix(1 0 0 1 14.6724 103.3664)" class="st1 st2">1940</text>
	</g>
	<g transform="translate(824.7272727272727,0)">
		<line class="st0" x1="27.2" y1="87.3" x2="27.2" y2="93.3"/>
		<text transform="matrix(1 0 0 1 14.6724 103.3664)" class="st1 st2">1960</text>
	</g>
	<g transform="translate(903.2727272727273,0)">
		<line class="st0" x1="27.2" y1="87.3" x2="27.2" y2="93.3"/>
		<text transform="matrix(1 0 0 1 14.6724 103.3664)" class="st1 st2">1980</text>
	</g>
	<g transform="translate(981.8181818181818,0)">
		<line class="st0" x1="27.2" y1="87.3" x2="27.2" y2="93.3"/>
		<text transform="matrix(1 0 0 1 14.6724 103.3664)" class="st1 st2">2000</text>
	</g>
	<g transform="translate(1060.3636363636363,0)">
		<line class="st0" x1="27.2" y1="87.3" x2="27.2" y2="93.3"/>
		<text transform="matrix(1 0 0 1 14.6724 103.3664)" class="st1 st2">2020</text>
	</g>
</g>
<g transform="translate(30, 0)">
	<path class="st0" d="M21.2,553.3h6v-466h-6"/>
	<g transform="translate(0,466)">
		<line class="st0" x1="27.2" y1="87.3" x2="21.2" y2="87.3"/>
		<text transform="matrix(1 0 0 1 12.623 90.4664)" class="st1 st2">0</text>
	</g>
	<g transform="translate(0,444.3255813953489)">
		<line class="st0" x1="27.2" y1="87.3" x2="21.2" y2="87.3"/>
		<text transform="matrix(1 0 0 1 12.623 90.4664)" class="st1 st2">2</text>
	</g>
	<g transform="translate(0,422.6511627906977)">
		<line class="st0" x1="27.2" y1="87.3" x2="21.2" y2="87.3"/>
		<text transform="matrix(1 0 0 1 12.623 90.4664)" class="st1 st2">4</text>
	</g>
	<g transform="translate(0,400.9767441860465)">
		<line class="st0" x1="27.2" y1="87.3" x2="21.2" y2="87.3"/>
		<text transform="matrix(1 0 0 1 12.623 90.4664)" class="st1 st2">6</text>
	</g>
	<g transform="translate(0,379.30232558139534)">
		<line class="st0" x1="27.2" y1="87.3" x2="21.2" y2="87.3"/>
		<text transform="matrix(1 0 0 1 12.623 90.4664)" class="st1 st2">8</text>
	</g>
	<g transform="translate(0,357.6279069767442)">
		<line class="st0" x1="27.2" y1="87.3" x2="21.2" y2="87.3"/>
		<text transform="matrix(1 0 0 1 7.0615 90.4664)" class="st1 st2">10</text>
	</g>
	<g transform="translate(0,335.953488372093)">
		<line class="st0" x1="27.2" y1="87.3" x2="21.2" y2="87.3"/>
		<text transform="matrix(1 0 0 1 7.0615 90.4664)" class="st1 st2">12</text>
	</g>
	<g transform="translate(0,314.27906976744185)">
		<line class="st0" x1="27.2" y1="87.3" x2="21.2" y2="87.3"/>
		<text transform="matrix(1 0 0 1 7.0615 90.4664)" class="st1 st2">14</text>
	</g>
	<g transform="translate(0,292.6046511627907)">
		<line class="st0" x1="27.2" y1="87.3" x2="21.2" y2="87.3"/>
		<text transform="matrix(1 0 0 1 7.0615 90.4664)" class="st1 st2">16</text>
	</g>
	<g transform="translate(0,270.9302325581395)">
		<line class="st0" x1="27.2" y1="87.3" x2="21.2" y2="87.3"/>
		<text transform="matrix(1 0 0 1 7.0615 90.4664)" class="st1 st2">18</text>
	</g>
	<g transform="translate(0,249.2558139534884)">
		<line class="st0" x1="27.2" y1="87.3" x2="21.2" y2="87.3"/>
		<text transform="matrix(1 0 0 1 7.0615 90.4664)" class="st1 st2">20</text>
	</g>
	<g transform="translate(0,227.5813953488372)">
		<line class="st0" x1="27.2" y1="87.3" x2="21.2" y2="87.3"/>
		<text transform="matrix(1 0 0 1 7.0615 90.4664)" class="st1 st2">22</text>
	</g>
	<g transform="translate(0,205.90697674418604)">
		<line class="st0" x1="27.2" y1="87.3" x2="21.2" y2="87.3"/>
		<text transform="matrix(1 0 0 1 7.0615 90.4664)" class="st1 st2">24</text>
	</g>
	<g transform="translate(0,184.2325581395349)">
		<line class="st0" x1="27.2" y1="87.3" x2="21.2" y2="87.3"/>
		<text transform="matrix(1 0 0 1 7.0615 90.4664)" class="st1 st2">26</text>
	</g>
	<g transform="translate(0,162.5581395348837)">
		<line class="st0" x1="27.2" y1="87.3" x2="21.2" y2="87.3"/>
		<text transform="matrix(1 0 0 1 7.0615 90.4664)" class="st1 st2">28</text>
	</g>
	<g transform="translate(0,140.88372093023256)">
		<line class="st0" x1="27.2" y1="87.3" x2="21.2" y2="87.3"/>
		<text transform="matrix(1 0 0 1 7.0615 90.4664)" class="st1 st2">30</text>
	</g>
	<g transform="translate(0,119.2093023255814)">
		<line class="st0" x1="27.2" y1="87.3" x2="21.2" y2="87.3"/>
		<text transform="matrix(1 0 0 1 7.0615 90.4664)" class="st1 st2">32</text>
	</g>
	<g transform="translate(0,97.53488372093025)">
		<line class="st0" x1="27.2" y1="87.3" x2="21.2" y2="87.3"/>
		<text transform="matrix(1 0 0 1 7.0615 90.4664)" class="st1 st2">34</text>
	</g>
	<g transform="translate(0,75.86046511627904)">
		<line class="st0" x1="27.2" y1="87.3" x2="21.2" y2="87.3"/>
		<text transform="matrix(1 0 0 1 7.0615 90.4664)" class="st1 st2">36</text>
	</g>
	<g transform="translate(0,54.1860465116279)">
		<line class="st0" x1="27.2" y1="87.3" x2="21.2" y2="87.3"/>
		<text transform="matrix(1 0 0 1 7.0615 90.4664)" class="st1 st2">38</text>
	</g>
	<g transform="translate(0,32.51162790697675)">
		<line class="st0" x1="27.2" y1="87.3" x2="21.2" y2="87.3"/>
		<text transform="matrix(1 0 0 1 7.0615 90.4664)" class="st1 st2">40</text>
	</g>
	<g transform="translate(0,10.8372093023256)">
		<line class="st0" x1="27.2" y1="87.3" x2="21.2" y2="87.3"/>
		<text transform="matrix(1 0 0 1 7.0615 90.4664)" class="st1 st2">42</text>
	</g>
</g>
</svg>
