<?xml version="1.0" encoding="utf-8"?>
<!-- Generator: Adobe Illustrator 23.1.1, SVG Export Plug-In . SVG Version: 6.00 Build 0)  -->
<svg version="1.1" id="Layer_1" transform="translate(100,100)"
	 xmlns="http://www.w3.org/2000/svg" xmlns:xlink="http://www.w3.org/1999/xlink" x="0px" y="0px" viewBox="0 0 1280 666"
	 style="enable-background:new 0 0 1280 666;" xml:space="preserve">
<style type="text/css">
	.st0{fill:none;stroke:#3C6E71;stroke-width:2;}
	.st1{fill:none;stroke:#000000;stroke-width:2;}
	.st2{fill:none;stroke:#000000;}
	.st3{font-family:'Helvetica';}
	.st4{font-size:10px;}
	.st5{fill:none;stroke:#4162A6;stroke-width:2;}
	.st6{fill:none;stroke:#195953;stroke-width:2;}
	.st7{fill:none;stroke:#F2695C;stroke-width:2;}
	.st8{fill:none;stroke:#F2CAB3;stroke-width:2;}
</style>
<path class="st0" d="M910.6,338.4"/>
<path class="st0" d="M907.5,338.4"/>
<path class="st1" d="M110.6,523.1C232,523,352,524,473,522c3,0,5-4,9-4c24,0,49,0,73,0c9-8,20-4,31-5c3-1,5-4,8-5c9-1,19,1,28,0
	c1,0,2-2,3-3c1,0,1,0,2,0c1,1,2,2,3,3c1,0,3,0,4-3c0,0,1,0,2,0c1,1,2,3,4,3c3,0,3-5,5-5c9,1,20-3,27,4c0,0,1,0,2,0c2-1,4-3,6-4
	c4-1,9,1,12-1c5-4,13-6,19-1c1,1,2,1,4-1c4-4,10-2,14-7c1,0,3,0,5-1c1-1,1-2,2-3c4-1,8-3,11-5c2-2,6-1,8-5c7-1,13-5,16-11
	c9-4,12-13,18-18c4-4,6-7,9-11c2-2,5,0,7-2c3-3,6-5,9-8c6-3,12,1,18-2c2-1,2-3,4-4c1-1,2,0,3-1c3-5,7-8,10-12c2-2,6-2,8,1
	c1,1,1,0,3-1c4-3,8-3,10-7c7,2,13-3,17-8c8-10,12-22,20-31c1,1,2,2,3,1c3-2,2-6,3.6-8.2"/>
<g transform="translate(30, 466)">
	<path class="st2" d="M80.6,83.8v-6h1080v6"/>
	<g transform="translate(0,0)">
		<line class="st2" x1="80.6" y1="77.8" x2="80.6" y2="83.8"/>
		<text transform="matrix(1 0 0 1 68.0456 93.9276)" class="st3 st4">1,750</text>
	</g>
	<g transform="translate(154.28571428571428,0)">
		<line class="st2" x1="80.6" y1="77.8" x2="80.6" y2="83.8"/>
		<text transform="matrix(1 0 0 1 68.0456 93.9276)" class="st3 st4">1,800</text>
	</g>
	<g transform="translate(308.57142857142856,0)">
		<line class="st2" x1="80.6" y1="77.8" x2="80.6" y2="83.8"/>
		<text transform="matrix(1 0 0 1 68.0456 93.9276)" class="st3 st4">1,850</text>
	</g>
	<g transform="translate(462.85714285714283,0)">
		<line class="st2" x1="80.6" y1="77.8" x2="80.6" y2="83.8"/>
		<text transform="matrix(1 0 0 1 68.0456 93.9276)" class="st3 st4">1,900</text>
	</g>
	<g transform="translate(617.1428571428571,0)">
		<line class="st2" x1="80.6" y1="77.8" x2="80.6" y2="83.8"/>
		<text transform="matrix(1 0 0 1 68.0456 93.9276)" class="st3 st4">1,950</text>
	</g>
	<g transform="translate(771.4285714285714,0)">
		<line class="st2" x1="80.6" y1="77.8" x2="80.6" y2="83.8"/>
		<text transform="matrix(1 0 0 1 68.0456 93.9276)" class="st3 st4">2,000</text>
	</g>
	<g transform="translate(925.7142857142857,0)">
		<line class="st2" x1="80.6" y1="77.8" x2="80.6" y2="83.8"/>
		<text transform="matrix(1 0 0 1 68.0456 93.9276)" class="st3 st4">2,050</text>
	</g>
	<g transform="translate(1080,0)">
		<line class="st2" x1="80.6" y1="77.8" x2="80.6" y2="83.8"/>
		<text transform="matrix(1 0 0 1 68.0457 93.9276)" class="st3 st4">2,100</text>
	</g>
</g>
<g transform="translate(30, 0)">
	<path class="st2" d="M74.6,543.8h6v-466h-6"/>
	<g transform="translate(0,466)">
		<line class="st2" x1="80.6" y1="77.8" x2="74.6" y2="77.8"/>
		<text transform="matrix(1 0 0 1 60.1565 81.0276)" class="st3 st4">−5</text>
	</g>
	<g transform="translate(0,440.94623655913983)">
		<line class="st2" x1="80.6" y1="77.8" x2="74.6" y2="77.8"/>
		<text transform="matrix(1 0 0 1 65.9963 81.0276)" class="st3 st4">0</text>
	</g>
	<g transform="translate(0,415.89247311827955)">
		<line class="st2" x1="80.6" y1="77.8" x2="74.6" y2="77.8"/>
		<text transform="matrix(1 0 0 1 65.9963 81.0276)" class="st3 st4">5</text>
	</g>
	<g transform="translate(0,390.8387096774194)">
		<line class="st2" x1="80.6" y1="77.8" x2="74.6" y2="77.8"/>
		<text transform="matrix(1 0 0 1 60.4348 81.0276)" class="st3 st4">10</text>
	</g>
	<g transform="translate(0,365.7849462365591)">
		<line class="st2" x1="80.6" y1="77.8" x2="74.6" y2="77.8"/>
		<text transform="matrix(1 0 0 1 60.4348 81.0276)" class="st3 st4">15</text>
	</g>
	<g transform="translate(0,340.73118279569894)">
		<line class="st2" x1="80.6" y1="77.8" x2="74.6" y2="77.8"/>
		<text transform="matrix(1 0 0 1 60.4348 81.0276)" class="st3 st4">20</text>
	</g>
	<g transform="translate(0,315.6774193548387)">
		<line class="st2" x1="80.6" y1="77.8" x2="74.6" y2="77.8"/>
		<text transform="matrix(1 0 0 1 60.4348 81.0276)" class="st3 st4">25</text>
	</g>
	<g transform="translate(0,290.6236559139785)">
		<line class="st2" x1="80.6" y1="77.8" x2="74.6" y2="77.8"/>
		<text transform="matrix(1 0 0 1 60.4348 81.0276)" class="st3 st4">30</text>
	</g>
	<g transform="translate(0,265.5698924731183)">
		<line class="st2" x1="80.6" y1="77.8" x2="74.6" y2="77.8"/>
		<text transform="matrix(1 0 0 1 60.4348 81.0276)" class="st3 st4">35</text>
	</g>
	<g transform="translate(0,240.51612903225805)">
		<line class="st2" x1="80.6" y1="77.8" x2="74.6" y2="77.8"/>
		<text transform="matrix(1 0 0 1 60.4348 81.0276)" class="st3 st4">40</text>
	</g>
	<g transform="translate(0,215.46236559139786)">
		<line class="st2" x1="80.6" y1="77.8" x2="74.6" y2="77.8"/>
		<text transform="matrix(1 0 0 1 60.4348 81.0276)" class="st3 st4">45</text>
	</g>
	<g transform="translate(0,190.40860215053763)">
		<line class="st2" x1="80.6" y1="77.8" x2="74.6" y2="77.8"/>
		<text transform="matrix(1 0 0 1 60.4348 81.0276)" class="st3 st4">50</text>
	</g>
	<g transform="translate(0,165.35483870967744)">
		<line class="st2" x1="80.6" y1="77.8" x2="74.6" y2="77.8"/>
		<text transform="matrix(1 0 0 1 60.4348 81.0276)" class="st3 st4">55</text>
	</g>
	<g transform="translate(0,140.3010752688172)">
		<line class="st2" x1="80.6" y1="77.8" x2="74.6" y2="77.8"/>
		<text transform="matrix(1 0 0 1 60.4348 81.0276)" class="st3 st4">60</text>
	</g>
	<g transform="translate(0,115.24731182795699)">
		<line class="st2" x1="80.6" y1="77.8" x2="74.6" y2="77.8"/>
		<text transform="matrix(1 0 0 1 60.4348 81.0276)" class="st3 st4">65</text>
	</g>
	<g transform="translate(0,90.1935483870968)">
		<line class="st2" x1="80.6" y1="77.8" x2="74.6" y2="77.8"/>
		<text transform="matrix(1 0 0 1 60.4348 81.0276)" class="st3 st4">70</text>
	</g>
	<g transform="translate(0,65.13978494623656)">
		<line class="st2" x1="80.6" y1="77.8" x2="74.6" y2="77.8"/>
		<text transform="matrix(1 0 0 1 60.4348 81.0276)" class="st3 st4">75</text>
	</g>
	<g transform="translate(0,40.08602150537636)">
		<line class="st2" x1="80.6" y1="77.8" x2="74.6" y2="77.8"/>
		<text transform="matrix(1 0 0 1 60.4348 81.0276)" class="st3 st4">80</text>
	</g>
	<g transform="translate(0,15.032258064516116)">
		<line class="st2" x1="80.6" y1="77.8" x2="74.6" y2="77.8"/>
		<text transform="matrix(1 0 0 1 60.4348 81.0276)" class="st3 st4">85</text>
	</g>
</g>
<path class="st5" d="M931.7,340.7C936,333,942,325,947,318c8-3,11-12,16-19c5,1,6-5,8-7s5-3,7-5c1-1,3-1,4-1c2-3,5-5,5-8
	c6,0,6-6,10-9c1-1,2-1,3-1c3-2,4-3,7-5c3-4,6-8,11-10c1-4,3-8,8-7c4-8,10-14,15-22h2c4-4,6-10,10-12s6-8,9-9c3-2,6-5,9-7
	c4-4,6-7,10-11c0,0,1,0,2,0c3-2,3-5,7-6c1,0,2-2,3-3c3,0,6,0,9-4c2-2,5-3,7-5c1-1,4,1,5,0c3-2,4-7,9-4c3-6,9-4,14-5c1-1,1-3,2-4
	c11-1,23-2,34,1c3,0,4,3,7,4c1,1,2,3,3,4c1,0,3,0,4,1c0,1,1,2,1,2c3,1,5,3,7,5c1,0,2,0,3,0c1,2,3,6,6.1,4.7"/>
<path class="st6" d="M936.8,334.1h3.1h3.1l3.1-5h3.1l3.1,10l3.1-5h3.1l3.1-5h3.1l3.1-5h3.1l3.1-5h3.1l3.1-5h3.1l3.1-5h3.1h3.1l3.1-5
	h3.1h3.1h3.1l3.1-5h3.1h3.1h3.1h3.1h3.1l3.1-5h3.1h3.1h3.1h3.1h3.1h3.1h3.1h3.1h3.1h3.1h3.1h3.1h3.1l3.1,5h3.1h3.1h3.1l3.1,5h3.1
	h3.1h3.1h3.1l3.1,5h3.1h3.1h3.1h3.1h3.1l3.1,5h3.1h3.1h3.1h3.1l3.1,5h3.1h3.1h3.1l3.1,5h3.1h3.1l3.1,5h3.1l3.1,5h3.1h3.1l3.1,5h3.1
	h3.1l3.1,5h3.1h3.1h3.1l3.1,5h3.1h3.1h3.1"/>
<path class="st7" d="M936.8,323l2.7-4.4h2.7l2.7-4.4h2.7l2.7-4.4h2.7l2.7-4.4h2.7l2.7-4.4h2.7l2.7,4.4l2.7,8.7l2.7,4.4l2.7,8.7
	l2.7,4.4l2.7,8.7l2.7,4.4l2.7,8.7l2.7,4.4l2.7,8.7l2.7,4.4l2.7,4.4l2.7,4.4l2.7,4.4l2.7,4.4l2.7,4.4l2.7,8.7l2.7,4.4l2.7,4.4
	l2.7,4.4l2.7,4.4l2.7,4.4l2.7,4.4l2.7,4.4l2.7,4.4l2.7,4.4l2.7,4.4h2.7l2.7,4.4h2.7l2.7,4.4h2.7l2.7,4.4l2.7,4.4h2.7l2.7,4.4
	l2.7,4.4h2.7l2.7,4.4l2.7,4.4h2.7l2.7,4.4h2.7l2.7,4.4h2.7l2.7,4.4h2.7h2.7l2.7,4.4h2.7l2.7,4.4h2.7l2.7,4.4h2.7h2.7l2.7,4.4h2.7
	l2.7,4.4h2.7h2.7h2.7l2.7,4.4h2.7h2.7h2.7h2.7h2.7h2.7h2.7h2.7h2.7h2.7h2.7h2.7l2.7,4.4h2.7h2.7h2.7h2.7h2.7"/>
<path class="st8" d="M936.8,331.4l2.5-4.1h2.5l2.5-4.1h2.5l2.5-4.1h2.5l2.5-4.1h2.5l2.5-4.1h2.5l2.5,8.2l2.5,12.4l2.5,12.4l2.5,12.4
	l2.5,8.2l2.5,12.4l2.5,12.4l2.5,12.4l2.5,8.2l2.5,12.4l2.5,4.1l2.5,4.1l2.5,8.2l2.5,4.1l2.5,4.1l2.5,8.2l2.5,4.1l2.5,4.1l2.5,8.2
	l2.5,4.1h2.5l2.5,4.1l2.5,4.1h2.5l2.5,4.1h2.5l2.5,4.1l2.5,4.1h2.5l2.5,4.1h2.5h2.5l2.5,4.1h2.5h2.5l2.5,4.1h2.5h2.5h2.5l2.5,4.1
	h2.5l2.5,4.1h2.5h2.5l2.5,4.1h2.5l2.5,4.1h2.5l2.5,4.1h2.5h2.5h2.5h2.5l2.5,4.1h2.5h2.5h2.5h2.5h2.5l2.5,4.1h2.5h2.5h2.5h2.5h2.5
	h2.5h2.5h2.5h2.5h2.5h2.5l2.5,4.1h2.5h2.5h2.5l2.5,4.1h2.5h2.5h2.5l2.5,4.1"/>
</svg>
